<svg width="296" height="215" viewBox="0 0 296 215" fill="none" xmlns="http://www.w3.org/2000/svg">
<path opacity="0.1" d="M152.942 41.5468C134.279 45.0376 115.641 43.5411 97.7122 41.3644C79.7834 39.1878 61.899 36.3454 43.2275 37.2021C31.2165 37.7521 17.8405 40.3861 9.45397 48.042C1.38129 55.4057 0.123445 65.3425 0.107755 74.3126C0.0868343 81.0597 0.615076 88.0412 4.93515 93.4163C7.93724 97.1444 12.558 99.8161 16.0387 103.258C28.149 115.212 24.467 134.035 16.5199 150.039C12.7908 157.547 8.23013 164.931 5.69091 172.616C3.15168 180.301 2.81434 188.536 7.35931 194.802C11.852 200.982 20.5627 204.496 29.6579 206.311C48.1045 209.998 68.6563 207.709 88.5412 204.606C132.547 197.737 176.101 186.993 219.561 176.274C235.641 172.306 251.792 168.32 267.283 162.601C275.887 159.417 284.647 155.454 290.204 149.286C297.265 141.471 297.443 130.781 290.638 124.393C279.221 113.684 253.379 116.06 244.548 103.816C239.689 97.075 241.805 87.9197 245.672 79.8324C253.965 62.4885 269.992 45.3531 267.916 28.0613C266.483 16.1938 255.549 6.37276 240.895 3.81401C225.534 1.1337 205.806 6.21645 196.962 18.1592C187.869 30.4637 169.422 38.467 152.942 41.5468Z" fill="#B1AEFC"/>
<path d="M156.691 213.154C156.697 213.144 156.702 213.138 156.708 213.129C156.697 213.166 156.686 213.203 156.677 213.244L156.691 213.154Z" fill="#F0F0F0"/>
<path d="M160.535 207.321C160.314 207.65 160.087 207.97 159.857 208.29C159.636 208.597 159.415 208.904 159.194 209.215C158.616 210.004 158.1 210.848 157.651 211.735C157.427 212.196 157.239 212.678 157.092 213.175L156.736 213.085C156.728 213.101 156.718 213.115 156.708 213.129C156.711 213.113 156.716 213.097 156.722 213.082C157.374 210.823 158.858 209.072 160.146 207.191C160.191 207.129 160.233 207.066 160.275 207.004L160.535 207.321Z" fill="white"/>
<path d="M157.299 195.622L156.776 198.162L156.902 198.314C156.874 198.391 156.846 198.469 156.812 198.546C156.534 199.243 156.216 199.919 155.86 200.57C155.39 201.436 154.864 202.271 154.318 203.091C154.018 203.544 153.71 203.994 153.403 204.441C153.394 204.456 153.385 204.471 153.375 204.485C153.378 204.469 153.383 204.453 153.389 204.438L153.288 204.413L152.708 201.626L152.532 202.067V202.07L152.246 202.799C152.269 202.933 152.291 203.063 152.319 203.193C152.316 203.19 152.316 203.184 152.314 203.181C152.311 203.178 152.311 203.178 152.311 203.175C152.274 203.088 152.235 203.004 152.199 202.917L151.762 204.028L150.877 203.805C150.413 203.538 149.948 203.268 149.486 202.989C143.176 199.192 137.334 194.347 133.401 187.75C131.837 185.122 130.656 182.239 129.899 179.204C128.407 173.176 128.664 166.688 131.38 161.303L131.38 161.301L131.38 161.3L131.381 161.3L131.382 161.299C131.45 161.163 131.52 161.026 131.592 160.89C131.645 161.045 131.696 161.2 131.752 161.355V161.358C132.482 163.466 133.363 165.506 134.386 167.458C134.465 167.61 134.543 167.762 134.627 167.911C137.127 172.565 140.385 176.664 144.234 179.999C144.245 180.01 144.256 180.021 144.268 180.03C144.281 180.042 144.295 180.054 144.31 180.064C145.167 180.809 146.052 181.51 146.967 182.166V182.169C147.681 182.684 148.414 183.171 149.159 183.634C150.746 184.615 152.473 185.559 153.957 186.735C155.399 187.874 156.613 189.231 157.26 191.047C157.311 191.193 157.358 191.339 157.4 191.484L156.247 195.43L157.299 195.622Z" fill="#0B7A75"/>
<path d="M153.685 211.121V211.124L153.4 211.854C152.969 209.197 153.481 206.387 153.125 203.696C153.086 203.395 153.036 203.094 152.971 202.796C152.607 201.095 151.776 199.502 150.298 198.742C149.866 198.524 149.414 198.363 148.949 198.261C148.03 198.043 147.073 197.997 146.146 197.876C145.914 197.845 145.684 197.811 145.461 197.764C144.262 197.558 143.118 197.068 142.107 196.327C140.868 195.351 139.789 194.148 138.916 192.769C138.338 191.904 137.801 191.007 137.306 190.081C137.239 189.963 137.177 189.842 137.113 189.721C135.954 187.496 135.004 185.145 134.277 182.706C133.902 181.459 133.588 180.19 133.336 178.906C132.775 176.1 132.506 173.231 132.533 170.357C132.533 170.357 132.533 170.356 132.533 170.356C132.533 170.356 132.533 170.355 132.534 170.355C132.534 170.355 132.534 170.354 132.535 170.354C132.535 170.354 132.535 170.354 132.536 170.354C132.533 170.224 132.536 170.093 132.538 169.963C132.544 169.696 132.916 169.755 132.911 170.022C132.908 170.152 132.905 170.28 132.905 170.41V170.413C132.882 173.167 133.133 175.915 133.653 178.608C133.681 178.745 133.709 178.881 133.734 179.018C134.491 182.75 135.763 186.33 137.505 189.631C137.524 189.668 137.544 189.706 137.566 189.743C137.972 190.509 138.409 191.254 138.868 191.984C139.711 193.388 140.749 194.637 141.942 195.684C142.946 196.517 144.111 197.077 145.346 197.32C145.469 197.345 145.592 197.37 145.718 197.391C145.816 197.41 145.917 197.426 146.018 197.438C146.961 197.568 147.93 197.618 148.867 197.817C149.294 197.906 149.712 198.036 150.119 198.205C150.784 198.5 151.385 198.948 151.883 199.52C152.381 200.091 152.764 200.773 153.008 201.52C153.257 202.245 153.428 203.001 153.517 203.771C153.548 204.022 153.57 204.273 153.59 204.528V204.531C153.618 204.941 153.632 205.354 153.638 205.767C153.643 206.282 153.635 206.797 153.624 207.309C153.561 208.58 153.582 209.854 153.685 211.121Z" fill="#F5F9E9"/>
<path d="M137.465 189.994C136.398 190.595 135.174 190.756 134.01 190.448C132.846 190.14 131.819 189.383 131.112 188.313C130.97 188.096 131.267 187.84 131.41 188.058C132.067 189.056 133.023 189.76 134.108 190.045C135.192 190.329 136.332 190.174 137.322 189.608C137.538 189.486 137.679 189.872 137.465 189.994H137.465Z" fill="#F5F9E9"/>
<path d="M145.31 197.444C146.089 194.874 145.966 192.072 144.965 189.597C144.866 189.352 145.214 189.194 145.313 189.439C146.35 192.016 146.473 194.932 145.657 197.605C145.579 197.86 145.232 197.698 145.31 197.444H145.31Z" fill="#F5F9E9"/>
<path d="M133.544 178.647C134 178.509 134.419 178.249 134.762 177.888C135.105 177.527 135.362 177.078 135.51 176.579C135.585 176.324 135.932 176.486 135.857 176.74C135.692 177.29 135.407 177.786 135.029 178.186C134.651 178.585 134.19 178.876 133.687 179.033C133.64 179.052 133.589 179.051 133.544 179.03C133.498 179.008 133.461 178.969 133.441 178.919C133.423 178.868 133.423 178.81 133.442 178.759C133.461 178.708 133.498 178.668 133.544 178.647H133.544Z" fill="#F5F9E9"/>
<path d="M162.834 194.455L162.442 195.976L160.034 195.476L159.237 198.205L159.099 198.673L158.553 200.539L157.4 204.484L158.453 204.677L157.929 207.216L158.055 207.368L158.094 207.415L158.355 207.731L159.939 209.65L155.606 213.763L154.911 213.586L154.556 213.496C154.548 213.511 154.538 213.526 154.528 213.539C154.531 213.523 154.536 213.508 154.542 213.493L154.441 213.468L153.862 210.68L153.685 211.121V211.124L153.4 211.854C153.422 211.987 153.445 212.118 153.473 212.248C153.47 212.245 153.47 212.239 153.467 212.236C153.464 212.232 153.464 212.232 153.464 212.229C153.428 212.142 153.389 212.059 153.352 211.972C152.798 210.69 152.269 209.389 151.779 208.073C150.572 204.903 149.624 201.619 148.949 198.261C148.921 198.115 148.89 197.969 148.868 197.82V197.817C148.457 195.645 148.207 193.44 148.12 191.223V191.22C148.075 190.007 148.087 188.791 148.154 187.579C148.331 184.446 148.951 181.363 149.993 178.443C149.998 178.428 150.004 178.416 150.01 178.4C152.006 172.831 155.519 168.001 160.295 165.428C160.493 165.316 160.698 165.21 160.902 165.111H160.908L160.911 165.108C161.039 165.046 161.165 164.987 161.294 164.925C161.252 165.086 161.207 165.248 161.168 165.412C160.603 167.581 160.199 169.798 159.959 172.04V172.043C159.936 172.213 159.917 172.39 159.9 172.564V172.567C159.372 177.975 159.753 183.444 161.025 188.697C161.028 188.712 161.034 188.725 161.037 188.74C161.512 190.69 162.112 192.6 162.834 194.455Z" fill="#0B7A75"/>
<path d="M161.386 165.099C161.314 165.201 161.238 165.307 161.168 165.412C160.622 166.198 160.106 167.008 159.62 167.843C158.754 169.316 157.985 170.857 157.319 172.453C157.266 172.577 157.212 172.704 157.162 172.831C155.736 176.318 154.807 180.03 154.407 183.833C154.402 183.87 154.399 183.904 154.396 183.941C154.304 184.829 154.244 185.72 154.217 186.614C154.128 188.297 154.278 189.986 154.662 191.618C154.718 191.832 154.78 192.043 154.847 192.248C155.015 192.75 155.226 193.233 155.477 193.691C155.657 194.026 155.857 194.346 156.076 194.651C156.207 194.837 156.345 195.02 156.49 195.197C156.574 195.299 156.661 195.402 156.748 195.504C156.821 195.582 156.891 195.663 156.963 195.74C157.719 196.553 158.553 197.308 159.236 198.205L159.099 198.674C158.441 197.749 157.593 196.982 156.829 196.175C156.349 195.674 155.912 195.126 155.524 194.536C155.474 194.455 155.421 194.374 155.373 194.29C155.114 193.87 154.89 193.425 154.704 192.959C154.609 192.726 154.522 192.487 154.444 192.239C153.987 190.634 153.778 188.954 153.828 187.272C153.837 186.194 153.895 185.118 154.002 184.047C154.013 183.907 154.027 183.77 154.044 183.631C154.327 181.081 154.845 178.57 155.589 176.137C156.53 173.051 157.825 170.111 159.441 167.39C159.903 166.611 160.393 165.85 160.91 165.108C160.978 165.006 161.048 164.906 161.12 164.804C161.269 164.593 161.535 164.888 161.386 165.099Z" fill="#F5F9E9"/>
<path d="M154.177 184.086C152.999 183.853 151.934 183.164 151.172 182.141C150.41 181.119 150.001 179.829 150.017 178.502C150.018 178.448 150.038 178.397 150.073 178.358C150.108 178.32 150.154 178.299 150.203 178.298C150.252 178.297 150.299 178.318 150.334 178.355C150.37 178.392 150.391 178.443 150.393 178.497C150.376 179.732 150.757 180.934 151.469 181.885C152.18 182.835 153.174 183.473 154.272 183.682C154.511 183.728 154.414 184.131 154.177 184.086Z" fill="#F5F9E9"/>
<path d="M156.395 195.271C158.413 193.739 159.836 191.42 160.381 188.776C160.434 188.514 160.798 188.62 160.745 188.882C160.173 191.632 158.688 194.042 156.585 195.631C156.384 195.783 156.195 195.422 156.395 195.271H156.395Z" fill="#F5F9E9"/>
<path d="M157.207 172.408C157.646 172.603 158.122 172.674 158.592 172.615C159.062 172.556 159.511 172.369 159.899 172.069C160.098 171.915 160.286 172.277 160.089 172.43C159.658 172.758 159.162 172.964 158.643 173.031C158.124 173.097 157.598 173.022 157.112 172.811C157.064 172.795 157.024 172.76 156.999 172.713C156.974 172.666 156.967 172.61 156.978 172.556C156.99 172.503 157.022 172.457 157.065 172.43C157.108 172.402 157.159 172.394 157.207 172.408Z" fill="#F5F9E9"/>
<path d="M197.115 34.7443C194.996 22.1661 198.332 7.85636 207.607 0.242798C207.081 14.1456 211.007 27.8066 218.69 38.8085C221.667 43.0396 225.376 47.4019 225.261 52.7669C225.189 56.1051 223.561 59.215 221.415 61.5579C219.27 63.9008 216.627 65.59 214.015 67.2528L213.609 67.954C205.954 58.3793 199.234 47.3224 197.115 34.7443Z" fill="#0B7A75"/>
<path d="M207.776 0.435094C203.879 10.105 202.83 20.8905 204.776 31.2596C205.205 33.4782 205.814 35.6875 206.848 37.6586C207.869 39.5713 209.333 41.146 211.088 42.2191C212.707 43.2562 214.47 44.1091 215.833 45.5643C217.27 47.0982 217.91 49.1917 217.857 51.3789C217.791 54.0551 216.863 56.5457 215.878 58.9463C214.785 61.6117 213.612 64.361 213.683 67.3577C213.692 67.7207 213.183 67.7143 213.174 67.3518C213.051 62.1381 216.45 57.951 217.208 52.9482C217.561 50.6139 217.282 48.1473 215.802 46.3378C214.508 44.7555 212.69 43.8743 211.043 42.84C209.314 41.754 207.841 40.4122 206.747 38.552C205.628 36.6492 204.939 34.4617 204.461 32.265C203.409 27.2746 203.072 22.132 203.461 17.0255C203.877 11.1947 205.188 5.4857 207.339 0.14537C207.473 -0.1851 207.908 0.106781 207.776 0.435094H207.776Z" fill="#F5F9E9"/>
<path d="M203.972 27.9617C202.359 28.0876 200.758 27.5735 199.455 26.5113C198.152 25.449 197.232 23.9078 196.859 22.1628C196.785 21.8094 197.276 21.6647 197.351 22.0186C197.695 23.6442 198.552 25.0798 199.767 26.0662C200.983 27.0526 202.476 27.5249 203.977 27.3977C204.304 27.3705 204.296 27.9346 203.972 27.9617Z" fill="#F5F9E9"/>
<path d="M210.205 41.8131C212.395 39.067 213.571 35.5065 213.499 31.8415C213.492 31.4784 214 31.4847 214.008 31.8474C214.076 35.6614 212.846 39.3639 210.561 42.216C210.343 42.4877 209.989 42.0833 210.205 41.8131V41.8131Z" fill="#F5F9E9"/>
<path d="M204.473 11.545C205.106 11.6405 205.751 11.5601 206.349 11.311C206.947 11.0618 207.481 10.6518 207.901 10.1177C208.116 9.84309 208.47 10.2478 208.257 10.5206C207.79 11.1083 207.201 11.5604 206.54 11.8372C205.879 12.1141 205.168 12.2074 204.467 12.1089C204.4 12.1058 204.337 12.0746 204.291 12.0216C204.244 11.9687 204.217 11.898 204.216 11.824C204.217 11.7493 204.244 11.6781 204.292 11.6259C204.34 11.5737 204.405 11.5446 204.473 11.545V11.545Z" fill="#F5F9E9"/>
<path d="M245.534 10.6467C245.404 10.8224 245.275 10.9981 245.146 11.1784C243.414 13.5506 241.858 16.0749 240.495 18.7264C240.386 18.9296 240.279 19.1373 240.176 19.3434C236.952 25.7704 234.832 32.8053 233.924 40.0904C233.565 42.9896 233.406 45.915 233.447 48.8411C233.505 52.8821 233.857 57.2586 232.74 60.9753C232.627 61.3645 232.493 61.7456 232.338 62.1164L214.412 68.4495C214.365 68.4412 214.319 68.4375 214.271 68.4293L213.566 68.7184C213.554 68.5677 213.545 68.4111 213.533 68.2603C213.526 68.1729 213.523 68.0841 213.516 67.9967C213.513 67.938 213.509 67.8791 213.503 67.8264C213.502 67.8068 213.501 67.7872 213.501 67.7722C213.495 67.7194 213.494 67.6697 213.49 67.6214C213.436 66.7461 213.387 65.8693 213.346 64.9896C213.345 64.9851 213.345 64.9851 213.347 64.9791C213.04 58.279 213.234 51.4916 214.351 44.9525C214.384 44.7558 214.416 44.5546 214.458 44.355C214.977 41.4106 215.711 38.5181 216.654 35.7064C217.175 34.1686 217.766 32.6611 218.424 31.1896C220.132 27.391 222.368 23.914 225.05 20.8859C230.398 14.8503 237.427 10.7785 244.959 10.6502C245.151 10.6471 245.34 10.6453 245.534 10.6467Z" fill="#0B7A75"/>
<path d="M245.566 10.9134C237.205 16.033 230.511 23.9438 226.434 33.5222C225.573 35.5802 224.86 37.751 224.615 40.0149C224.391 42.2236 224.705 44.4584 225.524 46.4871C226.253 48.3956 227.198 50.2542 227.497 52.326C227.811 54.5099 227.185 56.6085 225.955 58.3193C224.45 60.4125 222.356 61.7812 220.267 63.0407C217.947 64.4392 215.517 65.8511 213.947 68.291C213.756 68.5867 213.354 68.242 213.544 67.9468C216.276 63.7017 221.264 62.6278 224.585 59.1391C226.134 57.5112 227.251 55.3556 227.052 52.9228C226.877 50.7954 225.904 48.8779 225.151 46.9525C224.36 44.9309 223.913 42.8767 224.049 40.6609C224.188 38.3942 224.826 36.1879 225.637 34.1146C227.507 29.4281 230.03 25.0969 233.113 21.2795C236.611 16.9012 240.758 13.2184 245.375 10.3907C245.661 10.2158 245.85 10.7397 245.566 10.9134V10.9134Z" fill="#F5F9E9"/>
<path d="M227.583 30.3523C226.227 29.3758 225.228 27.8964 224.764 26.1784C224.3 24.4604 224.403 22.6155 225.052 20.9734C225.185 20.6416 225.656 20.8543 225.523 21.1866C224.916 22.7145 224.821 24.433 225.255 26.0318C225.69 27.6307 226.626 29.0046 227.894 29.9056C228.169 30.1017 227.857 30.5473 227.583 30.3523H227.583Z" fill="#F5F9E9"/>
<path d="M225.039 45.5733C228.279 44.8428 231.151 42.7851 233.083 39.8106C233.275 39.5157 233.677 39.8603 233.486 40.1548C231.47 43.246 228.477 45.3806 225.105 46.1326C224.783 46.2041 224.72 45.6444 225.039 45.5733H225.039Z" fill="#F5F9E9"/>
<path d="M236.897 17.5785C237.35 18.0776 237.909 18.4439 238.522 18.6445C239.135 18.8451 239.783 18.8737 240.409 18.7278C240.729 18.6518 240.793 19.2116 240.474 19.287C239.782 19.4447 239.066 19.4121 238.389 19.1922C237.711 18.9722 237.092 18.5716 236.586 18.0253C236.534 17.9782 236.501 17.9111 236.492 17.8377C236.484 17.7642 236.501 17.6899 236.54 17.6298C236.581 17.5709 236.642 17.5324 236.709 17.5229C236.775 17.5133 236.843 17.5333 236.897 17.5786V17.5785Z" fill="#F5F9E9"/>
<path d="M130.342 19.7182C129.352 18.9429 128.268 18.1344 127.056 18.1667C124.123 18.2449 122.541 23.0136 119.61 22.8459C117.741 22.739 116.501 20.6337 114.761 19.8704C112.495 18.8766 109.612 20.8202 109.365 23.5078L109.656 23.2125C118.462 25.5931 127.601 26.0613 136.568 24.5911C134.493 22.9668 132.418 21.3425 130.342 19.7182Z" fill="#F5F9E9"/>
<path d="M135.831 25.4543C141.453 25.4543 146.01 20.4007 146.01 14.1667C146.01 7.93278 141.453 2.87915 135.831 2.87915C130.209 2.87915 125.652 7.93278 125.652 14.1667C125.652 20.4007 130.209 25.4543 135.831 25.4543Z" fill="#DB5461"/>
<path d="M159.659 12.0104C158.396 11.0223 157.015 9.99199 155.471 10.0332C151.732 10.1329 149.716 16.2101 145.982 15.9964C143.6 15.8601 142.019 13.1772 139.801 12.2044C136.914 10.9379 133.24 13.4148 132.925 16.8399L133.296 16.4636C144.519 19.4974 156.165 20.0941 167.593 18.2205C164.948 16.1505 162.303 14.0804 159.659 12.0104Z" fill="#F5F9E9"/>
<path d="M251.223 125.321L240.42 61.1833C240.235 60.126 239.732 59.1697 238.993 58.4712C238.254 57.7727 237.322 57.3734 236.351 57.3389C236.264 57.3367 236.177 57.3367 236.089 57.3389L228.73 57.6316L227.938 57.6639L224.266 57.8103L223.474 57.8404L221.111 57.9351L173.475 59.8315C173.403 59.8358 173.329 59.8358 173.257 59.8336L162.583 59.5861L158.633 59.4957L158.506 59.4936L155.591 59.4247L130.185 58.8392L123.449 58.6821L120.128 58.6067L119.332 58.5873L115.544 58.5012L114.75 58.4819L110.876 58.3936L110.082 58.3743L105.825 58.2752L105.157 58.2602L101.36 58.1719L100.76 58.159H100.673C99.6651 58.1635 98.691 58.5631 97.923 59.2871C97.155 60.0111 96.6426 61.0129 96.4763 62.1153L86.7064 128.671C86.6071 129.345 86.6413 130.035 86.8064 130.693C86.9716 131.351 87.2638 131.962 87.6628 132.482C88.0618 133.003 88.5581 133.421 89.1173 133.707C89.6765 133.994 90.2852 134.143 90.9012 134.142H147.009C147.835 134.145 148.638 134.439 149.303 134.982L150.367 135.856C151.1 136.454 151.986 136.778 152.896 136.781H185.962C186.521 136.783 187.075 136.662 187.591 136.424C188.107 136.187 188.575 135.839 188.969 135.4C189.643 134.653 190.542 134.209 191.493 134.153L247.267 130.894C247.871 130.859 248.463 130.681 249 130.372C249.538 130.063 250.01 129.631 250.385 129.103C250.759 128.575 251.028 127.965 251.172 127.313C251.317 126.66 251.334 125.982 251.223 125.321V125.321Z" fill="#CCCCCC"/>
<path d="M242.383 123.578L236.361 57.425C236.359 57.397 236.355 57.3669 236.351 57.3389C236.239 56.2819 235.768 55.3118 235.035 54.6246L222.082 42.6588C221.519 42.1345 220.818 41.8244 220.084 41.7741C214.158 41.3522 184.029 39.7895 172.908 50.4939C172.571 50.8196 172.173 51.0592 171.743 51.1961C171.313 51.3329 170.861 51.3636 170.42 51.2861C169.977 51.2064 169.555 51.0217 169.182 50.7446C168.81 50.4674 168.495 50.1044 168.261 49.6803C167.315 48.046 166.076 46.645 164.621 45.5647C163.968 45.0617 163.287 44.6037 162.583 44.1936C161.96 43.8298 161.282 43.4768 160.545 43.1367C159.91 42.8439 159.233 42.562 158.507 42.2929C154.743 40.8981 149.711 39.8563 142.987 39.5076C140.197 39.3612 137.165 39.3418 133.976 39.4473C131.064 39.542 127.97 39.7379 124.781 40.0306L124.734 40.0328L103.154 54.6418C102.67 54.9763 102.261 55.4284 101.958 55.9639C101.655 56.4994 101.466 57.1043 101.405 57.7328L101.36 58.1719L94.508 126.064C94.4488 126.641 94.4966 127.225 94.6485 127.781C94.8004 128.336 95.0532 128.852 95.3912 129.295C95.7203 129.727 96.1301 130.075 96.5923 130.314C97.0545 130.554 97.558 130.679 98.0681 130.681H151.241C151.948 130.685 152.633 130.955 153.184 131.445L155.505 133.507C156.11 134.046 156.859 134.347 157.635 134.364L181.014 134.788H181.071C181.661 134.787 182.242 134.62 182.758 134.302L187.267 131.525C187.678 131.271 188.136 131.124 188.606 131.094L238.999 128.143C239.49 128.114 239.97 127.971 240.408 127.722C240.846 127.474 241.232 127.126 241.54 126.701C241.861 126.269 242.1 125.77 242.245 125.234C242.39 124.697 242.436 124.135 242.383 123.578Z" fill="#F5F9E9"/>
<path d="M224.793 111.648L224.087 101.351L221.112 57.9362L220.669 51.5137C220.557 49.8268 219.883 48.2465 218.778 47.0809C217.672 45.9154 216.215 45.2481 214.69 45.2091C203.786 44.8987 184.042 45.445 174.353 52.6436C173.276 53.4559 171.968 53.8062 170.675 53.6291C169.382 53.4521 168.191 52.7599 167.324 51.6813C165.983 50.0493 164.374 48.7165 162.582 47.7545C161.27 47.0253 159.907 46.4169 158.506 45.9355C154.405 44.4827 149.229 43.6001 142.98 43.2876L128.149 43.1914H128.124C127.096 43.1925 126.108 43.6272 125.359 44.4073C124.61 45.1874 124.157 46.2544 124.093 47.3914L123.449 58.6812L120.635 108.193C120.583 109.115 120.7 110.04 120.979 110.911C121.259 111.781 121.695 112.58 122.261 113.258C122.827 113.936 123.512 114.48 124.273 114.855C125.035 115.231 125.857 115.432 126.69 115.444C151.586 115.854 162.461 121.681 167.203 126.492C168.212 127.518 169.5 128.141 170.864 128.264C172.228 128.386 173.59 128.001 174.734 127.169C183.342 120.917 197.653 119.179 209.043 118.908C212.531 118.828 215.745 118.881 218.438 118.986C219.304 119.021 220.166 118.852 220.969 118.492C221.772 118.131 222.497 117.587 223.097 116.894C223.696 116.201 224.158 115.376 224.45 114.472C224.742 113.568 224.859 112.605 224.793 111.648Z" fill="#F5F9E9"/>
<path d="M101.203 126.009C101.194 126.009 101.184 126.008 101.175 126.008C101.123 126.004 101.072 125.988 101.026 125.962C100.979 125.937 100.938 125.901 100.903 125.857C100.869 125.814 100.843 125.763 100.827 125.708C100.81 125.654 100.804 125.596 100.807 125.538L105.091 58.4717C105.094 58.4139 105.107 58.3573 105.13 58.3054C105.153 58.2534 105.186 58.2071 105.225 58.1691C105.265 58.1311 105.31 58.1023 105.36 58.0843C105.41 58.0663 105.462 58.0595 105.514 58.0642C105.566 58.0683 105.617 58.0836 105.663 58.1094C105.71 58.1352 105.751 58.1709 105.786 58.2145C105.82 58.258 105.846 58.3086 105.862 58.3634C105.879 58.4181 105.885 58.4759 105.882 58.5335L101.598 125.6C101.591 125.711 101.546 125.815 101.473 125.891C101.4 125.967 101.303 126.009 101.203 126.009Z" fill="#F5F9E9"/>
<path d="M106.358 123.371C106.348 123.371 106.339 123.37 106.329 123.369C106.277 123.365 106.227 123.35 106.18 123.324C106.134 123.298 106.092 123.263 106.058 123.219C106.024 123.176 105.998 123.125 105.981 123.07C105.965 123.015 105.958 122.958 105.962 122.9L110.245 55.8335C110.248 55.7757 110.262 55.7191 110.285 55.6672C110.308 55.6152 110.34 55.5689 110.38 55.5309C110.419 55.493 110.465 55.4641 110.515 55.4461C110.564 55.4281 110.617 55.4213 110.669 55.426C110.721 55.4301 110.771 55.4454 110.818 55.4712C110.864 55.497 110.906 55.5327 110.94 55.5763C110.974 55.6199 111 55.6705 111.017 55.7252C111.033 55.78 111.04 55.8378 111.036 55.8953L106.753 122.962C106.746 123.073 106.701 123.177 106.628 123.253C106.554 123.328 106.458 123.371 106.358 123.371Z" fill="#F5F9E9"/>
<path d="M111.116 122.052C111.107 122.052 111.097 122.051 111.088 122.05C111.036 122.046 110.985 122.031 110.939 122.005C110.892 121.979 110.85 121.944 110.816 121.9C110.782 121.856 110.756 121.806 110.74 121.751C110.723 121.696 110.717 121.639 110.72 121.581L115.004 54.5144C115.007 54.4566 115.02 54.4001 115.043 54.3481C115.066 54.2961 115.098 54.2498 115.138 54.2118C115.177 54.1739 115.223 54.145 115.273 54.127C115.323 54.109 115.375 54.1022 115.427 54.1069C115.479 54.111 115.53 54.1263 115.576 54.1521C115.623 54.1779 115.664 54.2136 115.698 54.2572C115.732 54.3008 115.759 54.3514 115.775 54.4061C115.791 54.4609 115.798 54.5187 115.794 54.5762L111.511 121.643C111.504 121.754 111.459 121.858 111.386 121.933C111.313 122.009 111.216 122.051 111.116 122.052Z" fill="#F5F9E9"/>
<path d="M115.874 119.414C115.865 119.414 115.855 119.413 115.846 119.412C115.794 119.408 115.743 119.393 115.697 119.367C115.65 119.341 115.608 119.306 115.574 119.262C115.54 119.219 115.514 119.168 115.498 119.113C115.481 119.058 115.475 119.001 115.478 118.943L119.762 51.8765C119.765 51.8187 119.778 51.7621 119.801 51.7102C119.824 51.6582 119.856 51.6119 119.896 51.5739C119.935 51.5359 119.981 51.5071 120.031 51.4891C120.08 51.4711 120.133 51.4642 120.185 51.469C120.237 51.4731 120.288 51.4884 120.334 51.5142C120.381 51.54 120.422 51.5757 120.456 51.6192C120.49 51.6628 120.516 51.7134 120.533 51.7682C120.549 51.8229 120.556 51.8807 120.552 51.9383L116.269 119.005C116.262 119.116 116.217 119.22 116.144 119.295C116.071 119.371 115.974 119.414 115.874 119.414Z" fill="#F5F9E9"/>
<path d="M237.602 126.448C237.611 126.448 237.621 126.448 237.63 126.447C237.682 126.443 237.733 126.428 237.78 126.402C237.826 126.376 237.868 126.34 237.902 126.297C237.936 126.253 237.962 126.203 237.979 126.148C237.995 126.093 238.002 126.035 237.998 125.978L233.715 58.9111C233.711 58.8533 233.698 58.7968 233.675 58.7448C233.652 58.6929 233.62 58.6465 233.58 58.6086C233.541 58.5706 233.495 58.5418 233.445 58.5238C233.396 58.5057 233.343 58.4989 233.291 58.5037C233.239 58.5077 233.189 58.5231 233.142 58.5488C233.096 58.5746 233.054 58.6103 233.02 58.6539C232.986 58.6975 232.96 58.7481 232.943 58.8028C232.927 58.8576 232.92 58.9154 232.924 58.973L237.207 126.04C237.214 126.15 237.259 126.254 237.332 126.33C237.405 126.406 237.502 126.448 237.602 126.448Z" fill="#F5F9E9"/>
<path d="M232.448 122.491C232.457 122.491 232.467 122.491 232.476 122.49C232.528 122.486 232.579 122.471 232.625 122.445C232.672 122.419 232.713 122.383 232.747 122.34C232.781 122.296 232.807 122.246 232.824 122.191C232.84 122.136 232.847 122.078 232.843 122.021L228.56 54.9541C228.557 54.8963 228.543 54.8398 228.52 54.7878C228.497 54.7358 228.465 54.6895 228.426 54.6515C228.386 54.6136 228.34 54.5847 228.291 54.5667C228.241 54.5487 228.189 54.5419 228.137 54.5466C228.085 54.5507 228.034 54.566 227.988 54.5918C227.941 54.6176 227.899 54.6533 227.865 54.6969C227.831 54.7405 227.805 54.7911 227.789 54.8458C227.772 54.9006 227.766 54.9584 227.769 55.0159L232.053 122.083C232.06 122.193 232.104 122.297 232.178 122.373C232.251 122.449 232.347 122.491 232.448 122.491Z" fill="#F5F9E9"/>
<path d="M227.69 118.095C227.699 118.095 227.709 118.094 227.718 118.093C227.77 118.089 227.82 118.074 227.867 118.048C227.914 118.022 227.955 117.987 227.989 117.943C228.023 117.899 228.049 117.849 228.066 117.794C228.082 117.739 228.089 117.682 228.085 117.624L223.802 50.5574C223.799 50.4996 223.785 50.443 223.762 50.3911C223.739 50.3391 223.707 50.2928 223.668 50.2548C223.628 50.2168 223.582 50.188 223.533 50.17C223.483 50.152 223.431 50.1451 223.379 50.1499C223.327 50.154 223.276 50.1693 223.23 50.1951C223.183 50.2209 223.141 50.2566 223.107 50.3002C223.073 50.3437 223.047 50.3943 223.031 50.4491C223.014 50.5038 223.008 50.5616 223.011 50.6192L227.295 117.686C227.302 117.797 227.346 117.901 227.42 117.976C227.493 118.052 227.589 118.094 227.69 118.095Z" fill="#F5F9E9"/>
<path d="M130.382 58.3418C139.319 55.1798 149.29 56.0169 157.758 60.4715C160.174 61.7359 162.455 63.2942 164.561 65.1177C165.156 65.6361 166.004 64.7089 165.402 64.185C157.625 57.4963 147.853 54.3188 138.05 55.291C135.338 55.5601 132.661 56.1566 130.065 57.0699C129.339 57.3269 129.649 58.6008 130.382 58.3418H130.382Z" fill="#3F3D56"/>
<path d="M179.563 65.6296C187.872 60.7863 197.823 59.7302 206.858 62.4794C209.434 63.2613 211.923 64.3588 214.28 65.7516C214.955 66.1511 215.556 65.0129 214.88 64.6127C206.269 59.5177 195.933 58.3448 186.529 61.1849C183.906 61.9787 181.369 63.0871 178.962 64.4906C178.284 64.8857 178.885 66.0246 179.563 65.6296Z" fill="#3F3D56"/>
<path d="M179.563 74.423C187.872 69.5798 197.823 68.5237 206.858 71.2729C209.434 72.0548 211.923 73.1523 214.28 74.5451C214.955 74.9445 215.556 73.8063 214.88 73.4061C206.269 68.3111 195.933 67.1383 186.529 69.9784C183.906 70.7721 181.369 71.8806 178.962 73.2841C178.284 73.6791 178.885 74.818 179.563 74.423V74.423Z" fill="#3F3D56"/>
<path d="M215.171 82.7449C215.178 82.6317 215.153 82.519 215.101 82.4215C215.048 82.324 214.971 82.2462 214.878 82.1982C207.98 78.1928 200.159 76.5683 192.421 77.5337C192.372 77.538 192.328 77.5466 192.275 77.5509H192.273C192.226 77.5557 192.178 77.5636 192.131 77.5746C187.529 78.1619 183.064 79.6878 178.963 82.0755C178.873 82.1346 178.799 82.2184 178.748 82.3188C178.696 82.4192 178.669 82.5326 178.669 82.6481V99.0523C178.671 99.1533 178.693 99.2525 178.734 99.3425C178.775 99.4326 178.835 99.5111 178.907 99.572C178.98 99.633 179.064 99.6749 179.153 99.6945C179.242 99.7141 179.335 99.7109 179.423 99.6852C179.605 99.627 179.788 99.5711 179.974 99.5173C184.121 98.2726 188.378 97.5342 192.669 97.3152C192.76 97.3109 192.852 97.3066 192.947 97.3023C196.442 97.1358 199.944 97.2755 203.419 97.7199C203.492 97.7245 203.565 97.7331 203.637 97.7457C203.815 97.7673 203.998 97.7909 204.176 97.8168C204.248 97.8254 204.316 97.834 204.382 97.8469C205.077 97.9438 205.766 98.0535 206.457 98.1719C207.455 98.3484 208.453 98.545 209.451 98.7617C209.513 98.7746 209.577 98.7919 209.641 98.8048C211.242 99.1578 212.836 99.5668 214.422 100.019C214.51 100.044 214.603 100.047 214.692 100.027C214.781 100.007 214.866 99.9644 214.938 99.903C215.011 99.8417 215.07 99.7629 215.111 99.6726C215.152 99.5823 215.174 99.4828 215.175 99.3816V82.7707C215.176 82.7619 215.174 82.753 215.171 82.7449Z" fill="#3F3D56"/>
<path d="M193.353 78.4282C192.918 78.1915 192.418 78.1428 191.952 78.2917C191.746 78.3773 191.557 78.5075 191.397 78.6746C191.237 78.8417 191.108 79.0425 191.018 79.2652C190.857 79.6923 190.753 80.1436 190.711 80.6044C190.686 80.7857 190.685 81.0144 190.849 81.099C190.909 81.123 190.973 81.1284 191.035 81.1148C191.097 81.1011 191.155 81.0688 191.202 81.0215C191.287 80.9287 191.357 80.8205 191.409 80.7016C191.694 80.2095 192.087 79.805 192.55 79.5255C193.014 79.2461 193.533 79.1006 194.061 79.1027L194.5 79.2968C194.155 78.9517 193.769 78.6596 193.353 78.4282Z" fill="#DB5461"/>
<path d="M198.106 82.2091C197.766 81.6527 197.362 81.0587 196.729 80.8771C195.997 80.6667 195.244 81.0846 194.606 81.497C192.708 82.7225 190.871 84.059 189.101 85.5007L189.103 85.5223L193.211 85.2426C194.2 85.1753 195.224 85.0987 196.098 84.6367C196.412 84.4184 196.763 84.2735 197.129 84.2109C197.357 84.2246 197.579 84.288 197.784 84.3975C197.989 84.507 198.173 84.6605 198.324 84.849C200.217 86.839 200.765 89.8822 202.889 91.6305C201.537 88.346 199.937 85.1943 198.106 82.2091Z" fill="#F5F9E9"/>
<path d="M192.947 97.302C192.852 97.3064 192.761 97.3108 192.67 97.3152C192.008 97.0514 191.33 96.8183 190.644 96.6161C190.2 96.4842 189.748 96.3655 189.296 96.2644C188.784 96.1413 188.269 96.0445 187.753 95.961C186.772 95.8027 185.783 95.7102 184.791 95.684C184.784 95.6849 184.776 95.684 184.769 95.6815C184.762 95.6789 184.755 95.6747 184.75 95.6691C184.744 95.6635 184.739 95.6566 184.736 95.649C184.733 95.6413 184.732 95.633 184.732 95.6246C184.732 95.6163 184.733 95.608 184.736 95.6003C184.739 95.5927 184.744 95.5858 184.75 95.5802C184.755 95.5746 184.762 95.5704 184.769 95.5678C184.776 95.5653 184.784 95.5644 184.791 95.5653C184.918 95.5653 185.045 95.5697 185.168 95.5785C186.162 95.6192 187.152 95.7264 188.134 95.8995C188.645 95.9918 189.157 96.1017 189.664 96.2248C190.124 96.3391 190.584 96.4667 191.036 96.6073C191.683 96.8096 192.32 97.0411 192.947 97.302Z" fill="#F5F9E9"/>
<path d="M204.383 97.8473C204.316 97.8341 204.248 97.8253 204.177 97.8165C203.903 97.5659 203.626 97.3285 203.336 97.0954C202.975 96.8052 202.603 96.5327 202.222 96.2776C201.379 95.7102 200.499 95.2134 199.589 94.7915C198.151 94.1273 196.662 93.6064 195.14 93.235C193.405 92.8134 191.648 92.508 189.879 92.3205C188.11 92.1182 186.334 91.9951 184.557 91.872C184.482 91.8676 184.478 91.7445 184.557 91.7489C184.78 91.7665 185.002 91.7796 185.228 91.7973C187.024 91.9204 188.82 92.0611 190.604 92.2853C192.373 92.4956 194.128 92.8334 195.858 93.2966C197.335 93.7001 198.776 94.2489 200.164 94.9366C200.963 95.3345 201.736 95.7913 202.48 96.304C202.952 96.6338 203.408 96.9855 203.844 97.3592C204.026 97.5175 204.209 97.6759 204.383 97.8473Z" fill="#F5F9E9"/>
<path d="M203.637 97.7462C203.565 97.7333 203.492 97.7244 203.419 97.7197C203.336 97.645 203.249 97.5747 203.162 97.5043C202.551 97.0198 201.914 96.5778 201.254 96.1809C200.655 95.8197 200.04 95.4925 199.41 95.2004C197.973 94.5343 196.484 94.0133 194.962 93.644C193.226 93.2223 191.469 92.9169 189.7 92.7294C187.931 92.5272 186.155 92.4041 184.379 92.281C184.303 92.2722 184.303 92.1534 184.379 92.1578C184.605 92.1754 184.827 92.1886 185.049 92.2062C186.845 92.3293 188.641 92.47 190.426 92.6942C192.195 92.9045 193.95 93.2423 195.679 93.7055C197.156 94.1083 198.597 94.6571 199.985 95.3455C200.509 95.6093 201.02 95.8951 201.52 96.2073C202.261 96.6583 202.969 97.1729 203.637 97.7462Z" fill="#F5F9E9"/>
<path d="M209.641 98.8057C209.577 98.7925 209.514 98.775 209.45 98.7618C209.379 98.6782 209.311 98.5903 209.244 98.5023C208.903 98.067 208.566 97.6274 208.233 97.1833C206.921 95.451 205.676 93.6658 204.502 91.8456C203.495 90.2891 202.539 88.7019 201.635 87.0839C201.203 86.3188 200.786 85.545 200.378 84.7623C200.061 84.1556 199.752 83.5474 199.45 82.9377C199.363 82.7618 199.28 82.586 199.197 82.4101C199.002 81.9967 198.808 81.5791 198.602 81.1702C198.378 80.6692 198.049 80.235 197.642 79.9039C197.439 79.7531 197.204 79.6637 196.96 79.6445C196.616 79.6459 196.278 79.7426 195.977 79.9259C193.758 81.0714 191.666 82.495 189.74 84.1688C187.859 85.7912 186.158 87.6553 184.672 89.7219C184.625 89.7835 184.522 89.7263 184.565 89.6604C184.744 89.4142 184.926 89.1679 185.108 88.9261C186.536 87.0538 188.143 85.3598 189.902 83.8742C189.906 83.8698 189.914 83.8654 189.918 83.8611C190.073 83.7247 190.227 83.5929 190.386 83.4653C191.368 82.6635 192.39 81.9236 193.447 81.2493C193.986 80.902 194.537 80.5722 195.101 80.2601C195.239 80.1809 195.382 80.1018 195.525 80.027C195.668 79.9479 195.81 79.8732 195.953 79.7984C196.236 79.6386 196.545 79.5444 196.861 79.5214C197.963 79.5038 198.53 80.7349 198.923 81.5659C199.046 81.8253 199.173 82.0847 199.296 82.3441C199.771 83.3246 200.267 84.3007 200.783 85.2636C201.096 85.8616 201.421 86.4552 201.75 87.0443C202.222 87.8841 202.706 88.7151 203.209 89.5417C203.209 89.5423 203.209 89.5429 203.209 89.5434C203.21 89.544 203.21 89.5445 203.21 89.5449C203.211 89.5453 203.211 89.5456 203.212 89.5458C203.212 89.546 203.213 89.5461 203.213 89.5461C203.796 90.5222 204.403 91.4807 205.029 92.4348C206.104 94.066 207.23 95.6606 208.408 97.2185C208.812 97.7549 209.223 98.284 209.641 98.8057Z" fill="#F5F9E9"/>
<path d="M215.176 96.8668V97.0691C214.783 96.5591 214.383 96.0535 213.986 95.5478C213.82 95.3368 213.653 95.1257 213.487 94.9147C212.781 94.0265 212.071 93.1413 211.358 92.259C210.64 91.3797 209.922 90.5003 209.196 89.6253C209.022 89.4143 208.848 89.2033 208.669 88.9922C208.526 88.8149 208.371 88.6502 208.205 88.4997C208.038 88.3452 207.845 88.2273 207.638 88.1524C207.4 88.0791 207.148 88.0761 206.909 88.1436C206.635 88.214 206.373 88.3239 206.108 88.4162C205.834 88.5174 205.564 88.6141 205.291 88.7108C204.744 88.9087 204.2 89.1066 203.653 89.3044C203.646 89.3074 203.639 89.3089 203.632 89.3088C203.625 89.3087 203.617 89.3069 203.611 89.3036C203.604 89.3003 203.598 89.2956 203.593 89.2897C203.588 89.2838 203.584 89.2768 203.582 89.2692C203.579 89.2609 203.577 89.2519 203.578 89.2429C203.578 89.2339 203.58 89.2251 203.584 89.2171C203.588 89.2091 203.593 89.2022 203.6 89.1967C203.606 89.1913 203.614 89.1875 203.622 89.1857C203.756 89.1373 203.895 89.089 204.034 89.0406C204.585 88.8383 205.132 88.6405 205.683 88.4427C205.957 88.3415 206.231 88.2448 206.504 88.148C206.758 88.0412 207.026 87.9817 207.297 87.9722C207.74 88.0075 208.155 88.2237 208.463 88.5789C208.633 88.7548 208.788 88.9394 208.943 89.1285C209.125 89.3484 209.308 89.5682 209.49 89.788C210.223 90.6762 210.952 91.5673 211.675 92.4613C212.4 93.3582 213.119 94.2566 213.832 95.1565C213.883 95.2225 213.935 95.2884 213.986 95.3544C214.387 95.8556 214.779 96.3613 215.176 96.8668Z" fill="#F5F9E9"/>
<path d="M195.494 79.3873L195.385 79.4405C195.133 78.9701 194.781 78.5758 194.36 78.2926C193.938 78.0095 193.459 77.8463 192.967 77.8175C191.344 77.6896 189.918 78.8892 189.788 80.4914C189.735 81.1511 189.908 81.8088 190.271 82.3346L190.169 82.4014C189.791 81.8537 189.611 81.1689 189.666 80.4818C189.801 78.8134 191.286 77.5641 192.977 77.6972C193.489 77.7272 193.988 77.8972 194.427 78.192C194.866 78.4868 195.233 78.8974 195.494 79.3873Z" fill="#DB5461"/>
<path d="M187.473 82.629C187.047 82.4236 186.583 82.3335 186.119 82.3662C185.656 82.3989 185.206 82.5535 184.807 82.8172C186.264 83.0651 187.708 83.3978 189.134 83.814C188.543 83.4726 188.082 82.9377 187.473 82.629Z" fill="#F5F9E9"/>
<path d="M184.798 82.8158L184.638 82.9445C184.692 82.8995 184.748 82.8572 184.806 82.8172L184.798 82.8158Z" fill="#F5F9E9"/>
<path d="M208.144 89.3098C207.994 89.0958 207.794 88.9313 207.566 88.834L207.341 88.8428C209.111 91.8964 211.429 94.5126 214.152 96.5279C212.149 94.1219 210.146 91.7158 208.144 89.3098Z" fill="#F5F9E9"/>
<path d="M189.63 83.5623C189.566 83.4919 189.502 83.4215 189.438 83.3512C188.944 82.7556 188.35 82.2733 187.689 81.9319C187.352 81.7746 186.991 81.692 186.625 81.6886C186.248 81.6984 185.875 81.7787 185.522 81.9262C185.355 81.9918 185.193 82.0661 185.033 82.1453C184.85 82.2362 184.67 82.3331 184.491 82.4308C184.156 82.6142 183.824 82.8056 183.497 83.005C182.847 83.4018 182.217 83.829 181.607 84.2864C181.291 84.5236 180.981 84.7686 180.678 85.0214C180.396 85.2562 180.12 85.4973 179.849 85.7447C179.792 85.7974 179.705 85.7122 179.763 85.6595C179.834 85.594 179.906 85.5288 179.979 85.4645C180.182 85.2828 180.389 85.1045 180.599 84.9297C180.983 84.6105 181.376 84.3036 181.779 84.009C182.406 83.5506 183.055 83.1233 183.725 82.7272C184.059 82.5293 184.399 82.3398 184.743 82.1586C184.847 82.1039 184.952 82.0505 185.058 81.9998C185.301 81.8791 185.552 81.7784 185.808 81.6986C186.175 81.5819 186.56 81.5446 186.94 81.5889C187.304 81.6404 187.657 81.761 187.984 81.9455C188.633 82.3484 189.218 82.8655 189.716 83.4766C189.768 83.5345 189.682 83.6202 189.63 83.5623Z" fill="#F5F9E9"/>
<path d="M130.382 67.1355C139.319 63.9735 149.29 64.8106 157.758 69.2652C160.174 70.5296 162.455 72.0879 164.561 73.9114C165.156 74.4298 166.004 73.5026 165.402 72.9787C157.625 66.29 147.853 63.1125 138.05 64.0847C135.338 64.3538 132.661 64.9503 130.065 65.8636C129.339 66.1206 129.649 67.3945 130.382 67.1355H130.382Z" fill="#3F3D56"/>
<path d="M130.382 75.9289C139.319 72.7669 149.29 73.6041 157.758 78.0587C160.174 79.3231 162.455 80.8814 164.561 82.7049C165.156 83.2232 166.004 82.2961 165.402 81.7722C157.625 75.0834 147.853 71.9059 138.05 72.8782C135.338 73.1473 132.661 73.7438 130.065 74.657C129.339 74.914 129.649 76.188 130.382 75.9289H130.382Z" fill="#3F3D56"/>
<path d="M130.382 84.7226C139.319 81.5606 149.29 82.3978 157.758 86.8524C160.174 88.1168 162.455 89.6751 164.561 91.4986C165.156 92.0169 166.004 91.0898 165.402 90.5659C157.625 83.8771 147.853 80.6996 138.05 81.6719C135.338 81.941 132.661 82.5375 130.065 83.4507C129.339 83.7077 129.649 84.9817 130.382 84.7226H130.382Z" fill="#3F3D56"/>
<path d="M130.382 93.5161C139.319 90.3541 149.29 91.1912 157.758 95.6458C160.174 96.9103 162.455 98.4686 164.561 100.292C165.156 100.81 166.004 99.8832 165.402 99.3594C157.625 92.6706 147.853 89.4931 138.05 90.4653C135.338 90.7344 132.661 91.3309 130.065 92.2442C129.339 92.5012 129.649 93.7752 130.382 93.5161H130.382Z" fill="#3F3D56"/>
<path d="M130.382 102.31C139.319 99.1478 149.29 99.9849 157.758 104.44C160.174 105.704 162.455 107.262 164.561 109.086C165.156 109.604 166.004 108.677 165.402 108.153C157.625 101.464 147.853 98.2868 138.05 99.259C135.338 99.5281 132.661 100.125 130.065 101.038C129.339 101.295 129.649 102.569 130.382 102.31L130.382 102.31Z" fill="#3F3D56"/>
<path d="M162.583 44.1935V68.8397C162.583 69.2595 161.923 69.6103 161.032 69.7051C160.877 69.7223 160.714 69.7309 160.545 69.7309C160.054 69.7412 159.566 69.653 159.104 69.4704C159.019 69.4335 158.936 69.3896 158.856 69.3391C158.634 69.1949 158.506 69.0248 158.506 68.8397V42.2928C159.232 42.5619 159.91 42.8439 160.545 43.1366C161.282 43.4767 161.96 43.8298 162.583 44.1935Z" fill="#ECA400"/>
<path d="M171.126 52.6443H170.544V132.369H171.126V52.6443Z" fill="#F5F9E9"/>
<path d="M223.099 116.891C222.499 117.584 221.773 118.128 220.97 118.49C220.167 118.851 219.304 119.02 218.438 118.986C215.745 118.881 212.532 118.828 209.044 118.908L209.024 118.89L224.141 97.1606L224.793 111.648C224.858 112.605 224.741 113.566 224.449 114.469C224.158 115.373 223.698 116.198 223.099 116.891Z" fill="#F2F2F2"/>
<path d="M185.467 192.834L184.661 200.092L184.045 205.608L183.799 207.834H180.294V205.856L180.291 199.313V192.834H185.467Z" fill="#FFB6B6"/>
<path d="M161.028 192.074L160.035 195.476L159.237 198.205L159.1 198.674L158.554 200.539L157.4 204.485L156.826 206.45L153.638 205.767L153.383 205.714L153.59 204.528L153.716 203.805L155.11 195.79L155.337 194.499L155.373 194.291L155.477 193.692L155.947 190.988L159.346 191.714L159.738 191.798L161.028 192.074Z" fill="#FFB6B6"/>
<path d="M190.732 149.615C188.728 161.83 188.227 167.104 188.227 167.104C188.227 167.104 189.73 169.047 188.728 170.158C187.726 171.27 188.728 173.489 188.728 173.489L186.475 200.418L184.66 200.092L180.291 199.313L178.715 199.03L179.717 173.769C179.717 173.769 178.715 171.546 179.216 170.99C179.717 170.435 178.715 167.104 178.715 167.104L177.463 140.731L169.7 169.603C169.7 169.603 170.453 170.714 169.7 171.546C168.95 172.378 167.45 176.544 167.45 176.544L162.834 194.455L162.442 195.976L160.034 195.476L157.414 194.93L156.932 194.83L156.076 194.65L155.524 194.536L155.337 194.498L154.43 194.309L154.704 192.959L154.847 192.248L158.752 173.014L158.842 172.57L158.937 172.102C158.937 172.102 158.436 170.714 159.186 169.879C159.405 169.625 159.566 169.315 159.653 168.976C159.74 168.638 159.752 168.281 159.687 167.936C159.662 167.907 159.64 167.876 159.62 167.843C159.531 167.708 159.47 167.553 159.441 167.39C159.373 167.042 159.432 166.554 159.939 165.993C160.082 165.825 160.201 165.634 160.294 165.428C161.056 163.829 161.439 160.442 161.439 160.442C161.439 160.442 162.117 133.619 164.334 129.522C164.422 129.343 164.545 129.189 164.695 129.072C167.198 127.408 191.231 129.072 191.231 129.072C191.231 129.072 191.264 129.264 191.317 129.63C191.606 131.688 192.432 139.253 190.732 149.615Z" fill="#2F2E41"/>
<path d="M189.945 100.337L190.647 95.6489L203.57 98.0606L221.905 99.5152C222.302 99.0271 222.832 98.6946 223.414 98.5671C223.996 98.4396 224.599 98.5239 225.135 98.8076C225.67 99.0912 226.109 99.559 226.385 100.141C226.661 100.724 226.76 101.389 226.668 102.039C226.575 102.689 226.296 103.288 225.871 103.748C225.447 104.207 224.9 104.503 224.312 104.59C223.724 104.677 223.126 104.551 222.608 104.231C222.089 103.911 221.678 103.413 221.435 102.813L210.19 103.652L189.945 100.337Z" fill="#FFB6B6"/>
<path d="M180.285 97.0922L181.198 92.9076C181.198 92.9076 186.153 91.8962 190.07 92.8639L204.808 96.0001L203.615 105.879L180.285 97.0922Z" fill="#ECA400"/>
<path d="M146.078 131.55L154.323 111.688L160.34 97.636L165.559 101.042L149.314 133.736C149.456 134.319 149.44 134.935 149.267 135.508C149.093 136.08 148.771 136.583 148.339 136.952C147.908 137.321 147.388 137.541 146.845 137.582C146.302 137.623 145.759 137.485 145.287 137.185C144.814 136.885 144.433 136.436 144.19 135.895C143.948 135.354 143.855 134.746 143.925 134.147C143.994 133.548 144.222 132.985 144.58 132.53C144.937 132.074 145.409 131.747 145.935 131.588C145.982 131.574 146.03 131.561 146.078 131.55L146.078 131.55Z" fill="#FFB6B6"/>
<path d="M169.857 91.6149L165.855 89.5788C165.855 89.5788 165.146 89.3058 163.615 91.6553C162.085 94.0049 148.921 116.175 148.921 116.175L157.28 120.365L169.857 91.6149Z" fill="#ECA400"/>
<path d="M184.677 78.8084C184.111 79.9606 183.325 80.9618 182.374 81.7424C181.423 82.5231 180.33 83.0642 179.171 83.3281C179.042 83.3592 178.913 83.384 178.782 83.4057C176.963 83.721 175.102 83.3445 173.501 82.3376C171.899 81.3307 170.653 79.7527 169.963 77.8602C169.274 75.9676 169.182 73.8721 169.703 71.9144C170.224 69.9567 171.327 68.2522 172.833 67.078C174.338 65.9039 176.158 65.3293 177.996 65.4477C179.833 65.5662 181.581 66.3706 182.954 67.7303C184.327 69.0899 185.244 70.9247 185.557 72.9362C185.87 74.9476 185.56 77.0173 184.677 78.8084Z" fill="#FFB6B6"/>
<path d="M181.436 66.5377C178.768 64.5032 176.419 64.1933 174.489 64.7703C174.239 64.3412 173.888 63.9958 173.474 63.7711C171.969 59.5658 167.389 57.0403 163.458 58.268C159.502 59.5036 156.772 64.363 157.516 68.8453C157.978 71.6236 159.555 74.0295 160.189 76.7656C161.417 82.0621 158.422 88.1294 153.736 89.8367C158.172 90.8244 163.056 87.8197 164.647 83.123C165.42 80.8417 165.467 78.351 165.565 75.9164C165.591 74.236 165.776 72.5633 166.119 70.9261C166.289 70.1915 166.529 69.4792 166.835 68.8012C167.502 67.3108 168.61 66.1191 169.973 65.425C169.851 65.8438 169.821 66.2888 169.884 66.7232C169.948 67.1577 170.104 67.5691 170.339 67.9237C169.298 69.3688 168.732 70.9316 168.732 71.8676C166.571 76.2476 169.662 80.0098 173.612 82.4062C175.187 83.3671 177.006 83.7188 178.782 83.4058L178.947 82.6235L179.171 83.3282L179.919 85.6905C180.781 86.153 181.636 86.66 182.483 87.2115C182.161 85.5353 181.901 83.8621 181.721 82.2262C181.473 79.9997 182.338 76.6849 182.962 74.6691C183.349 73.4267 183.547 72.1219 183.549 70.8075V70.7501L184.157 72.9137L186.368 71.8676C185.957 69.2507 186.368 66.28 181.436 66.5377Z" fill="#2F2E41"/>
<path d="M164.444 126.574C164.735 125.298 164.735 123.963 164.444 122.687C163.944 120.744 164.945 119.911 164.945 119.911L165.195 89.9295C166.253 88.7567 169.087 88.7376 170.672 88.8288V87.5085C170.672 87.0223 170.846 86.556 171.156 86.2122C171.466 85.8684 171.887 85.6753 172.325 85.6753H179.657C180.095 85.6753 180.516 85.8684 180.826 86.2122C181.136 86.556 181.31 87.0223 181.31 87.5085V89.0911L183.46 89.1286C187.205 89.4379 190.481 93.5384 190.481 93.5384L187.226 107.419C187.226 107.419 188.228 118.801 189.48 120.189C190.731 121.577 190.231 122.41 190.231 122.41C190.231 122.41 189.48 125.463 190.982 126.574C192.484 127.684 191.482 129.627 191.482 129.627C191.482 129.627 164.444 130.183 163.693 129.35C162.942 128.517 164.444 126.574 164.444 126.574Z" fill="#ECA400"/>
<path opacity="0.1" d="M81.1297 212.621C95.2026 212.621 106.611 210.593 106.611 208.091C106.611 205.59 95.2026 203.562 81.1297 203.562C67.0568 203.562 55.6484 205.59 55.6484 208.091C55.6484 210.593 67.0568 212.621 81.1297 212.621Z" fill="#0B7A75"/>
<path d="M81.9481 121.311H80.3086V162.173H81.9481V121.311Z" fill="#F5F9E9"/>
<path d="M92.254 162.048L92.152 163.889L92.0056 166.494L91.9454 167.577L91.8016 170.182L91.7388 171.264L91.5924 173.869L89.9397 203.414C89.8679 204.685 89.3611 205.878 88.5226 206.75C87.6841 207.622 86.5768 208.108 85.4261 208.109H76.8305C75.6803 208.108 74.5736 207.622 73.736 206.75C72.8983 205.877 72.3927 204.684 72.3221 203.414L70.6642 173.849L70.5203 171.244L70.4602 170.162L70.3111 167.557L70.251 166.474L70.1072 163.869L70.0026 162.028C69.9845 161.675 70.0314 161.322 70.1406 160.99C70.2497 160.658 70.4188 160.354 70.6375 160.096C70.8562 159.839 71.12 159.633 71.4127 159.492C71.7055 159.351 72.0211 159.277 72.3404 159.275H89.9188C90.2395 159.277 90.5564 159.352 90.8502 159.494C91.1439 159.637 91.4083 159.844 91.627 160.104C91.8456 160.364 92.0141 160.67 92.1219 161.005C92.2297 161.339 92.2747 161.694 92.254 162.048Z" fill="#ECA400"/>
<path d="M92.1519 163.889L92.0054 166.486H70.2534L70.1069 163.889H92.1519Z" fill="#9D9CB5"/>
<path d="M91.9457 167.571L91.8019 170.171H70.4604L70.314 167.571H91.9457Z" fill="#9D9CB5"/>
<path d="M91.7391 171.253L91.5927 173.849H70.6643L70.5205 171.253H91.7391Z" fill="#9D9CB5"/>
<path d="M67.6019 136.626C77.1521 144.273 81.1296 156.233 81.1296 156.233C81.1296 156.233 69.6234 155.796 60.0705 148.149C50.5177 140.502 46.5454 128.544 46.5454 128.544C46.5454 128.544 58.0543 128.981 67.6019 136.626Z" fill="#0B7A75"/>
<path d="M46.5454 128.544C46.5454 128.544 58.4884 135.873 62.3195 141.952C66.1506 148.03 81.1271 156.227 81.1271 156.227" stroke="#F5F9E9" stroke-width="2" stroke-miterlimit="10"/>
<path d="M73.7657 121.221C78.9644 125.381 81.1296 131.893 81.1296 131.893C81.1296 131.893 74.8535 131.653 69.6679 127.494C64.4822 123.334 62.3196 116.822 62.3196 116.822C62.3196 116.822 68.5696 117.059 73.7657 121.221Z" fill="#0B7A75"/>
<path d="M62.3196 116.822C62.3196 116.822 68.8206 120.816 70.9048 124.122C72.989 127.427 81.1428 131.893 81.1428 131.893" stroke="#F5F9E9" stroke-width="2" stroke-miterlimit="10"/>
<path d="M88.682 131.56C82.717 138.823 81.4487 148.32 81.4487 148.32C81.4487 148.32 89.8667 146.033 95.8316 138.768C101.797 131.503 103.065 122.014 103.065 122.014C103.065 122.014 94.6522 124.295 88.682 131.56Z" fill="#0B7A75"/>
<path d="M103.07 122.012C103.07 122.012 95.293 129.456 93.316 134.585C91.339 139.715 81.4487 148.32 81.4487 148.32" stroke="#F5F9E9" stroke-width="2" stroke-miterlimit="10"/>
<path d="M189.362 211.424L184.152 207.432V204.828L183.411 204.877L179.659 205.126L178.671 205.191L177.988 214.261L177.98 214.388H180.44L180.463 214.261L180.88 211.812L181.947 214.261L182.003 214.388H188.531C188.727 214.388 188.921 214.345 189.102 214.261C189.344 214.148 189.554 213.964 189.711 213.73C189.867 213.495 189.964 213.218 189.99 212.928C190.017 212.638 189.973 212.345 189.862 212.081C189.752 211.816 189.579 211.589 189.362 211.424H189.362Z" fill="#2F2E41"/>
<path d="M213.627 214.631C213.628 214.679 213.619 214.727 213.602 214.772C213.586 214.817 213.561 214.858 213.53 214.892C213.499 214.927 213.462 214.954 213.422 214.972C213.381 214.991 213.338 215 213.294 215H134.83C134.741 215 134.657 214.961 134.594 214.892C134.532 214.823 134.497 214.729 134.497 214.631C134.497 214.533 134.532 214.439 134.594 214.369C134.657 214.3 134.741 214.261 134.83 214.261H213.294C213.338 214.261 213.381 214.271 213.422 214.289C213.462 214.308 213.499 214.335 213.53 214.369C213.561 214.403 213.586 214.444 213.602 214.489C213.619 214.534 213.628 214.582 213.627 214.631Z" fill="#CCCCCC"/>
<path d="M162.373 211.205L160.102 208.461L158.518 206.542L158.257 206.226L158.218 206.179L158.092 206.027L158.616 203.488L157.563 203.295L153.879 202.615L153.68 202.581L153.289 202.507L153.199 202.491L151.942 206.884L150.803 210.854L150.679 211.288L152.194 211.67L153.079 211.894L153.515 210.782L153.563 210.665L153.848 209.935V209.932L154.025 209.491L154.604 212.279L154.705 212.304L154.719 212.307L155.075 212.397L155.769 212.574L160.623 213.803L160.967 213.89C161.347 213.983 161.744 213.907 162.073 213.677C162.401 213.448 162.635 213.083 162.723 212.664C162.775 212.407 162.771 212.14 162.71 211.886C162.649 211.632 162.533 211.398 162.373 211.205Z" fill="#2F2E41"/>
</svg>
