<svg width="120" height="120" viewBox="0 0 120 120" fill="none" xmlns="http://www.w3.org/2000/svg">
<path d="M88.8927 7.03784H87.8598C88.207 7.22148 88.5484 7.40992 88.8927 7.59932V7.03784Z" fill="#F5F9E9"/>
<path d="M87.4192 113.651H91.8387V110.712C90.4041 111.612 88.9306 112.456 87.4192 113.24V113.651Z" fill="#F5F9E9"/>
<path d="M49.602 3.19282V0.775757C48.1081 1.01419 46.6366 1.31128 45.1826 1.65451V3.1909H49.602V3.19282Z" fill="#F5F9E9"/>
<path d="M60.1614 3.19295V0.0211548C59.8843 0.017309 59.608 0 59.3309 0C58.1248 0 56.9305 0.0442264 55.742 0.11345V3.19392H60.1614V3.19295Z" fill="#F5F9E9"/>
<path d="M70.7208 3.19297V1.06914C69.2649 0.796094 67.7914 0.573999 66.3014 0.404785V3.19297H70.7208Z" fill="#F5F9E9"/>
<path d="M78.8643 3.19254C78.201 2.97044 77.5358 2.75123 76.8627 2.55029V3.19254H78.8643Z" fill="#F5F9E9"/>
<path d="M25.5382 13.9933V10.1561C24.0132 11.1695 22.5407 12.2511 21.1188 13.3923V13.9933H25.5382Z" fill="#F5F9E9"/>
<path d="M31.6782 7.03784H36.0977V13.9939H31.6782V7.03784Z" fill="#F5F9E9"/>
<path d="M42.2366 7.03784H46.6561V13.9939H42.2366V7.03784Z" fill="#F5F9E9"/>
<path d="M52.7951 7.03784H57.2145V13.9939H52.7951V7.03784Z" fill="#F5F9E9"/>
<path d="M63.3554 7.03784H67.7749V13.9939H63.3554V7.03784Z" fill="#F5F9E9"/>
<path d="M73.9139 7.03784H78.3333V13.9939H73.9139V7.03784Z" fill="#F5F9E9"/>
<path d="M84.4733 13.9939H88.8927V7.59932C88.5504 7.40992 88.207 7.22052 87.8598 7.03784H84.4723C84.4733 7.03784 84.4733 13.9939 84.4733 13.9939Z" fill="#F5F9E9"/>
<path d="M98.284 13.9932C97.2297 13.1211 96.1443 12.2866 95.0317 11.4867V13.9932H98.284Z" fill="#F5F9E9"/>
<path d="M17.9268 25.2854V18.3293H15.6801C14.9351 19.0927 14.2125 19.8734 13.5073 20.6743V25.2854C13.5054 25.2854 17.9268 25.2854 17.9268 25.2854Z" fill="#F5F9E9"/>
<path d="M24.0648 18.3303H28.4842V25.2864H24.0648V18.3303Z" fill="#F5F9E9"/>
<path d="M34.6232 18.3303H39.0426V25.2864H34.6232V18.3303Z" fill="#F5F9E9"/>
<path d="M45.1826 18.3303H49.602V25.2864H45.1826V18.3303Z" fill="#F5F9E9"/>
<path d="M55.742 18.3303H60.1614V25.2864H55.742V18.3303Z" fill="#F5F9E9"/>
<path d="M66.3004 18.3303H70.7199V25.2864H66.3004V18.3303Z" fill="#F5F9E9"/>
<path d="M76.8598 18.3303H81.2793V25.2864H76.8598V18.3303Z" fill="#F5F9E9"/>
<path d="M87.4192 18.3303H91.8387V25.2864H87.4192V18.3303Z" fill="#F5F9E9"/>
<path d="M97.9786 18.3303H102.398V25.2864H97.9786V18.3303Z" fill="#F5F9E9"/>
<path d="M108.829 25.2844C108.733 25.1498 108.636 25.0142 108.539 24.8796V25.2844H108.829Z" fill="#F5F9E9"/>
<path d="M4.41946 34.4034C4.15394 34.9592 3.90009 35.5197 3.65208 36.0831H4.41946V34.4034Z" fill="#F5F9E9"/>
<path d="M10.5594 29.1296H14.9788V36.0857H10.5594V29.1296Z" fill="#F5F9E9"/>
<path d="M21.1178 29.1296H25.5373V36.0857H21.1178V29.1296Z" fill="#F5F9E9"/>
<path d="M31.6782 29.1296H36.0977V36.0857H31.6782V29.1296Z" fill="#F5F9E9"/>
<path d="M42.2366 29.1296H46.6561V36.0857H42.2366V29.1296Z" fill="#F5F9E9"/>
<path d="M52.7951 29.1296H57.2145V36.0857H52.7951V29.1296Z" fill="#F5F9E9"/>
<path d="M63.3554 29.1296H67.7749V36.0857H63.3554V29.1296Z" fill="#F5F9E9"/>
<path d="M73.9139 29.1296H78.3333V36.0857H73.9139V29.1296Z" fill="#F5F9E9"/>
<path d="M84.4733 29.1296H88.8927V36.0857H84.4733V29.1296Z" fill="#F5F9E9"/>
<path d="M95.0327 29.1296H99.4521V36.0857H95.0327V29.1296Z" fill="#F5F9E9"/>
<path d="M105.591 29.1296H110.011V36.0857H105.591V29.1296Z" fill="#F5F9E9"/>
<path d="M2.94598 40.4221H7.36543V47.3782H2.94598V40.4221Z" fill="#F5F9E9"/>
<path d="M13.5054 40.4221H17.9248V47.3782H13.5054V40.4221Z" fill="#F5F9E9"/>
<path d="M24.0648 40.4221H28.4842V47.3782H24.0648V40.4221Z" fill="#F5F9E9"/>
<path d="M34.6232 40.4221H39.0426V47.3782H34.6232V40.4221Z" fill="#F5F9E9"/>
<path d="M45.1826 40.4221H49.602V47.3782H45.1826V40.4221Z" fill="#F5F9E9"/>
<path d="M55.742 40.4221H60.1614V47.3782H55.742V40.4221Z" fill="#F5F9E9"/>
<path d="M66.3004 40.4221H70.7199V47.3782H66.3004V40.4221Z" fill="#F5F9E9"/>
<path d="M76.8598 40.4221H81.2793V47.3782H76.8598V40.4221Z" fill="#F5F9E9"/>
<path d="M87.4192 40.4221H91.8387V47.3782H87.4192V40.4221Z" fill="#F5F9E9"/>
<path d="M97.9786 40.4221H102.398V47.3782H97.9786V40.4221Z" fill="#F5F9E9"/>
<path d="M108.537 40.4221H112.957V47.3782H108.537V40.4221Z" fill="#F5F9E9"/>
<path d="M0 51.2216H4.41945V58.1776H0V51.2216Z" fill="#F5F9E9"/>
<path d="M10.5594 51.2216H14.9788V58.1776H10.5594V51.2216Z" fill="#F5F9E9"/>
<path d="M21.1178 51.2216H25.5373V58.1776H21.1178V51.2216Z" fill="#F5F9E9"/>
<path d="M31.6782 51.2216H36.0977V58.1776H31.6782V51.2216Z" fill="#F5F9E9"/>
<path d="M42.2366 51.2216H46.6561V58.1776H42.2366V51.2216Z" fill="#F5F9E9"/>
<path d="M52.7951 51.2216H57.2145V58.1776H52.7951V51.2216Z" fill="#F5F9E9"/>
<path d="M63.3554 51.2216H67.7749V58.1776H63.3554V51.2216Z" fill="#F5F9E9"/>
<path d="M73.9139 51.2216H78.3333V58.1776H73.9139V51.2216Z" fill="#F5F9E9"/>
<path d="M84.4733 51.2216H88.8927V58.1776H84.4733V51.2216Z" fill="#F5F9E9"/>
<path d="M95.0327 51.2216H99.4521V58.1776H95.0327V51.2216Z" fill="#F5F9E9"/>
<path d="M105.591 51.2216H110.011V58.1776H105.591V51.2216Z" fill="#F5F9E9"/>
<path d="M116.15 58.1776H120C119.927 55.823 119.731 53.5011 119.391 51.2216H116.15V58.1776Z" fill="#F5F9E9"/>
<path d="M2.94598 62.5122H7.36543V69.4682H2.94598V62.5122Z" fill="#F5F9E9"/>
<path d="M13.5054 62.5122H17.9248V69.4682H13.5054V62.5122Z" fill="#F5F9E9"/>
<path d="M24.0648 62.5122H28.4842V69.4682H24.0648V62.5122Z" fill="#F5F9E9"/>
<path d="M34.6232 62.5122H39.0426V69.4682H34.6232V62.5122Z" fill="#F5F9E9"/>
<path d="M45.1826 62.5122H49.602V69.4682H45.1826V62.5122Z" fill="#F5F9E9"/>
<path d="M55.742 62.5122H60.1614V69.4682H55.742V62.5122Z" fill="#F5F9E9"/>
<path d="M66.3004 62.5122H70.7199V69.4682H66.3004V62.5122Z" fill="#F5F9E9"/>
<path d="M76.8598 62.5122H81.2793V69.4682H76.8598V62.5122Z" fill="#F5F9E9"/>
<path d="M87.4192 62.5122H91.8387V69.4682H87.4192V62.5122Z" fill="#F5F9E9"/>
<path d="M97.9786 62.5122H102.398V69.4682H97.9786V62.5122Z" fill="#F5F9E9"/>
<path d="M108.537 62.5122H112.957V69.4682H108.537V62.5122Z" fill="#F5F9E9"/>
<path d="M119.096 62.5122V69.4682H119.293C119.657 67.1906 119.885 64.8677 119.983 62.5122H119.096Z" fill="#F5F9E9"/>
<path d="M4.41944 73.3115H0.126434C0.669139 75.6863 1.34509 78.0091 2.16304 80.2676H4.41944V73.3115Z" fill="#F5F9E9"/>
<path d="M10.5594 73.3115H14.9788V80.2676H10.5594V73.3115Z" fill="#F5F9E9"/>
<path d="M21.1178 73.3115H25.5373V80.2676H21.1178V73.3115Z" fill="#F5F9E9"/>
<path d="M31.6782 73.3115H36.0977V80.2676H31.6782V73.3115Z" fill="#F5F9E9"/>
<path d="M42.2366 73.3115H46.6561V80.2676H42.2366V73.3115Z" fill="#F5F9E9"/>
<path d="M52.7951 73.3115H57.2145V80.2676H52.7951V73.3115Z" fill="#F5F9E9"/>
<path d="M63.3554 73.3115H67.7749V80.2676H63.3554V73.3115Z" fill="#F5F9E9"/>
<path d="M73.9139 73.3115H78.3333V80.2676H73.9139V73.3115Z" fill="#F5F9E9"/>
<path d="M84.4733 73.3115H88.8927V80.2676H84.4733V73.3115Z" fill="#F5F9E9"/>
<path d="M95.0327 73.3115H99.4521V80.2676H95.0327V73.3115Z" fill="#F5F9E9"/>
<path d="M105.591 73.3115H110.011V80.2676H105.591V73.3115Z" fill="#F5F9E9"/>
<path d="M116.15 80.2685H116.499C117.317 78.0111 117.994 75.6873 118.535 73.3125H116.149V80.2685H116.15Z" fill="#F5F9E9"/>
<path d="M3.94189 84.6041C4.95728 86.8376 6.09326 89.0066 7.36541 91.0852V84.6041H3.94189Z" fill="#F5F9E9"/>
<path d="M13.5054 84.6041H17.9248V91.5602H13.5054V84.6041Z" fill="#F5F9E9"/>
<path d="M24.0648 84.6041H28.4842V91.5602H24.0648V84.6041Z" fill="#F5F9E9"/>
<path d="M34.6232 84.6041H39.0426V91.5602H34.6232V84.6041Z" fill="#F5F9E9"/>
<path d="M45.1826 84.6041H49.602V91.5602H45.1826V84.6041Z" fill="#F5F9E9"/>
<path d="M55.742 84.6041H60.1614V91.5602H55.742V84.6041Z" fill="#F5F9E9"/>
<path d="M66.3004 84.6041H70.7199V91.5602H66.3004V84.6041Z" fill="#F5F9E9"/>
<path d="M76.8598 84.6041H81.2793V91.5602H76.8598V84.6041Z" fill="#F5F9E9"/>
<path d="M87.4192 84.6041H91.8387V91.5602H87.4192V84.6041Z" fill="#F5F9E9"/>
<path d="M97.9786 84.6041H102.398V91.5602H97.9786V84.6041Z" fill="#F5F9E9"/>
<path d="M108.537 84.6041V91.5602H110.992C111.683 90.4555 112.337 89.3277 112.957 88.1778V84.6041H108.537Z" fill="#F5F9E9"/>
<path d="M10.5594 95.4024V95.7745C11.9317 97.6013 13.411 99.3405 14.9788 100.998V95.4015H10.5594V95.4024Z" fill="#F5F9E9"/>
<path d="M21.1178 95.4025H25.5373V102.359H21.1178V95.4025Z" fill="#F5F9E9"/>
<path d="M31.6782 95.4025H36.0977V102.359H31.6782V95.4025Z" fill="#F5F9E9"/>
<path d="M42.2366 95.4025H46.6561V102.359H42.2366V95.4025Z" fill="#F5F9E9"/>
<path d="M52.7951 95.4025H57.2145V102.359H52.7951V95.4025Z" fill="#F5F9E9"/>
<path d="M63.3554 95.4025H67.7749V102.359H63.3554V95.4025Z" fill="#F5F9E9"/>
<path d="M73.9139 95.4025H78.3333V102.359H73.9139V95.4025Z" fill="#F5F9E9"/>
<path d="M84.4733 95.4025H88.8927V102.359H84.4733V95.4025Z" fill="#F5F9E9"/>
<path d="M95.0327 95.4025H99.4521V102.359H95.0327V95.4025Z" fill="#F5F9E9"/>
<path d="M105.591 98.8829C106.56 97.757 107.489 96.5966 108.372 95.4015H105.591V98.8829Z" fill="#F5F9E9"/>
<path d="M24.0648 106.695V108.873C25.4945 109.883 26.966 110.836 28.4842 111.724V106.695H24.0648Z" fill="#F5F9E9"/>
<path d="M34.6232 106.695H39.0426V113.651H34.6232V106.695Z" fill="#F5F9E9"/>
<path d="M45.1826 106.695H49.602V113.651H45.1826V106.695Z" fill="#F5F9E9"/>
<path d="M55.742 106.695H60.1614V113.651H55.742V106.695Z" fill="#F5F9E9"/>
<path d="M66.3004 106.695H70.7199V113.651H66.3004V106.695Z" fill="#F5F9E9"/>
<path d="M76.8598 106.695H81.2793V113.651H76.8598V106.695Z" fill="#F5F9E9"/>
<path d="M87.4192 106.695V113.24C88.9306 112.458 90.4051 111.613 91.8387 110.712V106.694L87.4192 106.695Z" fill="#F5F9E9"/>
<path d="M42.2366 117.495V117.623C43.6897 118.043 45.1612 118.42 46.6561 118.732V117.495H42.2366Z" fill="#F5F9E9"/>
<path d="M52.7951 117.495V119.702C54.253 119.857 55.7274 119.95 57.2145 120V117.495H52.7951Z" fill="#F5F9E9"/>
<path d="M63.3554 117.494V119.907C64.8435 119.81 66.3189 119.663 67.7749 119.462V117.494H63.3554V117.494Z" fill="#F5F9E9"/>
<path d="M73.9139 118.298C74.9147 118.055 75.9057 117.787 76.8871 117.495H73.9139V118.298Z" fill="#F5F9E9"/>
</svg>
