<svg width="1259" height="461" viewBox="0 0 1259 461" fill="none" xmlns="http://www.w3.org/2000/svg">
<path d="M550.623 288.446L508.105 276.991C507.197 278.012 506.378 279.119 505.676 280.315C505.079 281.329 504.588 282.369 504.192 283.42L549.823 295.713C550.58 293.313 550.835 290.856 550.623 288.446Z" fill="#DB5461"/>
<path d="M538.136 271.475L529.139 269.051C523.72 268.588 518.294 269.789 513.779 272.397L548.81 281.834C546.766 277.551 543.113 273.841 538.136 271.475Z" fill="#DB5461"/>
<path d="M532.02 310.651L509.555 304.598C511.326 306.245 513.425 307.667 515.83 308.775C521.012 311.16 526.73 311.693 532.02 310.651V310.651Z" fill="#DB5461"/>
<path d="M547.146 301.118L503 289.226C502.883 291.908 503.35 294.57 504.347 297.072L541.103 306.975C543.465 305.419 545.526 303.45 547.146 301.118Z" fill="#DB5461"/>
<line x1="-1.99951" y1="443.529" x2="890.069" y2="444.396" stroke="#F5F9E9"/>
<g clip-path="url(#clip0_80_1023)">
<path d="M521.522 418.538C521.522 418.538 487.117 402.692 499.204 391.704C511.29 380.716 521.522 418.538 521.522 418.538Z" fill="#F5F9E9"/>
<path d="M520.924 422.236C520.924 422.236 505.11 370.253 528.396 372.739C551.683 375.225 520.924 422.236 520.924 422.236Z" fill="#F5F9E9"/>
<path d="M509.393 417.625L510.057 426.321L510.068 426.471C510.067 427.829 510.136 429.186 510.273 430.537C511.174 439.407 515.046 443.449 519.571 443.449C524.096 443.449 527.799 439.407 528.7 430.537C528.837 429.186 528.906 427.829 528.905 426.471L528.91 426.35L528.913 426.321L529.579 417.625H509.393Z" fill="#8D8572"/>
<path d="M528.913 426.321L528.91 426.35L528.905 426.471C528.906 427.829 528.837 429.186 528.7 430.537H510.273C510.136 429.186 510.067 427.829 510.068 426.471L510.057 426.321H528.913Z" fill="white"/>
<path d="M745.921 423.856C745.921 423.856 719.284 411.588 728.642 403.081C738 394.573 745.921 423.856 745.921 423.856Z" fill="#0B7A75"/>
<path d="M745.458 426.719C745.458 426.719 733.215 386.473 751.243 388.397C769.272 390.322 745.458 426.719 745.458 426.719Z" fill="#0B7A75"/>
<path d="M736.531 423.149L737.045 429.882L737.053 429.998C737.053 431.049 737.106 432.1 737.212 433.146C737.91 440.013 740.907 443.142 744.41 443.142C747.914 443.142 750.781 440.013 751.478 433.146C751.585 432.1 751.638 431.049 751.637 429.998L751.641 429.904L751.643 429.882L752.159 423.149H736.531Z" fill="#A4A3A4"/>
<path d="M751.643 429.882L751.641 429.904L751.637 429.998C751.638 431.049 751.585 432.1 751.478 433.146H737.212C737.106 432.1 737.053 431.049 737.053 429.998L737.045 429.882H751.643Z" fill="white"/>
<path d="M579.674 311.961V300.135H577.836V311.961C577.309 312.175 576.872 312.565 576.601 313.065C576.33 313.565 576.241 314.144 576.349 314.703C576.458 315.261 576.757 315.765 577.196 316.127C577.635 316.489 578.186 316.686 578.755 316.686C579.324 316.686 579.875 316.489 580.314 316.127C580.753 315.765 581.052 315.261 581.161 314.703C581.269 314.144 581.18 313.565 580.909 313.065C580.638 312.565 580.201 312.175 579.674 311.961Z" fill="#E6E6E6"/>
<path d="M583.963 431.314H571.403V278.68H566.501V431.314H553.941C552.452 431.314 550.978 431.607 549.603 432.177C548.228 432.747 546.978 433.582 545.925 434.635C544.873 435.688 544.038 436.938 543.468 438.314C542.899 439.69 542.606 441.165 542.606 442.654V442.654H595.298V442.654C595.298 441.165 595.005 439.69 594.435 438.314C593.866 436.938 593.031 435.688 591.978 434.635C590.926 433.582 589.676 432.747 588.301 432.177C586.926 431.607 585.452 431.314 583.963 431.314V431.314Z" fill="#E6E6E6"/>
<path d="M542.631 301.361H595.273L592.054 261.106C591.936 259.718 591.303 258.424 590.28 257.479C589.257 256.534 587.918 256.007 586.525 256H551.378C549.986 256.007 548.647 256.534 547.623 257.479C546.6 258.424 545.968 259.718 545.85 261.106L542.631 301.361Z" fill="#ECA400"/>
<path d="M615.927 372.013C615.432 371.931 614.926 371.948 614.437 372.063C613.948 372.178 613.488 372.389 613.081 372.684C612.675 372.979 612.331 373.351 612.07 373.78C611.809 374.209 611.635 374.686 611.559 375.182L610.077 384.913L615.12 386.251L618.815 377.185C619.03 376.658 619.123 376.089 619.088 375.522C619.053 374.954 618.891 374.401 618.614 373.904C618.337 373.408 617.951 372.98 617.486 372.652C617.021 372.325 616.488 372.107 615.927 372.013Z" fill="#A0616A"/>
<path d="M615.833 384.895C618.632 396.021 617.427 406.198 607.006 414.188C594.507 410.741 586.195 402.424 581.122 390.337C580.807 389.586 580.647 388.778 580.653 387.963C580.658 387.148 580.828 386.343 581.153 385.595C581.478 384.848 581.951 384.174 582.544 383.615C583.136 383.055 583.836 382.622 584.6 382.34V382.34C585.749 381.918 586.999 381.855 588.185 382.161C589.37 382.466 590.434 383.126 591.236 384.051L603.499 398.212L609.252 383.933L615.833 384.895Z" fill="#ECA400"/>
<path d="M679.873 443.269C668.461 442.662 661.371 438.742 659.654 430.703L661.492 427.331L682.537 436.923C683.068 437.165 683.515 437.559 683.822 438.057C684.128 438.554 684.28 439.131 684.258 439.715C684.236 440.298 684.041 440.862 683.697 441.335C683.354 441.807 682.878 442.167 682.33 442.368L679.873 443.269Z" fill="#E6E6E6"/>
<path d="M671.055 443.349C665.125 443.17 659.422 443.225 654.019 443.591C653.071 443.656 652.136 443.344 651.416 442.724C650.697 442.103 650.251 441.224 650.175 440.276L649.851 436.219L645.255 428.864L649.238 424.879C655.931 431.548 663.271 437.15 671.989 440.479C672.269 440.671 672.479 440.949 672.589 441.271C672.698 441.592 672.7 441.941 672.595 442.264C672.49 442.587 672.283 442.867 672.005 443.063C671.728 443.259 671.394 443.359 671.055 443.349V443.349Z" fill="#E6E6E6"/>
<path d="M638.822 414.458C631.25 428.013 623.803 437.151 614.008 442.043C601.956 446.022 593.148 440.75 586.283 429.936L606.196 416.757L609.106 419.669L635.482 399.588C636.126 398.978 636.985 398.646 637.873 398.666C638.76 398.686 639.603 399.055 640.22 399.693L662.717 427.331L659.96 431.928L638.822 414.458Z" fill="#2F2E41"/>
<path d="M645.562 430.396L635.146 414.459L637.597 409.861L651.382 424.266L645.562 430.396Z" fill="#2F2E41"/>
<path d="M585.517 379.518C591.269 379.518 595.933 374.853 595.933 369.098C595.933 363.343 591.269 358.677 585.517 358.677C579.764 358.677 575.101 363.343 575.101 369.098C575.101 374.853 579.764 379.518 585.517 379.518Z" fill="#A0616A"/>
<path d="M588.274 388.407L576.633 384.422C578.355 381.684 579.11 378.446 578.777 375.228H588.274C587.734 379.904 587.653 384.339 588.274 388.407Z" fill="#A0616A"/>
<path d="M613.088 416.297C611.343 417.014 611.216 419.339 609.565 420.129C601.588 423.947 593.148 427.045 587.355 432.542C573.816 423.344 561.268 394.776 577.552 382.277C583.11 385.531 588.075 387.86 587.968 382.277L613.088 416.297Z" fill="#ECA400"/>
<path opacity="0.2" d="M606.042 404.038L600.375 402.046L589.193 410.781L584.181 392.727C583.833 391.475 583.27 392.11 582.461 392.98C581.618 392.199 580.569 391.676 579.438 391.472C578.308 391.267 577.142 391.391 576.08 391.828C575.017 392.264 574.101 392.996 573.44 393.936C572.78 394.877 572.401 395.986 572.35 397.135C571.754 410.23 575.701 421.309 585.517 429.783C598.355 427.033 603.804 418.355 606.042 407.103L605.436 406.698C605.659 405.828 605.861 404.942 606.042 404.038Z" fill="black"/>
<path d="M586.918 355.389C590.354 356.175 594.265 357.288 594.484 358.322C598.018 359.213 600.686 361.347 601.231 364.601C601.276 364.882 601.259 365.17 601.182 365.444C601.104 365.718 600.967 365.972 600.781 366.187C600.595 366.403 600.363 366.575 600.103 366.691C599.844 366.807 599.561 366.865 599.277 366.861C597.355 366.836 594.469 366.652 592.564 365.855C587.029 369.423 586.1 378.703 588.517 385.02L584.714 384.671L580.778 373.146L579.773 384.218L571.094 383.07L572.212 368.951C572.555 365.624 573.687 362.426 575.513 359.624C575.703 359.342 575.911 359.073 576.135 358.819C577.455 357.326 579.155 356.219 581.054 355.615C582.952 355.012 584.979 354.934 586.918 355.389V355.389Z" fill="#2F2E41"/>
<path d="M606.501 390.375L616.034 401.587L630.333 384.704L620.671 372.975L606.501 390.375Z" fill="#3F3D56"/>
<path d="M627.885 385.09L616.549 375.811C617.193 374.264 620.285 374.78 620.285 374.78L629.159 383.78C629.468 384.094 629.733 384.448 629.946 384.833V384.833L627.885 385.09Z" fill="#ECA400"/>
<path d="M628.401 384.446L615.518 374.393L601.219 396.045L614.681 405.131C615.969 405.647 617.258 404.745 617.258 404.745L630.397 384.639L628.401 384.446Z" fill="#3F3D56"/>
<path d="M617.125 377.531L617.003 377.701L625.248 383.628L625.37 383.459L617.125 377.531Z" fill="#ECA400"/>
<path d="M625.479 385.677L614.658 402.045L614.833 402.16L625.654 385.792L625.479 385.677Z" fill="#ECA400"/>
<path d="M604.76 396.089L604.637 396.257L613.394 402.704L613.518 402.535L604.76 396.089Z" fill="#ECA400"/>
<path d="M615.562 377.813L604.354 393.924L604.525 394.043L615.733 377.933L615.562 377.813Z" fill="#ECA400"/>
<path d="M619.023 374.652L618.936 374.747L629.13 384.107L629.217 384.012L619.023 374.652Z" fill="#ECA400"/>
<path d="M618.174 374.732L618.089 374.829L628.743 384.239L628.828 384.142L618.174 374.732Z" fill="#ECA400"/>
<path d="M617.508 374.92L617.425 375.019L628.485 384.242L628.567 384.143L617.508 374.92Z" fill="#ECA400"/>
<path d="M611.647 393.666C611.235 393.38 610.77 393.177 610.279 393.072C609.788 392.966 609.281 392.959 608.788 393.052C608.294 393.144 607.824 393.333 607.404 393.608C606.984 393.884 606.624 394.24 606.343 394.656L600.834 402.812L604.817 406.183L612.04 399.577C612.459 399.193 612.787 398.719 612.999 398.191C613.211 397.663 613.301 397.095 613.264 396.527C613.226 395.959 613.061 395.407 612.781 394.912C612.501 394.417 612.113 393.991 611.647 393.666V393.666Z" fill="#A0616A"/>
<path d="M606.042 405.264C603.804 416.516 598.355 425.194 585.517 427.944C575.701 419.47 571.754 408.391 572.35 395.296C572.387 394.481 572.589 393.683 572.943 392.949C573.297 392.215 573.796 391.56 574.41 391.024C575.024 390.489 575.74 390.083 576.515 389.831C577.29 389.58 578.108 389.488 578.919 389.562V389.562C580.138 389.673 581.294 390.152 582.234 390.937C583.174 391.721 583.853 392.773 584.181 393.953L589.193 412.007L600.509 401.573L606.042 405.264Z" fill="#ECA400"/>
<path d="M760.373 443.618H490V442.95H760.494L760.373 443.618Z" fill="#3F3D56"/>
<path d="M631.316 284.046C631.154 284.046 630.998 284.111 630.883 284.226C630.769 284.341 630.704 284.497 630.704 284.659V332.472C630.704 332.634 630.769 332.79 630.883 332.905C630.998 333.02 631.154 333.085 631.316 333.085H671.142C671.305 333.085 671.46 333.02 671.575 332.905C671.69 332.79 671.755 332.634 671.755 332.472V284.659C671.755 284.497 671.69 284.341 671.575 284.226C671.46 284.111 671.305 284.046 671.142 284.046H631.316Z" fill="#E6E6E6"/>
<path d="M635.452 328.334H667.006V288.797H635.452V328.334Z" fill="white"/>
<path d="M697.621 296.612C697.524 296.612 697.431 296.651 697.363 296.72C697.294 296.788 697.255 296.881 697.255 296.978V320.766C697.255 320.863 697.294 320.956 697.363 321.024C697.431 321.093 697.524 321.132 697.621 321.132H726.153C726.25 321.132 726.343 321.093 726.411 321.024C726.48 320.956 726.519 320.863 726.519 320.766V296.978C726.519 296.881 726.48 296.788 726.411 296.72C726.343 296.651 726.25 296.612 726.153 296.612L697.621 296.612Z" fill="#E6E6E6"/>
<path d="M700.09 299.448V318.295H723.684V299.448H700.09Z" fill="#737374"/>
<path d="M656.801 287.418H645.658C645.389 287.419 645.124 287.348 644.89 287.214C644.657 287.08 644.463 286.886 644.328 286.653C644.194 286.42 644.123 286.155 644.124 285.886C644.124 285.616 644.196 285.352 644.331 285.119L649.903 275.464C649.907 275.456 649.912 275.449 649.917 275.441C650.038 275.235 650.207 275.062 650.409 274.934C650.61 274.806 650.839 274.728 651.077 274.705L651.085 274.705C651.132 274.7 651.181 274.698 651.229 274.698C651.499 274.697 651.763 274.767 651.996 274.901C652.23 275.036 652.423 275.23 652.556 275.464L658.127 285.119C658.262 285.352 658.333 285.616 658.332 285.885C658.332 286.154 658.262 286.418 658.127 286.651C657.993 286.884 657.799 287.078 657.567 287.212C657.334 287.347 657.07 287.418 656.801 287.418V287.418ZM645.35 285.884C645.351 285.938 645.365 285.991 645.392 286.038C645.419 286.085 645.458 286.124 645.504 286.151C645.551 286.178 645.604 286.192 645.658 286.192H656.801C656.855 286.192 656.908 286.178 656.954 286.151C657.001 286.124 657.04 286.085 657.066 286.038C657.093 285.991 657.108 285.938 657.108 285.884C657.108 285.83 657.093 285.778 657.066 285.732L651.495 276.077C651.468 276.031 651.429 275.992 651.382 275.965C651.336 275.938 651.283 275.924 651.229 275.924C651.175 275.924 651.123 275.938 651.076 275.965C651.03 275.992 650.991 276.031 650.964 276.077L645.392 285.732C645.365 285.778 645.351 285.83 645.35 285.884V285.884Z" fill="#E6E6E6"/>
<path d="M651.229 277.61C651.737 277.61 652.148 277.198 652.148 276.69C652.148 276.183 651.737 275.771 651.229 275.771C650.722 275.771 650.31 276.183 650.31 276.69C650.31 277.198 650.722 277.61 651.229 277.61Z" fill="#E6E6E6"/>
<path d="M714.908 297.379H708.866C708.72 297.379 708.577 297.341 708.45 297.268C708.323 297.195 708.218 297.091 708.145 296.964C708.072 296.838 708.034 296.694 708.034 296.548C708.035 296.402 708.074 296.258 708.147 296.132L711.168 290.898L711.175 290.885C711.241 290.774 711.333 290.679 711.442 290.61C711.551 290.541 711.675 290.499 711.804 290.486L711.809 290.486C711.834 290.484 711.861 290.482 711.887 290.482C712.033 290.482 712.176 290.52 712.303 290.593C712.429 290.666 712.534 290.771 712.606 290.898L715.627 296.132C715.7 296.259 715.738 296.402 715.738 296.548C715.738 296.693 715.7 296.837 715.627 296.963C715.554 297.089 715.449 297.194 715.323 297.267C715.197 297.34 715.053 297.378 714.908 297.379V297.379ZM708.699 296.547C708.7 296.576 708.708 296.605 708.722 296.631C708.737 296.656 708.758 296.677 708.783 296.692C708.808 296.707 708.837 296.714 708.866 296.714H714.908C714.937 296.714 714.966 296.707 714.991 296.692C715.016 296.677 715.037 296.656 715.051 296.631C715.066 296.605 715.074 296.576 715.074 296.547C715.074 296.518 715.066 296.49 715.051 296.465L712.031 291.23C712.016 291.205 711.995 291.184 711.97 291.169C711.945 291.155 711.916 291.147 711.887 291.147C711.858 291.147 711.829 291.155 711.804 291.169C711.779 291.184 711.758 291.205 711.743 291.23L708.722 296.465C708.708 296.489 708.7 296.518 708.699 296.547V296.547Z" fill="#E6E6E6"/>
<path d="M711.887 292.061C712.162 292.061 712.385 291.838 712.385 291.563C712.385 291.287 712.162 291.064 711.887 291.064C711.612 291.064 711.389 291.287 711.389 291.563C711.389 291.838 711.612 292.061 711.887 292.061Z" fill="#E6E6E6"/>
<path d="M635.813 313.28C636.253 312.268 636.895 311.357 637.699 310.602C638.503 309.847 639.452 309.264 640.489 308.888C641.567 308.472 642.722 308.294 643.875 308.366C645.028 308.437 646.153 308.758 647.171 309.304C649.561 310.574 651.473 312.569 653.901 313.784C656.261 314.954 658.859 315.567 661.494 315.574C664.477 315.597 667.413 314.835 670.008 313.363C670.109 313.299 670.181 313.199 670.21 313.083C670.238 312.967 670.22 312.845 670.16 312.742C670.1 312.639 670.002 312.563 669.887 312.531C669.772 312.499 669.649 312.512 669.544 312.569C667.193 313.887 664.551 314.603 661.855 314.653C659.16 314.702 656.494 314.084 654.095 312.852C651.659 311.575 649.729 309.512 647.248 308.314C646.195 307.803 645.05 307.506 643.881 307.44C642.712 307.374 641.542 307.542 640.438 307.932C639.21 308.344 638.084 309.012 637.134 309.891C636.184 310.771 635.432 311.843 634.927 313.035C634.704 313.583 635.593 313.821 635.813 313.28V313.28Z" fill="#E6E6E6"/>
<path d="M635.087 321.874C640.187 320.735 645.478 320.754 650.57 321.928C655.094 322.978 659.764 324.866 664.428 323.458C666.511 322.829 668.421 321.57 669.491 319.634C669.778 319.115 668.984 318.651 668.698 319.17C666.682 322.816 661.96 323.431 658.231 322.833C655.739 322.433 653.337 321.631 650.885 321.058C645.611 319.821 640.126 319.797 634.843 320.988C634.266 321.117 634.51 322.003 635.087 321.874V321.874Z" fill="#E6E6E6"/>
<path d="M634.756 301.322C639.646 300.489 644.655 300.668 649.474 301.845C653.975 302.949 658.376 305.47 663.136 305.035C665.34 304.833 667.522 304.022 669.019 302.335C669.41 301.894 668.763 301.242 668.369 301.685C667.077 303.14 665.217 303.894 663.308 304.098C661.108 304.333 658.946 303.877 656.852 303.229C654.534 302.512 652.283 301.603 649.926 301.01C644.884 299.744 639.633 299.548 634.511 300.435C633.93 300.534 634.176 301.421 634.756 301.322V301.322Z" fill="#E6E6E6"/>
<path d="M704.199 299.138C706.312 301.303 707.769 304.022 708.403 306.98C708.89 309.334 708.835 311.767 708.242 314.097C707.649 316.426 706.534 318.589 704.981 320.423C704.601 320.872 705.248 321.525 705.631 321.073C707.747 318.58 709.097 315.528 709.521 312.285C709.83 309.782 709.571 307.241 708.761 304.852C707.952 302.463 706.615 300.288 704.849 298.488C704.434 298.065 703.784 298.715 704.199 299.138Z" fill="#E6E6E6"/>
<path d="M717.988 297.176C715.171 299.243 713.594 302.579 713.373 306.029C713.142 309.619 714.51 313.086 716.714 315.874C718 317.479 719.536 318.866 721.263 319.982C721.759 320.307 722.22 319.511 721.727 319.188C718.913 317.346 716.505 314.729 715.227 311.59C714.604 310.098 714.28 308.498 714.276 306.882C714.271 305.265 714.585 303.664 715.2 302.169C715.889 300.503 717.012 299.053 718.452 297.97C718.924 297.623 718.466 296.825 717.988 297.176V297.176Z" fill="#E6E6E6"/>
<path d="M653.374 306.42C655.742 306.42 657.663 304.499 657.663 302.129C657.663 299.759 655.742 297.838 653.374 297.838C651.005 297.838 649.085 299.759 649.085 302.129C649.085 304.499 651.005 306.42 653.374 306.42Z" fill="#ECA400"/>
</g>
<path d="M348.194 453.31L614.954 154.016L881.715 453.31H614.954H348.194Z" stroke="#F5F9E9"/>
<path d="M1193.16 387.19C1193.16 388.727 1192.14 390.33 1189.95 391.969C1187.77 393.599 1184.52 395.193 1180.29 396.723C1171.84 399.781 1159.58 402.544 1144.4 404.867C1114.04 409.512 1072.09 412.388 1025.73 412.388C979.377 412.388 937.422 409.512 907.065 404.867C891.882 402.544 879.623 399.781 871.171 396.723C866.942 395.193 863.695 393.599 861.516 391.969C859.324 390.33 858.304 388.727 858.304 387.19C858.304 385.654 859.324 384.051 861.516 382.412C863.695 380.782 866.942 379.188 871.171 377.658C879.623 374.6 891.882 371.837 907.065 369.514C937.422 364.869 979.377 361.993 1025.73 361.993C1072.09 361.993 1114.04 364.869 1144.4 369.514C1159.58 371.837 1171.84 374.6 1180.29 377.658C1184.52 379.188 1187.77 380.782 1189.95 382.412C1192.14 384.051 1193.16 385.654 1193.16 387.19Z" stroke="#F5F9E9"/>
<path d="M808.696 442.86L859.671 385.966L931.793 411.14L808.696 442.86Z" stroke="#F5F9E9"/>
<g clip-path="url(#clip1_80_1023)">
<path d="M1151.74 277.214C1137.09 295.507 1109.46 299.696 1086.6 293.325C1079.12 291.189 1071.9 288.254 1065.08 284.573C1061.11 282.471 1057.25 280.165 1053.46 277.708C1052.53 277.106 1051.59 276.495 1050.67 275.871C1050.04 275.452 1049.42 275.027 1048.79 274.597C1040.97 269.219 1033.45 263.32 1026.06 257.455C1007.6 242.814 988.647 227.722 965.976 220.736C961.306 219.298 955.264 218.625 952.375 222.49C949.869 225.845 951.399 230.596 953.519 234.195C961.385 247.528 975.662 255.946 989.952 262.419C1004.24 268.892 1019.38 274.137 1031.8 283.601C1044.22 293.066 1053.71 308.108 1051.17 323.292C1048.98 336.378 1038.04 347.009 1025.32 351.642C1012.61 356.273 998.424 355.628 985.206 352.621C971.987 349.611 959.438 344.36 946.681 339.835C938.989 337.103 928.933 335.214 923.83 341.465C919.519 346.747 921.997 355.078 927.246 359.474C932.495 363.87 939.599 365.342 946.377 366.663C967.424 370.769 988.47 374.873 1009.52 378.977C1015.97 380.233 1022.58 381.548 1028.21 384.894C1033.83 388.238 1038.37 394.078 1038.21 400.508C1038.05 406.845 1033.3 412.445 1027.48 415.251C1021.66 418.054 1014.94 418.486 1008.46 418.184C984.169 417.048 914.536 379.353 897.835 374.535C887.103 371.442 875.369 366.898 870.844 356.902C865.21 344.459 874.481 329.404 887.138 323.721C899.791 318.035 914.46 319.295 928.251 321.209C942.042 323.123 956.287 325.558 969.712 321.922C983.136 318.285 995.435 306.432 994.111 292.886C992.957 281.101 982.09 272.22 970.653 268.306C961.701 265.24 952.176 264.407 942.772 263.027C940.161 262.647 937.561 262.221 934.985 261.696C928.389 260.347 921.955 258.329 915.787 255.677C909.315 252.9 903.166 249.453 897.446 245.395C892.884 242.163 888.62 238.546 884.704 234.587C884.107 233.982 883.516 233.364 882.932 232.732C882.375 232.127 881.825 231.51 881.288 230.88C874.298 222.721 869.134 212.674 870.683 202.32C872.228 191.994 880.467 183.397 890.276 179.267C895.945 176.881 902.06 175.813 908.25 175.659C912.777 175.57 917.302 175.888 921.769 176.609C942.44 179.838 961.381 189.648 979.271 200.27C997.157 210.892 1014.59 222.552 1034.03 230.124C1053.48 237.699 1075.61 240.906 1095.34 234.056C1115.06 227.21 1131.27 208.528 1130.3 188.102C1143.39 199.107 1154.5 212.939 1159.43 229.102C1164.35 245.265 1162.37 263.928 1151.74 277.214Z" fill="#3F3D56"/>
<path d="M1057.47 256.105C1058.74 256.105 1059.77 255.099 1059.77 253.858C1059.77 252.617 1058.74 251.611 1057.47 251.611C1056.2 251.611 1055.17 252.617 1055.17 253.858C1055.17 255.099 1056.2 256.105 1057.47 256.105Z" fill="#ECA400"/>
<path d="M1138.69 227.697C1140.65 227.697 1142.24 226.142 1142.24 224.224C1142.24 222.306 1140.65 220.75 1138.69 220.75C1136.73 220.75 1135.13 222.306 1135.13 224.224C1135.13 226.142 1136.73 227.697 1138.69 227.697Z" fill="#FF6584"/>
<path d="M905.472 334.783C906.198 334.783 906.786 334.209 906.786 333.5C906.786 332.791 906.198 332.217 905.472 332.217C904.746 332.217 904.158 332.791 904.158 333.5C904.158 334.209 904.746 334.783 905.472 334.783Z" fill="#FF6584"/>
<path d="M943.182 259.724C943.183 260.837 943.045 261.946 942.772 263.027C940.161 262.647 937.561 262.221 934.985 261.696C928.389 260.347 921.955 258.329 915.787 255.677C916.779 252.549 918.886 249.872 921.727 248.132C924.567 246.391 927.951 245.704 931.266 246.194C934.581 246.683 937.606 248.318 939.793 250.8C941.979 253.283 943.182 256.449 943.182 259.724V259.724Z" fill="#FF6584"/>
<path d="M1115.94 248.071C1116.68 248.071 1117.28 247.483 1117.28 246.758C1117.28 246.033 1116.68 245.446 1115.94 245.446C1115.19 245.446 1114.59 246.033 1114.59 246.758C1114.59 247.483 1115.19 248.071 1115.94 248.071Z" fill="#F0F0F0"/>
<path d="M993.007 392.537C993.749 392.537 994.351 391.95 994.351 391.225C994.351 390.5 993.749 389.912 993.007 389.912C992.265 389.912 991.664 390.5 991.664 391.225C991.664 391.95 992.265 392.537 993.007 392.537Z" fill="#F0F0F0"/>
<path d="M1012.28 410.75C1013.03 410.75 1013.63 410.162 1013.63 409.438C1013.63 408.713 1013.03 408.125 1012.28 408.125C1011.54 408.125 1010.94 408.713 1010.94 409.438C1010.94 410.162 1011.54 410.75 1012.28 410.75Z" fill="#F0F0F0"/>
<path d="M893.148 358.89C893.89 358.89 894.491 358.303 894.491 357.578C894.491 356.853 893.89 356.265 893.148 356.265C892.405 356.265 891.804 356.853 891.804 357.578C891.804 358.303 892.405 358.89 893.148 358.89Z" fill="#F0F0F0"/>
<path d="M959.194 334.504C959.936 334.504 960.538 333.916 960.538 333.191C960.538 332.466 959.936 331.879 959.194 331.879C958.452 331.879 957.85 332.466 957.85 333.191C957.85 333.916 958.452 334.504 959.194 334.504Z" fill="#F0F0F0"/>
<path d="M952.558 204.237C953.3 204.237 953.902 203.649 953.902 202.924C953.902 202.199 953.3 201.612 952.558 201.612C951.816 201.612 951.214 202.199 951.214 202.924C951.214 203.649 951.816 204.237 952.558 204.237Z" fill="#F0F0F0"/>
<path d="M1033.77 307.03C1034.51 307.03 1035.12 306.443 1035.12 305.718C1035.12 304.993 1034.51 304.405 1033.77 304.405C1033.03 304.405 1032.43 304.993 1032.43 305.718C1032.43 306.443 1033.03 307.03 1033.77 307.03Z" fill="#F0F0F0"/>
<path d="M1043.89 329.874C1044.63 329.874 1045.23 329.286 1045.23 328.561C1045.23 327.836 1044.63 327.248 1043.89 327.248C1043.14 327.248 1042.54 327.836 1042.54 328.561C1042.54 329.286 1043.14 329.874 1043.89 329.874Z" fill="#F0F0F0"/>
<path d="M922.768 207.114C922.778 213.741 921.175 220.276 918.091 226.179C917.683 226.957 917.252 227.721 916.795 228.472C912.28 235.922 905.523 241.831 897.446 245.395C892.884 242.163 888.62 238.546 884.704 234.587C884.107 233.982 883.516 233.364 882.932 232.732C882.375 232.127 881.825 231.51 881.288 230.88C874.298 222.721 869.134 212.674 870.683 202.32C872.228 191.994 880.467 183.397 890.276 179.267C895.945 176.881 902.06 175.813 908.25 175.659C913.091 179.834 916.907 185.021 919.415 190.834C919.731 191.565 920.022 192.306 920.297 193.056C921.937 197.57 922.773 202.325 922.768 207.114V207.114Z" fill="#ECA400"/>
<path d="M942.361 209.275C942.361 215.705 935.933 221.669 924.26 226.074C921.924 226.957 919.425 227.756 916.795 228.472C906.955 231.152 895.243 232.636 882.932 232.732C882.375 232.127 881.825 231.51 881.288 230.88C881.421 230.883 881.554 230.883 881.686 230.883C895.057 230.883 907.742 229.229 918.091 226.179C920.003 225.614 921.836 225.003 923.577 224.345C934.309 220.298 940.465 214.803 940.465 209.275C940.465 203.746 934.309 198.255 923.577 194.205C922.515 193.803 921.422 193.421 920.297 193.056C920.022 192.306 919.731 191.565 919.415 190.834C921.096 191.346 922.711 191.894 924.26 192.476C935.933 196.881 942.361 202.848 942.361 209.275Z" fill="#E4E4E4"/>
<path d="M883.667 186.333C884.409 186.333 885.011 185.745 885.011 185.02C885.011 184.295 884.409 183.708 883.667 183.708C882.925 183.708 882.324 184.295 882.324 185.02C882.324 185.745 882.925 186.333 883.667 186.333Z" fill="#F0F0F0"/>
<path d="M911.792 194.667C912.534 194.667 913.136 194.08 913.136 193.355C913.136 192.63 912.534 192.042 911.792 192.042C911.05 192.042 910.449 192.63 910.449 193.355C910.449 194.08 911.05 194.667 911.792 194.667Z" fill="#F0F0F0"/>
<path d="M897.256 219.392C904.472 219.392 910.322 213.678 910.322 206.629C910.322 199.579 904.472 193.865 897.256 193.865C890.039 193.865 884.189 199.579 884.189 206.629C884.189 213.678 890.039 219.392 897.256 219.392Z" fill="#F0F0F0"/>
<path opacity="0.3" d="M1138.56 274.183C1135.63 275.029 1129.16 275.652 1122.05 276.035C1114.95 276.415 1107.15 276.581 1099.45 276.742C1085.98 277.026 1072.51 277.311 1059.03 277.597C1057.18 277.637 1055.32 277.674 1053.46 277.708C1052.53 277.106 1051.59 276.495 1050.67 275.872C1052.32 275.881 1053.98 275.872 1055.62 275.841C1062.62 275.705 1068.55 275.171 1075.31 274.918C1085.71 274.526 1096.93 274.834 1107.77 274.992C1118.6 275.152 1130.95 275.094 1138.56 274.183Z" fill="#F0F0F0"/>
<path opacity="0.3" d="M931.756 371.491L888.803 336.538L930.531 372.891C930.612 373.024 930.724 373.137 930.858 373.219C930.992 373.301 931.144 373.351 931.302 373.364C931.459 373.377 931.618 373.354 931.765 373.295C931.911 373.236 932.041 373.144 932.144 373.027C932.247 372.909 932.319 372.769 932.356 372.619C932.392 372.469 932.392 372.312 932.354 372.162C932.316 372.012 932.242 371.872 932.138 371.756C932.034 371.639 931.903 371.549 931.756 371.491H931.756Z" fill="#F0F0F0"/>
<path d="M899.152 239.119C899.894 239.119 900.495 238.531 900.495 237.806C900.495 237.081 899.894 236.494 899.152 236.494C898.41 236.494 897.808 237.081 897.808 237.806C897.808 238.531 898.41 239.119 899.152 239.119Z" fill="#0B7A75"/>
<path d="M1012 389.891L1017.56 389.891L1020.2 368.951L1012 368.951L1012 389.891Z" fill="#DB5461"/>
<path d="M1010.58 388.119L1012.15 388.119L1018.26 385.693L1021.53 388.118H1021.53C1023.38 388.118 1025.15 388.836 1026.46 390.114C1027.77 391.392 1028.5 393.125 1028.5 394.932V395.153L1010.58 395.154L1010.58 388.119Z" fill="#2F2E41"/>
<path d="M970.38 389.891L964.822 389.891L962.178 368.951L970.381 368.951L970.38 389.891Z" fill="#DB5461"/>
<path d="M971.798 395.154L953.877 395.153V394.932C953.877 393.125 954.612 391.392 955.92 390.114C957.228 388.836 959.002 388.118 960.852 388.118H960.853L964.126 385.693L970.233 388.119L971.798 388.119L971.798 395.154Z" fill="#2F2E41"/>
<path d="M990.294 229.408L984.667 233.594L969.718 237.461C969.718 237.461 975.074 274.183 972.546 276.652C970.018 279.122 972.298 279.188 971.79 282.396C971.282 285.604 969.258 294.074 969.258 294.074H1013.87C1013.87 294.074 1014.23 288.81 1012.03 287.671C1009.84 286.531 1014.06 281.21 1012.27 280.32C1010.47 279.431 1013 271.713 1013 271.713L1018.47 246.447L1003.9 235.31L1001.69 230.094L990.294 229.408Z" fill="#ECA400"/>
<path d="M997.316 262.222C998.391 262.222 999.263 261.371 999.263 260.32C999.263 259.27 998.391 258.418 997.316 258.418C996.241 258.418 995.369 259.27 995.369 260.32C995.369 261.371 996.241 262.222 997.316 262.222Z" fill="#0B7A75"/>
<path d="M969.258 294.074L967.418 340.353C967.418 340.353 959.474 374.534 960.854 375.433C962.234 376.332 962.818 381.69 962.818 381.69L970.638 382.589C970.638 382.589 970.638 378.994 972.478 377.646C974.317 376.298 991.336 312.945 991.336 312.945L1007.94 374.198C1007.94 374.198 1008.36 377.646 1009.74 377.646C1011.12 377.646 1011.58 382.589 1011.58 382.589H1019.39V377.646C1019.39 377.646 1022.91 376.558 1021.53 372.964C1020.15 369.369 1013.87 294.074 1013.87 294.074H969.258Z" fill="#2F2E41"/>
<path d="M996.138 226.65C1001.35 226.65 1005.57 222.526 1005.57 217.439C1005.57 212.352 1001.35 208.229 996.138 208.229C990.93 208.229 986.709 212.352 986.709 217.439C986.709 222.526 990.93 226.65 996.138 226.65Z" fill="#DB5461"/>
<path opacity="0.1" d="M1012.26 258.803L1014.1 260.151L1015.02 253.861L1012.26 258.803Z" fill="black"/>
<path d="M970.6 237.425C970.6 237.425 968.3 236.976 966.92 241.02C965.54 245.064 960.48 260.34 960.48 263.036C960.48 265.732 991.99 277.627 991.99 277.627L988.711 266.392L974.279 258.992L970.6 237.425Z" fill="#ECA400"/>
<path d="M993.451 275.961C996.418 275.961 998.824 273.612 998.824 270.713C998.824 267.815 996.418 265.466 993.451 265.466C990.485 265.466 988.079 267.815 988.079 270.713C988.079 273.612 990.485 275.961 993.451 275.961Z" fill="#DB5461"/>
<path opacity="0.1" d="M973.859 253.427L974.279 258.992L987.625 265.835L975.755 258.057L973.859 253.427Z" fill="black"/>
<path d="M1005.94 254.22H1005.77V249.587C1005.77 249.235 1005.7 248.887 1005.56 248.561C1005.42 248.236 1005.22 247.94 1004.96 247.691C1004.71 247.442 1004.41 247.245 1004.07 247.11C1003.74 246.975 1003.38 246.906 1003.02 246.906H992.975C992.614 246.906 992.257 246.975 991.924 247.11C991.591 247.245 991.289 247.442 991.034 247.691C990.779 247.94 990.577 248.236 990.439 248.561C990.301 248.887 990.23 249.235 990.23 249.587V275.004C990.23 275.356 990.301 275.705 990.439 276.03C990.577 276.355 990.779 276.651 991.034 276.9C991.289 277.149 991.591 277.346 991.924 277.481C992.257 277.616 992.614 277.685 992.975 277.685H1003.02C1003.38 277.685 1003.74 277.616 1004.07 277.481C1004.41 277.346 1004.71 277.149 1004.96 276.9C1005.22 276.651 1005.42 276.355 1005.56 276.03C1005.7 275.705 1005.77 275.356 1005.77 275.004V257.518H1005.94V254.22Z" fill="#F0F0F0"/>
<path d="M1018.47 246.447C1018.47 246.447 1019.85 247.346 1020.77 251.39C1021.69 255.434 1027.67 270.71 1025.37 274.305C1023.07 277.899 1022.4 281.736 1014.58 276.344L1003.76 266.666L1011.57 259.477L1014.79 261.724L1018.47 246.447Z" fill="#ECA400"/>
<path d="M998.122 258.234C999.392 258.234 1000.42 257.228 1000.42 255.988C1000.42 254.747 999.392 253.741 998.122 253.741C996.852 253.741 995.822 254.747 995.822 255.988C995.822 257.228 996.852 258.234 998.122 258.234Z" fill="#ECA400"/>
<path d="M1004.78 266.157C1007.75 266.157 1010.15 263.808 1010.15 260.909C1010.15 258.011 1007.75 255.662 1004.78 255.662C1001.81 255.662 999.407 258.011 999.407 260.909C999.407 263.808 1001.81 266.157 1004.78 266.157Z" fill="#DB5461"/>
<path opacity="0.1" d="M973.605 270.224L989.027 276.887L973.177 273.861L973.605 270.224Z" fill="black"/>
<path d="M986.625 219.275L985.33 214.462C984.992 213.206 984.652 211.925 984.728 210.629C984.803 209.332 985.366 207.994 986.484 207.292C987.602 206.59 989.309 206.756 990.029 207.848C990.165 206.104 991.789 204.763 993.512 204.288C995.234 203.813 997.063 204.001 998.851 204.081C1000.64 204.161 1002.53 204.105 1004.07 203.219C1004.19 203.564 1004.18 203.938 1004.05 204.278C1003.92 204.617 1003.67 204.902 1003.35 205.084C1003.73 205.187 1004.14 205.143 1004.49 204.961C1004.84 204.78 1005.11 204.475 1005.24 204.108C1005.25 205.118 1004.87 206.094 1004.17 206.839C1004.84 206.516 1005.6 206.447 1006.32 206.645C1007.03 206.843 1007.65 207.293 1008.04 207.909C1008.83 209.243 1008.39 210.918 1007.93 212.39L1005.56 219.948C1005.2 218.799 1005.14 217.586 1004.95 216.4C1004.75 215.213 1004.41 214.002 1003.61 213.091C1002.81 212.181 1001.45 211.653 1000.31 212.105C999.668 212.359 999.181 212.874 998.604 213.243C997.42 214.001 995.914 214.11 994.507 213.955C993.101 213.801 991.73 213.41 990.324 213.254C989.443 213.156 988.46 213.182 987.796 213.755C987.339 214.218 987.037 214.807 986.931 215.442C986.617 216.708 986.494 218.013 986.565 219.313" fill="#2F2E41"/>
</g>
<path d="M1086.8 447.076C1112.88 461.656 1110.78 423.239 1107.91 370.859C1104.73 312.657 1100.6 237.216 1133.15 198.087M1133.79 197.323C1150.94 177.253 1178.04 167.069 1220.37 174.269M1147.18 234.922C1139.68 233.886 1129.65 231.14 1117.73 226.908C1120.13 220.322 1122.99 214.146 1126.4 208.489C1126.67 208.036 1126.95 207.587 1127.23 207.141C1137.3 211.679 1146.69 215.507 1155.26 218.623C1155.47 218.871 1155.68 219.117 1155.88 219.36C1158.38 222.401 1160.1 225.074 1161.01 227.323C1161.91 229.58 1161.95 231.318 1161.25 232.578C1160.55 233.837 1159.04 234.712 1156.65 235.122C1154.26 235.531 1151.08 235.461 1147.18 234.922ZM1126.31 206.726C1126.05 207.139 1125.8 207.555 1125.54 207.973C1122.1 213.69 1119.21 219.927 1116.79 226.572C1116.61 226.509 1116.44 226.446 1116.26 226.383C1091.14 217.324 1058.03 201.902 1022.9 182.262C987.766 162.622 957.288 142.493 936.411 125.832C925.969 117.499 917.948 110.048 912.947 103.97C910.444 100.929 908.718 98.256 907.816 96.0071C906.91 93.7502 906.868 92.0126 907.572 90.7527C908.276 89.4928 909.779 88.6186 912.176 88.2082C914.564 87.7993 917.745 87.8697 921.646 88.4087C929.443 89.486 939.992 92.4168 952.559 96.9475C956.707 98.4428 961.072 100.112 965.628 101.944C971.417 107.967 979.187 114.913 988.466 122.397C1011.79 141.208 1044.7 163.474 1079.87 183.135C1096.45 192.404 1112.05 200.27 1126.31 206.726ZM1153.9 217.058C1145.85 214.082 1137.11 210.492 1127.77 206.288C1129.55 203.52 1131.47 200.886 1133.54 198.401C1142.17 205.353 1149.07 211.67 1153.9 217.058ZM1132.76 197.775C1130.64 200.326 1128.67 203.03 1126.85 205.872C1112.59 199.419 1096.97 191.548 1080.36 182.262C1045.23 162.625 1012.36 140.389 989.094 121.619C980.66 114.816 973.495 108.475 967.944 102.883C990.532 112.111 1017.57 125.215 1045.93 141.068C1081.06 160.708 1111.53 180.837 1132.41 197.498C1132.53 197.591 1132.64 197.683 1132.76 197.775ZM1155.85 217.774C1150.95 212.034 1143.57 205.195 1134.18 197.636C1141.27 189.347 1150.06 182.763 1160.93 178.41C1170.47 174.592 1181.63 172.484 1194.66 172.461C1200.79 184.322 1205.03 195.336 1207.48 204.231C1208.85 209.225 1209.65 213.539 1209.92 216.955C1210.18 220.4 1209.88 222.836 1209.15 224.148C1208.42 225.447 1207.03 226.438 1204.9 227.069C1202.77 227.699 1199.97 227.951 1196.52 227.805C1189.63 227.514 1180.29 225.637 1168.92 222.16C1164.82 220.906 1160.45 219.443 1155.85 217.774ZM1194.15 171.463C1181.22 171.541 1170.11 173.66 1160.56 177.482C1149.51 181.904 1140.59 188.598 1133.4 197.01C1133.28 196.912 1133.16 196.815 1133.04 196.717C1112.1 180.012 1081.58 159.854 1046.41 140.195C1017.14 123.83 989.257 110.382 966.201 101.097C964.788 99.6214 963.496 98.2039 962.334 96.8499C959.381 93.4105 957.279 90.4024 956.116 87.9146C954.94 85.4019 954.784 83.5547 955.472 82.3236C955.832 81.6808 956.492 80.9739 957.472 80.2256C958.447 79.4807 959.715 78.7134 961.259 77.942C964.346 76.3993 968.502 74.858 973.545 73.4512C983.628 70.6382 997.212 68.3756 1012.8 67.7005C1043.97 66.3503 1083.07 71.3537 1118.12 90.9451C1153.16 110.536 1177.53 141.022 1192.33 168.071C1192.95 169.209 1193.56 170.339 1194.15 171.463Z" stroke="#F5F9E9"/>
<defs>
<clipPath id="clip0_80_1023">
<rect width="270.494" height="187.618" fill="white" transform="translate(490 256)"/>
</clipPath>
<clipPath id="clip1_80_1023">
<rect width="292.827" height="242.628" fill="white" transform="translate(869.159 175.638)"/>
</clipPath>
</defs>
</svg>
