<svg width="1292" height="349" viewBox="0 0 1292 349" fill="none" xmlns="http://www.w3.org/2000/svg">
<path d="M585.807 199.676L547.383 189.383C546.562 190.3 545.822 191.295 545.188 192.37C544.648 193.281 544.205 194.215 543.847 195.16L585.084 206.206C585.768 204.049 585.999 201.841 585.807 199.676Z" fill="#DB5461"/>
<path d="M574.526 184.426L566.395 182.248C561.498 181.832 556.594 182.911 552.514 185.255L584.172 193.734C582.325 189.886 579.023 186.552 574.526 184.426Z" fill="#DB5461"/>
<path d="M568.996 219.628L548.694 214.189C550.295 215.669 552.191 216.946 554.365 217.942C559.048 220.085 564.215 220.564 568.996 219.628Z" fill="#DB5461"/>
<path d="M582.667 211.062L542.772 200.376C542.666 202.786 543.088 205.178 543.989 207.426L577.206 216.325C579.341 214.926 581.203 213.157 582.667 211.062Z" fill="#DB5461"/>
<path d="M0 339L919 339" stroke="#F5F9E9"/>
<path d="M559.509 316.569C559.509 316.569 528.416 302.331 539.34 292.458C550.262 282.585 559.509 316.569 559.509 316.569Z" fill="#F5F9E9"/>
<path d="M558.968 319.892C558.968 319.892 544.677 273.183 565.721 275.417C586.766 277.651 558.968 319.892 558.968 319.892Z" fill="#F5F9E9"/>
<path d="M548.548 315.749L549.148 323.562L549.158 323.697C549.157 324.917 549.219 326.137 549.343 327.351C550.157 335.321 553.656 338.953 557.746 338.953C561.835 338.953 565.182 335.321 565.996 327.351C566.12 326.137 566.182 324.917 566.181 323.697L566.186 323.588L566.188 323.562L566.79 315.749H548.548Z" fill="#8D8572"/>
<path d="M566.188 323.562L566.186 323.588L566.181 323.697C566.182 324.917 566.12 326.137 565.996 327.351H549.343C549.219 326.137 549.157 324.917 549.158 323.697L549.148 323.562H566.188Z" fill="white"/>
<path d="M762.302 321.348C762.302 321.348 738.23 310.324 746.687 302.68C755.144 295.036 762.302 321.348 762.302 321.348Z" fill="#0B7A75"/>
<path d="M761.884 323.92C761.884 323.92 750.819 287.757 767.112 289.486C783.405 291.216 761.884 323.92 761.884 323.92Z" fill="#0B7A75"/>
<path d="M753.816 320.712L754.281 326.762L754.288 326.866C754.288 327.811 754.336 328.755 754.432 329.695C755.062 335.865 757.771 338.677 760.937 338.677C764.103 338.677 766.694 335.865 767.324 329.695C767.421 328.755 767.469 327.811 767.468 326.866L767.471 326.782L767.473 326.762L767.939 320.712H753.816Z" fill="#A4A3A4"/>
<path d="M767.473 326.762L767.471 326.782L767.468 326.866C767.469 327.81 767.421 328.755 767.324 329.695H754.432C754.336 328.755 754.288 327.81 754.288 326.866L754.281 326.762H767.473Z" fill="white"/>
<path d="M612.062 220.805V210.179H610.401V220.805C609.924 220.997 609.53 221.348 609.285 221.797C609.04 222.246 608.959 222.767 609.057 223.269C609.155 223.77 609.426 224.223 609.822 224.548C610.219 224.874 610.717 225.051 611.231 225.051C611.745 225.051 612.243 224.874 612.64 224.548C613.037 224.223 613.307 223.77 613.406 223.269C613.503 222.767 613.423 222.246 613.178 221.797C612.933 221.348 612.538 220.997 612.062 220.805Z" fill="#E6E6E6"/>
<path d="M615.938 328.049H604.587V190.901H600.157V328.049H588.806C587.461 328.049 586.129 328.312 584.886 328.825C583.643 329.337 582.514 330.087 581.562 331.033C580.611 331.979 579.857 333.102 579.342 334.339C578.828 335.575 578.563 336.901 578.563 338.239H626.181C626.181 336.901 625.917 335.575 625.401 334.339C624.887 333.102 624.133 331.979 623.181 331.033C622.23 330.087 621.101 329.337 619.858 328.825C618.615 328.312 617.283 328.049 615.938 328.049Z" fill="#E6E6E6"/>
<path d="M578.585 211.281H626.159L623.25 175.11C623.143 173.863 622.571 172.7 621.647 171.851C620.722 171.002 619.512 170.528 618.253 170.522H586.49C585.232 170.528 584.022 171.002 583.097 171.851C582.172 172.7 581.601 173.863 581.494 175.11L578.585 211.281Z" fill="#ECA400"/>
<path d="M644.824 274.764C644.377 274.69 643.92 274.706 643.478 274.809C643.036 274.912 642.62 275.102 642.252 275.367C641.886 275.632 641.575 275.966 641.339 276.352C641.103 276.737 640.946 277.166 640.877 277.612L639.538 286.355L644.095 287.558L647.434 279.411C647.629 278.938 647.713 278.427 647.681 277.917C647.649 277.407 647.503 276.91 647.253 276.463C647.002 276.018 646.654 275.633 646.233 275.338C645.813 275.044 645.331 274.849 644.824 274.764Z" fill="#A0616A"/>
<path d="M644.739 286.339C647.269 296.336 646.18 305.48 636.762 312.66C625.467 309.563 617.955 302.089 613.37 291.229C613.086 290.554 612.941 289.828 612.946 289.096C612.951 288.363 613.105 287.64 613.398 286.968C613.692 286.297 614.12 285.691 614.655 285.189C615.19 284.686 615.823 284.296 616.513 284.043C617.552 283.664 618.681 283.607 619.753 283.882C620.824 284.156 621.786 284.749 622.511 285.58L633.593 298.305L638.792 285.474L644.739 286.339Z" fill="#ECA400"/>
<path d="M702.613 338.791C692.3 338.246 685.893 334.723 684.341 327.5L686.002 324.47L705.021 333.089C705.501 333.306 705.905 333.661 706.182 334.108C706.459 334.555 706.596 335.073 706.576 335.598C706.556 336.122 706.38 336.628 706.069 337.053C705.759 337.478 705.329 337.801 704.834 337.982L702.613 338.791Z" fill="#E6E6E6"/>
<path d="M694.644 338.863C689.285 338.702 684.131 338.752 679.249 339.08C678.392 339.139 677.547 338.858 676.896 338.301C676.247 337.743 675.843 336.954 675.775 336.102L675.482 332.456L671.329 325.848L674.928 322.267C680.977 328.259 687.61 333.293 695.489 336.284C695.742 336.457 695.931 336.706 696.031 336.996C696.129 337.284 696.131 337.598 696.036 337.888C695.941 338.178 695.754 338.43 695.503 338.606C695.253 338.782 694.951 338.872 694.644 338.863Z" fill="#E6E6E6"/>
<path d="M665.515 312.903C658.672 325.083 651.942 333.293 643.09 337.689C632.198 341.264 624.239 336.527 618.034 326.811L636.03 314.969L638.66 317.585L662.496 299.542C663.078 298.993 663.855 298.695 664.657 298.713C665.459 298.731 666.221 299.063 666.778 299.636L687.109 324.47L684.618 328.6L665.515 312.903Z" fill="#2F2E41"/>
<path d="M671.606 327.224L662.193 312.904L664.408 308.772L676.866 321.716L671.606 327.224Z" fill="#2F2E41"/>
<path d="M617.342 281.508C622.54 281.508 626.755 277.316 626.755 272.145C626.755 266.974 622.54 262.781 617.342 262.781C612.143 262.781 607.929 266.974 607.929 272.145C607.929 277.316 612.143 281.508 617.342 281.508Z" fill="#A0616A"/>
<path d="M619.834 289.495L609.314 285.914C610.87 283.454 611.552 280.545 611.251 277.653H619.834C619.346 281.855 619.273 285.84 619.834 289.495Z" fill="#A0616A"/>
<path d="M642.259 314.555C640.682 315.2 640.567 317.289 639.075 317.999C631.866 321.429 624.239 324.213 619.003 329.152C606.768 320.887 595.428 295.218 610.144 283.987C615.167 286.911 619.654 289.004 619.557 283.987L642.259 314.555Z" fill="#ECA400"/>
<path opacity="0.2" d="M635.891 303.54L630.77 301.75L620.664 309.599L616.135 293.377C615.82 292.252 615.312 292.822 614.58 293.604C613.819 292.902 612.871 292.432 611.849 292.249C610.827 292.065 609.774 292.176 608.814 292.569C607.853 292.961 607.025 293.619 606.428 294.463C605.832 295.309 605.489 296.305 605.443 297.338C604.904 309.104 608.471 319.059 617.342 326.673C628.944 324.202 633.869 316.405 635.891 306.294L635.343 305.93C635.545 305.149 635.727 304.352 635.891 303.54Z" fill="black"/>
<path d="M618.608 259.827C621.714 260.533 625.248 261.533 625.446 262.463C628.64 263.263 631.051 265.181 631.543 268.105C631.584 268.357 631.569 268.616 631.499 268.862C631.429 269.108 631.305 269.336 631.137 269.53C630.969 269.724 630.759 269.878 630.524 269.982C630.29 270.087 630.034 270.139 629.777 270.135C628.041 270.113 625.432 269.947 623.711 269.231C618.709 272.437 617.869 280.776 620.054 286.452L616.617 286.138L613.06 275.783L612.151 285.731L604.308 284.7L605.318 272.013C605.628 269.024 606.651 266.15 608.302 263.632C608.473 263.379 608.661 263.137 608.864 262.909C610.057 261.568 611.593 260.573 613.309 260.03C615.024 259.488 616.856 259.418 618.608 259.827Z" fill="#2F2E41"/>
<path d="M636.306 291.264L644.921 301.338L657.843 286.168L649.112 275.629L636.306 291.264Z" fill="#3F3D56"/>
<path d="M655.631 286.515L645.386 278.177C645.968 276.787 648.763 277.251 648.763 277.251L656.782 285.338C657.062 285.62 657.301 285.938 657.494 286.284L655.631 286.515Z" fill="#ECA400"/>
<path d="M656.097 285.936L644.455 276.903L631.532 296.358L643.698 304.522C644.862 304.986 646.027 304.175 646.027 304.175L657.901 286.109L656.097 285.936Z" fill="#3F3D56"/>
<path d="M645.907 279.723L645.797 279.875L653.248 285.201L653.358 285.049L645.907 279.723Z" fill="#ECA400"/>
<path d="M653.457 287.042L643.677 301.749L643.836 301.853L653.615 287.145L653.457 287.042Z" fill="#ECA400"/>
<path d="M634.732 296.398L634.621 296.549L642.535 302.341L642.647 302.19L634.732 296.398Z" fill="#ECA400"/>
<path d="M644.494 279.976L634.366 294.452L634.52 294.559L644.649 280.084L644.494 279.976Z" fill="#ECA400"/>
<path d="M647.622 277.135L647.544 277.221L656.756 285.631L656.835 285.546L647.622 277.135Z" fill="#ECA400"/>
<path d="M646.855 277.207L646.778 277.294L656.406 285.75L656.483 285.663L646.855 277.207Z" fill="#ECA400"/>
<path d="M646.253 277.376L646.178 277.465L656.173 285.752L656.247 285.663L646.253 277.376Z" fill="#ECA400"/>
<path d="M640.956 294.22C640.584 293.963 640.164 293.781 639.72 293.687C639.276 293.591 638.818 293.585 638.373 293.669C637.926 293.751 637.502 293.921 637.122 294.168C636.742 294.416 636.417 294.736 636.163 295.11L631.185 302.438L634.784 305.467L641.312 299.532C641.69 299.187 641.987 298.761 642.178 298.286C642.37 297.812 642.451 297.301 642.418 296.791C642.383 296.281 642.234 295.785 641.981 295.34C641.728 294.895 641.378 294.512 640.956 294.22Z" fill="#A0616A"/>
<path d="M635.891 304.642C633.869 314.752 628.944 322.55 617.342 325.021C608.471 317.407 604.904 307.452 605.443 295.685C605.476 294.953 605.659 294.236 605.979 293.576C606.299 292.917 606.75 292.328 607.305 291.847C607.859 291.366 608.507 291.001 609.207 290.775C609.907 290.549 610.647 290.466 611.38 290.533C612.481 290.633 613.526 291.063 614.375 291.768C615.225 292.473 615.838 293.418 616.135 294.478L620.664 310.701L630.891 301.325L635.891 304.642Z" fill="#ECA400"/>
<path d="M775.363 339.105H531.022V338.505H775.472L775.363 339.105Z" fill="#3F3D56"/>
<path d="M658.732 195.722C658.585 195.722 658.444 195.781 658.34 195.884C658.237 195.987 658.179 196.128 658.179 196.273V239.235C658.179 239.381 658.237 239.521 658.34 239.624C658.444 239.728 658.585 239.786 658.732 239.786H694.723C694.871 239.786 695.011 239.728 695.115 239.624C695.218 239.521 695.277 239.381 695.277 239.235V196.273C695.277 196.128 695.218 195.987 695.115 195.884C695.011 195.781 694.871 195.722 694.723 195.722H658.732Z" fill="#E6E6E6"/>
<path d="M662.47 235.517H690.985V199.991H662.47V235.517Z" fill="white"/>
<path d="M718.652 207.013C718.565 207.013 718.481 207.048 718.419 207.11C718.357 207.171 718.322 207.255 718.322 207.342V228.717C718.322 228.804 718.357 228.887 718.419 228.948C718.481 229.01 718.565 229.045 718.652 229.045H744.437C744.525 229.045 744.609 229.01 744.671 228.948C744.733 228.887 744.768 228.804 744.768 228.717V207.342C744.768 207.255 744.733 207.171 744.671 207.11C744.609 207.048 744.525 207.013 744.437 207.013H718.652Z" fill="#E6E6E6"/>
<path d="M720.884 209.562V226.497H742.206V209.562H720.884Z" fill="#737374"/>
<path d="M681.763 198.752H671.693C671.45 198.753 671.21 198.689 670.999 198.569C670.788 198.449 670.613 198.274 670.491 198.065C670.37 197.856 670.306 197.617 670.306 197.376C670.306 197.133 670.372 196.896 670.494 196.687L675.529 188.011C675.533 188.004 675.537 187.998 675.542 187.991C675.651 187.805 675.804 187.65 675.986 187.535C676.168 187.42 676.375 187.35 676.59 187.329H676.597C676.64 187.325 676.684 187.323 676.727 187.323C676.971 187.322 677.21 187.385 677.42 187.505C677.632 187.627 677.806 187.801 677.927 188.011L682.961 196.687C683.083 196.896 683.147 197.133 683.146 197.375C683.146 197.617 683.083 197.854 682.961 198.063C682.84 198.273 682.665 198.447 682.455 198.567C682.245 198.689 682.006 198.752 681.763 198.752ZM671.414 197.374C671.415 197.423 671.428 197.47 671.452 197.512C671.477 197.555 671.512 197.59 671.554 197.614C671.596 197.638 671.644 197.651 671.693 197.651H681.763C681.812 197.651 681.86 197.638 681.901 197.614C681.944 197.59 681.979 197.555 682.002 197.512C682.027 197.47 682.04 197.423 682.04 197.374C682.04 197.325 682.027 197.279 682.002 197.237L676.968 188.562C676.943 188.521 676.908 188.486 676.866 188.461C676.824 188.437 676.776 188.425 676.727 188.425C676.679 188.425 676.632 188.437 676.589 188.461C676.548 188.486 676.512 188.521 676.488 188.562L671.452 197.237C671.428 197.279 671.415 197.325 671.414 197.374Z" fill="#E6E6E6"/>
<path d="M676.727 189.939C677.186 189.939 677.558 189.569 677.558 189.113C677.558 188.657 677.186 188.287 676.727 188.287C676.269 188.287 675.897 188.657 675.897 189.113C675.897 189.569 676.269 189.939 676.727 189.939Z" fill="#E6E6E6"/>
<path d="M734.275 207.702H728.815C728.683 207.702 728.554 207.668 728.439 207.603C728.324 207.537 728.229 207.443 728.163 207.329C728.097 207.216 728.063 207.087 728.063 206.956C728.064 206.824 728.099 206.695 728.165 206.582L730.895 201.879L730.902 201.867C730.961 201.767 731.044 201.682 731.143 201.62C731.241 201.558 731.353 201.52 731.47 201.509H731.475C731.497 201.507 731.522 201.505 731.545 201.505C731.677 201.505 731.806 201.539 731.921 201.605C732.035 201.67 732.13 201.765 732.195 201.879L734.925 206.582C734.991 206.696 735.025 206.824 735.025 206.956C735.025 207.086 734.991 207.215 734.925 207.328C734.859 207.442 734.764 207.536 734.65 207.602C734.536 207.667 734.406 207.701 734.275 207.702ZM728.664 206.955C728.665 206.981 728.672 207.007 728.685 207.03C728.698 207.053 728.717 207.071 728.74 207.085C728.763 207.098 728.789 207.105 728.815 207.105H734.275C734.301 207.105 734.328 207.098 734.35 207.085C734.373 207.071 734.392 207.053 734.404 207.03C734.418 207.007 734.425 206.981 734.425 206.955C734.425 206.929 734.418 206.903 734.404 206.881L731.675 202.177C731.662 202.155 731.643 202.136 731.62 202.122C731.597 202.11 731.571 202.103 731.545 202.103C731.519 202.103 731.493 202.11 731.47 202.122C731.447 202.136 731.428 202.155 731.415 202.177L728.685 206.881C728.672 206.903 728.665 206.929 728.664 206.955Z" fill="#E6E6E6"/>
<path d="M731.545 202.925C731.794 202.925 731.996 202.724 731.996 202.477C731.996 202.229 731.794 202.028 731.545 202.028C731.297 202.028 731.095 202.229 731.095 202.477C731.095 202.724 731.297 202.925 731.545 202.925Z" fill="#E6E6E6"/>
<path d="M662.796 221.99C663.193 221.081 663.773 220.262 664.5 219.584C665.227 218.905 666.084 218.382 667.021 218.044C667.996 217.67 669.039 217.51 670.081 217.575C671.123 217.639 672.14 217.927 673.06 218.418C675.22 219.559 676.948 221.351 679.142 222.443C681.275 223.494 683.623 224.045 686.004 224.051C688.7 224.072 691.353 223.387 693.698 222.065C693.789 222.007 693.855 221.917 693.881 221.813C693.906 221.709 693.89 221.599 693.836 221.507C693.781 221.414 693.693 221.346 693.589 221.317C693.485 221.288 693.374 221.3 693.279 221.351C691.154 222.536 688.767 223.179 686.33 223.224C683.895 223.268 681.485 222.713 679.317 221.606C677.116 220.458 675.372 218.604 673.13 217.528C672.178 217.069 671.143 216.802 670.087 216.743C669.03 216.683 667.973 216.834 666.975 217.185C665.865 217.555 664.848 218.155 663.989 218.945C663.131 219.736 662.451 220.699 661.995 221.77C661.793 222.262 662.597 222.476 662.796 221.99Z" fill="#E6E6E6"/>
<path d="M662.139 229.712C666.748 228.689 671.53 228.706 676.132 229.761C680.22 230.704 684.44 232.4 688.655 231.135C690.538 230.57 692.264 229.439 693.231 227.699C693.49 227.233 692.773 226.816 692.514 227.282C690.692 230.558 686.425 231.111 683.055 230.574C680.803 230.214 678.632 229.494 676.416 228.979C671.65 227.867 666.693 227.846 661.919 228.916C661.398 229.032 661.618 229.828 662.139 229.712Z" fill="#E6E6E6"/>
<path d="M661.84 211.245C666.26 210.497 670.786 210.658 675.141 211.715C679.209 212.707 683.186 214.972 687.488 214.582C689.48 214.4 691.452 213.671 692.804 212.155C693.158 211.759 692.573 211.173 692.217 211.571C691.05 212.879 689.369 213.556 687.643 213.74C685.655 213.951 683.701 213.541 681.809 212.959C679.714 212.315 677.68 211.498 675.55 210.965C670.993 209.827 666.248 209.651 661.619 210.448C661.094 210.537 661.316 211.334 661.84 211.245Z" fill="#E6E6E6"/>
<path d="M724.597 209.283C726.507 211.229 727.824 213.672 728.397 216.33C728.837 218.445 728.787 220.631 728.251 222.725C727.715 224.817 726.708 226.761 725.304 228.409C724.961 228.812 725.545 229.399 725.891 228.993C727.804 226.753 729.024 224.01 729.407 221.096C729.686 218.847 729.452 216.564 728.72 214.418C727.989 212.271 726.781 210.317 725.185 208.699C724.81 208.319 724.222 208.903 724.597 209.283Z" fill="#E6E6E6"/>
<path d="M737.059 207.52C734.513 209.378 733.088 212.375 732.888 215.475C732.679 218.701 733.915 221.816 735.907 224.321C737.069 225.764 738.458 227.01 740.018 228.013C740.466 228.305 740.883 227.589 740.438 227.299C737.894 225.644 735.718 223.293 734.563 220.472C734 219.131 733.708 217.694 733.704 216.242C733.699 214.789 733.983 213.35 734.539 212.007C735.162 210.51 736.177 209.207 737.478 208.234C737.904 207.922 737.491 207.205 737.059 207.52Z" fill="#E6E6E6"/>
<path d="M678.666 215.826C680.806 215.826 682.542 214.1 682.542 211.97C682.542 209.841 680.806 208.115 678.666 208.115C676.525 208.115 674.79 209.841 674.79 211.97C674.79 214.1 676.525 215.826 678.666 215.826Z" fill="#ECA400"/>
<path d="M402.871 347.813L643.947 78.8845L885.023 347.813H643.947H402.871Z" stroke="#F5F9E9"/>
<path d="M1266.41 288.261C1266.41 289.642 1265.49 291.082 1263.51 292.555C1261.54 294.019 1258.6 295.452 1254.78 296.827C1247.14 299.574 1236.06 302.057 1222.34 304.144C1194.91 308.318 1157 310.902 1115.1 310.902C1073.21 310.902 1035.3 308.318 1007.86 304.144C994.14 302.057 983.061 299.574 975.423 296.827C971.601 295.452 968.667 294.019 966.698 292.555C964.717 291.082 963.795 289.642 963.795 288.261C963.795 286.881 964.717 285.44 966.698 283.967C968.667 282.503 971.601 281.071 975.423 279.696C983.061 276.948 994.14 274.465 1007.86 272.378C1035.3 268.204 1073.21 265.62 1115.1 265.62C1157 265.62 1194.91 268.204 1222.34 272.378C1236.06 274.465 1247.14 276.948 1254.78 279.696C1258.6 281.071 1261.54 282.503 1263.51 283.967C1265.49 285.44 1266.41 286.881 1266.41 288.261Z" stroke="#F5F9E9"/>
<path d="M918.962 338.282L965.029 287.16L1030.21 309.78L918.962 338.282Z" stroke="#F5F9E9"/>
<path d="M1228.98 189.442C1215.74 205.879 1190.77 209.643 1170.11 203.919C1163.35 201.999 1156.83 199.362 1150.66 196.055C1147.07 194.166 1143.59 192.094 1140.16 189.886C1139.32 189.345 1138.47 188.796 1137.64 188.235C1137.07 187.859 1136.51 187.477 1135.94 187.091C1128.87 182.258 1122.08 176.958 1115.4 171.688C1098.72 158.532 1081.59 144.971 1061.1 138.694C1056.88 137.402 1051.42 136.797 1048.81 140.27C1046.54 143.285 1047.93 147.554 1049.84 150.788C1056.95 162.768 1069.85 170.332 1082.77 176.148C1095.68 181.964 1109.36 186.677 1120.59 195.181C1131.81 203.686 1140.39 217.202 1138.09 230.845C1136.11 242.604 1126.23 252.156 1114.73 256.319C1103.24 260.48 1090.42 259.901 1078.48 257.199C1066.53 254.494 1055.19 249.776 1043.66 245.71C1036.71 243.255 1027.62 241.558 1023.01 247.174C1019.12 251.921 1021.36 259.406 1026.1 263.356C1030.84 267.306 1037.26 268.629 1043.39 269.816C1062.41 273.505 1081.43 277.193 1100.45 280.881C1106.28 282.009 1112.25 283.191 1117.34 286.197C1122.42 289.202 1126.52 294.449 1126.38 300.227C1126.23 305.921 1121.94 310.953 1116.68 313.474C1111.42 315.993 1105.35 316.381 1099.49 316.11C1077.54 315.089 1014.61 281.218 999.52 276.889C989.821 274.11 979.217 270.027 975.128 261.045C970.036 249.865 978.415 236.337 989.853 231.231C1001.29 226.122 1014.54 227.254 1027.01 228.974C1039.47 230.693 1052.34 232.881 1064.48 229.614C1076.61 226.346 1087.72 215.696 1086.53 203.524C1085.48 192.935 1075.66 184.955 1065.33 181.438C1057.24 178.683 1048.63 177.935 1040.13 176.695C1037.77 176.353 1035.42 175.97 1033.09 175.499C1027.13 174.286 1021.32 172.473 1015.74 170.09C1009.89 167.595 1004.34 164.498 999.168 160.851C995.046 157.947 991.192 154.697 987.653 151.14C987.114 150.596 986.58 150.041 986.052 149.473C985.549 148.93 985.051 148.375 984.566 147.809C978.249 140.478 973.582 131.45 974.982 122.147C976.378 112.868 983.824 105.144 992.689 101.433C997.812 99.2886 1003.34 98.329 1008.93 98.1906C1013.02 98.1106 1017.11 98.3964 1021.15 99.0442C1039.83 101.946 1056.95 110.76 1073.12 120.305C1089.28 129.849 1105.03 140.326 1122.6 147.13C1140.18 153.936 1160.18 156.818 1178.01 150.663C1195.83 144.511 1210.48 127.725 1209.6 109.371C1221.43 119.26 1231.47 131.688 1235.93 146.211C1240.37 160.735 1238.58 177.504 1228.98 189.442Z" fill="#3F3D56"/>
<path d="M1143.79 170.474C1144.93 170.474 1145.86 169.571 1145.86 168.455C1145.86 167.34 1144.93 166.436 1143.79 166.436C1142.64 166.436 1141.71 167.34 1141.71 168.455C1141.71 169.571 1142.64 170.474 1143.79 170.474Z" fill="#ECA400"/>
<path d="M1217.18 144.949C1218.95 144.949 1220.39 143.552 1220.39 141.829C1220.39 140.105 1218.95 138.707 1217.18 138.707C1215.41 138.707 1213.97 140.105 1213.97 141.829C1213.97 143.552 1215.41 144.949 1217.18 144.949Z" fill="#FF6584"/>
<path d="M1006.42 241.17C1007.07 241.17 1007.61 240.654 1007.61 240.017C1007.61 239.38 1007.07 238.864 1006.42 238.864C1005.76 238.864 1005.23 239.38 1005.23 240.017C1005.23 240.654 1005.76 241.17 1006.42 241.17Z" fill="#FF6584"/>
<path d="M1040.5 173.727C1040.5 174.727 1040.38 175.723 1040.13 176.695C1037.77 176.353 1035.42 175.97 1033.09 175.499C1027.13 174.286 1021.32 172.473 1015.74 170.09C1016.64 167.28 1018.55 164.874 1021.11 163.311C1023.68 161.746 1026.74 161.129 1029.73 161.569C1032.73 162.009 1035.46 163.478 1037.44 165.708C1039.41 167.939 1040.5 170.784 1040.5 173.727Z" fill="#FF6584"/>
<path d="M1196.62 163.256C1197.29 163.256 1197.84 162.727 1197.84 162.076C1197.84 161.424 1197.29 160.897 1196.62 160.897C1195.95 160.897 1195.4 161.424 1195.4 162.076C1195.4 162.727 1195.95 163.256 1196.62 163.256Z" fill="#F0F0F0"/>
<path d="M1085.53 293.065C1086.2 293.065 1086.74 292.538 1086.74 291.886C1086.74 291.235 1086.2 290.706 1085.53 290.706C1084.86 290.706 1084.31 291.235 1084.31 291.886C1084.31 292.538 1084.86 293.065 1085.53 293.065Z" fill="#F0F0F0"/>
<path d="M1102.94 309.43C1103.62 309.43 1104.16 308.902 1104.16 308.251C1104.16 307.6 1103.62 307.072 1102.94 307.072C1102.27 307.072 1101.73 307.6 1101.73 308.251C1101.73 308.902 1102.27 309.43 1102.94 309.43Z" fill="#F0F0F0"/>
<path d="M995.284 262.831C995.954 262.831 996.497 262.304 996.497 261.652C996.497 261.001 995.954 260.473 995.284 260.473C994.612 260.473 994.069 261.001 994.069 261.652C994.069 262.304 994.612 262.831 995.284 262.831Z" fill="#F0F0F0"/>
<path d="M1054.97 240.92C1055.64 240.92 1056.19 240.392 1056.19 239.74C1056.19 239.089 1055.64 238.561 1054.97 238.561C1054.3 238.561 1053.76 239.089 1053.76 239.74C1053.76 240.392 1054.3 240.92 1054.97 240.92Z" fill="#F0F0F0"/>
<path d="M1048.97 123.869C1049.64 123.869 1050.19 123.34 1050.19 122.689C1050.19 122.037 1049.64 121.51 1048.97 121.51C1048.3 121.51 1047.76 122.037 1047.76 122.689C1047.76 123.34 1048.3 123.869 1048.97 123.869Z" fill="#F0F0F0"/>
<path d="M1122.37 216.233C1123.03 216.233 1123.59 215.705 1123.59 215.054C1123.59 214.402 1123.03 213.874 1122.37 213.874C1121.7 213.874 1121.15 214.402 1121.15 215.054C1121.15 215.705 1121.7 216.233 1122.37 216.233Z" fill="#F0F0F0"/>
<path d="M1131.51 236.759C1132.18 236.759 1132.72 236.231 1132.72 235.579C1132.72 234.928 1132.18 234.399 1131.51 234.399C1130.83 234.399 1130.29 234.928 1130.29 235.579C1130.29 236.231 1130.83 236.759 1131.51 236.759Z" fill="#F0F0F0"/>
<path d="M1022.05 126.454C1022.06 132.409 1020.61 138.281 1017.82 143.585C1017.46 144.284 1017.07 144.97 1016.65 145.645C1012.57 152.339 1006.47 157.649 999.167 160.851C995.044 157.947 991.191 154.697 987.652 151.14C987.112 150.596 986.578 150.041 986.05 149.473C985.547 148.929 985.05 148.375 984.565 147.809C978.248 140.478 973.581 131.45 974.981 122.146C976.377 112.868 983.823 105.143 992.687 101.432C997.81 99.2885 1003.34 98.3288 1008.93 98.1904C1013.31 101.942 1016.75 106.603 1019.02 111.826C1019.31 112.483 1019.57 113.148 1019.82 113.822C1021.3 117.878 1022.06 122.151 1022.05 126.454Z" fill="#ECA400"/>
<path d="M1039.76 128.396C1039.76 134.174 1033.95 139.533 1023.4 143.491C1021.29 144.284 1019.03 145.002 1016.65 145.645C1007.76 148.054 997.177 149.387 986.052 149.473C985.548 148.93 985.051 148.375 984.566 147.809C984.686 147.812 984.806 147.812 984.926 147.812C997.009 147.812 1008.47 146.326 1017.83 143.585C1019.55 143.077 1021.21 142.528 1022.78 141.937C1032.48 138.301 1038.05 133.363 1038.05 128.396C1038.05 123.428 1032.48 118.494 1022.78 114.855C1021.82 114.494 1020.84 114.151 1019.82 113.823C1019.57 113.149 1019.31 112.483 1019.02 111.826C1020.54 112.286 1022 112.779 1023.4 113.301C1033.95 117.26 1039.76 122.621 1039.76 128.396Z" fill="#E4E4E4"/>
<path d="M986.715 107.782C987.386 107.782 987.93 107.253 987.93 106.602C987.93 105.951 987.386 105.423 986.715 105.423C986.044 105.423 985.501 105.951 985.501 106.602C985.501 107.253 986.044 107.782 986.715 107.782Z" fill="#F0F0F0"/>
<path d="M1012.13 115.27C1012.8 115.27 1013.35 114.743 1013.35 114.091C1013.35 113.44 1012.8 112.911 1012.13 112.911C1011.46 112.911 1010.92 113.44 1010.92 114.091C1010.92 114.743 1011.46 115.27 1012.13 115.27Z" fill="#F0F0F0"/>
<path d="M998.994 137.486C1005.52 137.486 1010.8 132.352 1010.8 126.018C1010.8 119.683 1005.52 114.549 998.994 114.549C992.472 114.549 987.185 119.683 987.185 126.018C987.185 132.352 992.472 137.486 998.994 137.486Z" fill="#F0F0F0"/>
<path opacity="0.3" d="M1217.07 186.719C1214.42 187.479 1208.57 188.039 1202.15 188.383C1195.73 188.724 1188.68 188.873 1181.72 189.018C1169.55 189.273 1157.38 189.529 1145.2 189.786C1143.52 189.822 1141.84 189.856 1140.16 189.886C1139.32 189.345 1138.47 188.796 1137.64 188.236C1139.13 188.244 1140.63 188.236 1142.11 188.209C1148.44 188.086 1153.8 187.606 1159.91 187.379C1169.31 187.027 1179.45 187.304 1189.24 187.446C1199.03 187.589 1210.19 187.537 1217.07 186.719Z" fill="#F0F0F0"/>
<path opacity="0.3" d="M1030.18 274.154L991.358 242.748L1029.07 275.412C1029.14 275.532 1029.24 275.633 1029.36 275.707C1029.49 275.781 1029.62 275.826 1029.77 275.837C1029.91 275.849 1030.05 275.828 1030.18 275.775C1030.32 275.722 1030.43 275.64 1030.53 275.535C1030.62 275.428 1030.68 275.303 1030.72 275.168C1030.75 275.033 1030.75 274.892 1030.72 274.757C1030.68 274.622 1030.62 274.497 1030.52 274.392C1030.43 274.287 1030.31 274.206 1030.18 274.154Z" fill="#F0F0F0"/>
<path d="M1000.71 155.212C1001.38 155.212 1001.92 154.684 1001.92 154.032C1001.92 153.381 1001.38 152.854 1000.71 152.854C1000.04 152.854 999.495 153.381 999.495 154.032C999.495 154.684 1000.04 155.212 1000.71 155.212Z" fill="#0B7A75"/>
<path d="M1102.69 290.688H1107.72L1110.1 271.872H1102.69V290.688Z" fill="#DB5461"/>
<path d="M1101.41 289.094H1102.83L1108.35 286.915L1111.3 289.094C1112.97 289.094 1114.57 289.739 1115.76 290.887C1116.94 292.035 1117.6 293.593 1117.6 295.216V295.415L1101.41 295.416V289.094Z" fill="#2F2E41"/>
<path d="M1065.08 290.688H1060.06L1057.67 271.872H1065.08L1065.08 290.688Z" fill="#DB5461"/>
<path d="M1066.36 295.416L1050.16 295.415V295.216C1050.16 293.593 1050.83 292.035 1052.01 290.887C1053.19 289.739 1054.79 289.094 1056.47 289.094H1056.47L1059.43 286.915L1064.94 289.094H1066.36V295.416Z" fill="#2F2E41"/>
<path d="M1083.08 146.486L1077.99 150.247L1064.48 153.722C1064.48 153.722 1069.32 186.718 1067.04 188.937C1064.75 191.156 1066.81 191.216 1066.35 194.098C1065.89 196.981 1064.07 204.591 1064.07 204.591H1104.38C1104.38 204.591 1104.71 199.861 1102.72 198.838C1100.74 197.814 1104.55 193.032 1102.94 192.233C1101.31 191.434 1103.6 184.499 1103.6 184.499L1108.54 161.796L1095.37 151.789L1093.37 147.102L1083.08 146.486Z" fill="#ECA400"/>
<path d="M1089.42 175.971C1090.39 175.971 1091.18 175.207 1091.18 174.262C1091.18 173.319 1090.39 172.553 1089.42 172.553C1088.45 172.553 1087.66 173.319 1087.66 174.262C1087.66 175.207 1088.45 175.971 1089.42 175.971Z" fill="#0B7A75"/>
<path d="M1064.07 204.591L1062.4 246.175C1062.4 246.175 1055.23 276.888 1056.47 277.696C1057.72 278.504 1058.25 283.318 1058.25 283.318L1065.31 284.126C1065.31 284.126 1065.31 280.896 1066.98 279.684C1068.64 278.473 1084.02 221.548 1084.02 221.548L1099.02 276.586C1099.02 276.586 1099.4 279.684 1100.65 279.684C1101.9 279.684 1102.31 284.126 1102.31 284.126H1109.37V279.684C1109.37 279.684 1112.55 278.707 1111.31 275.477C1110.06 272.247 1104.38 204.591 1104.38 204.591H1064.07Z" fill="#2F2E41"/>
<path d="M1088.36 144.008C1093.07 144.008 1096.88 140.302 1096.88 135.731C1096.88 131.16 1093.07 127.456 1088.36 127.456C1083.65 127.456 1079.84 131.16 1079.84 135.731C1079.84 140.302 1083.65 144.008 1088.36 144.008Z" fill="#DB5461"/>
<path opacity="0.1" d="M1102.92 172.899L1104.59 174.11L1105.42 168.458L1102.92 172.899Z" fill="black"/>
<path d="M1065.28 153.69C1065.28 153.69 1063.2 153.287 1061.95 156.92C1060.71 160.554 1056.13 174.28 1056.13 176.703C1056.13 179.125 1084.61 189.813 1084.61 189.813L1081.65 179.718L1068.6 173.069L1065.28 153.69Z" fill="#ECA400"/>
<path d="M1085.93 188.316C1088.61 188.316 1090.78 186.206 1090.78 183.601C1090.78 180.997 1088.61 178.886 1085.93 178.886C1083.25 178.886 1081.07 180.997 1081.07 183.601C1081.07 186.206 1083.25 188.316 1085.93 188.316Z" fill="#DB5461"/>
<path opacity="0.1" d="M1068.22 168.068L1068.6 173.069L1080.66 179.217L1069.94 172.228L1068.22 168.068Z" fill="black"/>
<path d="M1097.22 168.781H1097.06V164.618C1097.06 164.302 1097 163.989 1096.87 163.696C1096.75 163.404 1096.56 163.138 1096.33 162.915C1096.1 162.691 1095.83 162.514 1095.53 162.393C1095.23 162.271 1094.9 162.209 1094.58 162.209H1085.5C1085.17 162.209 1084.85 162.271 1084.55 162.393C1084.25 162.514 1083.98 162.691 1083.74 162.915C1083.51 163.138 1083.33 163.404 1083.21 163.696C1083.08 163.989 1083.02 164.302 1083.02 164.618V187.456C1083.02 187.773 1083.08 188.086 1083.21 188.378C1083.33 188.67 1083.51 188.936 1083.74 189.16C1083.98 189.384 1084.25 189.561 1084.55 189.682C1084.85 189.803 1085.17 189.865 1085.5 189.865H1094.58C1094.9 189.865 1095.23 189.803 1095.53 189.682C1095.83 189.561 1096.1 189.384 1096.33 189.16C1096.56 188.936 1096.75 188.67 1096.87 188.378C1097 188.086 1097.06 187.773 1097.06 187.456V171.745H1097.22V168.781Z" fill="#F0F0F0"/>
<path d="M1108.54 161.796C1108.54 161.796 1109.78 162.604 1110.62 166.238C1111.45 169.871 1116.85 183.598 1114.77 186.828C1112.69 190.057 1112.09 193.505 1105.02 188.66L1095.24 179.964L1102.3 173.504L1105.21 175.523L1108.54 161.796Z" fill="#ECA400"/>
<path d="M1090.15 172.388C1091.3 172.388 1092.23 171.484 1092.23 170.369C1092.23 169.254 1091.3 168.35 1090.15 168.35C1089 168.35 1088.07 169.254 1088.07 170.369C1088.07 171.484 1089 172.388 1090.15 172.388Z" fill="#ECA400"/>
<path d="M1096.17 179.507C1098.85 179.507 1101.02 177.396 1101.02 174.791C1101.02 172.187 1098.85 170.077 1096.17 170.077C1093.48 170.077 1091.31 172.187 1091.31 174.791C1091.31 177.396 1093.48 179.507 1096.17 179.507Z" fill="#DB5461"/>
<path opacity="0.1" d="M1067.99 183.161L1081.93 189.148L1067.61 186.429L1067.99 183.161Z" fill="black"/>
<path d="M1079.76 137.381L1078.59 133.057C1078.29 131.928 1077.98 130.777 1078.05 129.613C1078.11 128.447 1078.62 127.245 1079.63 126.614C1080.64 125.983 1082.19 126.133 1082.84 127.114C1082.96 125.547 1084.43 124.342 1085.99 123.915C1087.54 123.488 1089.19 123.657 1090.81 123.729C1092.43 123.801 1094.13 123.751 1095.53 122.954C1095.64 123.264 1095.63 123.601 1095.51 123.906C1095.39 124.211 1095.17 124.467 1094.88 124.63C1095.22 124.723 1095.59 124.683 1095.91 124.52C1096.22 124.357 1096.47 124.083 1096.58 123.753C1096.59 124.661 1096.25 125.538 1095.62 126.207C1096.22 125.917 1096.91 125.855 1097.56 126.033C1098.2 126.211 1098.76 126.615 1099.11 127.169C1099.83 128.367 1099.43 129.872 1099.01 131.195L1096.87 137.986C1096.55 136.954 1096.49 135.864 1096.32 134.798C1096.14 133.732 1095.83 132.643 1095.11 131.825C1094.39 131.007 1093.16 130.533 1092.13 130.939C1091.55 131.167 1091.11 131.63 1090.59 131.961C1089.52 132.643 1088.16 132.741 1086.88 132.601C1085.61 132.463 1084.37 132.112 1083.1 131.971C1082.31 131.883 1081.42 131.907 1080.82 132.422C1080.41 132.838 1080.13 133.367 1080.04 133.937C1079.75 135.075 1079.64 136.248 1079.71 137.416" fill="#2F2E41"/>
<path d="M1170.29 342.07C1193.86 355.171 1191.96 320.652 1189.37 273.586C1186.49 221.289 1182.76 153.502 1212.18 118.343M1212.76 117.657C1228.25 99.6229 1252.75 90.4722 1291 96.9417L1212.76 117.657ZM1224.86 151.441C1218.08 150.51 1209.01 148.043 1198.24 144.24C1200.41 138.322 1203 132.773 1206.08 127.69C1206.32 127.283 1206.57 126.879 1206.83 126.479C1215.93 130.556 1224.41 133.996 1232.16 136.796C1232.35 137.018 1232.54 137.24 1232.72 137.458C1234.98 140.19 1236.53 142.592 1237.36 144.613C1238.17 146.641 1238.2 148.203 1237.57 149.335C1236.94 150.466 1235.57 151.252 1233.42 151.621C1231.26 151.988 1228.38 151.925 1224.86 151.441ZM1206 126.106C1205.76 126.477 1205.54 126.851 1205.3 127.226C1202.19 132.363 1199.58 137.967 1197.39 143.938C1197.23 143.882 1197.08 143.825 1196.91 143.768C1174.21 135.628 1144.29 121.771 1112.54 104.124C1080.79 86.4763 1053.25 68.3896 1034.38 53.4189C1024.94 45.9314 1017.7 39.2363 1013.18 33.775C1010.91 31.0425 1009.35 28.6407 1008.54 26.62C1007.72 24.5921 1007.68 23.0308 1008.32 21.8987C1008.96 20.7666 1010.31 19.9811 1012.48 19.6123C1014.64 19.2449 1017.51 19.3082 1021.04 19.7925C1028.08 20.7605 1037.62 23.394 1048.97 27.465C1052.72 28.8086 1056.67 30.3084 1060.79 31.9546C1066.02 37.3665 1073.04 43.6078 1081.42 50.3325C1102.5 67.2349 1132.24 87.2419 1164.03 104.908C1179.01 113.237 1193.11 120.305 1206 126.106ZM1230.93 135.389C1223.65 132.715 1215.76 129.49 1207.32 125.712C1208.92 123.225 1210.66 120.858 1212.53 118.625C1220.33 124.872 1226.56 130.548 1230.93 135.389ZM1211.83 118.063C1209.91 120.355 1208.13 122.785 1206.48 125.338C1193.6 119.54 1179.48 112.468 1164.47 104.124C1132.72 86.479 1103.02 66.499 1081.99 49.6334C1074.37 43.5206 1067.89 37.8229 1062.88 32.7983C1083.29 41.09 1107.73 52.8645 1133.36 67.1091C1165.1 84.7565 1192.64 102.843 1211.51 117.814C1211.62 117.897 1211.72 117.98 1211.83 118.063ZM1232.69 136.033C1228.26 130.875 1221.59 124.73 1213.11 117.938C1219.52 110.49 1227.46 104.574 1237.28 100.663C1245.9 97.2319 1255.99 95.3378 1267.77 95.3171C1273.31 105.975 1277.14 115.871 1279.35 123.864C1280.59 128.351 1281.31 132.227 1281.56 135.297C1281.79 138.392 1281.52 140.581 1280.86 141.76C1280.2 142.927 1278.94 143.818 1277.02 144.385C1275.09 144.951 1272.56 145.177 1269.45 145.046C1263.22 144.785 1254.78 143.098 1244.5 139.974C1240.8 138.847 1236.85 137.532 1232.69 136.033ZM1267.3 94.4204C1255.62 94.4904 1245.58 96.3944 1236.95 99.8287C1226.96 103.802 1218.9 109.817 1212.4 117.375C1212.3 117.287 1212.19 117.2 1212.08 117.112C1193.15 102.102 1165.57 83.9892 1133.79 66.3247C1107.34 51.6201 1082.14 39.5365 1061.3 31.1935C1060.03 29.8676 1058.86 28.5939 1057.81 27.3773C1055.14 24.2868 1053.24 21.5839 1052.19 19.3485C1051.13 17.0908 1050.99 15.431 1051.61 14.3248C1051.93 13.7472 1052.53 13.112 1053.41 12.4396C1054.3 11.7703 1055.44 11.0809 1056.84 10.3877C1059.63 9.00154 1063.38 7.61662 1067.94 6.35255C1077.05 3.82495 1089.33 1.7919 1103.42 1.1853C1131.58 -0.0279166 1166.92 4.46785 1198.59 22.0716C1230.26 39.6748 1252.28 67.0678 1265.66 91.3725C1266.22 92.395 1266.77 93.4104 1267.3 94.4204Z" stroke="#F5F9E9"/>
</svg>
