<svg width="2294" height="654" viewBox="0 0 2194 554" fill="none" xmlns="http://www.w3.org/2000/svg">
<path d="M1235.2 317.018L1174.39 300.634C1173.09 302.095 1171.92 303.678 1170.92 305.388C1170.06 306.839 1169.36 308.326 1168.79 309.829L1234.06 327.412C1235.14 323.979 1235.51 320.465 1235.2 317.018Z" fill="#DB5461"/>
<path d="M1217.35 292.744L1204.48 289.277C1196.73 288.615 1188.97 290.333 1182.51 294.063L1232.61 307.56C1229.69 301.435 1224.47 296.128 1217.35 292.744Z" fill="#DB5461"/>
<path d="M1208.6 348.776L1176.46 340.119C1179 342.474 1182 344.508 1185.44 346.093C1192.85 349.504 1201.03 350.266 1208.6 348.776Z" fill="#DB5461"/>
<path d="M1230.23 335.141L1167.09 318.133C1166.93 321.969 1167.59 325.776 1169.02 329.355L1221.59 343.518C1224.97 341.293 1227.92 338.477 1230.23 335.141Z" fill="#DB5461"/>
<path d="M0 538.07L1720.6 539.5" stroke="#F5F9E9"/>
<path d="M1193.58 503.083C1193.58 503.083 1144.37 480.42 1161.66 464.704C1178.95 448.988 1193.58 503.083 1193.58 503.083Z" fill="#F5F9E9"/>
<path d="M1192.73 508.372C1192.73 508.372 1170.11 434.023 1203.41 437.579C1236.72 441.134 1192.73 508.372 1192.73 508.372Z" fill="#F5F9E9"/>
<path d="M1176.23 501.777L1177.18 514.214L1177.2 514.429C1177.2 516.371 1177.3 518.312 1177.49 520.244C1178.78 532.931 1184.32 538.712 1190.79 538.712C1197.26 538.712 1202.56 532.931 1203.85 520.244C1204.04 518.312 1204.14 516.371 1204.14 514.429L1204.15 514.256L1204.15 514.214L1205.1 501.777H1176.23Z" fill="#8D8572"/>
<path d="M1204.15 514.215L1204.15 514.256L1204.14 514.429C1204.14 516.372 1204.04 518.312 1203.85 520.245H1177.49C1177.3 518.312 1177.2 516.372 1177.2 514.429L1177.18 514.215H1204.15Z" fill="white"/>
<path d="M1514.53 510.689C1514.53 510.689 1476.43 493.143 1489.82 480.976C1503.2 468.807 1514.53 510.689 1514.53 510.689Z" fill="#0B7A75"/>
<path d="M1513.87 514.784C1513.87 514.784 1496.36 457.222 1522.14 459.974C1547.93 462.727 1513.87 514.784 1513.87 514.784Z" fill="#0B7A75"/>
<path d="M1501.1 509.678L1501.83 519.308L1501.85 519.474C1501.85 520.977 1501.92 522.48 1502.07 523.976C1503.07 533.798 1507.36 538.273 1512.37 538.273C1517.38 538.273 1521.48 533.798 1522.48 523.976C1522.63 522.48 1522.71 520.977 1522.7 519.474L1522.71 519.339L1522.71 519.308L1523.45 509.678H1501.1Z" fill="#A4A3A4"/>
<path d="M1522.71 519.308L1522.71 519.339L1522.7 519.474C1522.71 520.977 1522.63 522.48 1522.48 523.976H1502.07C1501.92 522.48 1501.85 520.977 1501.85 519.474L1501.83 519.308H1522.71Z" fill="white"/>
<path d="M1276.75 350.65V333.736H1274.12V350.65C1273.37 350.956 1272.75 351.514 1272.36 352.229C1271.97 352.944 1271.84 353.772 1272 354.572C1272.15 355.37 1272.58 356.091 1273.21 356.609C1273.84 357.126 1274.63 357.408 1275.44 357.408C1276.25 357.408 1277.04 357.126 1277.67 356.609C1278.3 356.091 1278.72 355.37 1278.88 354.572C1279.03 353.772 1278.91 352.944 1278.52 352.229C1278.13 351.514 1277.51 350.956 1276.75 350.65Z" fill="#E6E6E6"/>
<path d="M1282.89 521.356H1264.92V303.05H1257.91V521.356H1239.95C1237.82 521.356 1235.71 521.775 1233.74 522.591C1231.78 523.406 1229.99 524.6 1228.48 526.106C1226.98 527.612 1225.78 529.4 1224.97 531.368C1224.16 533.336 1223.74 535.446 1223.74 537.575H1299.1C1299.1 535.446 1298.68 533.336 1297.87 531.368C1297.05 529.4 1295.86 527.612 1294.35 526.106C1292.85 524.6 1291.06 523.406 1289.09 522.591C1287.13 521.775 1285.02 521.356 1282.89 521.356Z" fill="#E6E6E6"/>
<path d="M1223.77 335.49H1299.06L1294.46 277.915C1294.29 275.929 1293.39 274.079 1291.92 272.727C1290.46 271.376 1288.54 270.622 1286.55 270.612H1236.28C1234.29 270.622 1232.38 271.376 1230.91 272.727C1229.45 274.079 1228.54 275.929 1228.38 277.915L1223.77 335.49Z" fill="#ECA400"/>
<path d="M1328.6 436.54C1327.9 436.422 1327.17 436.447 1326.47 436.611C1325.77 436.776 1325.12 437.078 1324.53 437.499C1323.95 437.921 1323.46 438.453 1323.09 439.067C1322.71 439.681 1322.47 440.363 1322.36 441.072L1320.24 454.99L1327.45 456.904L1332.74 443.937C1333.04 443.183 1333.18 442.369 1333.13 441.559C1333.08 440.746 1332.84 439.955 1332.45 439.244C1332.05 438.535 1331.5 437.923 1330.83 437.454C1330.17 436.986 1329.41 436.674 1328.6 436.54Z" fill="#A0616A"/>
<path d="M1328.47 454.964C1332.47 470.877 1330.75 485.433 1315.85 496.861C1297.97 491.931 1286.08 480.035 1278.82 462.748C1278.37 461.674 1278.14 460.518 1278.15 459.352C1278.16 458.187 1278.4 457.035 1278.87 455.965C1279.33 454.897 1280.01 453.933 1280.86 453.134C1281.7 452.333 1282.71 451.713 1283.8 451.31C1285.44 450.706 1287.23 450.616 1288.93 451.054C1290.62 451.49 1292.14 452.434 1293.29 453.757L1310.83 474.011L1319.06 453.588L1328.47 454.964Z" fill="#ECA400"/>
<path d="M1420.06 538.455C1403.74 537.587 1393.6 531.98 1391.15 520.483L1393.77 515.66L1423.87 529.379C1424.63 529.725 1425.27 530.288 1425.71 531.001C1426.15 531.711 1426.37 532.537 1426.34 533.372C1426.3 534.206 1426.03 535.012 1425.53 535.689C1425.04 536.364 1424.36 536.879 1423.58 537.166L1420.06 538.455Z" fill="#E6E6E6"/>
<path d="M1407.45 538.569C1398.97 538.313 1390.81 538.392 1383.09 538.915C1381.73 539.008 1380.39 538.562 1379.36 537.675C1378.33 536.787 1377.7 535.53 1377.59 534.174L1377.12 528.371L1370.55 517.852L1376.25 512.152C1385.82 521.691 1396.32 529.703 1408.79 534.464C1409.19 534.739 1409.49 535.137 1409.65 535.597C1409.8 536.056 1409.8 536.555 1409.65 537.017C1409.5 537.479 1409.21 537.88 1408.81 538.16C1408.41 538.44 1407.94 538.584 1407.45 538.569Z" fill="#E6E6E6"/>
<path d="M1361.35 497.248C1350.52 516.635 1339.87 529.704 1325.86 536.701C1308.62 542.392 1296.02 534.852 1286.21 519.385L1314.69 500.536L1318.85 504.701L1356.57 475.98C1357.49 475.107 1358.72 474.632 1359.99 474.661C1361.26 474.689 1362.47 475.217 1363.35 476.13L1395.53 515.659L1391.58 522.234L1361.35 497.248Z" fill="#2F2E41"/>
<path d="M1370.99 520.043L1356.09 497.249L1359.6 490.673L1379.31 511.276L1370.99 520.043Z" fill="#2F2E41"/>
<path d="M1285.11 447.274C1293.34 447.274 1300.01 440.602 1300.01 432.371C1300.01 424.139 1293.34 417.466 1285.11 417.466C1276.88 417.466 1270.21 424.139 1270.21 432.371C1270.21 440.602 1276.88 447.274 1285.11 447.274Z" fill="#A0616A"/>
<path d="M1289.05 459.988L1272.4 454.288C1274.87 450.372 1275.95 445.741 1275.47 441.139H1289.05C1288.28 447.827 1288.17 454.17 1289.05 459.988Z" fill="#A0616A"/>
<path d="M1324.54 499.878C1322.05 500.903 1321.87 504.228 1319.51 505.358C1308.1 510.819 1296.02 515.25 1287.74 523.112C1268.38 509.957 1250.43 469.097 1273.72 451.22C1281.67 455.874 1288.77 459.205 1288.62 451.22L1324.54 499.878Z" fill="#ECA400"/>
<path opacity="0.2" d="M1314.47 482.344L1306.36 479.495L1290.37 491.988L1283.2 466.167C1282.7 464.376 1281.9 465.284 1280.74 466.528C1279.53 465.411 1278.03 464.663 1276.42 464.372C1274.8 464.078 1273.13 464.256 1271.61 464.881C1270.09 465.504 1268.78 466.551 1267.84 467.896C1266.89 469.242 1266.35 470.828 1266.28 472.471C1265.43 491.2 1271.07 507.046 1285.11 519.166C1303.47 515.233 1311.27 502.821 1314.47 486.728L1313.6 486.149C1313.92 484.904 1314.21 483.637 1314.47 482.344Z" fill="black"/>
<path d="M1287.11 412.764C1292.03 413.888 1297.62 415.48 1297.94 416.959C1302.99 418.233 1306.81 421.285 1307.59 425.939C1307.65 426.341 1307.63 426.753 1307.52 427.145C1307.4 427.537 1307.21 427.9 1306.94 428.208C1306.68 428.517 1306.34 428.763 1305.97 428.929C1305.6 429.094 1305.2 429.177 1304.79 429.172C1302.04 429.136 1297.91 428.873 1295.19 427.733C1287.27 432.836 1285.94 446.109 1289.4 455.144L1283.96 454.645L1278.33 438.161L1276.9 453.997L1264.48 452.355L1266.08 432.161C1266.57 427.402 1268.19 422.828 1270.8 418.821C1271.07 418.418 1271.37 418.033 1271.69 417.67C1273.58 415.534 1276.01 413.951 1278.73 413.087C1281.44 412.225 1284.34 412.113 1287.11 412.764Z" fill="#2F2E41"/>
<path d="M1315.12 462.803L1328.76 478.839L1349.21 454.692L1335.39 437.917L1315.12 462.803Z" fill="#3F3D56"/>
<path d="M1345.71 455.244L1329.49 441.973C1330.42 439.76 1334.84 440.498 1334.84 440.498L1347.53 453.37C1347.97 453.819 1348.35 454.326 1348.66 454.876L1345.71 455.244Z" fill="#ECA400"/>
<path d="M1346.45 454.323L1328.02 439.944L1307.57 470.912L1326.82 483.908C1328.66 484.646 1330.51 483.355 1330.51 483.355L1349.3 454.599L1346.45 454.323Z" fill="#3F3D56"/>
<path d="M1330.32 444.433L1330.14 444.676L1341.94 453.153L1342.11 452.911L1330.32 444.433Z" fill="#ECA400"/>
<path d="M1342.27 456.083L1326.79 479.493L1327.04 479.658L1342.52 456.247L1342.27 456.083Z" fill="#ECA400"/>
<path d="M1312.63 470.975L1312.46 471.215L1324.98 480.436L1325.16 480.195L1312.63 470.975Z" fill="#ECA400"/>
<path d="M1328.08 444.835L1312.05 467.878L1312.3 468.049L1328.33 445.007L1328.08 444.835Z" fill="#ECA400"/>
<path d="M1333.03 440.314L1332.91 440.45L1347.49 453.838L1347.61 453.702L1333.03 440.314Z" fill="#ECA400"/>
<path d="M1331.82 440.429L1331.7 440.567L1346.93 454.026L1347.06 453.887L1331.82 440.429Z" fill="#ECA400"/>
<path d="M1330.87 440.698L1330.75 440.839L1346.57 454.031L1346.68 453.889L1330.87 440.698Z" fill="#ECA400"/>
<path d="M1322.48 467.509C1321.89 467.1 1321.23 466.81 1320.53 466.66C1319.82 466.508 1319.1 466.498 1318.39 466.631C1317.69 466.763 1317.02 467.033 1316.41 467.426C1315.81 467.821 1315.3 468.33 1314.9 468.925L1307.02 480.59L1312.71 485.412L1323.05 475.963C1323.64 475.414 1324.11 474.736 1324.42 473.981C1324.72 473.226 1324.85 472.414 1324.8 471.601C1324.74 470.789 1324.51 469.999 1324.11 469.291C1323.7 468.583 1323.15 467.974 1322.48 467.509Z" fill="#A0616A"/>
<path d="M1314.47 484.097C1311.27 500.191 1303.47 512.602 1285.11 516.536C1271.07 504.416 1265.43 488.57 1266.28 469.841C1266.33 468.675 1266.62 467.534 1267.13 466.484C1267.63 465.434 1268.35 464.497 1269.22 463.731C1270.1 462.965 1271.13 462.385 1272.24 462.024C1273.34 461.665 1274.51 461.534 1275.67 461.64C1277.42 461.798 1279.07 462.483 1280.41 463.606C1281.76 464.727 1282.73 466.232 1283.2 467.92L1290.37 493.742L1306.55 478.818L1314.47 484.097Z" fill="#ECA400"/>
<path d="M1535.2 538.954H1148.5V537.999H1535.37L1535.2 538.954Z" fill="#3F3D56"/>
<path d="M1350.62 310.725C1350.38 310.725 1350.16 310.818 1350 310.982C1349.83 311.147 1349.74 311.37 1349.74 311.601V379.986C1349.74 380.218 1349.83 380.441 1350 380.606C1350.16 380.77 1350.38 380.863 1350.62 380.863H1407.58C1407.81 380.863 1408.03 380.77 1408.2 380.606C1408.36 380.441 1408.45 380.218 1408.45 379.986V311.601C1408.45 311.37 1408.36 311.147 1408.2 310.982C1408.03 310.818 1407.81 310.725 1407.58 310.725H1350.62Z" fill="#E6E6E6"/>
<path d="M1356.53 374.068H1401.66V317.52H1356.53V374.068Z" fill="white"/>
<path d="M1445.45 328.697C1445.31 328.697 1445.18 328.753 1445.08 328.852C1444.98 328.949 1444.92 329.082 1444.92 329.221V363.244C1444.92 363.382 1444.98 363.515 1445.08 363.613C1445.18 363.711 1445.31 363.767 1445.45 363.767H1486.26C1486.39 363.767 1486.53 363.711 1486.62 363.613C1486.72 363.515 1486.78 363.382 1486.78 363.244V329.221C1486.78 329.082 1486.72 328.949 1486.62 328.852C1486.53 328.753 1486.39 328.697 1486.26 328.697H1445.45Z" fill="#E6E6E6"/>
<path d="M1448.98 332.754V359.71H1482.72V332.754H1448.98Z" fill="#737374"/>
<path d="M1387.06 315.548H1371.13C1370.74 315.549 1370.36 315.448 1370.03 315.256C1369.7 315.064 1369.42 314.787 1369.23 314.454C1369.03 314.12 1368.93 313.741 1368.93 313.357C1368.93 312.971 1369.04 312.593 1369.23 312.26L1377.2 298.451C1377.2 298.439 1377.21 298.429 1377.22 298.418C1377.39 298.123 1377.63 297.876 1377.92 297.693C1378.21 297.509 1378.54 297.398 1378.88 297.365H1378.89C1378.96 297.358 1379.03 297.355 1379.1 297.355C1379.48 297.354 1379.86 297.454 1380.19 297.645C1380.53 297.838 1380.8 298.116 1380.99 298.451L1388.96 312.26C1389.15 312.593 1389.26 312.971 1389.25 313.355C1389.25 313.74 1389.15 314.118 1388.96 314.451C1388.77 314.784 1388.49 315.062 1388.16 315.253C1387.83 315.446 1387.45 315.548 1387.06 315.548ZM1370.69 313.354C1370.69 313.431 1370.71 313.507 1370.75 313.574C1370.79 313.641 1370.84 313.697 1370.91 313.736C1370.97 313.774 1371.05 313.794 1371.13 313.794H1387.06C1387.14 313.794 1387.22 313.774 1387.28 313.736C1387.35 313.697 1387.41 313.641 1387.44 313.574C1387.48 313.507 1387.5 313.431 1387.5 313.354C1387.5 313.277 1387.48 313.202 1387.44 313.136L1379.48 299.327C1379.44 299.262 1379.38 299.206 1379.31 299.167C1379.25 299.129 1379.17 299.109 1379.1 299.109C1379.02 299.109 1378.94 299.129 1378.88 299.167C1378.81 299.206 1378.76 299.262 1378.72 299.327L1370.75 313.136C1370.71 313.202 1370.69 313.277 1370.69 313.354Z" fill="#E6E6E6"/>
<path d="M1379.1 301.52C1379.82 301.52 1380.41 300.931 1380.41 300.204C1380.41 299.479 1379.82 298.89 1379.1 298.89C1378.37 298.89 1377.78 299.479 1377.78 300.204C1377.78 300.931 1378.37 301.52 1379.1 301.52Z" fill="#E6E6E6"/>
<path d="M1470.17 329.794H1461.53C1461.32 329.794 1461.12 329.74 1460.94 329.635C1460.75 329.531 1460.6 329.382 1460.5 329.201C1460.4 329.02 1460.34 328.814 1460.34 328.606C1460.34 328.397 1460.4 328.191 1460.5 328.011L1464.82 320.525L1464.83 320.506C1464.93 320.347 1465.06 320.211 1465.22 320.113C1465.37 320.014 1465.55 319.954 1465.73 319.935H1465.74C1465.78 319.933 1465.81 319.93 1465.85 319.93C1466.06 319.93 1466.27 319.984 1466.45 320.088C1466.63 320.193 1466.78 320.343 1466.88 320.525L1471.2 328.011C1471.31 328.192 1471.36 328.397 1471.36 328.606C1471.36 328.813 1471.31 329.019 1471.2 329.199C1471.1 329.379 1470.95 329.53 1470.77 329.634C1470.59 329.738 1470.38 329.793 1470.17 329.794ZM1461.29 328.604C1461.29 328.646 1461.31 328.687 1461.33 328.724C1461.35 328.76 1461.38 328.79 1461.41 328.812C1461.45 328.833 1461.49 328.843 1461.53 328.843H1470.17C1470.21 328.843 1470.26 328.833 1470.29 328.812C1470.33 328.79 1470.36 328.76 1470.38 328.724C1470.4 328.687 1470.41 328.646 1470.41 328.604C1470.41 328.563 1470.4 328.523 1470.38 328.487L1466.06 321C1466.04 320.964 1466.01 320.934 1465.97 320.912C1465.94 320.892 1465.89 320.881 1465.85 320.881C1465.81 320.881 1465.77 320.892 1465.73 320.912C1465.7 320.934 1465.67 320.964 1465.65 321L1461.33 328.487C1461.31 328.521 1461.29 328.563 1461.29 328.604Z" fill="#E6E6E6"/>
<path d="M1465.85 322.188C1466.25 322.188 1466.56 321.869 1466.56 321.476C1466.56 321.081 1466.25 320.762 1465.85 320.762C1465.46 320.762 1465.14 321.081 1465.14 321.476C1465.14 321.869 1465.46 322.188 1465.85 322.188Z" fill="#E6E6E6"/>
<path d="M1357.05 352.537C1357.68 351.089 1358.59 349.786 1359.74 348.707C1360.89 347.627 1362.25 346.793 1363.73 346.255C1365.28 345.66 1366.93 345.406 1368.58 345.508C1370.23 345.61 1371.84 346.069 1373.29 346.85C1376.71 348.666 1379.44 351.52 1382.92 353.258C1386.29 354.931 1390.01 355.808 1393.78 355.818C1398.04 355.851 1402.24 354.761 1405.95 352.655C1406.1 352.564 1406.2 352.421 1406.24 352.255C1406.28 352.089 1406.26 351.915 1406.17 351.767C1406.09 351.62 1405.95 351.511 1405.78 351.466C1405.62 351.42 1405.44 351.438 1405.29 351.52C1401.93 353.405 1398.15 354.429 1394.29 354.501C1390.44 354.571 1386.63 353.687 1383.19 351.925C1379.71 350.098 1376.95 347.148 1373.4 345.434C1371.9 344.703 1370.26 344.278 1368.59 344.184C1366.91 344.09 1365.24 344.33 1363.66 344.888C1361.91 345.477 1360.29 346.432 1358.94 347.69C1357.58 348.948 1356.5 350.482 1355.78 352.186C1355.46 352.97 1356.73 353.311 1357.05 352.537Z" fill="#E6E6E6"/>
<path d="M1356.01 364.828C1363.3 363.199 1370.87 363.226 1378.15 364.905C1384.62 366.407 1391.3 369.108 1397.97 367.094C1400.95 366.194 1403.68 364.393 1405.21 361.624C1405.63 360.882 1404.49 360.218 1404.08 360.961C1401.2 366.176 1394.44 367.055 1389.11 366.2C1385.55 365.628 1382.11 364.481 1378.6 363.661C1371.06 361.892 1363.22 361.858 1355.66 363.561C1354.83 363.745 1355.18 365.013 1356.01 364.828Z" fill="#E6E6E6"/>
<path d="M1355.53 335.433C1362.53 334.242 1369.69 334.498 1376.59 336.182C1383.02 337.761 1389.32 341.366 1396.13 340.744C1399.28 340.455 1402.4 339.295 1404.54 336.882C1405.1 336.252 1404.17 335.319 1403.61 335.953C1401.76 338.034 1399.1 339.112 1396.37 339.404C1393.23 339.74 1390.13 339.088 1387.14 338.161C1383.82 337.135 1380.6 335.835 1377.23 334.987C1370.02 333.177 1362.51 332.896 1355.18 334.165C1354.35 334.306 1354.71 335.575 1355.53 335.433Z" fill="#E6E6E6"/>
<path d="M1454.86 332.31C1457.88 335.407 1459.96 339.296 1460.87 343.526C1461.57 346.893 1461.49 350.373 1460.64 353.705C1459.79 357.037 1458.2 360.13 1455.98 362.753C1455.43 363.395 1456.36 364.329 1456.9 363.683C1459.93 360.117 1461.86 355.752 1462.47 351.114C1462.91 347.534 1462.54 343.9 1461.38 340.483C1460.22 337.066 1458.31 333.955 1455.79 331.381C1455.19 330.776 1454.26 331.705 1454.86 332.31Z" fill="#E6E6E6"/>
<path d="M1474.58 329.504C1470.55 332.461 1468.29 337.232 1467.98 342.166C1467.65 347.301 1469.6 352.26 1472.76 356.247C1474.59 358.543 1476.79 360.527 1479.26 362.123C1479.97 362.588 1480.63 361.449 1479.93 360.987C1475.9 358.353 1472.46 354.61 1470.63 350.12C1469.74 347.986 1469.27 345.698 1469.27 343.386C1469.26 341.074 1469.71 338.784 1470.59 336.646C1471.58 334.263 1473.18 332.189 1475.24 330.64C1475.92 330.144 1475.26 329.002 1474.58 329.504Z" fill="#E6E6E6"/>
<path d="M1382.16 342.725C1385.55 342.725 1388.3 339.978 1388.3 336.588C1388.3 333.198 1385.55 330.451 1382.16 330.451C1378.78 330.451 1376.03 333.198 1376.03 336.588C1376.03 339.978 1378.78 342.725 1382.16 342.725Z" fill="#ECA400"/>
<path d="M945.68 552.816L1327.22 124.748L1708.75 552.816H1327.22H945.68Z" stroke="#F5F9E9"/>
<path d="M2154.2 458.248C2154.2 460.446 2152.74 462.739 2149.61 465.083C2146.49 467.414 2141.84 469.694 2135.79 471.882C2123.7 476.256 2106.17 480.208 2084.46 483.53C2041.04 490.174 1981.04 494.287 1914.73 494.287C1848.43 494.287 1788.43 490.174 1745.01 483.53C1723.29 480.208 1705.76 476.256 1693.67 471.882C1687.62 469.694 1682.98 467.414 1679.86 465.083C1676.73 462.739 1675.27 460.446 1675.27 458.248C1675.27 456.051 1676.73 453.758 1679.86 451.414C1682.98 449.083 1687.62 446.803 1693.67 444.614C1705.76 440.241 1723.29 436.289 1745.01 432.966C1788.43 426.323 1848.43 422.209 1914.73 422.209C1981.04 422.209 2041.04 426.323 2084.46 432.966C2106.17 436.289 2123.7 440.241 2135.79 444.614C2141.84 446.803 2146.49 449.083 2149.61 451.414C2152.74 453.758 2154.2 456.051 2154.2 458.248Z" stroke="#F5F9E9"/>
<path d="M1604.31 537.869L1677.22 456.496L1780.37 492.501L1604.31 537.869Z" stroke="#F5F9E9"/>
<path d="M2094.96 300.953C2074 327.116 2034.49 333.108 2001.79 323.996C1991.09 320.941 1980.77 316.743 1971.01 311.478C1965.33 308.472 1959.81 305.174 1954.39 301.659C1953.06 300.798 1951.72 299.924 1950.4 299.032C1949.5 298.433 1948.61 297.825 1947.71 297.21C1936.53 289.518 1925.77 281.081 1915.2 272.692C1888.8 251.752 1861.69 230.166 1829.27 220.175C1822.59 218.118 1813.95 217.155 1809.81 222.683C1806.23 227.482 1808.42 234.277 1811.45 239.425C1822.7 258.494 1843.12 270.534 1863.56 279.792C1883.99 289.05 1905.65 296.552 1923.41 310.088C1941.18 323.625 1954.75 345.139 1951.12 366.856C1947.98 385.573 1932.34 400.778 1914.14 407.404C1895.97 414.028 1875.68 413.105 1856.77 408.804C1837.86 404.499 1819.92 396.989 1801.67 390.517C1790.67 386.609 1776.29 383.908 1768.99 392.848C1762.82 400.403 1766.37 412.318 1773.87 418.606C1781.38 424.893 1791.54 426.999 1801.24 428.888C1831.34 434.761 1861.44 440.63 1891.55 446.5C1900.77 448.296 1910.22 450.177 1918.28 454.963C1926.32 459.746 1932.81 468.098 1932.58 477.295C1932.35 486.358 1925.56 494.368 1917.23 498.381C1908.91 502.39 1899.3 503.008 1890.03 502.576C1855.29 500.951 1755.69 447.038 1731.81 440.147C1716.46 435.723 1699.68 429.224 1693.2 414.927C1685.15 397.13 1698.41 375.598 1716.51 367.47C1734.61 359.337 1755.59 361.139 1775.31 363.877C1795.03 366.615 1815.41 370.097 1834.61 364.897C1853.81 359.695 1871.4 342.742 1869.51 323.368C1867.86 306.512 1852.31 293.81 1835.96 288.212C1823.15 283.827 1809.53 282.636 1796.08 280.662C1792.34 280.118 1788.63 279.509 1784.94 278.758C1775.51 276.829 1766.31 273.942 1757.48 270.149C1748.23 266.178 1739.43 261.247 1731.25 255.443C1724.73 250.821 1718.63 245.648 1713.03 239.985C1712.17 239.12 1711.33 238.236 1710.49 237.332C1709.7 236.467 1708.91 235.584 1708.14 234.683C1698.14 223.014 1690.76 208.644 1692.97 193.835C1695.18 179.066 1706.97 166.77 1721 160.863C1729.1 157.451 1737.85 155.923 1746.7 155.703C1753.18 155.576 1759.65 156.031 1766.04 157.062C1795.6 161.68 1822.69 175.711 1848.28 190.903C1873.86 206.095 1898.8 222.772 1926.6 233.602C1954.42 244.436 1986.07 249.023 2014.29 239.226C2042.5 229.434 2065.68 202.714 2064.29 173.5C2083.01 189.24 2098.9 209.023 2105.96 232.14C2112.99 255.258 2110.16 281.95 2094.96 300.953Z" fill="#3F3D56"/>
<path d="M1960.13 270.761C1961.94 270.761 1963.42 269.322 1963.42 267.547C1963.42 265.772 1961.94 264.333 1960.13 264.333C1958.31 264.333 1956.84 265.772 1956.84 267.547C1956.84 269.322 1958.31 270.761 1960.13 270.761Z" fill="#ECA400"/>
<path d="M2076.29 230.131C2079.09 230.131 2081.37 227.907 2081.37 225.164C2081.37 222.421 2079.09 220.195 2076.29 220.195C2073.49 220.195 2071.2 222.421 2071.2 225.164C2071.2 227.907 2073.49 230.131 2076.29 230.131Z" fill="#FF6584"/>
<path d="M1742.73 383.291C1743.76 383.291 1744.61 382.47 1744.61 381.456C1744.61 380.442 1743.76 379.621 1742.73 379.621C1741.69 379.621 1740.85 380.442 1740.85 381.456C1740.85 382.47 1741.69 383.291 1742.73 383.291Z" fill="#FF6584"/>
<path d="M1796.67 275.938C1796.67 277.53 1796.47 279.116 1796.08 280.662C1792.35 280.119 1788.63 279.509 1784.94 278.759C1775.51 276.829 1766.31 273.943 1757.48 270.15C1758.9 265.676 1761.92 261.847 1765.98 259.358C1770.04 256.868 1774.88 255.886 1779.62 256.587C1784.37 257.286 1788.69 259.625 1791.82 263.174C1794.95 266.726 1796.67 271.254 1796.67 275.938Z" fill="#FF6584"/>
<path d="M2043.75 259.271C2044.81 259.271 2045.67 258.43 2045.67 257.393C2045.67 256.356 2044.81 255.516 2043.75 255.516C2042.68 255.516 2041.82 256.356 2041.82 257.393C2041.82 258.43 2042.68 259.271 2043.75 259.271Z" fill="#F0F0F0"/>
<path d="M1867.93 465.895C1868.99 465.895 1869.85 465.056 1869.85 464.019C1869.85 462.982 1868.99 462.141 1867.93 462.141C1866.87 462.141 1866.01 462.982 1866.01 464.019C1866.01 465.056 1866.87 465.895 1867.93 465.895Z" fill="#F0F0F0"/>
<path d="M1895.49 491.944C1896.56 491.944 1897.42 491.103 1897.42 490.068C1897.42 489.031 1896.56 488.19 1895.49 488.19C1894.43 488.19 1893.57 489.031 1893.57 490.068C1893.57 491.103 1894.43 491.944 1895.49 491.944Z" fill="#F0F0F0"/>
<path d="M1725.1 417.771C1726.16 417.771 1727.02 416.931 1727.02 415.894C1727.02 414.857 1726.16 414.016 1725.1 414.016C1724.04 414.016 1723.18 414.857 1723.18 415.894C1723.18 416.931 1724.04 417.771 1725.1 417.771Z" fill="#F0F0F0"/>
<path d="M1819.57 382.893C1820.63 382.893 1821.49 382.052 1821.49 381.015C1821.49 379.978 1820.63 379.139 1819.57 379.139C1818.51 379.139 1817.64 379.978 1817.64 381.015C1817.64 382.052 1818.51 382.893 1819.57 382.893Z" fill="#F0F0F0"/>
<path d="M1810.08 196.576C1811.14 196.576 1812 195.735 1812 194.698C1812 193.661 1811.14 192.822 1810.08 192.822C1809.01 192.822 1808.15 193.661 1808.15 194.698C1808.15 195.735 1809.01 196.576 1810.08 196.576Z" fill="#F0F0F0"/>
<path d="M1926.23 343.597C1927.29 343.597 1928.16 342.758 1928.16 341.721C1928.16 340.684 1927.29 339.843 1926.23 339.843C1925.17 339.843 1924.31 340.684 1924.31 341.721C1924.31 342.758 1925.17 343.597 1926.23 343.597Z" fill="#F0F0F0"/>
<path d="M1940.7 376.27C1941.76 376.27 1942.62 375.429 1942.62 374.392C1942.62 373.355 1941.76 372.514 1940.7 372.514C1939.63 372.514 1938.77 373.355 1938.77 374.392C1938.77 375.429 1939.63 376.27 1940.7 376.27Z" fill="#F0F0F0"/>
<path d="M1767.47 200.692C1767.48 210.17 1765.19 219.517 1760.78 227.96C1760.19 229.072 1759.58 230.165 1758.92 231.239C1752.46 241.895 1742.8 250.346 1731.25 255.444C1724.72 250.821 1718.63 245.648 1713.02 239.985C1712.17 239.12 1711.33 238.236 1710.49 237.332C1709.69 236.467 1708.91 235.584 1708.14 234.683C1698.14 223.014 1690.76 208.644 1692.97 193.835C1695.18 179.066 1706.96 166.77 1720.99 160.863C1729.1 157.451 1737.85 155.923 1746.7 155.703C1753.62 161.674 1759.08 169.093 1762.67 177.407C1763.12 178.453 1763.54 179.513 1763.93 180.585C1766.28 187.042 1767.47 193.842 1767.47 200.692Z" fill="#ECA400"/>
<path d="M1795.49 203.783C1795.49 212.98 1786.3 221.51 1769.6 227.81C1766.26 229.073 1762.69 230.216 1758.92 231.24C1744.85 235.073 1728.1 237.195 1710.49 237.333C1709.7 236.467 1708.91 235.585 1708.14 234.684C1708.33 234.688 1708.52 234.688 1708.71 234.688C1727.83 234.688 1745.98 232.322 1760.78 227.96C1763.51 227.152 1766.13 226.278 1768.62 225.337C1783.97 219.549 1792.78 211.69 1792.78 203.783C1792.78 195.875 1783.97 188.022 1768.62 182.229C1767.11 181.654 1765.54 181.108 1763.93 180.586C1763.54 179.513 1763.12 178.453 1762.67 177.408C1765.08 178.14 1767.39 178.924 1769.6 179.756C1786.3 186.056 1795.49 194.591 1795.49 203.783Z" fill="#E4E4E4"/>
<path d="M1711.54 170.97C1712.6 170.97 1713.46 170.129 1713.46 169.092C1713.46 168.055 1712.6 167.216 1711.54 167.216C1710.48 167.216 1709.62 168.055 1709.62 169.092C1709.62 170.129 1710.48 170.97 1711.54 170.97Z" fill="#F0F0F0"/>
<path d="M1751.77 182.89C1752.83 182.89 1753.69 182.05 1753.69 181.013C1753.69 179.976 1752.83 179.135 1751.77 179.135C1750.71 179.135 1749.85 179.976 1749.85 181.013C1749.85 182.05 1750.71 182.89 1751.77 182.89Z" fill="#F0F0F0"/>
<path d="M1730.98 218.252C1741.3 218.252 1749.66 210.08 1749.66 199.998C1749.66 189.915 1741.3 181.742 1730.98 181.742C1720.65 181.742 1712.29 189.915 1712.29 199.998C1712.29 210.08 1720.65 218.252 1730.98 218.252Z" fill="#F0F0F0"/>
<path opacity="0.3" d="M2076.11 296.618C2071.92 297.828 2062.66 298.719 2052.49 299.267C2042.34 299.81 2031.18 300.048 2020.17 300.278C2000.9 300.684 1981.64 301.092 1962.36 301.501C1959.71 301.558 1957.05 301.611 1954.39 301.66C1953.06 300.799 1951.72 299.925 1950.4 299.034C1952.76 299.047 1955.14 299.034 1957.48 298.99C1967.49 298.795 1975.97 298.031 1985.64 297.669C2000.52 297.109 2016.57 297.549 2032.07 297.775C2047.56 298.004 2065.22 297.921 2076.11 296.618Z" fill="#F0F0F0"/>
<path opacity="0.3" d="M1780.32 435.794L1718.89 385.802L1778.57 437.796C1778.69 437.987 1778.85 438.148 1779.04 438.266C1779.23 438.383 1779.45 438.454 1779.68 438.473C1779.9 438.492 1780.13 438.459 1780.34 438.374C1780.55 438.29 1780.73 438.158 1780.88 437.991C1781.03 437.822 1781.13 437.622 1781.18 437.407C1781.23 437.193 1781.23 436.968 1781.18 436.754C1781.13 436.539 1781.02 436.339 1780.87 436.173C1780.72 436.006 1780.53 435.877 1780.32 435.794Z" fill="#F0F0F0"/>
<path d="M1733.69 246.467C1734.75 246.467 1735.61 245.626 1735.61 244.589C1735.61 243.552 1734.75 242.713 1733.69 242.713C1732.63 242.713 1731.77 243.552 1731.77 244.589C1731.77 245.626 1732.63 246.467 1733.69 246.467Z" fill="#0B7A75"/>
<path d="M1895.09 462.111H1903.04L1906.82 432.161H1895.09V462.111Z" fill="#DB5461"/>
<path d="M1893.06 459.575H1895.3L1904.04 456.105L1908.72 459.573C1911.36 459.573 1913.9 460.6 1915.77 462.428C1917.64 464.256 1918.69 466.735 1918.69 469.319V469.635L1893.06 469.637V459.575Z" fill="#2F2E41"/>
<path d="M1835.57 462.111H1827.62L1823.83 432.161H1835.57L1835.57 462.111Z" fill="#DB5461"/>
<path d="M1837.59 469.637L1811.96 469.635V469.319C1811.96 466.735 1813.01 464.256 1814.88 462.428C1816.75 460.6 1819.29 459.573 1821.93 459.573H1821.94L1826.62 456.105L1835.35 459.575H1837.59V469.637Z" fill="#2F2E41"/>
<path d="M1864.05 232.578L1856 238.565L1834.62 244.095C1834.62 244.095 1842.28 296.617 1838.66 300.149C1835.05 303.681 1838.31 303.776 1837.58 308.364C1836.85 312.952 1833.96 325.067 1833.96 325.067H1897.77C1897.77 325.067 1898.28 317.538 1895.13 315.909C1892 314.278 1898.04 306.668 1895.48 305.395C1892.9 304.123 1896.52 293.085 1896.52 293.085L1904.34 256.948L1883.51 241.019L1880.35 233.559L1864.05 232.578Z" fill="#ECA400"/>
<path d="M1874.09 279.511C1875.62 279.511 1876.87 278.294 1876.87 276.791C1876.87 275.289 1875.62 274.07 1874.09 274.07C1872.55 274.07 1871.3 275.289 1871.3 276.791C1871.3 278.294 1872.55 279.511 1874.09 279.511Z" fill="#0B7A75"/>
<path d="M1833.96 325.067L1831.33 391.258C1831.33 391.258 1819.97 440.145 1821.94 441.431C1823.92 442.717 1824.75 450.38 1824.75 450.38L1835.94 451.666C1835.94 451.666 1835.94 446.524 1838.57 444.596C1841.2 442.668 1865.54 352.057 1865.54 352.057L1889.29 439.665C1889.29 439.665 1889.89 444.596 1891.86 444.596C1893.84 444.596 1894.49 451.666 1894.49 451.666H1905.66V444.596C1905.66 444.596 1910.7 443.04 1908.72 437.9C1906.75 432.758 1897.77 325.067 1897.77 325.067H1833.96Z" fill="#2F2E41"/>
<path d="M1872.41 228.633C1879.86 228.633 1885.9 222.735 1885.9 215.459C1885.9 208.183 1879.86 202.286 1872.41 202.286C1864.96 202.286 1858.92 208.183 1858.92 215.459C1858.92 222.735 1864.96 228.633 1872.41 228.633Z" fill="#DB5461"/>
<path opacity="0.1" d="M1895.46 274.62L1898.09 276.548L1899.41 267.552L1895.46 274.62Z" fill="black"/>
<path d="M1835.88 244.045C1835.88 244.045 1832.59 243.402 1830.62 249.186C1828.64 254.97 1821.41 276.819 1821.41 280.675C1821.41 284.531 1866.47 301.544 1866.47 301.544L1861.78 285.475L1841.14 274.891L1835.88 244.045Z" fill="#ECA400"/>
<path d="M1868.56 299.161C1872.8 299.161 1876.24 295.801 1876.24 291.655C1876.24 287.51 1872.8 284.15 1868.56 284.15C1864.32 284.15 1860.88 287.51 1860.88 291.655C1860.88 295.801 1864.32 299.161 1868.56 299.161Z" fill="#DB5461"/>
<path opacity="0.1" d="M1840.54 266.931L1841.14 274.891L1860.23 284.678L1843.25 273.553L1840.54 266.931Z" fill="black"/>
<path d="M1886.42 268.066H1886.18V261.44C1886.18 260.936 1886.08 260.438 1885.88 259.972C1885.68 259.507 1885.39 259.084 1885.02 258.728C1884.66 258.372 1884.24 258.09 1883.75 257.897C1883.28 257.704 1882.76 257.605 1882.25 257.605H1867.88C1867.36 257.605 1866.85 257.704 1866.38 257.897C1865.9 258.09 1865.47 258.372 1865.1 258.728C1864.74 259.084 1864.45 259.507 1864.25 259.972C1864.06 260.438 1863.95 260.936 1863.95 261.44V297.792C1863.95 298.296 1864.06 298.795 1864.25 299.26C1864.45 299.725 1864.74 300.148 1865.1 300.504C1865.47 300.86 1865.9 301.142 1866.38 301.335C1866.85 301.528 1867.36 301.627 1867.88 301.627H1882.25C1882.76 301.627 1883.28 301.528 1883.75 301.335C1884.24 301.142 1884.66 300.86 1885.02 300.504C1885.39 300.148 1885.68 299.725 1885.88 299.26C1886.08 298.795 1886.18 298.296 1886.18 297.792V272.783H1886.42V268.066Z" fill="#F0F0F0"/>
<path d="M1904.34 256.948C1904.34 256.948 1906.32 258.234 1907.63 264.018C1908.95 269.801 1917.5 291.65 1914.21 296.792C1910.92 301.932 1909.96 307.42 1898.78 299.708L1883.3 285.866L1894.47 275.584L1899.08 278.798L1904.34 256.948Z" fill="#ECA400"/>
<path d="M1875.24 273.807C1877.06 273.807 1878.53 272.368 1878.53 270.594C1878.53 268.819 1877.06 267.38 1875.24 267.38C1873.42 267.38 1871.95 268.819 1871.95 270.594C1871.95 272.368 1873.42 273.807 1875.24 273.807Z" fill="#ECA400"/>
<path d="M1884.76 285.138C1889.01 285.138 1892.44 281.779 1892.44 277.632C1892.44 273.488 1889.01 270.128 1884.76 270.128C1880.52 270.128 1877.08 273.488 1877.08 277.632C1877.08 281.779 1880.52 285.138 1884.76 285.138Z" fill="#DB5461"/>
<path opacity="0.1" d="M1840.17 290.956L1862.23 300.485L1839.56 296.157L1840.17 290.956Z" fill="black"/>
<path d="M1858.8 218.085L1856.95 211.201C1856.46 209.405 1855.98 207.573 1856.09 205.719C1856.19 203.864 1857 201.951 1858.6 200.947C1860.2 199.943 1862.64 200.18 1863.67 201.742C1863.86 199.247 1866.19 197.329 1868.65 196.65C1871.11 195.971 1873.73 196.24 1876.29 196.354C1878.85 196.468 1881.55 196.388 1883.75 195.121C1883.92 195.615 1883.91 196.149 1883.72 196.636C1883.54 197.121 1883.18 197.528 1882.72 197.789C1883.26 197.936 1883.85 197.873 1884.35 197.613C1884.85 197.354 1885.24 196.918 1885.42 196.393C1885.44 197.837 1884.9 199.233 1883.89 200.299C1884.85 199.837 1885.94 199.738 1886.97 200.021C1887.98 200.304 1888.87 200.948 1889.43 201.829C1890.56 203.737 1889.93 206.133 1889.27 208.238L1885.88 219.048C1885.37 217.405 1885.28 215.67 1885.01 213.973C1884.72 212.276 1884.24 210.544 1883.09 209.241C1881.95 207.939 1880 207.184 1878.37 207.83C1877.46 208.194 1876.76 208.93 1875.93 209.458C1874.24 210.542 1872.09 210.698 1870.07 210.476C1868.06 210.256 1866.1 209.697 1864.09 209.474C1862.83 209.334 1861.42 209.371 1860.48 210.19C1859.82 210.853 1859.39 211.695 1859.24 212.603C1858.79 214.414 1858.61 216.28 1858.71 218.14" fill="#2F2E41"/>
<path d="M2002.08 543.899C2039.38 564.753 2036.37 509.806 2032.27 434.89C2027.72 351.646 2021.81 243.746 2068.37 187.781M2069.28 186.688C2093.81 157.983 2132.57 143.417 2193.11 153.715L2069.28 186.688ZM2088.43 240.465C2077.71 238.983 2063.36 235.055 2046.31 229.003C2049.75 219.583 2053.84 210.75 2058.71 202.659C2059.1 202.011 2059.5 201.369 2059.9 200.731C2074.3 207.221 2087.73 212.696 2099.99 217.153C2100.29 217.508 2100.59 217.859 2100.88 218.207C2104.45 222.556 2106.91 226.38 2108.21 229.596C2109.5 232.824 2109.56 235.31 2108.56 237.112C2107.56 238.913 2105.4 240.164 2101.98 240.751C2098.56 241.336 2094.01 241.236 2088.43 240.465ZM2058.58 200.137C2058.21 200.728 2057.86 201.323 2057.48 201.921C2052.56 210.097 2048.43 219.018 2044.97 228.522C2044.71 228.432 2044.47 228.342 2044.21 228.252C2008.28 215.295 1960.93 193.238 1910.68 165.147C1860.43 137.057 1816.84 108.267 1786.98 84.4379C1772.05 72.5196 1760.57 61.8628 1753.42 53.1697C1749.84 48.8202 1747.37 44.9972 1746.08 41.7807C1744.79 38.5527 1744.73 36.0675 1745.73 34.2655C1746.74 32.4635 1748.89 31.2132 1752.32 30.6262C1755.73 30.0414 1760.28 30.1421 1765.86 30.913C1777.01 32.4538 1792.1 36.6456 1810.08 43.1257C1816.01 45.2643 1822.25 47.6517 1828.77 50.272C1837.05 58.8864 1848.16 68.821 1861.43 79.525C1894.79 106.43 1941.86 138.276 1992.16 166.396C2015.88 179.653 2038.19 190.903 2058.58 200.137ZM2098.05 214.915C2086.53 210.658 2074.03 205.524 2060.67 199.511C2063.22 195.552 2065.96 191.784 2068.93 188.23C2081.27 198.173 2091.14 207.208 2098.05 214.915ZM2067.81 187.335C2064.78 190.984 2061.96 194.851 2059.36 198.916C2038.96 189.686 2016.62 178.429 1992.86 165.147C1942.62 137.061 1895.61 105.258 1862.33 78.4123C1850.27 68.6822 1840.02 59.613 1832.08 51.615C1864.39 64.8134 1903.06 83.5555 1943.62 106.229C1993.87 134.32 2037.45 163.109 2067.31 186.939C2067.48 187.072 2067.64 187.203 2067.81 187.335ZM2100.83 215.939C2093.83 207.729 2083.27 197.947 2069.84 187.136C2079.98 175.281 2092.55 165.864 2108.1 159.638C2121.74 154.177 2137.71 151.162 2156.34 151.129C2165.11 168.094 2171.17 183.847 2174.68 196.569C2176.64 203.711 2177.78 209.882 2178.17 214.767C2178.54 219.695 2178.11 223.179 2177.07 225.055C2176.02 226.913 2174.04 228.33 2170.99 229.233C2167.94 230.134 2163.94 230.494 2159 230.286C2149.15 229.869 2135.79 227.185 2119.53 222.212C2113.66 220.418 2107.41 218.326 2100.83 215.939ZM2155.61 149.702C2137.12 149.814 2121.23 152.844 2107.57 158.311C2091.77 164.635 2079.01 174.209 2068.73 186.241C2068.55 186.101 2068.38 185.962 2068.21 185.822C2038.26 161.929 1994.61 133.098 1944.31 104.981C1902.44 81.5746 1862.56 62.3405 1829.59 49.0605C1827.57 46.95 1825.72 44.9227 1824.06 42.9861C1819.83 38.0669 1816.83 33.7645 1815.16 30.2063C1813.48 26.6125 1813.26 23.9705 1814.24 22.2097C1814.76 21.2904 1815.7 20.2793 1817.1 19.2091C1818.5 18.1437 1820.31 17.0462 1822.52 15.9429C1826.93 13.7365 1832.88 11.532 1840.09 9.51993C1854.51 5.49662 1873.94 2.26051 1896.24 1.29495C1940.82 -0.636188 1996.74 6.51996 2046.87 34.5407C2096.99 62.5607 2131.84 106.164 2153.01 144.851C2153.9 146.478 2154.77 148.094 2155.61 149.702Z" stroke="#F5F9E9"/>
</svg>
