<svg width="2140" height="555" viewBox="0 0 2140 555" fill="none" xmlns="http://www.w3.org/2000/svg">
<path d="M1065.2 318.018L1004.39 301.634C1003.09 303.095 1001.92 304.678 1000.92 306.388C1000.06 307.839 999.359 309.326 998.793 310.829L1064.06 328.412C1065.14 324.979 1065.5 321.465 1065.2 318.018Z" fill="#DB5461"/>
<path d="M1047.35 293.744L1034.48 290.277C1026.73 289.615 1018.97 291.333 1012.51 295.063L1062.61 308.56C1059.69 302.435 1054.46 297.128 1047.35 293.744Z" fill="#DB5461"/>
<path d="M1038.6 349.776L1006.46 341.119C1009 343.474 1012 345.508 1015.44 347.093C1022.85 350.504 1031.03 351.266 1038.6 349.776Z" fill="#DB5461"/>
<path d="M1060.23 336.141L997.092 319.133C996.924 322.969 997.592 326.776 999.018 330.355L1051.59 344.518C1054.97 342.293 1057.91 339.477 1060.23 336.141Z" fill="#DB5461"/>
<path d="M0 539L1551 540" stroke="#F5F9E9"/>
<path d="M1023.58 504.083C1023.58 504.083 974.372 481.42 991.66 465.704C1008.95 449.988 1023.58 504.083 1023.58 504.083Z" fill="#F5F9E9"/>
<path d="M1022.73 509.372C1022.73 509.372 1000.11 435.023 1033.41 438.579C1066.72 442.134 1022.73 509.372 1022.73 509.372Z" fill="#F5F9E9"/>
<path d="M1006.23 502.777L1007.18 515.214L1007.2 515.429C1007.2 517.371 1007.3 519.312 1007.49 521.244C1008.78 533.931 1014.32 539.712 1020.79 539.712C1027.26 539.712 1032.56 533.931 1033.85 521.244C1034.04 519.312 1034.14 517.371 1034.14 515.429L1034.15 515.256L1034.15 515.214L1035.1 502.777H1006.23Z" fill="#8D8572"/>
<path d="M1034.15 515.215L1034.15 515.256L1034.14 515.429C1034.14 517.372 1034.04 519.312 1033.85 521.245H1007.49C1007.3 519.312 1007.2 517.372 1007.2 515.429L1007.18 515.215H1034.15Z" fill="white"/>
<path d="M1344.53 511.689C1344.53 511.689 1306.43 494.143 1319.82 481.976C1333.2 469.807 1344.53 511.689 1344.53 511.689Z" fill="#0B7A75"/>
<path d="M1343.87 515.784C1343.87 515.784 1326.36 458.222 1352.14 460.974C1377.93 463.727 1343.87 515.784 1343.87 515.784Z" fill="#0B7A75"/>
<path d="M1331.1 510.678L1331.83 520.308L1331.85 520.474C1331.85 521.977 1331.92 523.48 1332.07 524.976C1333.07 534.798 1337.36 539.273 1342.37 539.273C1347.38 539.273 1351.48 534.798 1352.48 524.976C1352.63 523.48 1352.71 521.977 1352.7 520.474L1352.71 520.339L1352.71 520.308L1353.45 510.678H1331.1Z" fill="#A4A3A4"/>
<path d="M1352.71 520.308L1352.71 520.339L1352.7 520.474C1352.71 521.977 1352.63 523.48 1352.48 524.976H1332.07C1331.92 523.48 1331.85 521.977 1331.85 520.474L1331.83 520.308H1352.71Z" fill="white"/>
<path d="M1106.75 351.65V334.736H1104.12V351.65C1103.37 351.956 1102.75 352.514 1102.36 353.229C1101.97 353.944 1101.84 354.772 1102 355.572C1102.15 356.37 1102.58 357.091 1103.21 357.609C1103.84 358.126 1104.62 358.408 1105.44 358.408C1106.25 358.408 1107.04 358.126 1107.67 357.609C1108.3 357.091 1108.72 356.37 1108.88 355.572C1109.03 354.772 1108.91 353.944 1108.52 353.229C1108.13 352.514 1107.51 351.956 1106.75 351.65Z" fill="#E6E6E6"/>
<path d="M1112.89 522.356H1094.92V304.05H1087.91V522.356H1069.95C1067.82 522.356 1065.71 522.775 1063.74 523.591C1061.78 524.406 1059.99 525.6 1058.48 527.106C1056.98 528.612 1055.78 530.4 1054.97 532.368C1054.16 534.336 1053.74 536.446 1053.74 538.575H1129.1C1129.1 536.446 1128.68 534.336 1127.86 532.368C1127.05 530.4 1125.86 528.612 1124.35 527.106C1122.85 525.6 1121.06 524.406 1119.09 523.591C1117.13 522.775 1115.02 522.356 1112.89 522.356Z" fill="#E6E6E6"/>
<path d="M1053.77 336.49H1129.06L1124.46 278.915C1124.29 276.929 1123.39 275.079 1121.92 273.727C1120.46 272.376 1118.54 271.622 1116.55 271.612H1066.28C1064.29 271.622 1062.38 272.376 1060.91 273.727C1059.45 275.079 1058.54 276.929 1058.38 278.915L1053.77 336.49Z" fill="#ECA400"/>
<path d="M1158.6 437.54C1157.9 437.422 1157.17 437.447 1156.47 437.611C1155.77 437.776 1155.12 438.078 1154.53 438.499C1153.95 438.921 1153.46 439.453 1153.09 440.067C1152.71 440.681 1152.47 441.363 1152.36 442.072L1150.24 455.99L1157.45 457.904L1162.73 444.937C1163.04 444.183 1163.18 443.369 1163.13 442.559C1163.08 441.746 1162.84 440.955 1162.45 440.244C1162.05 439.535 1161.5 438.923 1160.83 438.454C1160.17 437.986 1159.41 437.674 1158.6 437.54Z" fill="#A0616A"/>
<path d="M1158.47 455.964C1162.47 471.877 1160.75 486.433 1145.84 497.861C1127.97 492.931 1116.08 481.035 1108.82 463.748C1108.37 462.674 1108.14 461.518 1108.15 460.352C1108.16 459.187 1108.4 458.035 1108.87 456.965C1109.33 455.897 1110.01 454.933 1110.86 454.134C1111.7 453.333 1112.71 452.713 1113.8 452.31C1115.44 451.706 1117.23 451.616 1118.93 452.054C1120.62 452.49 1122.14 453.434 1123.29 454.757L1140.83 475.011L1149.06 454.588L1158.47 455.964Z" fill="#ECA400"/>
<path d="M1250.06 539.455C1233.74 538.587 1223.6 532.98 1221.15 521.483L1223.77 516.66L1253.87 530.379C1254.63 530.725 1255.27 531.288 1255.71 532.001C1256.15 532.711 1256.37 533.537 1256.34 534.372C1256.3 535.206 1256.02 536.012 1255.53 536.689C1255.04 537.364 1254.36 537.879 1253.58 538.166L1250.06 539.455Z" fill="#E6E6E6"/>
<path d="M1237.45 539.569C1228.97 539.313 1220.81 539.392 1213.09 539.915C1211.73 540.008 1210.39 539.562 1209.36 538.675C1208.33 537.787 1207.7 536.53 1207.59 535.174L1207.12 529.371L1200.55 518.852L1206.25 513.152C1215.82 522.691 1226.32 530.703 1238.79 535.464C1239.19 535.739 1239.49 536.137 1239.65 536.597C1239.8 537.056 1239.8 537.555 1239.65 538.017C1239.5 538.479 1239.21 538.88 1238.81 539.16C1238.41 539.44 1237.94 539.584 1237.45 539.569Z" fill="#E6E6E6"/>
<path d="M1191.35 498.248C1180.52 517.635 1169.87 530.704 1155.86 537.701C1138.62 543.392 1126.02 535.852 1116.21 520.385L1144.69 501.536L1148.85 505.701L1186.57 476.98C1187.49 476.107 1188.72 475.632 1189.99 475.661C1191.26 475.689 1192.47 476.217 1193.35 477.13L1225.53 516.659L1221.58 523.234L1191.35 498.248Z" fill="#2F2E41"/>
<path d="M1200.99 521.043L1186.09 498.249L1189.6 491.673L1209.31 512.276L1200.99 521.043Z" fill="#2F2E41"/>
<path d="M1115.11 448.274C1123.34 448.274 1130.01 441.602 1130.01 433.371C1130.01 425.139 1123.34 418.466 1115.11 418.466C1106.88 418.466 1100.21 425.139 1100.21 433.371C1100.21 441.602 1106.88 448.274 1115.11 448.274Z" fill="#A0616A"/>
<path d="M1119.05 460.988L1102.4 455.288C1104.87 451.372 1105.95 446.741 1105.47 442.139H1119.05C1118.28 448.827 1118.16 455.17 1119.05 460.988Z" fill="#A0616A"/>
<path d="M1154.54 500.878C1152.05 501.903 1151.87 505.228 1149.5 506.358C1138.1 511.819 1126.02 516.25 1117.74 524.112C1098.37 510.957 1080.43 470.097 1103.72 452.22C1111.67 456.874 1118.77 460.205 1118.62 452.22L1154.54 500.878Z" fill="#ECA400"/>
<path opacity="0.2" d="M1144.47 483.344L1136.36 480.495L1120.37 492.988L1113.2 467.167C1112.7 465.376 1111.9 466.284 1110.74 467.528C1109.53 466.411 1108.03 465.663 1106.42 465.372C1104.8 465.078 1103.13 465.256 1101.61 465.881C1100.09 466.504 1098.78 467.551 1097.84 468.896C1096.89 470.242 1096.35 471.828 1096.28 473.471C1095.43 492.2 1101.07 508.046 1115.11 520.166C1133.47 516.233 1141.27 503.821 1144.47 487.728L1143.6 487.149C1143.92 485.904 1144.21 484.637 1144.47 483.344Z" fill="black"/>
<path d="M1117.11 413.764C1122.03 414.888 1127.62 416.48 1127.94 417.959C1132.99 419.233 1136.81 422.285 1137.59 426.939C1137.65 427.341 1137.63 427.753 1137.52 428.145C1137.4 428.537 1137.21 428.9 1136.94 429.208C1136.68 429.517 1136.34 429.763 1135.97 429.929C1135.6 430.094 1135.2 430.177 1134.79 430.172C1132.04 430.136 1127.91 429.873 1125.19 428.733C1117.27 433.836 1115.94 447.109 1119.4 456.144L1113.96 455.645L1108.33 439.161L1106.89 454.997L1094.48 453.355L1096.08 433.161C1096.57 428.402 1098.19 423.828 1100.8 419.821C1101.07 419.418 1101.37 419.033 1101.69 418.67C1103.58 416.534 1106.01 414.951 1108.73 414.087C1111.44 413.225 1114.34 413.113 1117.11 413.764Z" fill="#2F2E41"/>
<path d="M1145.12 463.803L1158.76 479.839L1179.21 455.692L1165.39 438.917L1145.12 463.803Z" fill="#3F3D56"/>
<path d="M1175.71 456.244L1159.49 442.973C1160.41 440.76 1164.84 441.498 1164.84 441.498L1177.53 454.37C1177.97 454.819 1178.35 455.326 1178.65 455.876L1175.71 456.244Z" fill="#ECA400"/>
<path d="M1176.45 455.323L1158.02 440.944L1137.57 471.912L1156.82 484.908C1158.66 485.646 1160.51 484.355 1160.51 484.355L1179.3 455.599L1176.45 455.323Z" fill="#3F3D56"/>
<path d="M1160.32 445.433L1160.14 445.676L1171.94 454.153L1172.11 453.911L1160.32 445.433Z" fill="#ECA400"/>
<path d="M1172.27 457.083L1156.79 480.493L1157.04 480.658L1172.52 457.247L1172.27 457.083Z" fill="#ECA400"/>
<path d="M1142.63 471.975L1142.46 472.215L1154.98 481.436L1155.16 481.195L1142.63 471.975Z" fill="#ECA400"/>
<path d="M1158.08 445.835L1142.05 468.878L1142.3 469.049L1158.33 446.007L1158.08 445.835Z" fill="#ECA400"/>
<path d="M1163.03 441.314L1162.91 441.45L1177.49 454.838L1177.61 454.702L1163.03 441.314Z" fill="#ECA400"/>
<path d="M1161.82 441.429L1161.7 441.567L1176.93 455.026L1177.06 454.887L1161.82 441.429Z" fill="#ECA400"/>
<path d="M1160.87 441.698L1160.75 441.839L1176.57 455.031L1176.68 454.889L1160.87 441.698Z" fill="#ECA400"/>
<path d="M1152.48 468.509C1151.89 468.1 1151.23 467.81 1150.53 467.66C1149.82 467.508 1149.1 467.498 1148.39 467.631C1147.69 467.763 1147.01 468.033 1146.41 468.426C1145.81 468.821 1145.3 469.33 1144.9 469.925L1137.02 481.59L1142.71 486.412L1153.04 476.963C1153.64 476.414 1154.11 475.736 1154.42 474.981C1154.72 474.226 1154.85 473.414 1154.8 472.601C1154.74 471.789 1154.51 470.999 1154.1 470.291C1153.7 469.583 1153.15 468.974 1152.48 468.509Z" fill="#A0616A"/>
<path d="M1144.47 485.097C1141.27 501.191 1133.47 513.602 1115.11 517.536C1101.07 505.416 1095.43 489.57 1096.28 470.841C1096.33 469.675 1096.62 468.534 1097.13 467.484C1097.63 466.434 1098.35 465.497 1099.22 464.731C1100.1 463.965 1101.13 463.385 1102.23 463.024C1103.34 462.665 1104.51 462.534 1105.67 462.64C1107.42 462.798 1109.07 463.483 1110.41 464.606C1111.76 465.727 1112.73 467.232 1113.2 468.92L1120.37 494.742L1136.55 479.818L1144.47 485.097Z" fill="#ECA400"/>
<path d="M1365.2 539.954H978.496V538.999H1365.37L1365.2 539.954Z" fill="#3F3D56"/>
<path d="M1180.61 311.725C1180.38 311.725 1180.16 311.818 1180 311.982C1179.83 312.147 1179.74 312.37 1179.74 312.601V380.986C1179.74 381.218 1179.83 381.441 1180 381.606C1180.16 381.77 1180.38 381.863 1180.61 381.863H1237.58C1237.81 381.863 1238.03 381.77 1238.2 381.606C1238.36 381.441 1238.45 381.218 1238.45 380.986V312.601C1238.45 312.37 1238.36 312.147 1238.2 311.982C1238.03 311.818 1237.81 311.725 1237.58 311.725H1180.61Z" fill="#E6E6E6"/>
<path d="M1186.53 375.068H1231.66V318.52H1186.53V375.068Z" fill="white"/>
<path d="M1275.45 329.697C1275.31 329.697 1275.18 329.753 1275.08 329.852C1274.98 329.949 1274.92 330.082 1274.92 330.221V364.244C1274.92 364.382 1274.98 364.515 1275.08 364.613C1275.18 364.711 1275.31 364.767 1275.45 364.767H1316.26C1316.39 364.767 1316.53 364.711 1316.62 364.613C1316.72 364.515 1316.78 364.382 1316.78 364.244V330.221C1316.78 330.082 1316.72 329.949 1316.62 329.852C1316.53 329.753 1316.39 329.697 1316.26 329.697H1275.45Z" fill="#E6E6E6"/>
<path d="M1278.98 333.754V360.71H1312.72V333.754H1278.98Z" fill="#737374"/>
<path d="M1217.06 316.548H1201.13C1200.74 316.549 1200.36 316.448 1200.03 316.256C1199.7 316.064 1199.42 315.787 1199.22 315.454C1199.03 315.12 1198.93 314.741 1198.93 314.357C1198.93 313.971 1199.04 313.593 1199.23 313.26L1207.2 299.451C1207.2 299.439 1207.21 299.429 1207.22 299.418C1207.39 299.123 1207.63 298.876 1207.92 298.693C1208.21 298.509 1208.54 298.398 1208.88 298.365H1208.89C1208.96 298.358 1209.03 298.355 1209.1 298.355C1209.48 298.354 1209.86 298.454 1210.19 298.645C1210.53 298.838 1210.8 299.116 1210.99 299.451L1218.96 313.26C1219.15 313.593 1219.26 313.971 1219.25 314.355C1219.25 314.74 1219.15 315.118 1218.96 315.451C1218.77 315.784 1218.49 316.062 1218.16 316.253C1217.83 316.446 1217.45 316.548 1217.06 316.548ZM1200.69 314.354C1200.69 314.431 1200.71 314.507 1200.75 314.574C1200.79 314.641 1200.84 314.697 1200.91 314.736C1200.97 314.774 1201.05 314.794 1201.13 314.794H1217.06C1217.14 314.794 1217.22 314.774 1217.28 314.736C1217.35 314.697 1217.41 314.641 1217.44 314.574C1217.48 314.507 1217.5 314.431 1217.5 314.354C1217.5 314.277 1217.48 314.202 1217.44 314.136L1209.48 300.327C1209.44 300.262 1209.38 300.206 1209.31 300.167C1209.25 300.129 1209.17 300.109 1209.1 300.109C1209.02 300.109 1208.94 300.129 1208.88 300.167C1208.81 300.206 1208.75 300.262 1208.72 300.327L1200.75 314.136C1200.71 314.202 1200.69 314.277 1200.69 314.354Z" fill="#E6E6E6"/>
<path d="M1209.1 302.52C1209.82 302.52 1210.41 301.931 1210.41 301.204C1210.41 300.479 1209.82 299.89 1209.1 299.89C1208.37 299.89 1207.78 300.479 1207.78 301.204C1207.78 301.931 1208.37 302.52 1209.1 302.52Z" fill="#E6E6E6"/>
<path d="M1300.17 330.794H1291.53C1291.32 330.794 1291.12 330.74 1290.94 330.635C1290.75 330.531 1290.6 330.382 1290.5 330.201C1290.4 330.02 1290.34 329.814 1290.34 329.606C1290.34 329.397 1290.4 329.191 1290.5 329.011L1294.82 321.525L1294.83 321.506C1294.93 321.347 1295.06 321.211 1295.22 321.113C1295.37 321.014 1295.55 320.954 1295.73 320.935H1295.74C1295.78 320.933 1295.81 320.93 1295.85 320.93C1296.06 320.93 1296.26 320.984 1296.45 321.088C1296.63 321.193 1296.78 321.343 1296.88 321.525L1301.2 329.011C1301.31 329.192 1301.36 329.397 1301.36 329.606C1301.36 329.813 1301.31 330.019 1301.2 330.199C1301.1 330.379 1300.95 330.53 1300.77 330.634C1300.59 330.738 1300.38 330.793 1300.17 330.794ZM1291.29 329.604C1291.29 329.646 1291.3 329.687 1291.32 329.724C1291.35 329.76 1291.38 329.79 1291.41 329.812C1291.45 329.833 1291.49 329.843 1291.53 329.843H1300.17C1300.21 329.843 1300.26 329.833 1300.29 329.812C1300.33 329.79 1300.36 329.76 1300.38 329.724C1300.4 329.687 1300.41 329.646 1300.41 329.604C1300.41 329.563 1300.4 329.523 1300.38 329.487L1296.06 322C1296.04 321.964 1296.01 321.934 1295.97 321.912C1295.93 321.892 1295.89 321.881 1295.85 321.881C1295.81 321.881 1295.77 321.892 1295.73 321.912C1295.7 321.934 1295.67 321.964 1295.65 322L1291.32 329.487C1291.3 329.521 1291.29 329.563 1291.29 329.604Z" fill="#E6E6E6"/>
<path d="M1295.85 323.188C1296.25 323.188 1296.56 322.869 1296.56 322.476C1296.56 322.081 1296.25 321.762 1295.85 321.762C1295.46 321.762 1295.14 322.081 1295.14 322.476C1295.14 322.869 1295.46 323.188 1295.85 323.188Z" fill="#E6E6E6"/>
<path d="M1187.05 353.537C1187.68 352.089 1188.59 350.786 1189.74 349.707C1190.89 348.627 1192.25 347.793 1193.73 347.255C1195.28 346.66 1196.93 346.406 1198.58 346.508C1200.23 346.61 1201.84 347.069 1203.29 347.85C1206.71 349.666 1209.44 352.52 1212.92 354.258C1216.29 355.931 1220.01 356.808 1223.78 356.818C1228.04 356.851 1232.24 355.761 1235.95 353.655C1236.1 353.564 1236.2 353.421 1236.24 353.255C1236.28 353.089 1236.26 352.915 1236.17 352.767C1236.09 352.62 1235.95 352.511 1235.78 352.466C1235.62 352.42 1235.44 352.438 1235.29 352.52C1231.93 354.405 1228.15 355.429 1224.29 355.501C1220.44 355.571 1216.63 354.687 1213.19 352.925C1209.71 351.098 1206.95 348.148 1203.4 346.434C1201.9 345.703 1200.26 345.278 1198.59 345.184C1196.91 345.09 1195.24 345.33 1193.66 345.888C1191.9 346.477 1190.29 347.432 1188.94 348.69C1187.58 349.948 1186.5 351.482 1185.78 353.186C1185.46 353.97 1186.73 354.311 1187.05 353.537Z" fill="#E6E6E6"/>
<path d="M1186.01 365.828C1193.3 364.199 1200.87 364.226 1208.15 365.905C1214.62 367.407 1221.3 370.108 1227.97 368.094C1230.95 367.194 1233.68 365.393 1235.21 362.624C1235.62 361.882 1234.49 361.218 1234.08 361.961C1231.2 367.176 1224.44 368.055 1219.11 367.2C1215.55 366.628 1212.11 365.481 1208.6 364.661C1201.06 362.892 1193.21 362.858 1185.66 364.561C1184.83 364.745 1185.18 366.013 1186.01 365.828Z" fill="#E6E6E6"/>
<path d="M1185.53 336.433C1192.53 335.242 1199.69 335.498 1206.58 337.182C1213.02 338.761 1219.32 342.366 1226.13 341.744C1229.28 341.455 1232.4 340.295 1234.54 337.882C1235.1 337.252 1234.17 336.319 1233.61 336.953C1231.76 339.034 1229.1 340.112 1226.37 340.404C1223.22 340.74 1220.13 340.088 1217.14 339.161C1213.82 338.135 1210.6 336.835 1207.23 335.987C1200.02 334.177 1192.51 333.896 1185.18 335.165C1184.35 335.306 1184.7 336.575 1185.53 336.433Z" fill="#E6E6E6"/>
<path d="M1284.86 333.31C1287.88 336.407 1289.96 340.296 1290.87 344.526C1291.57 347.893 1291.49 351.373 1290.64 354.705C1289.79 358.037 1288.2 361.13 1285.97 363.753C1285.43 364.395 1286.36 365.329 1286.9 364.683C1289.93 361.117 1291.86 356.752 1292.47 352.114C1292.91 348.534 1292.54 344.9 1291.38 341.483C1290.22 338.066 1288.31 334.955 1285.79 332.381C1285.19 331.776 1284.26 332.705 1284.86 333.31Z" fill="#E6E6E6"/>
<path d="M1304.58 330.504C1300.55 333.461 1298.29 338.232 1297.98 343.166C1297.65 348.301 1299.6 353.26 1302.76 357.247C1304.59 359.543 1306.79 361.527 1309.26 363.123C1309.97 363.588 1310.63 362.449 1309.93 361.987C1305.9 359.353 1302.46 355.61 1300.63 351.12C1299.74 348.986 1299.27 346.698 1299.27 344.386C1299.26 342.074 1299.71 339.784 1300.59 337.646C1301.58 335.263 1303.18 333.189 1305.24 331.64C1305.92 331.144 1305.26 330.002 1304.58 330.504Z" fill="#E6E6E6"/>
<path d="M1212.16 343.725C1215.55 343.725 1218.3 340.978 1218.3 337.588C1218.3 334.198 1215.55 331.451 1212.16 331.451C1208.77 331.451 1206.03 334.198 1206.03 337.588C1206.03 340.978 1208.77 343.725 1212.16 343.725Z" fill="#ECA400"/>
<path d="M775.68 553.816L1157.22 125.748L1538.75 553.816H1157.22H775.68Z" stroke="#F5F9E9"/>
<path d="M2100.88 458.248C2100.88 460.446 2099.43 462.739 2096.29 465.083C2093.18 467.414 2088.53 469.694 2082.48 471.882C2070.39 476.256 2052.86 480.208 2031.15 483.53C1987.72 490.174 1927.72 494.287 1861.42 494.287C1795.12 494.287 1735.11 490.174 1691.7 483.53C1669.98 480.208 1652.45 476.256 1640.36 471.882C1634.31 469.694 1629.67 467.414 1626.55 465.083C1623.41 462.739 1621.95 460.446 1621.95 458.248C1621.95 456.051 1623.41 453.758 1626.55 451.414C1629.67 449.083 1634.31 446.803 1640.36 444.614C1652.45 440.241 1669.98 436.289 1691.7 432.966C1735.11 426.323 1795.12 422.209 1861.42 422.209C1927.72 422.209 1987.72 426.323 2031.15 432.966C2052.86 436.289 2070.39 440.241 2082.48 444.614C2088.53 446.803 2093.18 449.083 2096.29 451.414C2099.43 453.758 2100.88 456.051 2100.88 458.248Z" stroke="#F5F9E9"/>
<path d="M1551 537.869L1623.91 456.496L1727.06 492.501L1551 537.869Z" stroke="#F5F9E9"/>
<path d="M2041.64 300.953C2020.69 327.116 1981.17 333.108 1948.48 323.996C1937.78 320.941 1927.45 316.743 1917.7 311.478C1912.02 308.472 1906.5 305.174 1901.08 301.659C1899.75 300.798 1898.4 299.924 1897.09 299.032C1896.19 298.433 1895.3 297.825 1894.4 297.21C1883.21 289.518 1872.46 281.081 1861.89 272.692C1835.49 251.752 1808.38 230.166 1775.95 220.175C1769.27 218.118 1760.63 217.155 1756.5 222.683C1752.92 227.482 1755.1 234.277 1758.14 239.425C1769.39 258.494 1789.81 270.534 1810.25 279.792C1830.68 289.05 1852.34 296.552 1870.1 310.088C1887.86 323.625 1901.44 345.139 1897.8 366.856C1894.67 385.573 1879.02 400.778 1860.83 407.404C1842.65 414.028 1822.36 413.105 1803.46 408.804C1784.55 404.499 1766.6 396.989 1748.36 390.517C1737.36 386.609 1722.97 383.908 1715.67 392.848C1709.51 400.403 1713.05 412.318 1720.56 418.606C1728.07 424.893 1738.23 426.999 1747.92 428.888C1778.02 434.761 1808.13 440.63 1838.23 446.5C1847.46 448.296 1856.91 450.177 1864.96 454.963C1873 459.746 1879.5 468.098 1879.27 477.295C1879.04 486.358 1872.24 494.368 1863.92 498.381C1855.6 502.39 1845.98 503.008 1836.72 502.576C1801.97 500.951 1702.38 447.038 1678.49 440.147C1663.15 435.723 1646.36 429.224 1639.89 414.927C1631.83 397.13 1645.09 375.598 1663.2 367.47C1681.29 359.337 1702.27 361.139 1722 363.877C1741.72 366.615 1762.1 370.097 1781.3 364.897C1800.5 359.695 1818.09 342.742 1816.19 323.368C1814.54 306.512 1799 293.81 1782.64 288.212C1769.84 283.827 1756.22 282.636 1742.77 280.662C1739.03 280.118 1735.31 279.509 1731.63 278.758C1722.19 276.829 1712.99 273.942 1704.17 270.149C1694.91 266.178 1686.12 261.247 1677.94 255.443C1671.41 250.821 1665.31 245.648 1659.71 239.985C1658.86 239.12 1658.01 238.236 1657.18 237.332C1656.38 236.467 1655.6 235.584 1654.83 234.683C1644.83 223.014 1637.44 208.644 1639.66 193.835C1641.87 179.066 1653.65 166.77 1667.68 160.863C1675.79 157.451 1684.54 155.923 1693.39 155.703C1699.87 155.576 1706.34 156.031 1712.73 157.062C1742.29 161.68 1769.38 175.711 1794.97 190.903C1820.55 206.095 1845.48 222.772 1873.29 233.602C1901.11 244.436 1932.76 249.023 1960.98 239.226C1989.18 229.434 2012.37 202.714 2010.98 173.5C2029.7 189.24 2045.59 209.023 2052.64 232.14C2059.68 255.258 2056.85 281.95 2041.64 300.953Z" fill="#3F3D56"/>
<path d="M1906.81 270.761C1908.63 270.761 1910.1 269.322 1910.1 267.547C1910.1 265.772 1908.63 264.333 1906.81 264.333C1905 264.333 1903.52 265.772 1903.52 267.547C1903.52 269.322 1905 270.761 1906.81 270.761Z" fill="#ECA400"/>
<path d="M2022.98 230.131C2025.78 230.131 2028.05 227.907 2028.05 225.164C2028.05 222.421 2025.78 220.195 2022.98 220.195C2020.17 220.195 2017.88 222.421 2017.88 225.164C2017.88 227.907 2020.17 230.131 2022.98 230.131Z" fill="#FF6584"/>
<path d="M1689.41 383.291C1690.45 383.291 1691.29 382.47 1691.29 381.456C1691.29 380.442 1690.45 379.621 1689.41 379.621C1688.37 379.621 1687.53 380.442 1687.53 381.456C1687.53 382.47 1688.37 383.291 1689.41 383.291Z" fill="#FF6584"/>
<path d="M1743.35 275.938C1743.36 277.53 1743.16 279.116 1742.77 280.662C1739.03 280.119 1735.31 279.509 1731.63 278.759C1722.2 276.829 1712.99 273.943 1704.17 270.15C1705.59 265.676 1708.6 261.847 1712.67 259.358C1716.73 256.868 1721.57 255.886 1726.31 256.587C1731.05 257.286 1735.38 259.625 1738.51 263.174C1741.63 266.726 1743.35 271.254 1743.35 275.938Z" fill="#FF6584"/>
<path d="M1990.44 259.271C1991.5 259.271 1992.36 258.43 1992.36 257.393C1992.36 256.356 1991.5 255.516 1990.44 255.516C1989.37 255.516 1988.51 256.356 1988.51 257.393C1988.51 258.43 1989.37 259.271 1990.44 259.271Z" fill="#F0F0F0"/>
<path d="M1814.61 465.895C1815.67 465.895 1816.54 465.056 1816.54 464.019C1816.54 462.982 1815.67 462.141 1814.61 462.141C1813.55 462.141 1812.69 462.982 1812.69 464.019C1812.69 465.056 1813.55 465.895 1814.61 465.895Z" fill="#F0F0F0"/>
<path d="M1842.17 491.944C1843.25 491.944 1844.11 491.103 1844.11 490.068C1844.11 489.031 1843.25 488.19 1842.17 488.19C1841.12 488.19 1840.26 489.031 1840.26 490.068C1840.26 491.103 1841.12 491.944 1842.17 491.944Z" fill="#F0F0F0"/>
<path d="M1671.79 417.771C1672.85 417.771 1673.71 416.931 1673.71 415.894C1673.71 414.857 1672.85 414.016 1671.79 414.016C1670.73 414.016 1669.87 414.857 1669.87 415.894C1669.87 416.931 1670.73 417.771 1671.79 417.771Z" fill="#F0F0F0"/>
<path d="M1766.25 382.893C1767.32 382.893 1768.18 382.052 1768.18 381.015C1768.18 379.978 1767.32 379.139 1766.25 379.139C1765.19 379.139 1764.33 379.978 1764.33 381.015C1764.33 382.052 1765.19 382.893 1766.25 382.893Z" fill="#F0F0F0"/>
<path d="M1756.76 196.576C1757.82 196.576 1758.68 195.735 1758.68 194.698C1758.68 193.661 1757.82 192.822 1756.76 192.822C1755.7 192.822 1754.84 193.661 1754.84 194.698C1754.84 195.735 1755.7 196.576 1756.76 196.576Z" fill="#F0F0F0"/>
<path d="M1872.91 343.597C1873.97 343.597 1874.85 342.758 1874.85 341.721C1874.85 340.684 1873.97 339.843 1872.91 339.843C1871.86 339.843 1871 340.684 1871 341.721C1871 342.758 1871.86 343.597 1872.91 343.597Z" fill="#F0F0F0"/>
<path d="M1887.39 376.27C1888.45 376.27 1889.3 375.429 1889.3 374.392C1889.3 373.355 1888.45 372.514 1887.39 372.514C1886.31 372.514 1885.46 373.355 1885.46 374.392C1885.46 375.429 1886.31 376.27 1887.39 376.27Z" fill="#F0F0F0"/>
<path d="M1714.15 200.692C1714.17 210.17 1711.87 219.517 1707.46 227.96C1706.88 229.072 1706.26 230.165 1705.61 231.239C1699.15 241.895 1689.49 250.346 1677.94 255.444C1671.41 250.821 1665.31 245.648 1659.71 239.985C1658.86 239.12 1658.01 238.236 1657.18 237.332C1656.38 236.467 1655.59 235.584 1654.83 234.683C1644.83 223.014 1637.44 208.644 1639.66 193.835C1641.87 179.066 1653.65 166.77 1667.68 160.863C1675.79 157.451 1684.53 155.923 1693.39 155.703C1700.31 161.674 1705.77 169.093 1709.36 177.407C1709.81 178.453 1710.23 179.513 1710.62 180.585C1712.96 187.042 1714.16 193.842 1714.15 200.692Z" fill="#ECA400"/>
<path d="M1742.18 203.783C1742.18 212.98 1732.98 221.51 1716.29 227.81C1712.95 229.073 1709.37 230.216 1705.61 231.24C1691.54 235.073 1674.79 237.195 1657.18 237.333C1656.38 236.467 1655.6 235.585 1654.83 234.684C1655.02 234.688 1655.21 234.688 1655.4 234.688C1674.52 234.688 1692.66 232.322 1707.47 227.96C1710.2 227.152 1712.82 226.278 1715.31 225.337C1730.66 219.549 1739.47 211.69 1739.47 203.783C1739.47 195.875 1730.66 188.022 1715.31 182.229C1713.79 181.654 1712.23 181.108 1710.62 180.586C1710.23 179.513 1709.81 178.453 1709.36 177.408C1711.76 178.14 1714.07 178.924 1716.29 179.756C1732.98 186.056 1742.18 194.591 1742.18 203.783Z" fill="#E4E4E4"/>
<path d="M1658.23 170.97C1659.29 170.97 1660.15 170.129 1660.15 169.092C1660.15 168.055 1659.29 167.216 1658.23 167.216C1657.17 167.216 1656.31 168.055 1656.31 169.092C1656.31 170.129 1657.17 170.97 1658.23 170.97Z" fill="#F0F0F0"/>
<path d="M1698.46 182.89C1699.52 182.89 1700.38 182.05 1700.38 181.013C1700.38 179.976 1699.52 179.135 1698.46 179.135C1697.39 179.135 1696.53 179.976 1696.53 181.013C1696.53 182.05 1697.39 182.89 1698.46 182.89Z" fill="#F0F0F0"/>
<path d="M1677.66 218.252C1687.98 218.252 1696.35 210.08 1696.35 199.998C1696.35 189.915 1687.98 181.742 1677.66 181.742C1667.34 181.742 1658.97 189.915 1658.97 199.998C1658.97 210.08 1667.34 218.252 1677.66 218.252Z" fill="#F0F0F0"/>
<path opacity="0.3" d="M2022.79 296.618C2018.6 297.828 2009.35 298.719 1999.18 299.267C1989.03 299.81 1977.87 300.048 1966.86 300.278C1947.59 300.684 1928.33 301.092 1909.05 301.501C1906.4 301.558 1903.74 301.611 1901.08 301.66C1899.75 300.799 1898.4 299.925 1897.09 299.034C1899.45 299.047 1901.82 299.034 1904.17 298.99C1914.18 298.795 1922.66 298.031 1932.33 297.669C1947.21 297.109 1963.25 297.549 1978.76 297.775C1994.25 298.004 2011.91 297.921 2022.79 296.618Z" fill="#F0F0F0"/>
<path opacity="0.3" d="M1727.01 435.794L1665.58 385.802L1725.26 437.796C1725.38 437.987 1725.54 438.148 1725.73 438.266C1725.92 438.383 1726.14 438.454 1726.36 438.473C1726.59 438.492 1726.81 438.459 1727.02 438.374C1727.23 438.29 1727.42 438.158 1727.57 437.991C1727.71 437.822 1727.82 437.622 1727.87 437.407C1727.92 437.193 1727.92 436.968 1727.87 436.754C1727.81 436.539 1727.71 436.339 1727.56 436.173C1727.41 436.006 1727.22 435.877 1727.01 435.794Z" fill="#F0F0F0"/>
<path d="M1680.38 246.467C1681.44 246.467 1682.3 245.626 1682.3 244.589C1682.3 243.552 1681.44 242.713 1680.38 242.713C1679.32 242.713 1678.45 243.552 1678.45 244.589C1678.45 245.626 1679.32 246.467 1680.38 246.467Z" fill="#0B7A75"/>
<path d="M1841.78 462.111H1849.73L1853.51 432.161H1841.78V462.111Z" fill="#DB5461"/>
<path d="M1839.74 459.575H1841.99L1850.73 456.105L1855.41 459.573C1858.05 459.573 1860.58 460.6 1862.46 462.428C1864.33 464.256 1865.37 466.735 1865.37 469.319V469.635L1839.74 469.637V459.575Z" fill="#2F2E41"/>
<path d="M1782.25 462.111H1774.3L1770.52 432.161H1782.25L1782.25 462.111Z" fill="#DB5461"/>
<path d="M1784.28 469.637L1758.64 469.635V469.319C1758.64 466.735 1759.7 464.256 1761.57 462.428C1763.44 460.6 1765.97 459.573 1768.62 459.573H1768.62L1773.3 456.105L1782.04 459.575H1784.28V469.637Z" fill="#2F2E41"/>
<path d="M1810.73 232.578L1802.68 238.565L1781.3 244.095C1781.3 244.095 1788.96 296.617 1785.35 300.149C1781.73 303.681 1784.99 303.776 1784.27 308.364C1783.54 312.952 1780.65 325.067 1780.65 325.067H1844.45C1844.45 325.067 1844.97 317.538 1841.82 315.909C1838.69 314.278 1844.72 306.668 1842.16 305.395C1839.59 304.123 1843.21 293.085 1843.21 293.085L1851.03 256.948L1830.19 241.019L1827.03 233.559L1810.73 232.578Z" fill="#ECA400"/>
<path d="M1820.77 279.511C1822.31 279.511 1823.56 278.294 1823.56 276.791C1823.56 275.289 1822.31 274.07 1820.77 274.07C1819.24 274.07 1817.99 275.289 1817.99 276.791C1817.99 278.294 1819.24 279.511 1820.77 279.511Z" fill="#0B7A75"/>
<path d="M1780.65 325.067L1778.02 391.258C1778.02 391.258 1766.66 440.145 1768.63 441.431C1770.6 442.717 1771.44 450.38 1771.44 450.38L1782.62 451.666C1782.62 451.666 1782.62 446.524 1785.25 444.596C1787.88 442.668 1812.23 352.057 1812.23 352.057L1835.97 439.665C1835.97 439.665 1836.58 444.596 1838.55 444.596C1840.52 444.596 1841.18 451.666 1841.18 451.666H1852.35V444.596C1852.35 444.596 1857.39 443.04 1855.41 437.9C1853.44 432.758 1844.46 325.067 1844.46 325.067H1780.65Z" fill="#2F2E41"/>
<path d="M1819.09 228.633C1826.55 228.633 1832.58 222.735 1832.58 215.459C1832.58 208.183 1826.55 202.286 1819.09 202.286C1811.65 202.286 1805.61 208.183 1805.61 215.459C1805.61 222.735 1811.65 228.633 1819.09 228.633Z" fill="#DB5461"/>
<path opacity="0.1" d="M1842.15 274.62L1844.78 276.548L1846.09 267.552L1842.15 274.62Z" fill="black"/>
<path d="M1782.57 244.045C1782.57 244.045 1779.28 243.402 1777.3 249.186C1775.33 254.97 1768.09 276.819 1768.09 280.675C1768.09 284.531 1813.16 301.544 1813.16 301.544L1808.47 285.475L1787.83 274.891L1782.57 244.045Z" fill="#ECA400"/>
<path d="M1815.25 299.161C1819.49 299.161 1822.93 295.801 1822.93 291.655C1822.93 287.51 1819.49 284.15 1815.25 284.15C1811 284.15 1807.56 287.51 1807.56 291.655C1807.56 295.801 1811 299.161 1815.25 299.161Z" fill="#DB5461"/>
<path opacity="0.1" d="M1787.23 266.931L1787.83 274.891L1806.92 284.678L1789.94 273.553L1787.23 266.931Z" fill="black"/>
<path d="M1833.11 268.066H1832.87V261.44C1832.87 260.936 1832.77 260.438 1832.57 259.972C1832.37 259.507 1832.08 259.084 1831.71 258.728C1831.35 258.372 1830.92 258.09 1830.44 257.897C1829.96 257.704 1829.45 257.605 1828.93 257.605H1814.57C1814.05 257.605 1813.54 257.704 1813.06 257.897C1812.59 258.09 1812.16 258.372 1811.79 258.728C1811.43 259.084 1811.14 259.507 1810.94 259.972C1810.74 260.438 1810.64 260.936 1810.64 261.44V297.792C1810.64 298.296 1810.74 298.795 1810.94 299.26C1811.14 299.725 1811.43 300.148 1811.79 300.504C1812.16 300.86 1812.59 301.142 1813.06 301.335C1813.54 301.528 1814.05 301.627 1814.57 301.627H1828.93C1829.45 301.627 1829.96 301.528 1830.44 301.335C1830.92 301.142 1831.35 300.86 1831.71 300.504C1832.08 300.148 1832.37 299.725 1832.57 299.26C1832.77 298.795 1832.87 298.296 1832.87 297.792V272.783H1833.11V268.066Z" fill="#F0F0F0"/>
<path d="M1851.03 256.948C1851.03 256.948 1853 258.234 1854.32 264.018C1855.63 269.801 1864.19 291.65 1860.9 296.792C1857.61 301.932 1856.65 307.42 1845.47 299.708L1829.99 285.866L1841.16 275.584L1845.77 278.798L1851.03 256.948Z" fill="#ECA400"/>
<path d="M1821.93 273.807C1823.74 273.807 1825.21 272.368 1825.21 270.594C1825.21 268.819 1823.74 267.38 1821.93 267.38C1820.11 267.38 1818.64 268.819 1818.64 270.594C1818.64 272.368 1820.11 273.807 1821.93 273.807Z" fill="#ECA400"/>
<path d="M1831.45 285.138C1835.7 285.138 1839.13 281.779 1839.13 277.632C1839.13 273.488 1835.7 270.128 1831.45 270.128C1827.2 270.128 1823.77 273.488 1823.77 277.632C1823.77 281.779 1827.2 285.138 1831.45 285.138Z" fill="#DB5461"/>
<path opacity="0.1" d="M1786.86 290.956L1808.92 300.485L1786.25 296.157L1786.86 290.956Z" fill="black"/>
<path d="M1805.49 218.085L1803.64 211.201C1803.15 209.405 1802.67 207.573 1802.77 205.719C1802.88 203.864 1803.69 201.951 1805.29 200.947C1806.88 199.943 1809.33 200.18 1810.36 201.742C1810.55 199.247 1812.87 197.329 1815.34 196.65C1817.8 195.971 1820.42 196.24 1822.97 196.354C1825.53 196.468 1828.24 196.388 1830.44 195.121C1830.61 195.615 1830.6 196.149 1830.41 196.636C1830.22 197.121 1829.87 197.528 1829.41 197.789C1829.95 197.936 1830.54 197.873 1831.04 197.613C1831.54 197.354 1831.93 196.918 1832.11 196.393C1832.13 197.837 1831.58 199.233 1830.58 200.299C1831.54 199.837 1832.63 199.738 1833.66 200.021C1834.67 200.304 1835.56 200.948 1836.12 201.829C1837.25 203.737 1836.62 206.133 1835.96 208.238L1832.57 219.048C1832.05 217.405 1831.97 215.67 1831.7 213.973C1831.41 212.276 1830.92 210.544 1829.78 209.241C1828.64 207.939 1826.69 207.184 1825.06 207.83C1824.14 208.194 1823.45 208.93 1822.62 209.458C1820.93 210.542 1818.77 210.698 1816.76 210.476C1814.75 210.256 1812.79 209.697 1810.78 209.474C1809.52 209.334 1808.11 209.371 1807.16 210.19C1806.51 210.853 1806.08 211.695 1805.93 212.603C1805.48 214.414 1805.3 216.28 1805.4 218.14" fill="#2F2E41"/>
<path d="M1948.76 543.899C1986.06 564.753 1983.06 509.806 1978.95 434.89C1974.41 351.646 1968.5 243.746 2015.05 187.781M2015.97 186.688C2040.5 157.983 2079.26 143.417 2139.8 153.715L2015.97 186.688ZM2035.12 240.465C2024.39 238.983 2010.05 235.055 1993 229.003C1996.43 219.583 2000.52 210.75 2005.4 202.659C2005.79 202.011 2006.19 201.369 2006.59 200.731C2020.99 207.221 2034.42 212.696 2046.68 217.153C2046.98 217.508 2047.28 217.859 2047.56 218.207C2051.14 222.556 2053.6 226.38 2054.9 229.596C2056.19 232.824 2056.25 235.31 2055.24 237.112C2054.24 238.913 2052.08 240.164 2048.67 240.751C2045.25 241.336 2040.7 241.236 2035.12 240.465ZM2005.27 200.137C2004.9 200.728 2004.54 201.323 2004.17 201.921C1999.25 210.097 1995.12 219.018 1991.66 228.522C1991.4 228.432 1991.15 228.342 1990.9 228.252C1954.97 215.295 1907.61 193.238 1857.37 165.147C1807.12 137.057 1763.53 108.267 1733.67 84.4379C1718.73 72.5196 1707.26 61.8628 1700.11 53.1697C1696.53 48.8202 1694.06 44.9972 1692.77 41.7807C1691.47 38.5527 1691.41 36.0675 1692.42 34.2655C1693.43 32.4635 1695.58 31.2132 1699 30.6262C1702.42 30.0414 1706.97 30.1421 1712.55 30.913C1723.7 32.4538 1738.79 36.6456 1756.76 43.1257C1762.7 45.2643 1768.94 47.6517 1775.45 50.272C1783.73 58.8864 1794.85 68.821 1808.12 79.525C1841.48 106.43 1888.55 138.276 1938.85 166.396C1962.56 179.653 1984.88 190.903 2005.27 200.137ZM2044.73 214.915C2033.22 210.658 2020.72 205.524 2007.36 199.511C2009.91 195.552 2012.65 191.784 2015.61 188.23C2027.96 198.173 2037.82 207.208 2044.73 214.915ZM2014.5 187.335C2011.46 190.984 2008.65 194.851 2006.04 198.916C1985.65 189.686 1963.31 178.429 1939.55 165.147C1889.31 137.061 1842.29 105.258 1809.02 78.4123C1796.95 68.6822 1786.71 59.613 1778.77 51.615C1811.07 64.8134 1849.75 83.5555 1890.31 106.229C1940.55 134.32 1984.13 163.109 2014 186.939C2014.17 187.072 2014.33 187.203 2014.5 187.335ZM2047.52 215.939C2040.51 207.729 2029.96 197.947 2016.53 187.136C2026.67 175.281 2039.24 165.864 2054.79 159.638C2068.43 154.177 2084.39 151.162 2103.03 151.129C2111.8 168.094 2117.86 183.847 2121.37 196.569C2123.33 203.711 2124.47 209.882 2124.86 214.767C2125.23 219.695 2124.8 223.179 2123.75 225.055C2122.71 226.913 2120.72 228.33 2117.68 229.233C2114.63 230.134 2110.62 230.494 2105.69 230.286C2095.84 229.869 2082.48 227.185 2066.21 222.212C2060.35 220.418 2054.1 218.326 2047.52 215.939ZM2102.3 149.702C2083.81 149.814 2067.92 152.844 2054.26 158.311C2038.45 164.635 2025.7 174.209 2015.41 186.241C2015.24 186.101 2015.07 185.962 2014.9 185.822C1984.95 161.929 1941.3 133.098 1890.99 104.981C1849.13 81.5746 1809.25 62.3405 1776.27 49.0605C1774.25 46.95 1772.41 44.9227 1770.74 42.9861C1766.52 38.0669 1763.51 33.7645 1761.85 30.2063C1760.17 26.6125 1759.95 23.9705 1760.93 22.2097C1761.44 21.2904 1762.39 20.2793 1763.79 19.2091C1765.18 18.1437 1767 17.0462 1769.21 15.9429C1773.62 13.7365 1779.57 11.532 1786.78 9.51993C1801.2 5.49662 1820.63 2.26051 1842.92 1.29495C1887.5 -0.636188 1943.43 6.51996 1993.56 34.5407C2043.67 62.5607 2078.53 106.164 2099.7 144.851C2100.58 146.478 2101.46 148.094 2102.3 149.702Z" stroke="#F5F9E9"/>
</svg>
