<svg width="30" height="30" viewBox="0 0 30 30" fill="none" xmlns="http://www.w3.org/2000/svg">
<path d="M28 6.93704C27.043 7.36204 26.015 7.64804 24.936 7.77704C26.038 7.11704 26.883 6.07204 27.281 4.82604C26.251 5.43704 25.109 5.88104 23.893 6.12104C22.92 5.08404 21.534 4.43604 20 4.43604C17.054 4.43604 14.666 6.82504 14.666 9.77004C14.666 10.188 14.714 10.596 14.804 10.985C10.371 10.763 6.44099 8.63903 3.80899 5.41104C3.35099 6.19904 3.08799 7.11504 3.08799 8.09404C3.08799 9.94404 4.02899 11.577 5.45999 12.533C4.58599 12.505 3.76299 12.265 3.04399 11.866C3.04399 11.889 3.04399 11.91 3.04399 11.933C3.04399 14.518 4.88199 16.674 7.32299 17.163C6.87599 17.285 6.40399 17.35 5.91699 17.35C5.57399 17.35 5.23899 17.316 4.91399 17.255C5.59299 19.374 7.56299 20.917 9.89699 20.96C8.07199 22.391 5.77199 23.244 3.27199 23.244C2.84199 23.244 2.41699 23.219 1.99899 23.169C4.35999 24.682 7.16299 25.565 10.176 25.565C19.988 25.565 25.352 17.437 25.352 10.388C25.352 10.157 25.347 9.92704 25.337 9.69804C26.38 8.94504 27.285 8.00604 28 6.93704Z" fill="#ECA400"/>
</svg>
