<svg width="30" height="30" viewBox="0 0 30 30" fill="none" xmlns="http://www.w3.org/2000/svg">
<path d="M13.625 2.62497C7.875 3.24997 3.25 7.87497 2.625 13.5C2 19.375 5.375 24.625 10.5 26.625C10.875 26.75 11.25 26.5 11.25 26V24C11.25 24 10.75 24.125 10.125 24.125C8.375 24.125 7.625 22.625 7.5 21.75C7.375 21.25 7.125 20.875 6.75 20.5C6.375 20.375 6.25 20.375 6.25 20.25C6.25 20 6.625 20 6.75 20C7.5 20 8.125 20.875 8.375 21.25C9 22.25 9.75 22.5 10.125 22.5C10.625 22.5 11 22.375 11.25 22.25C11.375 21.375 11.75 20.5 12.5 20C9.625 19.375 7.5 17.75 7.5 15C7.5 13.625 8.125 12.25 9 11.25C8.875 11 8.75 10.375 8.75 9.49997C8.75 8.99997 8.75 8.24997 9.125 7.49997C9.125 7.49997 10.875 7.49997 12.625 9.12497C13.25 8.87497 14.125 8.74997 15 8.74997C15.875 8.74997 16.75 8.87497 17.5 9.12497C19.125 7.49997 21 7.49997 21 7.49997C21.25 8.24997 21.25 8.99997 21.25 9.49997C21.25 10.5 21.125 11 21 11.25C21.875 12.25 22.5 13.5 22.5 15C22.5 17.75 20.375 19.375 17.5 20C18.25 20.625 18.75 21.75 18.75 22.875V26.125C18.75 26.5 19.125 26.875 19.625 26.75C24.25 24.875 27.5 20.375 27.5 15.125C27.5 7.62497 21.125 1.74997 13.625 2.62497Z" fill="#0B7A75"/>
</svg>
