<svg width="720" height="396" viewBox="0 0 720 396" fill="none" xmlns="http://www.w3.org/2000/svg">
<path d="M302.727 51.5658L276.692 44.0237C276.136 44.6961 275.634 45.4251 275.204 46.2122C274.839 46.8802 274.538 47.5648 274.295 48.2568L302.237 56.35C302.701 54.77 302.857 53.1521 302.727 51.5658Z" fill="#DB5461"/>
<path d="M295.081 40.3922L289.571 38.7962C286.253 38.4915 282.931 39.2824 280.166 40.9993L301.617 47.2127C300.366 44.3927 298.129 41.9502 295.081 40.3922Z" fill="#DB5461"/>
<path d="M291.335 66.1841L277.58 62.1992C278.664 63.2837 279.949 64.22 281.422 64.9494C284.595 66.5196 288.096 66.8702 291.335 66.1841V66.1841Z" fill="#DB5461"/>
<path d="M300.598 59.9087L273.566 52.0789C273.494 53.8446 273.78 55.5976 274.39 57.2448L296.898 63.7644C298.344 62.7404 299.606 61.4438 300.598 59.9087Z" fill="#DB5461"/>
<line x1="-19" y1="148.5" x2="482" y2="148.5" stroke="#F5F9E9"/>
<g clip-path="url(#clip0_83_3878)">
<path d="M274.854 136.318C274.854 136.318 255.821 127.989 262.507 122.213C269.193 116.437 274.854 136.318 274.854 136.318Z" fill="#F5F9E9"/>
<path d="M274.522 138.261C274.522 138.261 265.774 110.938 278.656 112.244C291.539 113.551 274.522 138.261 274.522 138.261Z" fill="#F5F9E9"/>
<path d="M268.144 135.838L268.511 140.409L268.517 140.487C268.517 141.201 268.555 141.915 268.631 142.625C269.129 147.287 271.271 149.411 273.774 149.411C276.277 149.411 278.326 147.287 278.824 142.625C278.9 141.915 278.938 141.201 278.938 140.487L278.941 140.424L278.942 140.409L279.311 135.838H268.144Z" fill="#8D8572"/>
<path d="M278.942 140.408L278.941 140.424L278.938 140.487C278.938 141.201 278.9 141.914 278.824 142.624H268.631C268.555 141.914 268.517 141.201 268.517 140.487L268.511 140.408H278.942Z" fill="white"/>
<path d="M398.993 139.113C398.993 139.113 384.257 132.664 389.434 128.193C394.611 123.721 398.993 139.113 398.993 139.113Z" fill="#0B7A75"/>
<path d="M398.736 140.617C398.736 140.617 391.963 119.463 401.937 120.475C411.911 121.487 398.736 140.617 398.736 140.617Z" fill="#0B7A75"/>
<path d="M393.798 138.741L394.082 142.28L394.087 142.341C394.087 142.894 394.116 143.446 394.175 143.996C394.561 147.605 396.219 149.25 398.157 149.25C400.095 149.25 401.681 147.605 402.067 143.996C402.126 143.446 402.155 142.894 402.155 142.341L402.157 142.292L402.158 142.28L402.444 138.741H393.798Z" fill="#E6E6E6"/>
<path d="M402.158 142.28L402.157 142.292L402.155 142.341C402.155 142.894 402.126 143.446 402.067 143.996H394.175C394.116 143.446 394.087 142.894 394.087 142.341L394.082 142.28H402.158Z" fill="white"/>
<path d="M307.024 80.2986V74.0823H306.007V80.2986C305.715 80.4108 305.474 80.6158 305.324 80.8787C305.173 81.1416 305.124 81.4459 305.184 81.7395C305.244 82.0331 305.41 82.2977 305.653 82.4879C305.896 82.6781 306.201 82.7821 306.515 82.7821C306.83 82.7821 307.135 82.6781 307.378 82.4879C307.62 82.2977 307.786 82.0331 307.846 81.7395C307.906 81.4459 307.857 81.1416 307.707 80.8787C307.557 80.6158 307.315 80.4108 307.024 80.2986Z" fill="#E6E6E6"/>
<path d="M309.396 143.033H302.448V62.8054H299.736V143.033H292.788C291.964 143.033 291.149 143.187 290.388 143.486C289.627 143.786 288.936 144.225 288.354 144.778C287.771 145.332 287.31 145.989 286.994 146.712C286.679 147.435 286.517 148.211 286.517 148.993V148.993H315.667V148.993C315.667 148.211 315.505 147.435 315.19 146.712C314.875 145.989 314.413 145.332 313.83 144.778C313.248 144.225 312.557 143.786 311.796 143.486C311.035 143.187 310.22 143.033 309.396 143.033V143.033Z" fill="#E6E6E6"/>
<path d="M286.531 74.7266H315.653L313.872 53.5679C313.807 52.8383 313.457 52.1583 312.891 51.6616C312.325 51.1649 311.584 50.8875 310.814 50.884H291.37C290.6 50.8875 289.859 51.1649 289.293 51.6616C288.727 52.1583 288.377 52.8383 288.312 53.5679L286.531 74.7266Z" fill="#ECA400"/>
<path d="M327.079 111.863C326.805 111.82 326.525 111.829 326.255 111.889C325.985 111.95 325.73 112.061 325.505 112.216C325.28 112.371 325.09 112.567 324.945 112.792C324.801 113.017 324.705 113.268 324.663 113.529L323.843 118.643L326.633 119.347L328.677 114.581C328.795 114.304 328.847 114.006 328.828 113.707C328.809 113.409 328.719 113.118 328.566 112.857C328.412 112.596 328.199 112.371 327.942 112.199C327.684 112.027 327.39 111.912 327.079 111.863Z" fill="#A0616A"/>
<path d="M327.027 118.634C328.575 124.482 327.909 129.831 322.144 134.031C315.23 132.219 310.631 127.848 307.825 121.495C307.651 121.1 307.562 120.675 307.565 120.247C307.568 119.818 307.662 119.395 307.842 119.002C308.022 118.609 308.283 118.255 308.611 117.961C308.939 117.667 309.326 117.439 309.749 117.291V117.291C310.385 117.069 311.076 117.036 311.732 117.197C312.388 117.357 312.976 117.704 313.42 118.19L320.204 125.634L323.387 118.128L327.027 118.634Z" fill="#ECA400"/>
<path d="M362.455 149.317C356.141 148.998 352.219 146.937 351.269 142.712L352.286 140.939L363.928 145.981C364.222 146.108 364.469 146.316 364.639 146.577C364.809 146.838 364.893 147.142 364.88 147.448C364.868 147.755 364.76 148.052 364.57 148.3C364.38 148.548 364.117 148.737 363.814 148.843L362.455 149.317Z" fill="#E6E6E6"/>
<path d="M357.576 149.359C354.296 149.264 351.141 149.294 348.152 149.486C347.627 149.52 347.11 149.356 346.712 149.03C346.314 148.704 346.067 148.242 346.025 147.744L345.846 145.611L343.304 141.745L345.507 139.651C349.209 143.156 353.27 146.1 358.093 147.85C358.248 147.951 358.364 148.097 358.425 148.266C358.485 148.435 358.486 148.619 358.428 148.788C358.37 148.958 358.256 149.106 358.102 149.208C357.948 149.311 357.764 149.364 357.576 149.359V149.359Z" fill="#E6E6E6"/>
<path d="M339.745 134.173C335.556 141.298 331.436 146.101 326.017 148.672C319.35 150.764 314.477 147.993 310.68 142.309L321.696 135.382L323.306 136.912L337.897 126.357C338.254 126.036 338.729 125.862 339.219 125.873C339.71 125.883 340.177 126.077 340.518 126.412L352.964 140.939L351.439 143.356L339.745 134.173Z" fill="#2F2E41"/>
<path d="M343.473 142.55L337.711 134.173L339.067 131.757L346.693 139.328L343.473 142.55Z" fill="#2F2E41"/>
<path d="M310.256 115.808C313.438 115.808 316.018 113.356 316.018 110.331C316.018 107.306 313.438 104.853 310.256 104.853C307.074 104.853 304.494 107.306 304.494 110.331C304.494 113.356 307.074 115.808 310.256 115.808Z" fill="#A0616A"/>
<path d="M311.781 120.48L305.341 118.385C306.294 116.946 306.712 115.244 306.527 113.552H311.781C311.482 116.011 311.438 118.342 311.781 120.48Z" fill="#A0616A"/>
<path d="M325.509 135.14C324.543 135.517 324.473 136.738 323.56 137.154C319.147 139.161 314.478 140.789 311.273 143.678C303.783 138.843 296.841 123.828 305.85 117.258C308.924 118.968 311.671 120.192 311.612 117.258L325.509 135.14Z" fill="#ECA400"/>
<path opacity="0.2" d="M321.611 128.696L318.475 127.649L312.29 132.24L309.517 122.751C309.324 122.093 309.013 122.426 308.565 122.883C308.099 122.473 307.519 122.198 306.893 122.091C306.268 121.983 305.623 122.048 305.035 122.278C304.447 122.507 303.941 122.892 303.575 123.386C303.21 123.88 303 124.464 302.972 125.067C302.642 131.95 304.826 137.774 310.256 142.228C317.358 140.783 320.372 136.221 321.611 130.307L321.275 130.094C321.399 129.637 321.511 129.171 321.611 128.696Z" fill="black"/>
<path d="M311.031 103.125C312.932 103.538 315.095 104.123 315.217 104.666C317.172 105.135 318.648 106.257 318.949 107.967C318.974 108.115 318.965 108.266 318.922 108.41C318.879 108.554 318.803 108.687 318.7 108.801C318.597 108.914 318.469 109.004 318.325 109.065C318.182 109.127 318.025 109.157 317.868 109.155C316.805 109.142 315.208 109.045 314.154 108.626C311.093 110.502 310.579 115.379 311.916 118.699L309.812 118.516L307.635 112.458L307.079 118.278L302.277 117.675L302.895 110.254C303.085 108.505 303.712 106.824 304.722 105.351C304.827 105.203 304.942 105.062 305.066 104.928C305.796 104.143 306.736 103.561 307.787 103.244C308.837 102.927 309.958 102.886 311.031 103.125V103.125Z" fill="#2F2E41"/>
<path d="M321.865 121.514L327.138 127.408L335.049 118.534L329.704 112.369L321.865 121.514Z" fill="#3F3D56"/>
<path d="M333.694 118.737L327.423 113.859C327.779 113.046 329.49 113.317 329.49 113.317L334.399 118.048C334.57 118.213 334.716 118.399 334.835 118.601V118.601L333.694 118.737Z" fill="#ECA400"/>
<path d="M333.98 118.398L326.853 113.114L318.943 124.495L326.39 129.271C327.103 129.542 327.815 129.067 327.815 129.067L335.084 118.5L333.98 118.398Z" fill="#3F3D56"/>
<path d="M327.742 114.763L327.674 114.853L332.236 117.968L332.303 117.879L327.742 114.763Z" fill="#ECA400"/>
<path d="M332.363 119.045L326.377 127.648L326.474 127.709L332.46 119.106L332.363 119.045Z" fill="#ECA400"/>
<path d="M320.901 124.518L320.833 124.606L325.678 127.995L325.746 127.906L320.901 124.518Z" fill="#ECA400"/>
<path d="M326.877 114.912L320.677 123.38L320.772 123.442L326.972 114.975L326.877 114.912Z" fill="#ECA400"/>
<path d="M328.792 113.25L328.744 113.3L334.383 118.22L334.431 118.17L328.792 113.25Z" fill="#ECA400"/>
<path d="M328.322 113.292L328.275 113.343L334.169 118.289L334.216 118.238L328.322 113.292Z" fill="#ECA400"/>
<path d="M327.954 113.391L327.908 113.443L334.026 118.291L334.072 118.239L327.954 113.391Z" fill="#ECA400"/>
<path d="M324.711 123.244C324.483 123.094 324.226 122.987 323.954 122.932C323.683 122.876 323.403 122.873 323.13 122.921C322.857 122.97 322.596 123.069 322.364 123.214C322.132 123.359 321.932 123.546 321.777 123.765L318.73 128.051L320.933 129.824L324.929 126.351C325.161 126.149 325.342 125.9 325.459 125.623C325.577 125.345 325.627 125.046 325.606 124.748C325.585 124.45 325.494 124.16 325.339 123.899C325.184 123.639 324.969 123.415 324.711 123.244V123.244Z" fill="#A0616A"/>
<path d="M321.611 129.34C320.372 135.255 317.358 139.816 310.256 141.261C304.826 136.807 302.642 130.984 302.972 124.101C302.993 123.673 303.104 123.253 303.3 122.867C303.496 122.481 303.772 122.137 304.111 121.856C304.451 121.574 304.847 121.361 305.276 121.229C305.705 121.096 306.157 121.048 306.606 121.087V121.087C307.28 121.145 307.92 121.397 308.44 121.81C308.96 122.222 309.335 122.775 309.517 123.395L312.29 132.884L318.55 127.4L321.611 129.34Z" fill="#ECA400"/>
<path d="M406.988 149.5H257.415V149.149H407.054L406.988 149.5Z" fill="#3F3D56"/>
<path d="M335.593 65.6257C335.503 65.6258 335.417 65.6598 335.353 65.7202C335.289 65.7806 335.254 65.8625 335.254 65.9479V91.0793C335.254 91.1648 335.289 91.2467 335.353 91.3071C335.417 91.3675 335.503 91.4015 335.593 91.4015H357.625C357.714 91.4014 357.801 91.3675 357.864 91.3071C357.928 91.2467 357.963 91.1648 357.963 91.0793V65.9479C357.963 65.8625 357.928 65.7806 357.864 65.7202C357.801 65.6598 357.714 65.6258 357.625 65.6257H335.593Z" fill="#E6E6E6"/>
<path d="M337.88 88.9045H355.337V68.1228H337.88V88.9045Z" fill="white"/>
<path d="M372.273 72.2307C372.219 72.2308 372.168 72.2511 372.13 72.2871C372.092 72.3232 372.07 72.3721 372.07 72.4231V84.9263C372.07 84.9773 372.092 85.0262 372.13 85.0622C372.168 85.0983 372.219 85.1186 372.273 85.1186H388.057C388.11 85.1186 388.162 85.0983 388.2 85.0622C388.238 85.0261 388.259 84.9773 388.259 84.9263V72.4231C388.259 72.3721 388.238 72.3232 388.2 72.2871C388.162 72.2511 388.11 72.2308 388.057 72.2307L372.273 72.2307Z" fill="#E6E6E6"/>
<path d="M373.639 73.7214V83.6278H386.691V73.7214H373.639Z" fill="#737374"/>
<path d="M349.691 67.3978H343.526C343.377 67.3983 343.231 67.3615 343.102 67.2909C342.973 67.2203 342.865 67.1186 342.791 66.9959C342.716 66.8733 342.677 66.7341 342.678 66.5925C342.678 66.4509 342.718 66.3119 342.793 66.1895L345.875 61.1149C345.877 61.1107 345.88 61.1066 345.882 61.1024C345.95 60.9945 346.043 60.9032 346.155 60.8361C346.266 60.7689 346.393 60.7278 346.524 60.716L346.529 60.7156C346.555 60.7133 346.582 60.7122 346.609 60.7122C346.758 60.7113 346.904 60.7482 347.033 60.819C347.162 60.8898 347.269 60.9919 347.342 61.1149L350.425 66.1895C350.499 66.312 350.538 66.4509 350.538 66.5923C350.538 66.7337 350.499 66.8726 350.425 66.995C350.35 67.1174 350.243 67.2191 350.114 67.2898C349.986 67.3605 349.84 67.3978 349.691 67.3978V67.3978ZM343.356 66.5915C343.357 66.6201 343.365 66.6481 343.38 66.6728C343.394 66.6975 343.416 66.718 343.441 66.7322C343.467 66.7463 343.497 66.7537 343.526 66.7534H349.691C349.721 66.7537 349.75 66.7464 349.776 66.7322C349.802 66.718 349.823 66.6975 349.838 66.6728C349.853 66.6481 349.861 66.6201 349.861 66.5916C349.861 66.5635 349.853 66.536 349.838 66.5118L346.755 61.4371C346.74 61.4126 346.719 61.3923 346.693 61.3781C346.668 61.364 346.638 61.3566 346.609 61.3566C346.579 61.3566 346.55 61.364 346.524 61.3781C346.498 61.3923 346.477 61.4126 346.462 61.4371L343.38 66.5117C343.364 66.5359 343.356 66.5634 343.356 66.5915V66.5915Z" fill="#E6E6E6"/>
<path d="M346.609 62.2427C346.889 62.2427 347.117 62.0263 347.117 61.7594C347.117 61.4925 346.889 61.2761 346.609 61.2761C346.328 61.2761 346.1 61.4925 346.1 61.7594C346.1 62.0263 346.328 62.2427 346.609 62.2427Z" fill="#E6E6E6"/>
<path d="M381.836 72.6335H378.494C378.413 72.6338 378.334 72.6138 378.264 72.5756C378.194 72.5373 378.135 72.4822 378.095 72.4157C378.055 72.3492 378.033 72.2737 378.034 72.1969C378.034 72.1202 378.055 72.0448 378.096 71.9785L379.767 69.2272L379.771 69.2204C379.808 69.1619 379.858 69.1124 379.919 69.076C379.979 69.0396 380.048 69.0173 380.119 69.0109L380.121 69.0107C380.136 69.0094 380.15 69.0088 380.165 69.0088C380.246 69.0083 380.325 69.0283 380.395 69.0667C380.465 69.1051 380.523 69.1605 380.563 69.2272L382.234 71.9785C382.274 72.0448 382.295 72.1202 382.295 72.1968C382.295 72.2735 382.274 72.3488 382.234 72.4152C382.193 72.4815 382.135 72.5367 382.066 72.575C381.996 72.6133 381.917 72.6335 381.836 72.6335V72.6335ZM378.402 72.1964C378.402 72.2119 378.406 72.2271 378.414 72.2405C378.422 72.2539 378.434 72.265 378.448 72.2727C378.462 72.2803 378.478 72.2843 378.494 72.2842H381.836C381.852 72.2843 381.868 72.2803 381.882 72.2727C381.896 72.265 381.908 72.2539 381.915 72.2405C381.924 72.2271 381.928 72.2119 381.928 72.1964C381.928 72.1812 381.924 72.1663 381.915 72.1532L380.244 69.4018C380.236 69.3886 380.225 69.3775 380.211 69.3699C380.197 69.3622 380.181 69.3582 380.165 69.3582C380.149 69.3582 380.133 69.3622 380.119 69.3699C380.105 69.3775 380.093 69.3886 380.085 69.4018L378.414 72.1531C378.406 72.1662 378.402 72.1812 378.402 72.1964V72.1964Z" fill="#E6E6E6"/>
<path d="M380.165 69.8385C380.317 69.8385 380.44 69.7212 380.44 69.5765C380.44 69.4318 380.317 69.3145 380.165 69.3145C380.013 69.3145 379.889 69.4318 379.889 69.5765C379.889 69.7212 380.013 69.8385 380.165 69.8385Z" fill="#E6E6E6"/>
<path d="M338.08 80.9915C338.324 80.4599 338.679 79.9811 339.123 79.5843C339.568 79.1875 340.093 78.8809 340.667 78.6834C341.263 78.4646 341.902 78.3708 342.54 78.4086C343.178 78.4463 343.8 78.6146 344.363 78.902C345.686 79.5693 346.743 80.6182 348.086 81.2568C349.392 81.8718 350.829 82.1936 352.287 82.1974C353.937 82.2097 355.562 81.8089 356.997 81.0352C357.053 81.0018 357.093 80.949 357.109 80.8881C357.124 80.8272 357.114 80.7628 357.081 80.7087C357.048 80.6546 356.994 80.6148 356.93 80.5979C356.867 80.581 356.799 80.5881 356.741 80.6179C355.44 81.311 353.978 81.6873 352.487 81.7133C350.996 81.7393 349.521 81.4142 348.194 80.767C346.846 80.0954 345.779 79.0109 344.406 78.3816C343.823 78.1128 343.19 77.9566 342.543 77.9221C341.897 77.8876 341.249 77.9755 340.638 78.1806C339.959 78.3971 339.337 78.7482 338.811 79.2106C338.286 79.673 337.869 80.2363 337.59 80.863C337.467 81.1509 337.958 81.2762 338.08 80.9915V80.9915Z" fill="#E6E6E6"/>
<path d="M337.679 85.5091C340.5 84.9103 343.427 84.92 346.244 85.5373C348.746 86.089 351.33 87.0815 353.91 86.3413C355.063 86.0106 356.119 85.3492 356.711 84.3313C356.87 84.0589 356.431 83.8148 356.272 84.0873C355.157 86.0039 352.545 86.3273 350.482 86.0128C349.103 85.8027 347.775 85.3814 346.418 85.0798C343.501 84.4297 340.466 84.4171 337.543 85.0431C337.224 85.1108 337.359 85.5769 337.679 85.5091V85.5091Z" fill="#E6E6E6"/>
<path d="M337.495 74.7061C340.201 74.2687 342.971 74.3624 345.637 74.9814C348.128 75.5614 350.562 76.8865 353.195 76.6577C354.415 76.5517 355.622 76.1255 356.45 75.2389C356.666 75.0071 356.308 74.664 356.09 74.8972C355.376 75.662 354.347 76.0584 353.291 76.1655C352.074 76.2889 350.878 76.0492 349.719 75.7086C348.437 75.3316 347.191 74.8541 345.888 74.5425C343.098 73.8767 340.194 73.7737 337.36 74.24C337.038 74.2923 337.175 74.7581 337.495 74.7061V74.7061Z" fill="#E6E6E6"/>
<path d="M375.912 73.5583C377.081 74.6961 377.887 76.1252 378.237 77.6803C378.507 78.9174 378.476 80.1966 378.148 81.4208C377.821 82.6451 377.204 83.7823 376.345 84.7463C376.134 84.982 376.492 85.3255 376.704 85.088C377.874 83.7774 378.622 82.1734 378.856 80.4688C379.027 79.153 378.883 77.8175 378.436 76.5618C377.988 75.3061 377.248 74.1626 376.271 73.2165C376.042 72.9941 375.682 73.3359 375.912 73.5583Z" fill="#E6E6E6"/>
<path d="M383.54 72.527C381.982 73.6133 381.109 75.3667 380.987 77.1804C380.859 79.0674 381.616 80.8898 382.835 82.3549C383.547 83.1985 384.396 83.9277 385.352 84.5143C385.626 84.685 385.881 84.2667 385.608 84.0969C384.052 83.1288 382.72 81.7536 382.012 80.1032C381.668 79.3192 381.489 78.4783 381.486 77.6286C381.484 76.7789 381.658 75.9371 381.998 75.1513C382.379 74.2758 383 73.5136 383.796 72.9443C384.058 72.7623 383.804 72.3427 383.54 72.527V72.527Z" fill="#E6E6E6"/>
<path d="M347.795 77.386C349.105 77.386 350.168 76.3762 350.168 75.1306C350.168 73.885 349.105 72.8752 347.795 72.8752C346.485 72.8752 345.422 73.885 345.422 75.1306C345.422 76.3762 346.485 77.386 347.795 77.386Z" fill="#ECA400"/>
</g>
<path d="M167.444 156.533L321.005 0.712327L474.566 156.533H321.005H167.444Z" stroke="#F5F9E9"/>
<path d="M657.61 382.387C657.61 383.008 657.174 383.727 656.06 384.518C654.963 385.298 653.312 386.071 651.138 386.818C646.797 388.31 640.487 389.662 632.658 390.801C617.007 393.076 595.369 394.486 571.456 394.486C547.544 394.486 525.906 393.076 510.255 390.801C502.426 389.662 496.116 388.31 491.775 386.818C489.601 386.071 487.95 385.298 486.853 384.518C485.739 383.727 485.303 383.008 485.303 382.387C485.303 381.766 485.739 381.047 486.853 380.255C487.95 379.475 489.601 378.703 491.775 377.956C496.116 376.463 502.426 375.111 510.255 373.973C525.906 371.697 547.544 370.288 571.456 370.288C595.369 370.288 617.007 371.697 632.658 373.973C640.487 375.111 646.797 376.463 651.138 377.956C653.312 378.703 654.963 379.475 656.06 380.255C657.174 381.047 657.61 381.766 657.61 382.387Z" stroke="#F5F9E9"/>
<path d="M521.845 389.742L469.928 365.655L527.306 359.228L521.845 389.742Z" stroke="#F5F9E9"/>
<g clip-path="url(#clip1_83_3878)">
<path d="M650.612 286.618C643.056 295.587 628.797 297.641 616.999 294.517C613.139 293.47 609.414 292.031 605.894 290.226C603.849 289.196 601.853 288.065 599.898 286.86C599.417 286.565 598.936 286.266 598.46 285.96C598.135 285.754 597.812 285.546 597.489 285.335C593.452 282.698 589.572 279.806 585.758 276.931C576.237 269.752 566.454 262.353 554.756 258.928C552.346 258.223 549.228 257.893 547.737 259.787C546.444 261.433 547.233 263.762 548.328 265.527C552.386 272.063 559.754 276.19 567.128 279.364C574.502 282.538 582.313 285.109 588.723 289.75C595.133 294.39 600.027 301.765 598.716 309.21C597.586 315.625 591.942 320.838 585.38 323.109C578.818 325.38 571.5 325.063 564.678 323.589C557.857 322.114 551.382 319.539 544.799 317.32C540.83 315.981 535.641 315.055 533.007 318.12C530.783 320.709 532.061 324.794 534.77 326.949C537.479 329.104 541.144 329.826 544.642 330.474C555.503 332.487 566.363 334.499 577.223 336.511C580.555 337.127 583.964 337.772 586.867 339.413C589.77 341.052 592.111 343.915 592.028 347.068C591.945 350.175 589.494 352.92 586.49 354.296C583.488 355.67 580.021 355.882 576.677 355.734C564.144 355.177 528.211 336.696 519.593 334.333C514.055 332.817 508.001 330.589 505.665 325.688C502.758 319.588 507.542 312.206 514.073 309.42C520.603 306.632 528.172 307.25 535.289 308.188C542.405 309.127 549.756 310.321 556.683 308.538C563.61 306.755 569.957 300.943 569.274 294.302C568.678 288.524 563.071 284.169 557.169 282.25C552.549 280.747 547.634 280.339 542.782 279.662C541.435 279.476 540.093 279.267 538.764 279.01C535.36 278.348 532.04 277.359 528.857 276.059C525.517 274.697 522.344 273.007 519.393 271.017C517.038 269.433 514.838 267.66 512.818 265.719C512.51 265.422 512.205 265.119 511.903 264.809C511.616 264.513 511.332 264.21 511.055 263.901C507.448 259.901 504.783 254.975 505.582 249.898C506.38 244.836 510.631 240.621 515.693 238.596C518.618 237.426 521.773 236.902 524.968 236.827C527.304 236.783 529.639 236.939 531.944 237.293C542.61 238.876 552.385 243.686 561.616 248.894C570.846 254.101 579.841 259.818 589.874 263.53C599.908 267.244 611.329 268.817 621.508 265.458C631.687 262.102 640.049 252.942 639.551 242.927C646.302 248.323 652.039 255.105 654.58 263.029C657.12 270.954 656.1 280.104 650.612 286.618Z" fill="#3F3D56"/>
<path d="M601.97 276.268C602.626 276.268 603.157 275.775 603.157 275.167C603.157 274.558 602.626 274.065 601.97 274.065C601.315 274.065 600.783 274.558 600.783 275.167C600.783 275.775 601.315 276.268 601.97 276.268Z" fill="#ECA400"/>
<path d="M643.879 262.34C644.892 262.34 645.714 261.578 645.714 260.638C645.714 259.697 644.892 258.935 643.879 258.935C642.865 258.935 642.044 259.697 642.044 260.638C642.044 261.578 642.865 262.34 643.879 262.34Z" fill="#FF6584"/>
<path d="M523.534 314.843C523.909 314.843 524.212 314.562 524.212 314.214C524.212 313.867 523.909 313.585 523.534 313.585C523.16 313.585 522.856 313.867 522.856 314.214C522.856 314.562 523.16 314.843 523.534 314.843Z" fill="#FF6584"/>
<path d="M542.994 278.043C542.994 278.588 542.923 279.132 542.782 279.662C541.435 279.476 540.093 279.267 538.764 279.01C535.36 278.348 532.04 277.359 528.857 276.059C529.369 274.525 530.456 273.212 531.922 272.359C533.388 271.506 535.134 271.169 536.845 271.409C538.555 271.649 540.116 272.45 541.244 273.668C542.373 274.885 542.993 276.437 542.994 278.043V278.043Z" fill="#FF6584"/>
<path d="M632.138 272.329C632.521 272.329 632.831 272.041 632.831 271.686C632.831 271.33 632.521 271.042 632.138 271.042C631.755 271.042 631.444 271.33 631.444 271.686C631.444 272.041 631.755 272.329 632.138 272.329Z" fill="#F0F0F0"/>
<path d="M568.704 343.16C569.087 343.16 569.398 342.871 569.398 342.516C569.398 342.161 569.087 341.873 568.704 341.873C568.321 341.873 568.011 342.161 568.011 342.516C568.011 342.871 568.321 343.16 568.704 343.16Z" fill="#F0F0F0"/>
<path d="M578.651 352.089C579.034 352.089 579.345 351.801 579.345 351.446C579.345 351.09 579.034 350.802 578.651 350.802C578.268 350.802 577.958 351.09 577.958 351.446C577.958 351.801 578.268 352.089 578.651 352.089Z" fill="#F0F0F0"/>
<path d="M517.175 326.663C517.557 326.663 517.868 326.375 517.868 326.019C517.868 325.664 517.557 325.376 517.175 325.376C516.792 325.376 516.481 325.664 516.481 326.019C516.481 326.375 516.792 326.663 517.175 326.663Z" fill="#F0F0F0"/>
<path d="M551.256 314.706C551.639 314.706 551.949 314.418 551.949 314.063C551.949 313.708 551.639 313.419 551.256 313.419C550.873 313.419 550.562 313.708 550.562 314.063C550.562 314.418 550.873 314.706 551.256 314.706Z" fill="#F0F0F0"/>
<path d="M547.831 250.838C548.214 250.838 548.525 250.55 548.525 250.195C548.525 249.839 548.214 249.551 547.831 249.551C547.448 249.551 547.138 249.839 547.138 250.195C547.138 250.55 547.448 250.838 547.831 250.838Z" fill="#F0F0F0"/>
<path d="M589.74 301.236C590.123 301.236 590.433 300.948 590.433 300.593C590.433 300.238 590.123 299.949 589.74 299.949C589.357 299.949 589.047 300.238 589.047 300.593C589.047 300.948 589.357 301.236 589.74 301.236Z" fill="#F0F0F0"/>
<path d="M594.958 312.436C595.341 312.436 595.652 312.148 595.652 311.793C595.652 311.437 595.341 311.149 594.958 311.149C594.575 311.149 594.265 311.437 594.265 311.793C594.265 312.148 594.575 312.436 594.958 312.436Z" fill="#F0F0F0"/>
<path d="M532.459 252.249C532.464 255.498 531.637 258.702 530.046 261.596C529.836 261.977 529.613 262.352 529.377 262.72C527.047 266.373 523.561 269.27 519.393 271.017C517.038 269.433 514.838 267.66 512.818 265.719C512.509 265.422 512.205 265.119 511.903 264.809C511.616 264.512 511.332 264.21 511.055 263.901C507.448 259.901 504.783 254.974 505.582 249.898C506.38 244.836 510.631 240.621 515.693 238.596C518.618 237.426 521.773 236.902 524.968 236.826C527.466 238.874 529.435 241.417 530.729 244.267C530.892 244.625 531.042 244.989 531.184 245.356C532.03 247.569 532.462 249.9 532.459 252.249V252.249Z" fill="#ECA400"/>
<path d="M542.57 253.308C542.57 256.461 539.253 259.385 533.229 261.544C532.024 261.977 530.734 262.369 529.377 262.72C524.299 264.034 518.256 264.762 511.903 264.809C511.616 264.512 511.332 264.21 511.055 263.901C511.123 263.902 511.192 263.902 511.26 263.902C518.16 263.902 524.705 263.091 530.046 261.596C531.032 261.319 531.978 261.019 532.877 260.697C538.415 258.713 541.591 256.019 541.591 253.308C541.591 250.597 538.415 247.905 532.877 245.919C532.329 245.723 531.765 245.535 531.184 245.356C531.042 244.989 530.892 244.625 530.729 244.267C531.597 244.518 532.43 244.786 533.229 245.072C539.253 247.231 542.57 250.157 542.57 253.308Z" fill="#E4E4E4"/>
<path d="M512.282 242.06C512.665 242.06 512.976 241.772 512.976 241.416C512.976 241.061 512.665 240.773 512.282 240.773C511.9 240.773 511.589 241.061 511.589 241.416C511.589 241.772 511.9 242.06 512.282 242.06Z" fill="#F0F0F0"/>
<path d="M526.796 246.146C527.178 246.146 527.489 245.858 527.489 245.503C527.489 245.147 527.178 244.859 526.796 244.859C526.413 244.859 526.102 245.147 526.102 245.503C526.102 245.858 526.413 246.146 526.796 246.146Z" fill="#F0F0F0"/>
<path d="M519.294 258.269C523.018 258.269 526.037 255.467 526.037 252.011C526.037 248.554 523.018 245.753 519.294 245.753C515.571 245.753 512.552 248.554 512.552 252.011C512.552 255.467 515.571 258.269 519.294 258.269Z" fill="#F0F0F0"/>
<path opacity="0.3" d="M643.814 285.132C642.301 285.547 638.964 285.852 635.295 286.04C631.628 286.226 627.605 286.308 623.633 286.386C616.679 286.526 609.727 286.665 602.775 286.806C601.819 286.825 600.86 286.844 599.898 286.86C599.417 286.565 598.936 286.265 598.46 285.96C599.313 285.964 600.165 285.96 601.012 285.945C604.627 285.878 607.688 285.616 611.174 285.492C616.539 285.3 622.331 285.451 627.923 285.528C633.515 285.607 639.886 285.578 643.814 285.132Z" fill="#F0F0F0"/>
<path opacity="0.3" d="M537.097 332.841L514.933 315.704L536.465 333.527C536.507 333.593 536.565 333.648 536.634 333.688C536.703 333.728 536.781 333.753 536.863 333.759C536.944 333.766 537.026 333.754 537.102 333.725C537.177 333.696 537.244 333.651 537.297 333.594C537.35 333.536 537.388 333.468 537.407 333.394C537.426 333.32 537.425 333.243 537.406 333.17C537.386 333.096 537.348 333.028 537.294 332.971C537.24 332.914 537.173 332.869 537.097 332.841H537.097Z" fill="#F0F0F0"/>
<path d="M520.273 267.94C520.656 267.94 520.966 267.652 520.966 267.297C520.966 266.941 520.656 266.653 520.273 266.653C519.89 266.653 519.579 266.941 519.579 267.297C519.579 267.652 519.89 267.94 520.273 267.94Z" fill="#0B7A75"/>
<path d="M578.506 341.862L581.374 341.862L582.738 331.595L578.505 331.595L578.506 341.862Z" fill="#DB5461"/>
<path d="M577.774 340.993L578.581 340.993L581.733 339.804L583.422 340.993H583.422C584.377 340.993 585.292 341.345 585.967 341.972C586.642 342.598 587.022 343.448 587.022 344.334V344.442L577.774 344.442L577.774 340.993Z" fill="#2F2E41"/>
<path d="M557.028 341.862L554.16 341.862L552.796 331.595L557.029 331.595L557.028 341.862Z" fill="#DB5461"/>
<path d="M557.759 344.442L548.512 344.442V344.334C548.512 343.448 548.891 342.598 549.566 341.972C550.241 341.345 551.157 340.993 552.111 340.993H552.112L553.801 339.804L556.952 340.993L557.76 340.993L557.759 344.442Z" fill="#2F2E41"/>
<path d="M567.304 263.179L564.4 265.231L556.686 267.128C556.686 267.128 559.45 285.132 558.146 286.343C556.841 287.553 558.018 287.586 557.756 289.159C557.494 290.732 556.449 294.884 556.449 294.884H579.472C579.472 294.884 579.658 292.303 578.523 291.745C577.388 291.186 579.569 288.577 578.642 288.141C577.714 287.705 579.019 283.921 579.019 283.921L581.846 271.533L574.326 266.073L573.182 263.515L567.304 263.179Z" fill="#ECA400"/>
<path d="M570.928 279.268C571.482 279.268 571.932 278.85 571.932 278.335C571.932 277.82 571.482 277.403 570.928 277.403C570.373 277.403 569.923 277.82 569.923 278.335C569.923 278.85 570.373 279.268 570.928 279.268Z" fill="#0B7A75"/>
<path d="M556.449 294.884L555.499 317.574C555.499 317.574 551.4 334.333 552.112 334.774C552.824 335.214 553.126 337.841 553.126 337.841L557.161 338.282C557.161 338.282 557.161 336.519 558.11 335.859C559.06 335.198 567.842 304.137 567.842 304.137L576.409 334.168C576.409 334.168 576.624 335.859 577.336 335.859C578.048 335.859 578.285 338.282 578.285 338.282H582.32V335.859C582.32 335.859 584.133 335.325 583.421 333.563C582.709 331.8 579.472 294.884 579.472 294.884H556.449Z" fill="#2F2E41"/>
<path d="M570.32 261.827C573.007 261.827 575.185 259.805 575.185 257.311C575.185 254.817 573.007 252.795 570.32 252.795C567.632 252.795 565.454 254.817 565.454 257.311C565.454 259.805 567.632 261.827 570.32 261.827Z" fill="#DB5461"/>
<path opacity="0.1" d="M578.641 277.591L579.591 278.252L580.066 275.168L578.641 277.591Z" fill="black"/>
<path d="M557.141 267.11C557.141 267.11 555.955 266.89 555.243 268.872C554.53 270.855 551.92 278.345 551.92 279.667C551.92 280.988 568.179 286.82 568.179 286.82L566.487 281.312L559.04 277.684L557.141 267.11Z" fill="#ECA400"/>
<path d="M568.933 286.004C570.464 286.004 571.706 284.852 571.706 283.431C571.706 282.01 570.464 280.858 568.933 280.858C567.402 280.858 566.161 282.01 566.161 283.431C566.161 284.852 567.402 286.004 568.933 286.004Z" fill="#DB5461"/>
<path opacity="0.1" d="M558.823 274.955L559.04 277.684L565.927 281.039L559.802 277.226L558.823 274.955Z" fill="black"/>
<path d="M575.378 275.344H575.289V273.073C575.289 272.9 575.252 272.729 575.181 272.57C575.11 272.41 575.006 272.265 574.874 272.143C574.743 272.021 574.586 271.924 574.415 271.858C574.243 271.792 574.059 271.758 573.873 271.758H568.687C568.501 271.758 568.317 271.792 568.145 271.858C567.974 271.924 567.817 272.021 567.686 272.143C567.554 272.265 567.45 272.41 567.379 272.57C567.308 272.729 567.271 272.9 567.271 273.073V285.534C567.271 285.707 567.308 285.878 567.379 286.037C567.45 286.197 567.554 286.342 567.686 286.464C567.817 286.586 567.974 286.683 568.145 286.749C568.317 286.815 568.501 286.849 568.687 286.849H573.873C574.059 286.849 574.243 286.815 574.415 286.749C574.586 286.683 574.743 286.586 574.874 286.464C575.006 286.342 575.11 286.197 575.181 286.037C575.252 285.878 575.289 285.707 575.289 285.534V276.961H575.378V275.344Z" fill="#F0F0F0"/>
<path d="M581.846 271.533C581.846 271.533 582.558 271.974 583.033 273.957C583.507 275.939 586.593 283.429 585.406 285.192C584.219 286.954 583.869 288.835 579.834 286.191L574.25 281.447L578.285 277.922L579.947 279.023L581.846 271.533Z" fill="#ECA400"/>
<path d="M571.343 277.312C571.999 277.312 572.53 276.819 572.53 276.211C572.53 275.603 571.999 275.109 571.343 275.109C570.688 275.109 570.157 275.603 570.157 276.211C570.157 276.819 570.688 277.312 571.343 277.312Z" fill="#ECA400"/>
<path d="M574.779 281.197C576.31 281.197 577.551 280.045 577.551 278.624C577.551 277.203 576.31 276.051 574.779 276.051C573.248 276.051 572.007 277.203 572.007 278.624C572.007 280.045 573.248 281.197 574.779 281.197Z" fill="#DB5461"/>
<path opacity="0.1" d="M558.692 283.191L566.65 286.458L558.471 284.974L558.692 283.191Z" fill="black"/>
<path d="M565.411 258.211L564.743 255.851C564.568 255.235 564.393 254.607 564.432 253.972C564.471 253.336 564.761 252.68 565.338 252.336C565.915 251.992 566.796 252.073 567.167 252.608C567.238 251.753 568.076 251.096 568.964 250.863C569.853 250.63 570.797 250.722 571.72 250.762C572.643 250.801 573.616 250.773 574.413 250.339C574.474 250.508 574.47 250.691 574.402 250.858C574.334 251.025 574.206 251.164 574.04 251.253C574.238 251.304 574.449 251.282 574.63 251.193C574.812 251.104 574.95 250.955 575.017 250.775C575.023 251.27 574.826 251.749 574.466 252.114C574.809 251.955 575.204 251.921 575.573 252.018C575.942 252.115 576.26 252.336 576.463 252.638C576.869 253.292 576.641 254.114 576.404 254.836L575.183 258.541C574.998 257.978 574.963 257.383 574.864 256.801C574.765 256.22 574.589 255.626 574.175 255.179C573.762 254.733 573.059 254.474 572.471 254.696C572.141 254.82 571.89 255.072 571.592 255.254C570.981 255.625 570.204 255.678 569.478 255.603C568.752 255.527 568.045 255.335 567.319 255.259C566.865 255.211 566.358 255.223 566.015 255.504C565.779 255.732 565.623 256.02 565.568 256.332C565.407 256.953 565.343 257.592 565.38 258.23" fill="#2F2E41"/>
</g>
<path d="M631.143 344.305C644.6 351.453 643.515 332.618 642.037 306.937C640.4 278.496 638.279 241.658 654.891 222.42M655.561 221.665C664.419 211.95 678.365 207.043 700.065 210.551M662.341 240.045C658.547 239.547 653.47 238.233 647.426 236.205C648.64 233.077 650.082 230.143 651.788 227.451C651.888 227.292 651.989 227.135 652.092 226.978C657.196 229.158 661.96 231.002 666.316 232.509C666.41 232.614 666.501 232.719 666.591 232.822C667.876 234.305 668.749 235.595 669.201 236.665C669.657 237.745 669.647 238.507 669.343 239.024C669.038 239.541 668.361 239.948 667.154 240.144C665.957 240.339 664.344 240.308 662.341 240.045ZM651.162 226.579C651.081 226.703 651.001 226.828 650.922 226.953C649.179 229.704 647.709 232.697 646.473 235.882C646.461 235.878 646.449 235.874 646.438 235.87C633.487 231.433 616.413 223.878 598.293 214.253C580.173 204.627 564.457 194.765 553.697 186.606C548.314 182.524 544.189 178.882 541.624 175.92C540.34 174.437 539.467 173.148 539.015 172.077C538.558 170.997 538.568 170.236 538.873 169.719C539.177 169.202 539.854 168.795 541.062 168.598C542.258 168.404 543.872 168.435 545.874 168.698C549.873 169.223 555.298 170.654 561.778 172.873C563.901 173.6 566.135 174.412 568.467 175.302C571.461 178.257 575.466 181.657 580.239 185.315C592.284 194.546 609.281 205.47 627.438 215.115C635.898 219.609 643.869 223.431 651.162 226.579ZM664.838 230.936C661.054 229.58 656.979 227.98 652.655 226.136C653.475 224.944 654.35 223.805 655.286 222.722C659.226 225.747 662.452 228.519 664.838 230.936ZM654.496 222.12C653.507 223.266 652.583 224.473 651.722 225.736C644.424 222.591 636.435 218.763 627.945 214.253C609.83 204.63 592.88 193.735 580.884 184.541C576.998 181.563 573.639 178.769 570.931 176.258C582.323 180.748 595.805 186.991 609.922 194.49C628.03 204.109 643.736 213.964 654.496 222.12ZM666.924 231.669C664.417 228.888 660.68 225.596 655.955 221.968C659.554 218.025 664 214.892 669.476 212.809C674.329 210.964 680.007 209.936 686.646 209.91C689.765 215.666 691.922 221.005 693.17 225.318C693.876 227.756 694.288 229.856 694.421 231.51C694.488 232.337 694.485 233.042 694.418 233.618C694.35 234.199 694.221 234.618 694.06 234.891C693.733 235.447 693.085 235.903 692.024 236.202C690.964 236.501 689.547 236.625 687.782 236.554C684.256 236.412 679.456 235.498 673.599 233.796C671.503 233.187 669.274 232.478 666.924 231.669ZM686.109 208.934C679.599 209.014 673.974 210.052 669.121 211.898C663.46 214.051 658.871 217.295 655.165 221.365C655.163 221.363 655.161 221.362 655.159 221.36C644.345 213.16 628.581 203.27 610.429 193.628C595.338 185.612 580.957 179.021 569.058 174.464C568.345 173.756 567.693 173.076 567.106 172.426C565.588 170.746 564.519 169.29 563.933 168.098C563.333 166.879 563.303 166.074 563.59 165.586C563.75 165.315 564.058 164.993 564.549 164.637C565.035 164.284 565.674 163.916 566.461 163.543C568.035 162.796 570.162 162.045 572.755 161.358C577.937 159.984 584.928 158.877 592.953 158.547C609.006 157.886 629.14 160.335 647.174 169.915C665.207 179.494 677.755 194.405 685.377 207.64C685.626 208.073 685.87 208.504 686.109 208.934Z" stroke="#F5F9E9"/>
<line x1="467.975" y1="157.033" x2="467.975" y2="365.989" stroke="#F5F9E9"/>
<defs>
<clipPath id="clip0_83_3878">
<rect width="149.639" height="98.6163" fill="white" transform="translate(257.415 50.884)"/>
</clipPath>
<clipPath id="clip1_83_3878">
<rect width="151.105" height="118.958" fill="white" transform="translate(504.796 236.816)"/>
</clipPath>
</defs>
</svg>
