<svg width="744" height="478" viewBox="0 0 744 478" fill="none" xmlns="http://www.w3.org/2000/svg">
<path d="M245.575 62.2436L214.485 53.1396C213.822 53.9513 213.223 54.8313 212.709 55.7813C212.273 56.5877 211.913 57.4141 211.624 58.2493L244.99 68.0183C245.544 66.1113 245.73 64.1583 245.575 62.2436Z" fill="#DB5461"/>
<path d="M236.444 48.756L229.865 46.8295C225.903 46.4616 221.935 47.4163 218.635 49.4888L244.249 56.9888C242.755 53.5849 240.084 50.6366 236.444 48.756Z" fill="#DB5461"/>
<path d="M231.972 79.8889L215.546 75.0789C216.84 76.3879 218.375 77.518 220.134 78.3986C223.923 80.2939 228.104 80.7171 231.972 79.8889V79.8889Z" fill="#DB5461"/>
<path d="M243.032 72.3137L210.752 62.8625C210.666 64.9939 211.008 67.1099 211.737 69.0982L238.614 76.9678C240.341 75.7318 241.848 74.1667 243.032 72.3137Z" fill="#DB5461"/>
<line x1="-313" y1="179.144" x2="459.154" y2="179.144" stroke="#F5F9E9"/>
<g clip-path="url(#clip0_83_3878)">
<path d="M212.291 164.545C212.291 164.545 189.562 154.491 197.547 147.52C205.531 140.548 212.291 164.545 212.291 164.545Z" fill="#F5F9E9"/>
<path d="M211.895 166.891C211.895 166.891 201.448 133.909 216.831 135.487C232.215 137.064 211.895 166.891 211.895 166.891Z" fill="#F5F9E9"/>
<path d="M204.278 163.966L204.717 169.483L204.724 169.578C204.723 170.439 204.769 171.3 204.859 172.158C205.454 177.785 208.012 180.35 211.001 180.35C213.99 180.35 216.437 177.785 217.032 172.158C217.123 171.3 217.168 170.439 217.168 169.578L217.171 169.501L217.173 169.483L217.613 163.966H204.278Z" fill="#8D8572"/>
<path d="M217.173 169.483L217.171 169.501L217.168 169.578C217.168 170.439 217.123 171.3 217.032 172.158H204.859C204.769 171.3 204.723 170.439 204.724 169.578L204.717 169.483H217.173Z" fill="white"/>
<path d="M360.529 167.919C360.529 167.919 342.932 160.135 349.114 154.738C355.296 149.34 360.529 167.919 360.529 167.919Z" fill="#0B7A75"/>
<path d="M360.223 169.735C360.223 169.735 352.135 144.2 364.044 145.422C375.954 146.643 360.223 169.735 360.223 169.735Z" fill="#0B7A75"/>
<path d="M354.326 167.47L354.665 171.742L354.67 171.816C354.67 172.483 354.705 173.149 354.775 173.813C355.236 178.17 357.216 180.155 359.531 180.155C361.845 180.155 363.739 178.17 364.2 173.813C364.27 173.149 364.305 172.483 364.305 171.816L364.307 171.756L364.309 171.742L364.65 167.47H354.326Z" fill="#E6E6E6"/>
<path d="M364.309 171.742L364.307 171.756L364.305 171.816C364.305 172.483 364.27 173.149 364.2 173.813H354.775C354.705 173.149 354.67 172.483 354.67 171.816L354.665 171.742H364.309Z" fill="white"/>
<path d="M250.706 96.9259V89.4224H249.491V96.9259C249.143 97.0613 248.855 97.3089 248.675 97.6262C248.496 97.9435 248.438 98.3108 248.509 98.6652C248.581 99.0196 248.779 99.3389 249.069 99.5685C249.359 99.7981 249.723 99.9237 250.098 99.9237C250.474 99.9237 250.838 99.7981 251.128 99.5685C251.418 99.3389 251.616 99.0196 251.688 98.6652C251.759 98.3108 251.701 97.9435 251.522 97.6262C251.342 97.3089 251.054 97.0613 250.706 96.9259Z" fill="#E6E6E6"/>
<path d="M253.539 172.65H245.242V75.8103H242.004V172.65H233.706C232.723 172.65 231.749 172.836 230.841 173.198C229.932 173.56 229.107 174.09 228.411 174.758C227.716 175.426 227.164 176.219 226.788 177.092C226.412 177.965 226.218 178.9 226.218 179.845V179.845H261.027V179.845C261.027 178.9 260.833 177.965 260.457 177.092C260.081 176.219 259.529 175.426 258.834 174.758C258.138 174.09 257.313 173.56 256.404 173.198C255.496 172.836 254.522 172.65 253.539 172.65V172.65Z" fill="#E6E6E6"/>
<path d="M226.235 90.2001H261.01L258.883 64.66C258.806 63.7793 258.388 62.9585 257.712 62.359C257.036 61.7594 256.151 61.4246 255.231 61.4204H232.013C231.094 61.4246 230.209 61.7594 229.533 62.359C228.857 62.9585 228.439 63.7793 228.361 64.66L226.235 90.2001Z" fill="#ECA400"/>
<path d="M274.655 135.026C274.327 134.974 273.993 134.985 273.67 135.058C273.347 135.131 273.043 135.265 272.774 135.452C272.506 135.639 272.279 135.875 272.106 136.148C271.934 136.42 271.819 136.722 271.769 137.037L270.79 143.211L274.121 144.06L276.562 138.307C276.704 137.973 276.766 137.613 276.743 137.252C276.72 136.892 276.613 136.541 276.429 136.226C276.246 135.911 275.992 135.64 275.684 135.432C275.377 135.224 275.025 135.086 274.655 135.026Z" fill="#A0616A"/>
<path d="M274.592 143.199C276.441 150.258 275.645 156.715 268.761 161.785C260.505 159.598 255.013 154.321 251.662 146.652C251.454 146.176 251.349 145.663 251.352 145.146C251.355 144.629 251.468 144.118 251.683 143.644C251.897 143.169 252.21 142.742 252.601 142.387C252.993 142.032 253.455 141.757 253.96 141.579V141.579C254.719 141.31 255.545 141.271 256.328 141.465C257.111 141.658 257.814 142.077 258.343 142.664L266.445 151.649L270.245 142.589L274.592 143.199Z" fill="#ECA400"/>
<path d="M316.897 180.235C309.358 179.851 304.675 177.363 303.541 172.263L304.755 170.124L318.657 176.209C319.008 176.363 319.303 176.613 319.506 176.928C319.708 177.244 319.809 177.61 319.794 177.98C319.779 178.351 319.65 178.708 319.424 179.008C319.197 179.308 318.882 179.536 318.52 179.664L316.897 180.235Z" fill="#E6E6E6"/>
<path d="M311.072 180.286C307.155 180.172 303.388 180.208 299.818 180.44C299.192 180.481 298.574 180.283 298.099 179.89C297.623 179.496 297.329 178.938 297.279 178.337L297.064 175.763L294.029 171.096L296.66 168.568C301.081 172.799 305.93 176.353 311.689 178.466C311.874 178.588 312.013 178.764 312.085 178.968C312.157 179.172 312.159 179.393 312.089 179.598C312.02 179.803 311.883 179.981 311.7 180.105C311.516 180.229 311.296 180.293 311.072 180.286V180.286Z" fill="#E6E6E6"/>
<path d="M289.779 161.956C284.777 170.557 279.857 176.354 273.386 179.458C265.425 181.982 259.606 178.637 255.071 171.777L268.226 163.415L270.148 165.262L287.573 152.522C287.998 152.134 288.566 151.924 289.152 151.937C289.738 151.949 290.295 152.184 290.702 152.589L305.564 170.124L303.743 173.041L289.779 161.956Z" fill="#2F2E41"/>
<path d="M294.231 172.068L287.35 161.956L288.969 159.04L298.076 168.179L294.231 172.068Z" fill="#2F2E41"/>
<path d="M254.565 139.788C258.366 139.788 261.446 136.828 261.446 133.177C261.446 129.525 258.366 126.565 254.565 126.565C250.765 126.565 247.685 129.525 247.685 133.177C247.685 136.828 250.765 139.788 254.565 139.788Z" fill="#A0616A"/>
<path d="M256.387 145.427L248.696 142.899C249.834 141.162 250.333 139.108 250.113 137.066H256.387C256.03 140.033 255.976 142.847 256.387 145.427Z" fill="#A0616A"/>
<path d="M272.779 163.123C271.626 163.578 271.542 165.053 270.452 165.554C265.182 167.977 259.607 169.942 255.78 173.429C246.836 167.594 238.546 149.469 249.304 141.538C252.975 143.603 256.255 145.08 256.184 141.538L272.779 163.123Z" fill="#ECA400"/>
<path opacity="0.2" d="M268.125 155.345L264.381 154.081L256.994 159.623L253.683 148.169C253.453 147.374 253.081 147.777 252.546 148.329C251.989 147.834 251.297 147.502 250.55 147.372C249.803 147.243 249.033 147.321 248.331 147.598C247.629 147.875 247.024 148.339 246.588 148.936C246.151 149.532 245.901 150.237 245.868 150.965C245.474 159.274 248.081 166.303 254.565 171.679C263.046 169.934 266.646 164.429 268.125 157.289L267.724 157.033C267.871 156.481 268.005 155.918 268.125 155.345Z" fill="black"/>
<path d="M255.491 124.479C257.761 124.978 260.344 125.684 260.489 126.34C262.824 126.905 264.586 128.259 264.946 130.324C264.976 130.502 264.965 130.685 264.914 130.858C264.862 131.032 264.772 131.193 264.649 131.33C264.526 131.467 264.373 131.576 264.201 131.65C264.03 131.723 263.843 131.76 263.655 131.757C262.385 131.742 260.479 131.625 259.221 131.12C255.564 133.383 254.951 139.271 256.547 143.279L254.035 143.057L251.435 135.745L250.771 142.77L245.037 142.041L245.776 133.084C246.003 130.973 246.751 128.944 247.957 127.166C248.082 126.987 248.219 126.817 248.368 126.655C249.24 125.708 250.363 125.006 251.617 124.623C252.871 124.24 254.21 124.19 255.491 124.479V124.479Z" fill="#2F2E41"/>
<path d="M268.427 146.676L274.725 153.79L284.171 143.078L277.788 135.637L268.427 146.676Z" fill="#3F3D56"/>
<path d="M282.554 143.323L275.065 137.436C275.491 136.455 277.533 136.782 277.533 136.782L283.395 142.492C283.599 142.691 283.774 142.916 283.916 143.16V143.16L282.554 143.323Z" fill="#ECA400"/>
<path d="M282.894 142.914L274.384 136.536L264.938 150.274L273.831 156.039C274.682 156.366 275.533 155.793 275.533 155.793L284.214 143.037L282.894 142.914Z" fill="#3F3D56"/>
<path d="M275.446 138.527L275.365 138.635L280.812 142.396L280.893 142.288L275.446 138.527Z" fill="#ECA400"/>
<path d="M280.965 143.696L273.816 154.081L273.931 154.154L281.08 143.769L280.965 143.696Z" fill="#ECA400"/>
<path d="M267.278 150.301L267.196 150.408L272.981 154.498L273.063 154.392L267.278 150.301Z" fill="#ECA400"/>
<path d="M274.413 138.706L267.009 148.928L267.122 149.003L274.526 138.782L274.413 138.706Z" fill="#ECA400"/>
<path d="M276.7 136.701L276.642 136.761L283.376 142.699L283.434 142.639L276.7 136.701Z" fill="#ECA400"/>
<path d="M276.139 136.752L276.083 136.813L283.12 142.783L283.177 142.722L276.139 136.752Z" fill="#ECA400"/>
<path d="M275.699 136.87L275.644 136.933L282.95 142.785L283.005 142.722L275.699 136.87Z" fill="#ECA400"/>
<path d="M271.827 148.765C271.555 148.583 271.247 148.454 270.923 148.387C270.599 148.32 270.264 148.316 269.938 148.375C269.612 148.433 269.302 148.553 269.024 148.728C268.747 148.903 268.509 149.128 268.323 149.392L264.684 154.567L267.315 156.706L272.086 152.514C272.364 152.271 272.58 151.97 272.72 151.636C272.86 151.301 272.92 150.94 272.895 150.58C272.87 150.219 272.761 149.869 272.576 149.555C272.391 149.241 272.135 148.971 271.827 148.765V148.765Z" fill="#A0616A"/>
<path d="M268.125 156.123C266.646 163.262 263.046 168.768 254.565 170.512C248.081 165.136 245.474 158.107 245.868 149.798C245.892 149.282 246.025 148.775 246.259 148.309C246.493 147.844 246.822 147.428 247.228 147.088C247.634 146.748 248.107 146.491 248.619 146.331C249.13 146.172 249.671 146.114 250.207 146.16V146.16C251.012 146.231 251.776 146.535 252.397 147.033C253.018 147.53 253.466 148.198 253.683 148.947L256.994 160.401L264.469 153.781L268.125 156.123Z" fill="#ECA400"/>
<path d="M370.075 180.457H191.467V180.033H370.155L370.075 180.457Z" fill="#3F3D56"/>
<path d="M284.821 79.2146C284.713 79.2147 284.61 79.2557 284.535 79.3286C284.459 79.4015 284.416 79.5004 284.416 79.6035V109.939C284.416 110.042 284.459 110.141 284.535 110.214C284.61 110.287 284.713 110.328 284.821 110.328H311.13C311.237 110.328 311.34 110.287 311.416 110.214C311.492 110.141 311.534 110.042 311.534 109.939V79.6035C311.534 79.5004 311.492 79.4015 311.416 79.3286C311.34 79.2557 311.237 79.2147 311.13 79.2146H284.821Z" fill="#E6E6E6"/>
<path d="M287.553 107.314H308.398V82.2288H287.553V107.314Z" fill="white"/>
<path d="M328.622 87.1875C328.557 87.1876 328.496 87.2121 328.451 87.2556C328.405 87.2991 328.38 87.3581 328.38 87.4197V102.512C328.38 102.573 328.405 102.633 328.451 102.676C328.496 102.72 328.557 102.744 328.622 102.744H347.47C347.534 102.744 347.595 102.72 347.64 102.676C347.686 102.632 347.711 102.573 347.711 102.512V87.4197C347.711 87.3581 347.686 87.2991 347.64 87.2556C347.595 87.2121 347.534 87.1876 347.47 87.1875L328.622 87.1875Z" fill="#E6E6E6"/>
<path d="M330.253 88.9868V100.945H345.839V88.9868H330.253Z" fill="#737374"/>
<path d="M301.656 81.3537H294.295C294.117 81.3544 293.942 81.3099 293.788 81.2247C293.633 81.1395 293.505 81.0167 293.416 80.8687C293.327 80.7206 293.281 80.5526 293.281 80.3817C293.281 80.2108 293.329 80.043 293.418 79.8953L297.099 73.7699C297.102 73.7648 297.105 73.7598 297.108 73.7548C297.188 73.6245 297.3 73.5143 297.433 73.4333C297.566 73.3522 297.717 73.3025 297.874 73.2884L297.88 73.2879C297.911 73.2851 297.943 73.2837 297.975 73.2837C298.153 73.2827 298.328 73.3272 298.482 73.4126C298.636 73.4981 298.763 73.6214 298.851 73.7699L302.532 79.8953C302.621 80.0431 302.667 80.2107 302.667 80.3814C302.667 80.5521 302.621 80.7197 302.532 80.8675C302.443 81.0153 302.315 81.1381 302.162 81.2234C302.008 81.3087 301.833 81.3537 301.656 81.3537V81.3537ZM294.091 80.3805C294.092 80.4149 294.101 80.4488 294.119 80.4786C294.137 80.5084 294.162 80.5332 294.193 80.5503C294.224 80.5674 294.259 80.5762 294.295 80.5759H301.656C301.691 80.5762 301.726 80.5674 301.757 80.5503C301.788 80.5332 301.813 80.5084 301.831 80.4786C301.849 80.4488 301.858 80.415 301.859 80.3806C301.858 80.3467 301.849 80.3134 301.831 80.2843L298.15 74.1588C298.133 74.1292 298.107 74.1047 298.076 74.0876C298.046 74.0705 298.011 74.0615 297.975 74.0615C297.94 74.0615 297.905 74.0705 297.874 74.0876C297.843 74.1047 297.818 74.1292 297.8 74.1588L294.119 80.2842C294.101 80.3133 294.092 80.3466 294.091 80.3805V80.3805Z" fill="#E6E6E6"/>
<path d="M297.975 75.1311C298.31 75.1311 298.582 74.8699 298.582 74.5477C298.582 74.2255 298.31 73.9644 297.975 73.9644C297.64 73.9644 297.368 74.2255 297.368 74.5477C297.368 74.8699 297.64 75.1311 297.975 75.1311Z" fill="#E6E6E6"/>
<path d="M340.041 87.6737H336.05C335.954 87.674 335.859 87.6499 335.775 87.6037C335.692 87.5575 335.622 87.4909 335.574 87.4107C335.526 87.3304 335.5 87.2393 335.501 87.1467C335.501 87.054 335.526 86.963 335.575 86.8829L337.571 83.5619L337.575 83.5537C337.619 83.4831 337.679 83.4234 337.752 83.3794C337.824 83.3355 337.906 83.3086 337.991 83.3009L337.994 83.3006C338.011 83.2991 338.028 83.2983 338.046 83.2983C338.142 83.2978 338.237 83.3219 338.32 83.3682C338.404 83.4146 338.473 83.4814 338.521 83.5619L340.516 86.8829C340.564 86.9631 340.59 87.054 340.59 87.1465C340.59 87.239 340.564 87.3299 340.516 87.4101C340.468 87.4902 340.399 87.5567 340.315 87.603C340.232 87.6493 340.137 87.6736 340.041 87.6737V87.6737ZM335.94 87.146C335.94 87.1647 335.945 87.183 335.955 87.1992C335.965 87.2154 335.978 87.2288 335.995 87.2381C336.012 87.2473 336.031 87.2521 336.05 87.2519H340.041C340.06 87.2521 340.079 87.2473 340.096 87.2381C340.113 87.2288 340.127 87.2154 340.136 87.1992C340.146 87.183 340.151 87.1647 340.151 87.146C340.151 87.1277 340.146 87.1097 340.136 87.0938L338.141 83.7728C338.131 83.7568 338.117 83.7434 338.1 83.7342C338.084 83.7249 338.065 83.7201 338.046 83.7201C338.026 83.7201 338.007 83.7249 337.991 83.7342C337.974 83.7434 337.96 83.7568 337.951 83.7728L335.955 87.0938C335.945 87.1096 335.94 87.1276 335.94 87.146V87.146Z" fill="#E6E6E6"/>
<path d="M338.046 84.2998C338.227 84.2998 338.375 84.1582 338.375 83.9835C338.375 83.8088 338.227 83.6672 338.046 83.6672C337.864 83.6672 337.716 83.8088 337.716 83.9835C337.716 84.1582 337.864 84.2998 338.046 84.2998Z" fill="#E6E6E6"/>
<path d="M287.791 97.7622C288.082 97.1205 288.506 96.5426 289.037 96.0635C289.568 95.5845 290.195 95.2145 290.88 94.9761C291.592 94.712 292.355 94.5988 293.117 94.6443C293.879 94.6899 294.621 94.8931 295.294 95.24C296.873 96.0454 298.136 97.3116 299.74 98.0823C301.299 98.8248 303.015 99.2132 304.756 99.2178C306.726 99.2326 308.666 98.7487 310.381 97.8149C310.447 97.7745 310.495 97.7108 310.514 97.6373C310.532 97.5638 310.52 97.4861 310.481 97.4208C310.441 97.3554 310.376 97.3075 310.3 97.287C310.225 97.2666 310.143 97.2753 310.074 97.3112C308.52 98.1478 306.775 98.602 304.995 98.6334C303.214 98.6648 301.453 98.2724 299.868 97.4911C298.259 96.6804 296.984 95.3714 295.345 94.6118C294.649 94.2873 293.893 94.0988 293.121 94.0572C292.349 94.0155 291.575 94.1216 290.846 94.3692C290.035 94.6305 289.292 95.0543 288.664 95.6125C288.036 96.1706 287.539 96.8505 287.206 97.6071C287.058 97.9546 287.645 98.1058 287.791 97.7622V97.7622Z" fill="#E6E6E6"/>
<path d="M287.311 103.215C290.681 102.493 294.176 102.504 297.54 103.249C300.528 103.915 303.613 105.113 306.694 104.22C308.07 103.821 309.332 103.022 310.039 101.794C310.228 101.465 309.704 101.17 309.515 101.499C308.183 103.813 305.064 104.203 302.6 103.823C300.954 103.57 299.368 103.061 297.747 102.697C294.264 101.912 290.64 101.897 287.15 102.653C286.769 102.735 286.93 103.297 287.311 103.215V103.215Z" fill="#E6E6E6"/>
<path d="M287.093 90.1752C290.323 89.6472 293.632 89.7603 296.815 90.5076C299.789 91.2077 302.696 92.8072 305.841 92.5309C307.296 92.403 308.738 91.8886 309.727 90.8184C309.985 90.5385 309.558 90.1245 309.298 90.4059C308.444 91.3291 307.215 91.8076 305.955 91.9368C304.501 92.0858 303.073 91.7965 301.69 91.3854C300.158 90.9303 298.671 90.3539 297.114 89.9777C293.784 89.1742 290.315 89.0498 286.931 89.6127C286.547 89.6757 286.71 90.238 287.093 90.1752V90.1752Z" fill="#E6E6E6"/>
<path d="M332.967 88.7898C334.363 90.1632 335.325 91.8882 335.744 93.7653C336.066 95.2586 336.029 96.8026 335.638 98.2804C335.246 99.7582 334.509 101.131 333.484 102.294C333.232 102.579 333.66 102.994 333.913 102.707C335.31 101.125 336.203 99.1888 336.483 97.1313C336.687 95.543 336.515 93.9309 335.981 92.4152C335.446 90.8995 334.563 89.5192 333.396 88.3773C333.122 88.1088 332.693 88.5214 332.967 88.7898Z" fill="#E6E6E6"/>
<path d="M342.076 87.545C340.215 88.8563 339.174 90.9728 339.027 93.162C338.874 95.4397 339.779 97.6395 341.234 99.408C342.084 100.426 343.098 101.306 344.239 102.014C344.567 102.221 344.872 101.716 344.546 101.511C342.687 100.342 341.097 98.6821 340.252 96.69C339.84 95.7437 339.627 94.7287 339.624 93.7031C339.621 92.6774 339.828 91.6613 340.234 90.7128C340.689 89.656 341.431 88.7359 342.382 88.0488C342.694 87.829 342.392 87.3225 342.076 87.545V87.545Z" fill="#E6E6E6"/>
<path d="M299.392 93.4101C300.957 93.4101 302.225 92.1913 302.225 90.6877C302.225 89.1842 300.957 87.9653 299.392 87.9653C297.827 87.9653 296.558 89.1842 296.558 90.6877C296.558 92.1913 297.827 93.4101 299.392 93.4101Z" fill="#ECA400"/>
</g>
<path d="M83.7878 189.05L267.401 0.716252L451.013 189.05H267.401H83.7878Z" stroke="#F5F9E9"/>
<path d="M669.449 461.568C669.449 462.372 668.892 463.266 667.555 464.227C666.233 465.176 664.252 466.112 661.653 467.015C656.461 468.819 648.92 470.452 639.569 471.827C620.874 474.574 595.03 476.276 566.473 476.276C537.915 476.276 512.072 474.574 493.377 471.827C484.026 470.452 476.485 468.819 471.293 467.015C468.693 466.112 466.712 465.176 465.391 464.227C464.054 463.266 463.497 462.372 463.497 461.568C463.497 460.764 464.054 459.869 465.391 458.909C466.712 457.96 468.693 457.024 471.293 456.121C476.485 454.316 484.026 452.683 493.377 451.309C512.072 448.562 537.915 446.86 566.473 446.86C595.03 446.86 620.874 448.562 639.569 451.309C648.92 452.683 656.461 454.316 661.653 456.121C664.252 457.024 666.233 457.96 667.555 458.909C668.892 459.869 669.449 460.764 669.449 461.568Z" stroke="#F5F9E9"/>
<path d="M507.303 470.594L444.861 441.311L513.871 433.497L507.303 470.594Z" stroke="#F5F9E9"/>
<g clip-path="url(#clip1_83_3878)">
<path d="M660.995 345.968C651.971 356.794 634.944 359.273 620.856 355.503C616.246 354.239 611.799 352.502 607.595 350.323C605.154 349.079 602.77 347.715 600.435 346.26C599.861 345.904 599.286 345.542 598.718 345.173C598.33 344.925 597.944 344.674 597.559 344.419C592.738 341.237 588.105 337.745 583.551 334.274C572.181 325.61 560.499 316.678 546.53 312.544C543.652 311.693 539.928 311.294 538.149 313.582C536.605 315.567 537.547 318.379 538.854 320.509C543.7 328.399 552.498 333.381 561.303 337.212C570.109 341.043 579.436 344.147 587.091 349.748C594.745 355.349 600.589 364.251 599.024 373.238C597.674 380.982 590.935 387.274 583.099 390.016C575.263 392.756 566.524 392.374 558.379 390.595C550.233 388.814 542.501 385.706 534.64 383.028C529.9 381.411 523.704 380.293 520.559 383.993C517.903 387.118 519.43 392.049 522.664 394.65C525.898 397.252 530.276 398.123 534.453 398.905C547.421 401.335 560.39 403.764 573.359 406.193C577.337 406.936 581.409 407.714 584.875 409.695C588.341 411.673 591.137 415.13 591.038 418.935C590.939 422.685 588.012 425.999 584.425 427.66C580.84 429.319 576.7 429.575 572.706 429.396C557.74 428.723 514.832 406.415 504.541 403.564C497.928 401.733 490.698 399.044 487.91 393.129C484.438 385.765 490.151 376.855 497.95 373.492C505.746 370.127 514.786 370.872 523.283 372.005C531.781 373.137 540.559 374.579 548.831 372.427C557.103 370.275 564.682 363.259 563.866 355.243C563.155 348.268 556.459 343.012 549.411 340.696C543.895 338.882 538.026 338.389 532.231 337.572C530.623 337.347 529.02 337.095 527.433 336.785C523.369 335.986 519.404 334.792 515.603 333.222C511.615 331.579 507.826 329.538 504.302 327.137C501.49 325.224 498.863 323.084 496.45 320.741C496.082 320.383 495.718 320.017 495.358 319.643C495.015 319.285 494.676 318.92 494.345 318.547C490.038 313.719 486.856 307.772 487.81 301.645C488.762 295.534 493.839 290.446 499.883 288.002C503.377 286.59 507.145 285.958 510.959 285.866C513.749 285.814 516.537 286.002 519.29 286.429C532.027 288.34 543.698 294.146 554.722 300.432C565.743 306.718 576.484 313.618 588.466 318.099C600.447 322.582 614.086 324.481 626.24 320.427C638.395 316.375 648.38 305.319 647.787 293.23C655.848 299.743 662.699 307.929 665.732 317.495C668.766 327.06 667.547 338.105 660.995 345.968Z" fill="#3F3D56"/>
<path d="M602.91 333.475C603.693 333.475 604.327 332.88 604.327 332.146C604.327 331.411 603.693 330.816 602.91 330.816C602.127 330.816 601.493 331.411 601.493 332.146C601.493 332.88 602.127 333.475 602.91 333.475Z" fill="#ECA400"/>
<path d="M652.954 316.663C654.164 316.663 655.145 315.743 655.145 314.608C655.145 313.472 654.164 312.552 652.954 312.552C651.744 312.552 650.763 313.472 650.763 314.608C650.763 315.743 651.744 316.663 652.954 316.663Z" fill="#FF6584"/>
<path d="M509.247 380.038C509.694 380.038 510.057 379.698 510.057 379.279C510.057 378.859 509.694 378.519 509.247 378.519C508.8 378.519 508.438 378.859 508.438 379.279C508.438 379.698 508.8 380.038 509.247 380.038Z" fill="#FF6584"/>
<path d="M532.484 335.617C532.485 336.276 532.4 336.932 532.231 337.572C530.623 337.347 529.02 337.095 527.433 336.784C523.369 335.986 519.404 334.792 515.603 333.222C516.215 331.371 517.513 329.786 519.263 328.757C521.013 327.727 523.099 327.32 525.141 327.61C527.184 327.899 529.048 328.867 530.395 330.336C531.743 331.805 532.484 333.679 532.484 335.617V335.617Z" fill="#FF6584"/>
<path d="M638.934 328.721C639.391 328.721 639.762 328.373 639.762 327.944C639.762 327.515 639.391 327.167 638.934 327.167C638.477 327.167 638.106 327.515 638.106 327.944C638.106 328.373 638.477 328.721 638.934 328.721Z" fill="#F0F0F0"/>
<path d="M563.186 414.218C563.643 414.218 564.014 413.87 564.014 413.441C564.014 413.012 563.643 412.664 563.186 412.664C562.729 412.664 562.358 413.012 562.358 413.441C562.358 413.87 562.729 414.218 563.186 414.218Z" fill="#F0F0F0"/>
<path d="M575.064 424.996C575.521 424.996 575.892 424.649 575.892 424.22C575.892 423.791 575.521 423.443 575.064 423.443C574.607 423.443 574.236 423.791 574.236 424.22C574.236 424.649 574.607 424.996 575.064 424.996Z" fill="#F0F0F0"/>
<path d="M501.653 394.305C502.11 394.305 502.481 393.957 502.481 393.528C502.481 393.099 502.11 392.751 501.653 392.751C501.196 392.751 500.825 393.099 500.825 393.528C500.825 393.957 501.196 394.305 501.653 394.305Z" fill="#F0F0F0"/>
<path d="M542.35 379.873C542.808 379.873 543.178 379.525 543.178 379.096C543.178 378.667 542.808 378.319 542.35 378.319C541.893 378.319 541.522 378.667 541.522 379.096C541.522 379.525 541.893 379.873 542.35 379.873Z" fill="#F0F0F0"/>
<path d="M538.261 302.779C538.718 302.779 539.089 302.431 539.089 302.002C539.089 301.573 538.718 301.226 538.261 301.226C537.804 301.226 537.433 301.573 537.433 302.002C537.433 302.431 537.804 302.779 538.261 302.779Z" fill="#F0F0F0"/>
<path d="M588.305 363.614C588.763 363.614 589.133 363.266 589.133 362.837C589.133 362.408 588.763 362.06 588.305 362.06C587.848 362.06 587.478 362.408 587.478 362.837C587.478 363.266 587.848 363.614 588.305 363.614Z" fill="#F0F0F0"/>
<path d="M594.537 377.132C594.994 377.132 595.365 376.785 595.365 376.356C595.365 375.927 594.994 375.579 594.537 375.579C594.079 375.579 593.709 375.927 593.709 376.356C593.709 376.785 594.079 377.132 594.537 377.132Z" fill="#F0F0F0"/>
<path d="M519.905 304.482C519.911 308.404 518.923 312.271 517.023 315.765C516.772 316.225 516.506 316.677 516.225 317.122C513.442 321.531 509.279 325.028 504.302 327.137C501.49 325.224 498.863 323.084 496.45 320.741C496.082 320.383 495.718 320.017 495.358 319.643C495.015 319.285 494.676 318.92 494.345 318.547C490.038 313.719 486.856 307.772 487.81 301.645C488.762 295.534 493.839 290.446 499.883 288.002C503.377 286.59 507.145 285.958 510.959 285.866C513.942 288.337 516.293 291.407 517.839 294.847C518.034 295.28 518.213 295.718 518.382 296.162C519.393 298.834 519.908 301.648 519.905 304.482V304.482Z" fill="#ECA400"/>
<path d="M531.978 305.761C531.978 309.566 528.017 313.095 520.824 315.702C519.385 316.225 517.845 316.698 516.225 317.122C510.161 318.708 502.944 319.586 495.358 319.643C495.015 319.285 494.676 318.92 494.345 318.547C494.427 318.549 494.509 318.549 494.591 318.549C502.829 318.549 510.646 317.569 517.023 315.765C518.201 315.43 519.331 315.068 520.403 314.679C527.016 312.284 530.809 309.033 530.809 305.761C530.809 302.489 527.016 299.239 520.403 296.842C519.749 296.604 519.075 296.378 518.382 296.162C518.213 295.718 518.034 295.28 517.839 294.847C518.875 295.15 519.87 295.474 520.824 295.819C528.017 298.426 531.978 301.957 531.978 305.761Z" fill="#E4E4E4"/>
<path d="M495.811 292.183C496.268 292.183 496.639 291.835 496.639 291.406C496.639 290.977 496.268 290.63 495.811 290.63C495.354 290.63 494.983 290.977 494.983 291.406C494.983 291.835 495.354 292.183 495.811 292.183Z" fill="#F0F0F0"/>
<path d="M513.142 297.116C513.599 297.116 513.97 296.768 513.97 296.339C513.97 295.91 513.599 295.562 513.142 295.562C512.684 295.562 512.314 295.91 512.314 296.339C512.314 296.768 512.684 297.116 513.142 297.116Z" fill="#F0F0F0"/>
<path d="M504.184 311.748C508.631 311.748 512.236 308.367 512.236 304.195C512.236 300.023 508.631 296.641 504.184 296.641C499.738 296.641 496.133 300.023 496.133 304.195C496.133 308.367 499.738 311.748 504.184 311.748Z" fill="#F0F0F0"/>
<path opacity="0.3" d="M652.877 344.174C651.07 344.675 647.086 345.044 642.704 345.27C638.325 345.495 633.521 345.594 628.777 345.689C620.474 345.857 612.172 346.025 603.87 346.195C602.729 346.218 601.584 346.24 600.435 346.26C599.861 345.904 599.286 345.542 598.718 345.173C599.736 345.179 600.755 345.173 601.765 345.155C606.082 345.075 609.737 344.759 613.901 344.609C620.307 344.377 627.224 344.56 633.901 344.653C640.578 344.748 648.186 344.713 652.877 344.174Z" fill="#F0F0F0"/>
<path opacity="0.3" d="M525.443 401.762L498.976 381.077L524.688 402.591C524.738 402.67 524.807 402.736 524.89 402.785C524.972 402.833 525.066 402.863 525.163 402.871C525.261 402.878 525.358 402.864 525.449 402.83C525.539 402.795 525.619 402.741 525.682 402.671C525.746 402.602 525.79 402.519 525.813 402.43C525.835 402.341 525.835 402.248 525.811 402.159C525.788 402.07 525.742 401.988 525.678 401.919C525.614 401.85 525.534 401.796 525.443 401.762H525.443Z" fill="#F0F0F0"/>
<path d="M505.353 323.423C505.81 323.423 506.181 323.075 506.181 322.646C506.181 322.217 505.81 321.869 505.353 321.869C504.895 321.869 504.525 322.217 504.525 322.646C504.525 323.075 504.895 323.423 505.353 323.423Z" fill="#0B7A75"/>
<path d="M574.89 412.652L578.315 412.652L579.944 400.259L574.89 400.259L574.89 412.652Z" fill="#DB5461"/>
<path d="M574.017 411.603L574.981 411.603L578.744 410.167L580.761 411.603H580.761C581.901 411.603 582.994 412.028 583.8 412.784C584.606 413.54 585.059 414.566 585.059 415.635V415.766L574.017 415.766L574.017 411.603Z" fill="#2F2E41"/>
<path d="M549.243 412.652L545.818 412.652L544.189 400.259L549.244 400.259L549.243 412.652Z" fill="#DB5461"/>
<path d="M550.117 415.766L539.074 415.766V415.635C539.074 414.566 539.527 413.54 540.333 412.784C541.139 412.028 542.232 411.603 543.372 411.603H543.372L545.389 410.167L549.153 411.603L550.117 411.603L550.117 415.766Z" fill="#2F2E41"/>
<path d="M561.514 317.676L558.047 320.153L548.835 322.442C548.835 322.442 552.136 344.174 550.578 345.636C549.02 347.097 550.425 347.136 550.112 349.035C549.799 350.934 548.552 355.946 548.552 355.946H576.044C576.044 355.946 576.266 352.831 574.911 352.156C573.555 351.482 576.16 348.333 575.052 347.806C573.945 347.28 575.503 342.713 575.503 342.713L578.879 327.76L569.899 321.169L568.533 318.082L561.514 317.676Z" fill="#ECA400"/>
<path d="M565.841 337.096C566.504 337.096 567.041 336.592 567.041 335.97C567.041 335.348 566.504 334.844 565.841 334.844C565.178 334.844 564.641 335.348 564.641 335.97C564.641 336.592 565.178 337.096 565.841 337.096Z" fill="#0B7A75"/>
<path d="M548.552 355.946L547.418 383.335C547.418 383.335 542.523 403.563 543.373 404.095C544.223 404.627 544.584 407.798 544.584 407.798L549.402 408.33C549.402 408.33 549.402 406.203 550.536 405.405C551.669 404.607 562.156 367.114 562.156 367.114L572.387 403.364C572.387 403.364 572.643 405.405 573.494 405.405C574.344 405.405 574.627 408.33 574.627 408.33H579.446V405.405C579.446 405.405 581.611 404.761 580.76 402.634C579.91 400.506 576.044 355.946 576.044 355.946H548.552Z" fill="#2F2E41"/>
<path d="M565.115 316.044C568.324 316.044 570.925 313.603 570.925 310.592C570.925 307.582 568.324 305.141 565.115 305.141C561.906 305.141 559.305 307.582 559.305 310.592C559.305 313.603 561.906 316.044 565.115 316.044Z" fill="#DB5461"/>
<path opacity="0.1" d="M575.052 335.072L576.186 335.87L576.753 332.147L575.052 335.072Z" fill="black"/>
<path d="M549.378 322.42C549.378 322.42 547.961 322.155 547.111 324.548C546.261 326.941 543.143 335.982 543.143 337.577C543.143 339.173 562.559 346.212 562.559 346.212L560.539 339.563L551.646 335.184L549.378 322.42Z" fill="#ECA400"/>
<path d="M563.46 345.226C565.288 345.226 566.77 343.836 566.77 342.121C566.77 340.406 565.288 339.015 563.46 339.015C561.631 339.015 560.149 340.406 560.149 342.121C560.149 343.836 561.631 345.226 563.46 345.226Z" fill="#DB5461"/>
<path opacity="0.1" d="M551.387 331.89L551.646 335.184L559.869 339.233L552.555 334.631L551.387 331.89Z" fill="black"/>
<path d="M571.156 332.36H571.049V329.618C571.049 329.41 571.005 329.203 570.92 329.011C570.835 328.818 570.711 328.643 570.554 328.496C570.397 328.349 570.21 328.232 570.005 328.152C569.8 328.072 569.58 328.031 569.358 328.031H563.166C562.944 328.031 562.724 328.072 562.519 328.152C562.313 328.232 562.127 328.349 561.97 328.496C561.813 328.643 561.688 328.818 561.603 329.011C561.518 329.203 561.474 329.41 561.474 329.618V344.66C561.474 344.868 561.518 345.075 561.603 345.267C561.688 345.46 561.813 345.635 561.97 345.782C562.127 345.929 562.313 346.046 562.519 346.126C562.724 346.206 562.944 346.247 563.166 346.247H569.358C569.58 346.247 569.8 346.206 570.005 346.126C570.21 346.046 570.397 345.929 570.554 345.782C570.711 345.635 570.835 345.46 570.92 345.267C571.005 345.075 571.049 344.868 571.049 344.66V334.312H571.156V332.36Z" fill="#F0F0F0"/>
<path d="M578.879 327.76C578.879 327.76 579.729 328.292 580.296 330.685C580.863 333.078 584.547 342.119 583.13 344.246C581.713 346.373 581.295 348.644 576.476 345.453L569.809 339.726L574.627 335.471L576.611 336.801L578.879 327.76Z" fill="#ECA400"/>
<path d="M566.337 334.736C567.12 334.736 567.755 334.14 567.755 333.406C567.755 332.672 567.12 332.076 566.337 332.076C565.555 332.076 564.92 332.672 564.92 333.406C564.92 334.14 565.555 334.736 566.337 334.736Z" fill="#ECA400"/>
<path d="M570.44 339.424C572.268 339.424 573.75 338.034 573.75 336.319C573.75 334.603 572.268 333.213 570.44 333.213C568.612 333.213 567.13 334.603 567.13 336.319C567.13 338.034 568.612 339.424 570.44 339.424Z" fill="#DB5461"/>
<path opacity="0.1" d="M551.23 341.831L560.733 345.775L550.966 343.984L551.23 341.831Z" fill="black"/>
<path d="M559.253 311.679L558.455 308.83C558.247 308.087 558.037 307.329 558.084 306.562C558.131 305.795 558.478 305.003 559.167 304.587C559.856 304.172 560.907 304.27 561.351 304.916C561.435 303.884 562.435 303.091 563.497 302.809C564.558 302.528 565.685 302.64 566.787 302.687C567.889 302.734 569.052 302.701 570.003 302.177C570.075 302.381 570.07 302.602 569.989 302.803C569.908 303.004 569.755 303.173 569.557 303.281C569.793 303.341 570.045 303.315 570.262 303.208C570.479 303.101 570.644 302.92 570.724 302.703C570.732 303.301 570.496 303.878 570.066 304.319C570.476 304.128 570.948 304.087 571.389 304.204C571.829 304.321 572.208 304.588 572.451 304.952C572.936 305.742 572.664 306.733 572.38 307.604L570.923 312.077C570.702 311.397 570.66 310.679 570.542 309.977C570.424 309.275 570.213 308.558 569.719 308.019C569.225 307.48 568.386 307.168 567.684 307.436C567.29 307.586 566.99 307.89 566.635 308.109C565.905 308.558 564.977 308.622 564.11 308.531C563.244 308.439 562.399 308.208 561.532 308.115C560.99 308.057 560.384 308.073 559.975 308.412C559.693 308.686 559.507 309.035 559.441 309.411C559.248 310.16 559.172 310.932 559.216 311.702" fill="#2F2E41"/>
</g>
<path d="M637.746 415.601C653.815 424.229 652.521 401.493 650.755 370.494C648.798 336.126 646.262 291.599 666.171 268.399M666.835 267.642C677.41 255.865 694.079 249.907 720.048 254.15M674.983 289.85C670.424 289.245 664.321 287.646 657.06 285.179C658.52 281.362 660.256 277.782 662.314 274.5C662.45 274.283 662.587 274.067 662.726 273.853C668.859 276.502 674.58 278.741 679.809 280.569C679.926 280.703 680.041 280.835 680.154 280.967C681.69 282.76 682.74 284.325 683.285 285.63C683.835 286.945 683.836 287.9 683.448 288.565C683.061 289.231 682.213 289.73 680.759 289.969C679.316 290.207 677.378 290.168 674.983 289.85ZM661.798 273.45C661.681 273.632 661.565 273.815 661.45 273.998C659.355 277.34 657.59 280.979 656.109 284.853C656.064 284.837 656.018 284.821 655.973 284.805C640.501 279.449 620.109 270.326 598.468 258.706C576.827 247.086 558.056 235.179 545.202 225.327C538.771 220.398 533.84 215.997 530.771 212.415C529.235 210.622 528.185 209.057 527.64 207.751C527.09 206.437 527.089 205.481 527.477 204.816C527.864 204.151 528.712 203.651 530.166 203.412C531.609 203.175 533.547 203.214 535.942 203.532C540.727 204.167 547.213 205.896 554.952 208.576C557.495 209.456 560.17 210.438 562.962 211.516C566.535 215.083 571.319 219.188 577.024 223.608C591.403 234.748 611.695 247.931 633.373 259.571C643.514 265.016 653.064 269.644 661.798 273.45ZM678.363 279.001C673.693 277.321 668.649 275.323 663.285 273.009C664.303 271.503 665.395 270.066 666.565 268.703C671.477 272.511 675.467 275.989 678.363 279.001ZM665.777 268.096C664.553 269.522 663.414 271.028 662.354 272.605C653.616 268.801 644.047 264.168 633.876 258.706C612.24 247.089 591.995 233.935 577.665 222.834C572.838 219.094 568.688 215.592 565.386 212.465C579.099 217.9 595.39 225.511 612.457 234.675C634.098 246.295 652.869 258.202 665.723 268.055C665.741 268.068 665.759 268.082 665.777 268.096ZM680.413 279.727C677.41 276.357 672.918 272.358 667.229 267.947C671.55 263.139 676.895 259.318 683.489 256.783C689.311 254.545 696.123 253.302 704.086 253.277C707.828 260.248 710.416 266.718 711.912 271.943C712.756 274.891 713.249 277.431 713.409 279.436C713.489 280.439 713.486 281.297 713.405 282C713.323 282.709 713.167 283.229 712.964 283.577C712.554 284.281 711.751 284.844 710.47 285.208C709.189 285.573 707.485 285.723 705.372 285.637C701.15 285.465 695.409 284.359 688.411 282.304C685.9 281.566 683.229 280.707 680.413 279.727ZM703.553 252.295C695.716 252.375 688.954 253.629 683.13 255.868C676.353 258.474 670.867 262.405 666.441 267.339C666.414 267.318 666.387 267.298 666.361 267.277C653.453 257.383 634.633 245.448 612.96 233.811C594.933 224.131 577.758 216.175 563.549 210.676C562.691 209.816 561.907 208.988 561.201 208.198C559.386 206.168 558.103 204.402 557.397 202.952C556.679 201.476 556.622 200.464 556.992 199.828C557.194 199.482 557.575 199.084 558.167 198.65C558.754 198.219 559.523 197.771 560.467 197.318C562.354 196.413 564.901 195.505 568.001 194.674C574.198 193.014 582.553 191.677 592.142 191.278C611.324 190.48 635.386 193.438 656.94 205.012C678.494 216.585 693.489 234.598 702.597 250.584C702.923 251.158 703.242 251.728 703.553 252.295Z" stroke="#F5F9E9"/>
<line x1="442.805" y1="189.55" x2="442.805" y2="441.774" stroke="#F5F9E9"/>
<defs>
<clipPath id="clip0_83_3878">
<rect width="178.689" height="119.037" fill="white" transform="translate(191.467 61.4204)"/>
</clipPath>
<clipPath id="clip1_83_3878">
<rect width="180.438" height="143.59" fill="white" transform="translate(486.871 285.854)"/>
</clipPath>
</defs>
</svg>
