<svg width="68" height="65" viewBox="0 0 68 65" fill="none" xmlns="http://www.w3.org/2000/svg">
<path d="M33.8725 5.15944C33.8141 5.16959 33.7556 5.18483 33.7025 5.20006C33.0703 5.33717 32.6241 5.88053 32.64 6.50006V14.3001C32.6347 14.7672 32.8897 15.204 33.3147 15.4426C33.7397 15.6762 34.2603 15.6762 34.6853 15.4426C35.1103 15.204 35.3653 14.7672 35.36 14.3001V6.50006C35.3759 6.12428 35.2166 5.76373 34.935 5.50983C34.6481 5.25084 34.2603 5.12389 33.8725 5.15944ZM14.4925 12.7969C13.9825 12.8833 13.5734 13.2387 13.43 13.711C13.2866 14.1883 13.4353 14.6962 13.8125 15.0313L19.5925 20.5563C19.9219 20.9422 20.4478 21.12 20.9578 21.0083C21.4625 20.8965 21.8609 20.5157 21.9778 20.0333C22.0947 19.5458 21.9088 19.043 21.505 18.7282L15.725 13.2032C15.4434 12.9137 15.0344 12.7665 14.62 12.7969C14.5775 12.7969 14.535 12.7969 14.4925 12.7969ZM53.0825 12.7969C52.7744 12.8376 52.4875 12.9848 52.275 13.2032L46.495 18.7282C46.0913 19.043 45.9053 19.5458 46.0222 20.0333C46.1391 20.5157 46.5375 20.8965 47.0422 21.0083C47.5522 21.12 48.0781 20.9422 48.4075 20.5563L54.1875 15.0313C54.6125 14.6454 54.7347 14.0411 54.485 13.5333C54.23 13.0204 53.6669 12.7258 53.0825 12.7969ZM33.8725 19.5001C33.83 19.5102 33.7875 19.5255 33.745 19.5407C33.66 19.5458 33.575 19.561 33.49 19.5813C33.4741 19.5965 33.4634 19.6067 33.4475 19.6219C26.2331 19.9165 20.4 25.5329 20.4 32.5001C20.4 39.6551 26.5147 45.5001 34 45.5001C41.4853 45.5001 47.6 39.6551 47.6 32.5001C47.6 25.5583 41.8147 19.9622 34.6375 19.6219C34.5897 19.6219 34.5578 19.5813 34.51 19.5813C34.3719 19.5305 34.2284 19.5051 34.085 19.5001C34.0584 19.5001 34.0266 19.5001 34 19.5001C33.9575 19.5001 33.915 19.5001 33.8725 19.5001ZM33.915 22.1001C33.9416 22.1001 33.9734 22.1001 34 22.1001C34.0425 22.1001 34.085 22.1001 34.1275 22.1001C40.0775 22.1661 44.88 26.7973 44.88 32.5001C44.88 38.2485 40.0138 42.9001 34 42.9001C27.9916 42.9001 23.12 38.2485 23.12 32.5001C23.12 26.7821 27.9438 22.1458 33.915 22.1001ZM6.4175 31.2001C5.66844 31.3016 5.1425 31.9669 5.24875 32.6829C5.355 33.3989 6.05094 33.9016 6.8 33.8001H14.96C15.4488 33.8051 15.9056 33.5614 16.1553 33.1551C16.3997 32.7489 16.3997 32.2512 16.1553 31.845C15.9056 31.4387 15.4488 31.195 14.96 31.2001H6.8C6.7575 31.2001 6.715 31.2001 6.6725 31.2001C6.63 31.2001 6.5875 31.2001 6.545 31.2001C6.5025 31.2001 6.46 31.2001 6.4175 31.2001ZM52.6575 31.2001C51.9084 31.3016 51.3825 31.9669 51.4888 32.6829C51.595 33.3989 52.2909 33.9016 53.04 33.8001H61.2C61.6888 33.8051 62.1456 33.5614 62.3953 33.1551C62.6397 32.7489 62.6397 32.2512 62.3953 31.845C62.1456 31.4387 61.6888 31.195 61.2 31.2001H53.04C52.9975 31.2001 52.955 31.2001 52.9125 31.2001C52.87 31.2001 52.8275 31.2001 52.785 31.2001C52.7425 31.2001 52.7 31.2001 52.6575 31.2001ZM20.4 44.0376C20.0919 44.0782 19.805 44.2254 19.5925 44.4438L13.8125 49.9688C13.4088 50.2837 13.2228 50.7864 13.3397 51.2739C13.4566 51.7563 13.855 52.1372 14.3597 52.2489C14.8697 52.3606 15.3956 52.1829 15.725 51.7969L21.505 46.2719C21.9088 45.9012 22.0309 45.3274 21.8131 44.8348C21.6006 44.3422 21.0853 44.0274 20.5275 44.0376C20.485 44.0376 20.4425 44.0376 20.4 44.0376ZM47.175 44.0376C46.665 44.1239 46.2559 44.4794 46.1125 44.9516C45.9691 45.429 46.1178 45.9368 46.495 46.2719L52.275 51.7969C52.6044 52.1829 53.1303 52.3606 53.6403 52.2489C54.145 52.1372 54.5434 51.7563 54.6603 51.2739C54.7772 50.7864 54.5913 50.2837 54.1875 49.9688L48.4075 44.4438C48.1525 44.1848 47.8019 44.0426 47.43 44.0376C47.3875 44.0376 47.345 44.0376 47.3025 44.0376C47.26 44.0376 47.2175 44.0376 47.175 44.0376ZM33.8725 49.3594C33.8141 49.3696 33.7556 49.3848 33.7025 49.4001C33.0703 49.5372 32.6241 50.0805 32.64 50.7001V58.5001C32.6347 58.9672 32.8897 59.404 33.3147 59.6426C33.7397 59.8762 34.2603 59.8762 34.6853 59.6426C35.1103 59.404 35.3653 58.9672 35.36 58.5001V50.7001C35.3759 50.3243 35.2166 49.9637 34.935 49.7098C34.6481 49.4508 34.2603 49.3239 33.8725 49.3594Z" fill="#F5F9E9"/>
</svg>
