<svg width="20" height="20" viewBox="0 0 20 20" fill="none" xmlns="http://www.w3.org/2000/svg">
<path d="M14.6997 1.23689L14.5376 1.23535C14.5918 1.26469 14.6451 1.29477 14.6989 1.32501L14.6997 1.23689Z" fill="#F5F9E9"/>
<path d="M14.3101 17.9684L15.0038 17.975L15.0081 17.5139C14.7816 17.653 14.5491 17.7833 14.3107 17.904L14.3101 17.9684Z" fill="#F5F9E9"/>
<path d="M8.53846 0.574865L8.54206 0.195536C8.30722 0.230735 8.07581 0.27517 7.84708 0.326875L7.8448 0.567991L8.53847 0.574563L8.53846 0.574865Z" fill="#F5F9E9"/>
<path d="M10.196 0.590674L10.2007 0.0928991C10.1572 0.0918834 10.1139 0.0887563 10.0704 0.0883441C9.88109 0.0865509 9.69356 0.0917158 9.50691 0.100812L9.50233 0.584253L10.196 0.590825L10.196 0.590674Z" fill="#F5F9E9"/>
<path d="M11.8533 0.606252L11.8565 0.272944C11.6284 0.227927 11.3974 0.190881 11.1638 0.162109L11.1597 0.599681L11.8533 0.606252Z" fill="#F5F9E9"/>
<path d="M13.1316 0.618417C13.0278 0.582576 12.9237 0.547184 12.8184 0.514648L12.8174 0.615441L13.1316 0.618417Z" fill="#F5F9E9"/>
<path d="M4.74534 2.23425L4.75104 1.63206C4.51017 1.78883 4.27744 1.95639 4.05256 2.13337L4.05167 2.22768L4.74534 2.23425Z" fill="#F5F9E9"/>
<path d="M5.71948 1.15161L6.41315 1.15818L6.40281 2.24985L5.70914 2.24328L5.71948 1.15161Z" fill="#F5F9E9"/>
<path d="M7.37671 1.16748L8.07038 1.17405L8.06004 2.26572L7.36637 2.25914L7.37671 1.16748Z" fill="#F5F9E9"/>
<path d="M9.03394 1.18311L9.7276 1.18968L9.71726 2.28134L9.02359 2.27477L9.03394 1.18311Z" fill="#F5F9E9"/>
<path d="M10.6914 1.19873L11.3851 1.2053L11.3747 2.29697L10.6811 2.29039L10.6914 1.19873Z" fill="#F5F9E9"/>
<path d="M12.3486 1.2146L13.0423 1.22117L13.032 2.31284L12.3383 2.30626L12.3486 1.2146Z" fill="#F5F9E9"/>
<path d="M13.9957 2.32189L14.6893 2.32846L14.6988 1.32492C14.6454 1.29468 14.5918 1.26445 14.5376 1.23526L14.0059 1.23022C14.006 1.23023 13.9957 2.32189 13.9957 2.32189Z" fill="#F5F9E9"/>
<path d="M16.1635 2.34253C15.9993 2.20411 15.8302 2.07153 15.6567 1.94434L15.653 2.3377L16.1635 2.34253Z" fill="#F5F9E9"/>
<path d="M3.53391 3.99521L3.54425 2.90354L3.19162 2.9002C3.07355 3.0189 2.95897 3.14034 2.8471 3.26498L2.84024 3.98864C2.83994 3.98863 3.53391 3.99521 3.53391 3.99521V3.99521Z" fill="#F5F9E9"/>
<path d="M4.50781 2.91284L5.20148 2.91941L5.19114 4.01108L4.49747 4.00451L4.50781 2.91284Z" fill="#F5F9E9"/>
<path d="M6.16504 2.92871L6.85871 2.93528L6.84837 4.02695L6.1547 4.02038L6.16504 2.92871Z" fill="#F5F9E9"/>
<path d="M7.82227 2.94434L8.51593 2.95091L8.50559 4.04257L7.81192 4.036L7.82227 2.94434Z" fill="#F5F9E9"/>
<path d="M9.47974 2.95996L10.1734 2.96653L10.1631 4.0582L9.46939 4.05163L9.47974 2.95996Z" fill="#F5F9E9"/>
<path d="M11.137 2.97559L11.8306 2.98216L11.8203 4.07382L11.1266 4.06725L11.137 2.97559Z" fill="#F5F9E9"/>
<path d="M12.7944 2.99146L13.4881 2.99803L13.4778 4.08969L12.7841 4.08312L12.7944 2.99146Z" fill="#F5F9E9"/>
<path d="M14.4517 3.00708L15.1453 3.01365L15.135 4.10532L14.4413 4.09874L14.4517 3.00708Z" fill="#F5F9E9"/>
<path d="M16.1091 3.02271L16.8028 3.02928L16.7925 4.12094L16.0988 4.11437L16.1091 3.02271Z" fill="#F5F9E9"/>
<path d="M17.8019 4.13036C17.787 4.10909 17.772 4.08768 17.7568 4.06641L17.7562 4.12993L17.8019 4.13036Z" fill="#F5F9E9"/>
<path d="M1.40023 5.40641C1.35773 5.49323 1.31705 5.58082 1.27729 5.66887L1.39773 5.67001L1.40023 5.40641Z" fill="#F5F9E9"/>
<path d="M2.37183 4.58789L3.06549 4.59446L3.05515 5.68613L2.36148 5.67955L2.37183 4.58789Z" fill="#F5F9E9"/>
<path d="M4.02905 4.60352L4.72272 4.61009L4.71238 5.70175L4.01871 5.69518L4.02905 4.60352Z" fill="#F5F9E9"/>
<path d="M5.68652 4.61914L6.38019 4.62571L6.36985 5.71738L5.67618 5.7108L5.68652 4.61914Z" fill="#F5F9E9"/>
<path d="M7.34375 4.63501L8.03742 4.64158L8.02708 5.73325L7.33341 5.72667L7.34375 4.63501Z" fill="#F5F9E9"/>
<path d="M9.00122 4.65063L9.69489 4.65721L9.68455 5.74887L8.99088 5.7423L9.00122 4.65063Z" fill="#F5F9E9"/>
<path d="M10.6587 4.66626L11.3524 4.67283L11.342 5.7645L10.6483 5.75792L10.6587 4.66626Z" fill="#F5F9E9"/>
<path d="M12.3159 4.68188L13.0096 4.68846L12.9992 5.78012L12.3056 5.77355L12.3159 4.68188Z" fill="#F5F9E9"/>
<path d="M13.9731 4.69775L14.6668 4.70433L14.6565 5.79599L13.9628 5.78942L13.9731 4.69775Z" fill="#F5F9E9"/>
<path d="M15.6306 4.71338L16.3243 4.71995L16.3139 5.81161L15.6203 5.80504L15.6306 4.71338Z" fill="#F5F9E9"/>
<path d="M17.2878 4.72925L17.9815 4.73582L17.9712 5.82748L17.2775 5.82091L17.2878 4.72925Z" fill="#F5F9E9"/>
<path d="M1.16016 6.34888L1.85382 6.35545L1.84348 7.44711L1.14981 7.44054L1.16016 6.34888Z" fill="#F5F9E9"/>
<path d="M2.81738 6.36475L3.51105 6.37132L3.50071 7.46298L2.80704 7.45641L2.81738 6.36475Z" fill="#F5F9E9"/>
<path d="M4.47485 6.38037L5.16852 6.38694L5.15818 7.47861L4.46451 7.47204L4.47485 6.38037Z" fill="#F5F9E9"/>
<path d="M6.13208 6.396L6.82575 6.40257L6.81541 7.49423L6.12174 7.48766L6.13208 6.396Z" fill="#F5F9E9"/>
<path d="M7.78955 6.41187L8.48322 6.41844L8.47288 7.5101L7.77921 7.50353L7.78955 6.41187Z" fill="#F5F9E9"/>
<path d="M9.44678 6.42749L10.1404 6.43406L10.1301 7.52573L9.43644 7.51915L9.44678 6.42749Z" fill="#F5F9E9"/>
<path d="M11.104 6.44312L11.7977 6.44969L11.7873 7.54135L11.0937 7.53478L11.104 6.44312Z" fill="#F5F9E9"/>
<path d="M12.7615 6.45898L13.4551 6.46556L13.4448 7.55722L12.7511 7.55065L12.7615 6.45898Z" fill="#F5F9E9"/>
<path d="M14.4189 6.47461L15.1126 6.48118L15.1023 7.57285L14.4086 7.56627L14.4189 6.47461Z" fill="#F5F9E9"/>
<path d="M16.0762 6.49023L16.7698 6.49681L16.7595 7.58847L16.0658 7.5819L16.0762 6.49023Z" fill="#F5F9E9"/>
<path d="M17.7334 6.50586L18.4271 6.51243L18.4167 7.6041L17.7231 7.59752L17.7334 6.50586Z" fill="#F5F9E9"/>
<path d="M0.681641 8.03955L1.37531 8.04612L1.36497 9.13779L0.671299 9.13122L0.681641 8.03955Z" fill="#F5F9E9"/>
<path d="M2.33911 8.05542L3.03278 8.06199L3.02244 9.15366L2.32877 9.14708L2.33911 8.05542Z" fill="#F5F9E9"/>
<path d="M3.99634 8.07104L4.69001 8.07762L4.67966 9.16928L3.986 9.16271L3.99634 8.07104Z" fill="#F5F9E9"/>
<path d="M5.65381 8.08667L6.34748 8.09324L6.33714 9.18491L5.64347 9.17833L5.65381 8.08667Z" fill="#F5F9E9"/>
<path d="M7.31104 8.10254L8.0047 8.10911L7.99436 9.20077L7.30069 9.1942L7.31104 8.10254Z" fill="#F5F9E9"/>
<path d="M8.96826 8.11816L9.66193 8.12474L9.65159 9.2164L8.95792 9.20983L8.96826 8.11816Z" fill="#F5F9E9"/>
<path d="M10.6257 8.13379L11.3194 8.14036L11.3091 9.23202L10.6154 9.22545L10.6257 8.13379Z" fill="#F5F9E9"/>
<path d="M12.283 8.14966L12.9766 8.15623L12.9663 9.24789L12.2726 9.24132L12.283 8.14966Z" fill="#F5F9E9"/>
<path d="M13.9404 8.16528L14.6341 8.17185L14.6238 9.26352L13.9301 9.25695L13.9404 8.16528Z" fill="#F5F9E9"/>
<path d="M15.5979 8.18091L16.2916 8.18748L16.2812 9.27914L15.5876 9.27257L15.5979 8.18091Z" fill="#F5F9E9"/>
<path d="M17.2551 8.19653L17.9488 8.2031L17.9385 9.29477L17.2448 9.2882L17.2551 8.19653Z" fill="#F5F9E9"/>
<path d="M18.902 9.30407L19.5062 9.30979C19.4983 8.94016 19.4709 8.57548 19.421 8.21722L18.9124 8.2124L18.902 9.30407Z" fill="#F5F9E9"/>
<path d="M1.1272 9.81616L1.82086 9.82273L1.81052 10.9144L1.11686 10.9078L1.1272 9.81616Z" fill="#F5F9E9"/>
<path d="M2.78467 9.83203L3.47834 9.8386L3.46799 10.9303L2.77433 10.9237L2.78467 9.83203Z" fill="#F5F9E9"/>
<path d="M4.44214 9.84766L5.13581 9.85423L5.12546 10.9459L4.4318 10.9393L4.44214 9.84766Z" fill="#F5F9E9"/>
<path d="M6.09937 9.86328L6.79303 9.86985L6.78269 10.9615L6.08902 10.9549L6.09937 9.86328Z" fill="#F5F9E9"/>
<path d="M7.75659 9.87915L8.45026 9.88572L8.43992 10.9774L7.74625 10.9708L7.75659 9.87915Z" fill="#F5F9E9"/>
<path d="M9.41406 9.89478L10.1077 9.90135L10.0974 10.993L9.40372 10.9864L9.41406 9.89478Z" fill="#F5F9E9"/>
<path d="M11.0713 9.9104L11.765 9.91697L11.7546 11.0086L11.0609 11.0021L11.0713 9.9104Z" fill="#F5F9E9"/>
<path d="M12.7285 9.92603L13.4222 9.9326L13.4118 11.0243L12.7182 11.0177L12.7285 9.92603Z" fill="#F5F9E9"/>
<path d="M14.386 9.94189L15.0797 9.94847L15.0693 11.0401L14.3756 11.0336L14.386 9.94189Z" fill="#F5F9E9"/>
<path d="M16.0435 9.95752L16.7371 9.96409L16.7268 11.0558L16.0331 11.0492L16.0435 9.95752Z" fill="#F5F9E9"/>
<path d="M17.7007 9.97314L18.3944 9.97972L18.384 11.0714L17.6903 11.0648L17.7007 9.97314Z" fill="#F5F9E9"/>
<path d="M19.3579 9.98901L19.3476 11.0807L19.3784 11.081C19.4389 10.7241 19.4782 10.3599 19.4971 9.99033L19.3579 9.98901Z" fill="#F5F9E9"/>
<path d="M1.34252 11.5135L0.668701 11.5071C0.750352 11.8806 0.852995 12.2461 0.978021 12.6018L1.33218 12.6051L1.34252 11.5135Z" fill="#F5F9E9"/>
<path d="M2.30615 11.5227L2.99982 11.5293L2.98948 12.6209L2.29581 12.6144L2.30615 11.5227Z" fill="#F5F9E9"/>
<path d="M3.96338 11.5383L4.65705 11.5449L4.64671 12.6366L3.95304 12.63L3.96338 11.5383Z" fill="#F5F9E9"/>
<path d="M5.62085 11.554L6.31452 11.5605L6.30418 12.6522L5.61051 12.6456L5.62085 11.554Z" fill="#F5F9E9"/>
<path d="M7.27832 11.5696L7.97199 11.5762L7.96165 12.6678L7.26798 12.6612L7.27832 11.5696Z" fill="#F5F9E9"/>
<path d="M8.9353 11.5854L9.62897 11.592L9.61863 12.6837L8.92496 12.6771L8.9353 11.5854Z" fill="#F5F9E9"/>
<path d="M10.593 11.6011L11.2867 11.6076L11.2763 12.6993L10.5827 12.6927L10.593 11.6011Z" fill="#F5F9E9"/>
<path d="M12.2502 11.6169L12.9439 11.6235L12.9336 12.7152L12.2399 12.7086L12.2502 11.6169Z" fill="#F5F9E9"/>
<path d="M13.9075 11.6326L14.6011 11.6391L14.5908 12.7308L13.8971 12.7242L13.9075 11.6326Z" fill="#F5F9E9"/>
<path d="M15.5649 11.6482L16.2586 11.6548L16.2483 12.7464L15.5546 12.7399L15.5649 11.6482Z" fill="#F5F9E9"/>
<path d="M17.2222 11.6638L17.9158 11.6704L17.9055 12.7621L17.2118 12.7555L17.2222 11.6638Z" fill="#F5F9E9"/>
<path d="M18.8691 12.7714L18.9238 12.7719C19.0555 12.4188 19.1652 12.0551 19.2538 11.6832L18.8792 11.6797L18.8688 12.7714L18.8691 12.7714Z" fill="#F5F9E9"/>
<path d="M1.25073 13.2852C1.40678 13.6372 1.58186 13.9793 1.77844 14.3074L1.78808 13.2902L1.25073 13.2852Z" fill="#F5F9E9"/>
<path d="M2.75171 13.2996L3.44538 13.3061L3.43504 14.3978L2.74137 14.3912L2.75171 13.2996Z" fill="#F5F9E9"/>
<path d="M4.40918 13.3152L5.10285 13.3218L5.09251 14.4134L4.39884 14.4068L4.40918 13.3152Z" fill="#F5F9E9"/>
<path d="M6.06641 13.3308L6.76007 13.3374L6.74973 14.429L6.05606 14.4225L6.06641 13.3308Z" fill="#F5F9E9"/>
<path d="M7.72388 13.3464L8.41754 13.353L8.4072 14.4447L7.71354 14.4381L7.72388 13.3464Z" fill="#F5F9E9"/>
<path d="M9.3811 13.3623L10.0748 13.3689L10.0644 14.4605L9.37076 14.454L9.3811 13.3623Z" fill="#F5F9E9"/>
<path d="M11.0383 13.3779L11.732 13.3845L11.7217 14.4762L11.028 14.4696L11.0383 13.3779Z" fill="#F5F9E9"/>
<path d="M12.6958 13.3936L13.3895 13.4001L13.3791 14.4918L12.6855 14.4852L12.6958 13.3936Z" fill="#F5F9E9"/>
<path d="M14.3533 13.4094L15.0469 13.416L15.0366 14.5077L14.3429 14.5011L14.3533 13.4094Z" fill="#F5F9E9"/>
<path d="M16.0105 13.425L16.7042 13.4316L16.6938 14.5233L16.0002 14.5167L16.0105 13.425Z" fill="#F5F9E9"/>
<path d="M17.6677 13.4407L17.6574 14.5323L18.0427 14.536C18.1529 14.3636 18.2571 14.1876 18.3561 14.0081L18.3614 13.4472L17.6677 13.4407Z" fill="#F5F9E9"/>
<path d="M2.27344 14.9899L2.27288 15.0483C2.48556 15.337 2.71517 15.6122 2.95878 15.8746L2.96711 14.9963L2.27344 14.9897L2.27344 14.9899Z" fill="#F5F9E9"/>
<path d="M3.93066 15.0056L4.62433 15.0122L4.61399 16.1039L3.92032 16.0973L3.93066 15.0056Z" fill="#F5F9E9"/>
<path d="M5.58813 15.0215L6.2818 15.0281L6.27146 16.1197L5.57779 16.1131L5.58813 15.0215Z" fill="#F5F9E9"/>
<path d="M7.24536 15.0371L7.93903 15.0437L7.92869 16.1353L7.23502 16.1288L7.24536 15.0371Z" fill="#F5F9E9"/>
<path d="M8.90259 15.0527L9.59626 15.0593L9.58591 16.151L8.89225 16.1444L8.90259 15.0527Z" fill="#F5F9E9"/>
<path d="M10.5601 15.0684L11.2537 15.0749L11.2434 16.1666L10.5497 16.16L10.5601 15.0684Z" fill="#F5F9E9"/>
<path d="M12.2173 15.0842L12.911 15.0908L12.9006 16.1825L12.2069 16.1759L12.2173 15.0842Z" fill="#F5F9E9"/>
<path d="M13.8748 15.0999L14.5684 15.1064L14.5581 16.1981L13.8644 16.1915L13.8748 15.0999Z" fill="#F5F9E9"/>
<path d="M15.532 15.1155L16.2256 15.122L16.2153 16.2137L15.5216 16.2071L15.532 15.1155Z" fill="#F5F9E9"/>
<path d="M17.184 15.6775C17.3378 15.5022 17.4853 15.3215 17.6257 15.1352L17.1892 15.1311L17.184 15.6775Z" fill="#F5F9E9"/>
<path d="M4.37622 16.7825L4.37298 17.1242C4.59588 17.2849 4.82544 17.4367 5.06241 17.5783L5.06989 16.789L4.37622 16.7825Z" fill="#F5F9E9"/>
<path d="M6.03345 16.7983L6.72712 16.8049L6.71677 17.8966L6.02311 17.89L6.03345 16.7983Z" fill="#F5F9E9"/>
<path d="M7.69092 16.814L8.38459 16.8205L8.37424 17.9122L7.68058 17.9056L7.69092 16.814Z" fill="#F5F9E9"/>
<path d="M9.34839 16.8296L10.0421 16.8362L10.0317 17.9278L9.33805 17.9213L9.34839 16.8296Z" fill="#F5F9E9"/>
<path d="M11.0056 16.8452L11.6993 16.8518L11.6889 17.9435L10.9953 17.9369L11.0056 16.8452Z" fill="#F5F9E9"/>
<path d="M12.6628 16.8611L13.3565 16.8677L13.3462 17.9593L12.6525 17.9527L12.6628 16.8611Z" fill="#F5F9E9"/>
<path d="M14.3203 16.8769L14.3106 17.9039C14.549 17.7835 14.7817 17.6531 15.008 17.5138L15.014 16.8833L14.3203 16.8769Z" fill="#F5F9E9"/>
<path d="M7.2124 18.5046L7.21221 18.5249C7.43965 18.593 7.67006 18.6543 7.90423 18.7054L7.90607 18.5112L7.2124 18.5046Z" fill="#F5F9E9"/>
<path d="M8.86963 18.5203L8.86635 18.8667C9.09495 18.8932 9.32624 18.91 9.55957 18.92L9.5633 18.5268L8.86963 18.5203Z" fill="#F5F9E9"/>
<path d="M10.5273 18.536L10.5238 18.9146C10.7575 18.9016 10.9893 18.8807 11.2181 18.8513L11.221 18.5425L10.5273 18.5359L10.5273 18.536Z" fill="#F5F9E9"/>
<path d="M12.1834 18.6779C12.3408 18.6412 12.4968 18.6006 12.6512 18.5562L12.1846 18.5518L12.1834 18.6779Z" fill="#F5F9E9"/>
</svg>
