<svg width="261" height="194" viewBox="0 0 261 194" fill="none" xmlns="http://www.w3.org/2000/svg">
<g opacity="0.1" filter="url(#filter0_d_205_900)">
<path d="M174.89 -13.1353C154.021 -8.96933 133.182 -10.7552 113.135 -13.3529C93.0885 -15.9505 73.0914 -19.3427 52.2142 -18.3202C38.7843 -17.6639 23.8282 -14.5205 14.451 -5.38372C5.42462 3.40412 4.01819 15.2629 4.00065 25.9679C3.97725 34.02 4.5679 42.3518 9.39832 48.7666C12.755 53.2157 17.9217 56.4041 21.8135 60.5113C35.3545 74.7778 31.2375 97.2413 22.3516 116.34C18.182 125.301 13.0825 134.113 10.2433 143.284C7.40416 152.456 7.02697 162.283 12.1088 169.762C17.1322 177.137 26.872 181.33 37.0416 183.496C57.6674 187.897 80.647 185.165 102.881 181.462C152.086 173.264 200.785 160.442 249.378 147.651C267.358 142.915 285.416 138.158 302.738 131.332C312.358 127.532 322.153 122.803 328.367 115.442C336.262 106.116 336.46 93.3586 328.852 85.7349C316.086 72.9538 287.191 75.7899 277.317 61.178C271.884 53.1328 274.25 42.2068 278.574 32.5553C287.846 11.8569 305.767 -8.5928 303.446 -29.229C301.843 -43.3918 289.618 -55.1124 273.232 -58.1661C256.057 -61.3648 233.998 -55.299 224.109 -41.0463C213.943 -26.3619 193.317 -16.8107 174.89 -13.1353Z" fill="#F5F9E9"/>
</g>
<defs>
<filter id="filter0_d_205_900" x="0" y="-59" width="338.426" height="252.764" filterUnits="userSpaceOnUse" color-interpolation-filters="sRGB">
<feFlood flood-opacity="0" result="BackgroundImageFix"/>
<feColorMatrix in="SourceAlpha" type="matrix" values="0 0 0 0 0 0 0 0 0 0 0 0 0 0 0 0 0 0 127 0" result="hardAlpha"/>
<feOffset dy="4"/>
<feGaussianBlur stdDeviation="2"/>
<feComposite in2="hardAlpha" operator="out"/>
<feColorMatrix type="matrix" values="0 0 0 0 0 0 0 0 0 0 0 0 0 0 0 0 0 0 0.25 0"/>
<feBlend mode="normal" in2="BackgroundImageFix" result="effect1_dropShadow_205_900"/>
<feBlend mode="normal" in="SourceGraphic" in2="effect1_dropShadow_205_900" result="shape"/>
</filter>
</defs>
</svg>
