<svg width="425" height="335" viewBox="0 0 425 335" fill="none" xmlns="http://www.w3.org/2000/svg">
<path d="M238.797 269.252C241.058 269.252 242.89 267.196 242.89 264.659C242.89 262.122 241.058 260.065 238.797 260.065C236.537 260.065 234.705 262.122 234.705 264.659C234.705 267.196 236.537 269.252 238.797 269.252Z" fill="#DB5461"/>
<path opacity="0.1" d="M16.7656 81.5024C16.7624 81.9943 16.7073 82.4841 16.6015 82.9614C16.5659 83.3428 16.3989 83.6936 16.1362 83.939C15.8735 84.1845 15.5357 84.3054 15.1947 84.2759C12.9263 84.5651 10.7019 83.5628 8.59177 82.5803L4.48872 80.6677C4.00808 80.4443 3.52451 80.2175 3.06438 79.9415C2.19164 79.4128 1.41679 78.7024 0.781328 77.8483C0.650492 77.6978 0.558345 77.5104 0.514629 77.3061C0.43843 76.7277 1.04217 76.3827 1.4261 75.9916C1.53854 75.8724 1.63702 75.7377 1.71917 75.5907C2.85044 75.8634 4.25427 76.662 5.11884 76.9709C5.98483 77.2353 6.81636 77.6253 7.59239 78.1309C8.67091 78.9064 9.44755 80.1025 10.3619 81.0884C11.2763 82.0742 12.4574 82.9713 13.7323 82.8497C14.4064 82.7358 15.056 82.4841 15.649 82.1071L16.7656 81.5024Z" fill="black"/>
<path opacity="0.1" d="M152.641 314C198.15 314 235.043 307.468 235.043 299.411C235.043 291.354 198.15 284.822 152.641 284.822C107.131 284.822 70.2378 291.354 70.2378 299.411C70.2378 307.468 107.131 314 152.641 314Z" fill="#0B7A75"/>
<path d="M155.401 16.0311H149.881V149.542H155.401V16.0311Z" fill="#F5F9E9"/>
<path d="M188.503 148.854L188.175 154.853L187.703 163.344L187.509 166.872L187.045 175.362L186.843 178.89L186.371 187.38L181.043 283.668C180.811 287.811 179.178 291.699 176.475 294.542C173.772 297.384 170.202 298.967 166.493 298.969H138.784C135.077 298.967 131.509 297.383 128.809 294.54C126.109 291.697 124.479 287.809 124.251 283.668L118.907 187.314L118.443 178.824L118.249 175.296L117.769 166.806L117.575 163.278L117.111 154.787L116.774 148.788C116.716 147.638 116.867 146.486 117.219 145.404C117.571 144.322 118.116 143.331 118.821 142.491C119.526 141.652 120.376 140.982 121.32 140.522C122.263 140.062 123.281 139.822 124.31 139.816H180.976C182.009 139.823 183.031 140.066 183.978 140.53C184.925 140.995 185.777 141.671 186.482 142.517C187.187 143.364 187.73 144.362 188.077 145.452C188.425 146.542 188.57 147.699 188.503 148.854Z" fill="#ECA400"/>
<path d="M188.519 154.847L188.042 163.689H117.238L116.762 154.847H188.519Z" fill="#9D9CB5"/>
<path d="M187.731 167.226L187.264 175.184H118.025L117.55 167.226H187.731Z" fill="#9D9CB5"/>
<path d="M186.942 178.72L186.469 187.562H118.804L118.339 178.72H186.942Z" fill="#9D9CB5"/>
<path d="M108.756 65.6003C139.459 90.7527 152.246 130.09 152.246 130.09C152.246 130.09 115.254 128.653 84.5431 103.5C53.8317 78.3479 41.0613 39.0198 41.0613 39.0198C41.0613 39.0198 78.0612 40.4573 108.756 65.6003Z" fill="#0B7A75"/>
<path d="M41.0613 39.0198C41.0613 39.0198 79.4597 63.1301 91.7771 83.1267C104.094 103.123 152.246 130.09 152.246 130.09" stroke="#F5F9E9" stroke-width="2" stroke-miterlimit="10"/>
<path d="M128.784 15.4539C145.348 29.1185 152.246 50.5141 152.246 50.5141C152.246 50.5141 132.25 49.7248 115.729 36.0602C99.2071 22.3956 92.3169 1 92.3169 1C92.3169 1 112.229 1.77976 128.784 15.4539Z" fill="#0B7A75"/>
<path d="M92.3169 1C92.3169 1 113.287 14.1226 120.01 24.9821C126.733 35.8415 153.035 50.5141 153.035 50.5141" stroke="#F5F9E9" stroke-width="2" stroke-miterlimit="10"/>
<path d="M177.043 48.9234C157.895 72.6014 153.823 103.565 153.823 103.565C153.823 103.565 180.846 96.1095 199.995 72.4221C219.144 48.7347 223.215 17.7994 223.215 17.7994C223.215 17.7994 196.209 25.236 177.043 48.9234Z" fill="#0B7A75"/>
<path d="M223.215 17.7994C223.215 17.7994 198.255 42.0693 191.91 58.7902C185.565 75.5111 153.823 103.565 153.823 103.565" stroke="#F5F9E9" stroke-width="2" stroke-miterlimit="10"/>
<g clip-path="url(#clip0_83_4381)">
<path d="M278.59 260.237C278.022 258.859 277.959 257.32 278.414 255.899C278.868 254.479 279.81 253.269 281.068 252.49C281.487 252.232 281.104 251.563 280.683 251.823C279.24 252.695 278.162 254.073 277.655 255.696C277.148 257.318 277.246 259.073 277.931 260.627C278.123 261.083 278.781 260.69 278.59 260.237H278.59Z" fill="#F5F9E9"/>
<path d="M278.808 261.276C277.778 259.43 278.021 257.221 278.391 255.225C278.777 253.141 279.284 251.025 278.846 248.906C278.647 247.877 278.176 246.921 277.484 246.141C277.15 245.775 276.612 246.322 276.944 246.688C278.239 248.111 278.389 250.176 278.179 252.009C277.931 254.172 277.229 256.28 277.316 258.477C277.339 259.592 277.625 260.685 278.149 261.666C278.202 261.751 278.285 261.811 278.381 261.835C278.477 261.859 278.579 261.844 278.664 261.793C278.75 261.743 278.813 261.66 278.839 261.564C278.866 261.467 278.855 261.364 278.808 261.276L278.808 261.276Z" fill="#F5F9E9"/>
<path d="M284.332 267.171L271.358 267.171C271.055 267.171 270.764 267.048 270.549 266.831C270.334 266.614 270.214 266.319 270.213 266.012L270.213 262.154C270.214 261.163 270.604 260.213 271.296 259.512C271.989 258.811 272.928 258.417 273.907 258.415L275.81 258.415C275.911 258.415 276.008 258.375 276.08 258.302C276.151 258.23 276.192 258.132 276.192 258.029L276.192 256.227C276.192 256.056 276.259 255.892 276.378 255.772C276.497 255.651 276.659 255.583 276.828 255.583L278.863 255.583C279.031 255.583 279.193 255.651 279.312 255.772C279.431 255.892 279.499 256.056 279.499 256.227L279.499 258.029C279.499 258.132 279.539 258.23 279.611 258.302C279.682 258.375 279.779 258.415 279.88 258.415L281.783 258.415C282.763 258.417 283.701 258.811 284.394 259.512C285.086 260.213 285.476 261.163 285.477 262.154L285.477 266.012C285.477 266.319 285.356 266.614 285.141 266.831C284.927 267.048 284.636 267.171 284.332 267.171Z" fill="#CCCCCC"/>
<path d="M278.044 244.005C278.317 245.472 277.979 246.769 277.289 246.9C276.599 247.032 275.818 245.949 275.544 244.482C275.271 243.014 276.111 240.574 276.111 240.574C276.111 240.574 277.771 242.537 278.044 244.005Z" fill="#DB5461"/>
<path d="M283.283 250.832C282.418 252.042 281.256 252.684 280.687 252.267C280.118 251.85 280.358 250.532 281.223 249.322C282.088 248.112 284.416 247.052 284.416 247.052C284.416 247.052 284.148 249.622 283.283 250.832Z" fill="#0B7A75"/>
<path d="M254.677 167.532C254.109 166.154 254.046 164.615 254.501 163.194C254.955 161.774 255.897 160.564 257.155 159.785C257.574 159.527 257.191 158.858 256.77 159.118C255.327 159.99 254.249 161.368 253.742 162.991C253.235 164.613 253.333 166.368 254.018 167.922C254.21 168.378 254.868 167.985 254.677 167.532H254.677Z" fill="#F5F9E9"/>
<path d="M254.895 168.571C253.866 166.725 254.108 164.516 254.478 162.52C254.865 160.436 255.371 158.32 254.933 156.201C254.734 155.172 254.264 154.216 253.571 153.437C253.238 153.07 252.699 153.617 253.032 153.983C254.326 155.406 254.476 157.471 254.266 159.304C254.019 161.467 253.317 163.575 253.404 165.772C253.427 166.887 253.712 167.98 254.236 168.961C254.289 169.046 254.372 169.106 254.469 169.13C254.565 169.154 254.666 169.139 254.752 169.088C254.837 169.038 254.9 168.956 254.927 168.859C254.953 168.763 254.942 168.659 254.895 168.571L254.895 168.571Z" fill="#F5F9E9"/>
<path d="M260.419 174.466L247.445 174.466C247.142 174.466 246.851 174.343 246.636 174.126C246.421 173.909 246.301 173.614 246.3 173.307L246.3 169.449C246.301 168.458 246.691 167.508 247.383 166.807C248.076 166.106 249.015 165.712 249.994 165.71L251.897 165.71C251.998 165.71 252.095 165.67 252.167 165.597C252.238 165.525 252.278 165.427 252.279 165.324L252.279 163.522C252.279 163.351 252.346 163.187 252.465 163.067C252.584 162.946 252.746 162.878 252.915 162.878L254.95 162.878C255.118 162.878 255.28 162.946 255.399 163.067C255.518 163.187 255.585 163.351 255.586 163.522L255.586 165.324C255.586 165.427 255.626 165.525 255.698 165.597C255.769 165.67 255.866 165.71 255.967 165.71L257.87 165.71C258.849 165.712 259.788 166.106 260.481 166.807C261.173 167.508 261.563 168.458 261.564 169.449L261.564 173.307C261.564 173.614 261.443 173.909 261.228 174.126C261.014 174.343 260.723 174.466 260.419 174.466Z" fill="#CCCCCC"/>
<path d="M254.132 151.3C254.405 152.767 254.067 154.064 253.376 154.195C252.686 154.327 251.905 153.244 251.632 151.777C251.359 150.309 252.199 147.869 252.199 147.869C252.199 147.869 253.859 149.832 254.132 151.3Z" fill="#0B7A75"/>
<path d="M259.37 158.127C258.505 159.337 257.343 159.979 256.774 159.562C256.205 159.145 256.444 157.827 257.31 156.617C258.175 155.408 260.503 154.348 260.503 154.348C260.503 154.348 260.235 156.918 259.37 158.127Z" fill="#ECA400"/>
<path d="M228.874 214.252L218.444 214.252L218.444 218.115L228.874 218.115L228.874 214.252Z" fill="#ECA400"/>
<path d="M228.874 226.87L218.444 226.87L218.444 230.733L228.874 230.733L228.874 226.87Z" fill="#ECA400"/>
<path d="M292.473 296.914L214.628 296.914C213.482 296.913 212.383 296.451 211.572 295.63C210.761 294.809 210.305 293.697 210.304 292.536L210.304 148.586C210.305 147.425 210.761 146.312 211.572 145.492C212.383 144.671 213.482 144.209 214.628 144.208L292.473 144.208C293.619 144.209 294.719 144.671 295.529 145.492C296.34 146.312 296.796 147.425 296.797 148.586L296.797 292.536C296.796 293.697 296.34 294.809 295.529 295.63C294.719 296.451 293.619 296.913 292.473 296.914ZM214.628 144.723C213.617 144.724 212.647 145.132 211.931 145.856C211.216 146.58 210.814 147.562 210.812 148.586L210.812 292.536C210.814 293.56 211.216 294.542 211.931 295.266C212.647 295.99 213.617 296.398 214.628 296.399L292.473 296.399C293.484 296.398 294.454 295.99 295.17 295.266C295.885 294.542 296.287 293.56 296.289 292.536L296.289 148.586C296.287 147.562 295.885 146.58 295.17 145.856C294.454 145.132 293.484 144.724 292.473 144.723L214.628 144.723Z" fill="#F5F9E9"/>
<path d="M296.543 173.939L210.558 173.939L210.558 174.454L296.543 174.454L296.543 173.939Z" fill="#F5F9E9"/>
<path d="M296.543 204.849L210.558 204.849L210.558 205.364L296.543 205.364L296.543 204.849Z" fill="#F5F9E9"/>
<path d="M296.543 235.758L210.558 235.758L210.558 236.273L296.543 236.273L296.543 235.758Z" fill="#F5F9E9"/>
<path d="M296.543 266.668L210.558 266.668L210.558 267.183L296.543 267.183L296.543 266.668Z" fill="#F5F9E9"/>
<path d="M228.111 236.398L219.462 236.398C219.125 236.398 218.801 236.262 218.563 236.02C218.324 235.779 218.19 235.452 218.19 235.11L218.19 210.132C218.19 209.79 218.324 209.463 218.563 209.222C218.801 208.98 219.125 208.844 219.462 208.844L228.111 208.844C228.449 208.844 228.772 208.98 229.01 209.222C229.249 209.463 229.383 209.79 229.383 210.132L229.383 235.11C229.383 235.452 229.249 235.779 229.01 236.02C228.772 236.262 228.449 236.398 228.111 236.398ZM219.462 209.359C219.26 209.359 219.066 209.441 218.923 209.586C218.779 209.73 218.699 209.927 218.699 210.132L218.699 235.11C218.699 235.315 218.779 235.512 218.923 235.656C219.066 235.801 219.26 235.883 219.462 235.883L228.111 235.883C228.314 235.883 228.508 235.801 228.651 235.656C228.794 235.512 228.874 235.315 228.874 235.11L228.874 210.132C228.874 209.927 228.794 209.73 228.651 209.586C228.508 209.441 228.314 209.359 228.111 209.359L219.462 209.359Z" fill="#F5F9E9"/>
<path d="M244.901 214.252L234.471 214.252L234.471 218.115L244.901 218.115L244.901 214.252Z" fill="#ECA400"/>
<path d="M244.901 226.87L234.471 226.87L234.471 230.733L244.901 230.733L244.901 226.87Z" fill="#ECA400"/>
<path d="M244.138 236.398L235.489 236.398C235.152 236.398 234.828 236.262 234.59 236.02C234.351 235.779 234.217 235.452 234.217 235.11L234.217 210.132C234.217 209.79 234.351 209.463 234.59 209.222C234.828 208.98 235.152 208.844 235.489 208.844L244.138 208.844C244.475 208.844 244.799 208.98 245.037 209.222C245.276 209.463 245.41 209.79 245.41 210.132L245.41 235.11C245.41 235.452 245.276 235.779 245.037 236.02C244.799 236.262 244.475 236.398 244.138 236.398ZM235.489 209.359C235.286 209.359 235.092 209.441 234.949 209.586C234.806 209.73 234.726 209.927 234.726 210.132L234.726 235.11C234.726 235.315 234.806 235.512 234.949 235.656C235.092 235.801 235.286 235.883 235.489 235.883L244.138 235.883C244.34 235.883 244.534 235.801 244.678 235.656C244.821 235.512 244.901 235.315 244.901 235.11L244.901 210.132C244.901 209.927 244.821 209.73 244.678 209.586C244.534 209.441 244.34 209.359 244.138 209.359L235.489 209.359Z" fill="#F5F9E9"/>
<path d="M270.341 183.093L259.911 183.093L259.911 186.955L270.341 186.955L270.341 183.093Z" fill="#ECA400"/>
<path d="M270.341 195.711L259.911 195.711L259.911 199.574L270.341 199.574L270.341 195.711Z" fill="#ECA400"/>
<path d="M269.578 205.239L260.928 205.239C260.591 205.238 260.268 205.103 260.029 204.861C259.791 204.62 259.657 204.293 259.656 203.951L259.656 178.972C259.657 178.631 259.791 178.304 260.029 178.062C260.268 177.821 260.591 177.685 260.928 177.685L269.578 177.685C269.915 177.685 270.238 177.821 270.477 178.062C270.715 178.304 270.849 178.631 270.85 178.972L270.85 203.951C270.849 204.293 270.715 204.62 270.477 204.861C270.238 205.103 269.915 205.238 269.578 205.239ZM260.928 178.2C260.726 178.2 260.532 178.282 260.389 178.426C260.246 178.571 260.165 178.768 260.165 178.972L260.165 203.951C260.165 204.156 260.246 204.352 260.389 204.497C260.532 204.642 260.726 204.724 260.928 204.724L269.578 204.724C269.78 204.724 269.974 204.642 270.117 204.497C270.26 204.352 270.341 204.156 270.341 203.951L270.341 178.972C270.341 178.768 270.26 178.571 270.117 178.426C269.974 178.282 269.78 178.2 269.578 178.2L260.928 178.2Z" fill="#F5F9E9"/>
<path d="M286.367 183.093L275.937 183.093L275.937 186.955L286.367 186.955L286.367 183.093Z" fill="#ECA400"/>
<path d="M286.367 195.711L275.937 195.711L275.937 199.574L286.367 199.574L286.367 195.711Z" fill="#ECA400"/>
<path d="M285.604 205.239L276.955 205.239C276.617 205.238 276.294 205.103 276.056 204.861C275.817 204.62 275.683 204.293 275.683 203.951L275.683 178.972C275.683 178.631 275.817 178.304 276.056 178.062C276.294 177.821 276.617 177.685 276.955 177.685L285.604 177.685C285.941 177.685 286.265 177.821 286.503 178.062C286.741 178.304 286.876 178.631 286.876 178.972L286.876 203.951C286.876 204.293 286.741 204.62 286.503 204.861C286.265 205.103 285.941 205.238 285.604 205.239ZM276.955 178.2C276.752 178.2 276.558 178.282 276.415 178.426C276.272 178.571 276.192 178.768 276.191 178.972L276.191 203.951C276.192 204.156 276.272 204.352 276.415 204.497C276.558 204.642 276.752 204.724 276.955 204.724L285.604 204.724C285.806 204.724 286 204.642 286.143 204.497C286.286 204.352 286.367 204.156 286.367 203.951L286.367 178.972C286.367 178.768 286.286 178.571 286.143 178.426C286 178.282 285.806 178.2 285.604 178.2L276.955 178.2Z" fill="#F5F9E9"/>
<path d="M257.695 211.945L247.931 215.659L249.273 219.275L259.037 215.561L257.695 211.945Z" fill="#ECA400"/>
<path d="M262.079 223.757L252.316 227.471L253.658 231.087L263.422 227.373L262.079 223.757Z" fill="#ECA400"/>
<path d="M256.131 236.11C255.872 236.11 255.62 236.03 255.407 235.88C255.195 235.731 255.032 235.52 254.941 235.275L246.261 211.892C246.143 211.573 246.155 211.219 246.294 210.908C246.433 210.597 246.689 210.355 247.004 210.234L255.101 207.155C255.257 207.095 255.424 207.067 255.591 207.073C255.758 207.079 255.922 207.117 256.074 207.187C256.226 207.257 256.363 207.357 256.477 207.48C256.591 207.604 256.68 207.749 256.739 207.907L265.419 231.289C265.537 231.609 265.525 231.963 265.386 232.274C265.247 232.585 264.991 232.827 264.676 232.948L264.676 232.948L256.579 236.027C256.436 236.082 256.284 236.11 256.131 236.11ZM255.549 207.587C255.457 207.587 255.366 207.604 255.28 207.637L247.183 210.716C246.994 210.789 246.841 210.934 246.757 211.121C246.673 211.307 246.666 211.52 246.737 211.711L255.417 235.094C255.452 235.189 255.506 235.276 255.574 235.35C255.643 235.424 255.725 235.484 255.816 235.526C255.908 235.568 256.006 235.591 256.106 235.594C256.206 235.598 256.306 235.581 256.4 235.545L264.497 232.466C264.686 232.393 264.839 232.248 264.923 232.061C265.007 231.875 265.014 231.662 264.943 231.471L256.263 208.088C256.208 207.941 256.11 207.814 255.983 207.725C255.855 207.635 255.704 207.587 255.549 207.587Z" fill="#F5F9E9"/>
<path d="M222.588 181.301L212.825 185.015L214.167 188.63L223.931 184.917L222.588 181.301Z" fill="#ECA400"/>
<path d="M226.973 193.113L217.209 196.826L218.552 200.442L228.315 196.728L226.973 193.113Z" fill="#ECA400"/>
<path d="M221.025 205.466C220.766 205.466 220.514 205.385 220.301 205.236C220.089 205.087 219.926 204.876 219.835 204.631L211.155 181.248C211.037 180.929 211.049 180.575 211.188 180.264C211.327 179.953 211.583 179.711 211.898 179.59L219.995 176.51C220.151 176.451 220.318 176.423 220.485 176.429C220.652 176.434 220.816 176.473 220.968 176.543C221.12 176.613 221.257 176.713 221.371 176.836C221.485 176.96 221.574 177.105 221.633 177.263L230.313 200.645C230.431 200.965 230.419 201.319 230.28 201.63C230.141 201.941 229.885 202.183 229.57 202.303L229.57 202.303L221.473 205.383C221.33 205.438 221.178 205.466 221.025 205.466ZM220.443 176.943C220.351 176.943 220.26 176.96 220.174 176.993L212.077 180.072C211.888 180.145 211.735 180.29 211.651 180.476C211.567 180.663 211.56 180.875 211.631 181.067L220.311 204.45C220.347 204.545 220.4 204.632 220.468 204.706C220.537 204.78 220.619 204.84 220.71 204.881C220.802 204.923 220.9 204.947 221 204.95C221.1 204.953 221.2 204.937 221.294 204.901L229.391 201.821C229.58 201.749 229.733 201.604 229.817 201.417C229.901 201.231 229.908 201.018 229.837 200.826L221.157 177.444C221.102 177.297 221.004 177.17 220.877 177.081C220.749 176.991 220.598 176.943 220.443 176.943Z" fill="#F5F9E9"/>
<path d="M369.808 208.586C374.164 208.586 377.694 205.012 377.694 200.604C377.694 196.195 374.164 192.621 369.808 192.621C365.453 192.621 361.922 196.195 361.922 200.604C361.922 205.012 365.453 208.586 369.808 208.586Z" fill="#2F2E41"/>
<path d="M334.773 237.034C335.146 237.18 335.545 237.242 335.944 237.215C336.343 237.188 336.73 237.072 337.08 236.877C337.43 236.682 337.733 236.411 337.969 236.084C338.204 235.757 338.366 235.382 338.442 234.986L360.126 221.137L356.18 216.639L336.097 231.675C335.43 231.589 334.754 231.754 334.199 232.138C333.644 232.522 333.247 233.099 333.084 233.76C332.92 234.42 333.002 235.118 333.314 235.722C333.625 236.325 334.144 236.792 334.773 237.034Z" fill="#FFB8B8"/>
<path d="M355.599 224.819C355.407 224.819 355.219 224.771 355.05 224.678C354.881 224.585 354.738 224.451 354.634 224.287L352.123 220.337C351.965 220.088 351.907 219.787 351.961 219.495C352.016 219.204 352.178 218.945 352.416 218.771L360.818 212.624C361.226 212.325 361.689 212.113 362.179 211.999C362.669 211.884 363.177 211.871 363.673 211.959C364.168 212.047 364.641 212.235 365.064 212.511C365.486 212.787 365.85 213.147 366.133 213.568C366.416 213.989 366.612 214.463 366.711 214.963C366.81 215.462 366.809 215.976 366.708 216.475C366.606 216.974 366.408 217.447 366.123 217.867C365.838 218.287 365.472 218.644 365.049 218.919L356.214 224.637C356.03 224.756 355.817 224.819 355.599 224.819Z" fill="#3F3D56"/>
<path d="M359.351 293.785L356.232 293.785L354.749 281.607L359.352 281.608L359.351 293.785Z" fill="#FFB8B8"/>
<path d="M354.005 292.883L360.02 292.883L360.02 296.716L350.218 296.716C350.218 296.213 350.316 295.714 350.506 295.249C350.696 294.784 350.975 294.362 351.327 294.006C351.679 293.65 352.096 293.367 352.556 293.175C353.015 292.982 353.508 292.883 354.005 292.883Z" fill="#F5F9E9"/>
<path d="M373.911 291.425L370.908 292.278L366.228 280.96L370.66 279.7L373.911 291.425Z" fill="#FFB8B8"/>
<path d="M368.523 292.019L374.314 290.373L375.337 294.064L365.9 296.746C365.766 296.261 365.727 295.754 365.786 295.255C365.845 294.755 366.001 294.271 366.244 293.833C366.488 293.394 366.814 293.007 367.205 292.696C367.596 292.385 368.044 292.155 368.523 292.019Z" fill="#F5F9E9"/>
<path d="M382.314 272.737L370.206 258.272L377.553 249.248C377.661 249.115 377.796 249.009 377.95 248.936C378.103 248.863 378.271 248.825 378.44 248.826C378.609 248.826 378.777 248.865 378.929 248.939C379.082 249.013 379.217 249.12 379.324 249.253L390.442 263.064L382.314 272.737Z" fill="#ECA400"/>
<path d="M370.695 258.379C370.873 258.054 371.095 257.755 371.353 257.49L378.366 250.293C378.64 250.01 379.011 249.842 379.403 249.822C380.204 249.784 381.518 249.866 381.884 250.756L372.416 258.597L370.695 258.379Z" fill="#F2F2F2"/>
<path d="M382.735 275.797C382.195 275.781 381.67 275.613 381.22 275.312L381.186 275.277L370.097 258.108L371.937 257.928L381.799 250.142C381.923 250.043 382.067 249.972 382.22 249.933C382.373 249.893 382.532 249.886 382.688 249.912C382.844 249.938 382.992 249.996 383.125 250.083C383.258 250.169 383.371 250.283 383.458 250.416L394.238 266.933C394.404 267.188 394.463 267.499 394.404 267.798C394.346 268.097 394.173 268.361 393.923 268.532L383.492 275.653C383.251 275.749 382.994 275.799 382.735 275.797Z" fill="#A4A3A4"/>
<path d="M378.813 264.053C378.709 264.054 378.606 264.028 378.514 263.978C378.421 263.929 378.343 263.857 378.284 263.769L377.01 261.854C376.916 261.712 376.882 261.539 376.914 261.371C376.946 261.203 377.043 261.056 377.183 260.96L383.719 256.506C383.859 256.411 384.03 256.376 384.196 256.409C384.361 256.442 384.507 256.539 384.601 256.681L385.875 258.596C385.969 258.738 386.004 258.912 385.972 259.079C385.939 259.247 385.843 259.395 385.703 259.49L379.167 263.944C379.062 264.015 378.939 264.053 378.813 264.053Z" fill="#3F3D56"/>
<path d="M354.255 291.943C353.908 291.942 353.573 291.809 353.317 291.571C353.061 291.332 352.902 291.006 352.872 290.655C352.317 284.272 349.533 252.105 349.227 245.609C348.887 238.391 354.822 226.972 354.882 226.858L354.923 226.779L357.856 227.15L357.856 227.496L360.648 227.828L366.051 228.357L367.597 247.495L368.281 260.475L374.707 286.984C374.78 287.278 374.736 287.588 374.584 287.849C374.432 288.11 374.185 288.3 373.896 288.378L368.304 289.922C368.013 290.001 367.704 289.961 367.441 289.812C367.179 289.662 366.985 289.414 366.902 289.121L361.636 270.398C361.611 270.308 361.554 270.23 361.475 270.179C361.397 270.128 361.303 270.108 361.211 270.122C361.119 270.137 361.035 270.185 360.976 270.257C360.916 270.33 360.885 270.422 360.888 270.516L361.445 288.773C361.448 288.96 361.413 289.146 361.342 289.319C361.271 289.492 361.166 289.649 361.034 289.78C359.752 290.999 356.365 291.649 354.46 291.929C354.392 291.938 354.324 291.943 354.255 291.943Z" fill="#B88565"/>
<path d="M371.059 211.52C370.172 210.584 364.325 211.871 363.027 213.25L354.139 227.956L368.838 230.724L372.085 212.039L371.059 211.52Z" fill="#ECA400"/>
<path d="M367.207 248.882C366.89 248.882 366.576 248.829 366.277 248.725C365.423 248.429 364.376 248.118 363.166 247.803C357.866 246.424 355.995 242.007 357.604 234.675L357.645 234.489C359.156 227.535 362.005 220.949 366.029 215.108L366.652 214.202C367.405 213.108 368.458 212.263 369.681 211.77C370.904 211.278 372.244 211.16 373.532 211.432C375.917 211.93 377.197 212.651 377.338 213.577C377.614 215.392 372.287 237.337 369.984 246.688C369.83 247.315 369.473 247.872 368.969 248.27C368.466 248.667 367.845 248.883 367.207 248.882L367.207 248.882Z" fill="#3F3D56"/>
<path d="M348.949 246.065C348.81 246.065 348.672 246.043 348.54 246L346.823 245.444C346.645 245.387 346.481 245.292 346.342 245.167C346.202 245.042 346.09 244.888 346.013 244.717C345.935 244.545 345.894 244.359 345.891 244.17C345.889 243.981 345.925 243.794 345.998 243.621L355.114 221.963C356.86 217.831 359.914 214.404 363.794 212.222L363.794 212.222C363.851 212.19 363.913 212.171 363.977 212.165C364.041 212.159 364.105 212.166 364.166 212.186C364.222 212.205 364.274 212.234 364.318 212.274C364.362 212.313 364.397 212.362 364.422 212.416C365.494 214.803 359.659 226.101 354.97 235.179C352.57 239.827 350.496 243.842 350.26 244.987C350.197 245.292 350.033 245.565 349.794 245.762C349.555 245.958 349.257 246.065 348.949 246.065Z" fill="#3F3D56"/>
<path d="M377.15 251C377.47 250.758 377.734 250.448 377.923 250.092C378.112 249.735 378.222 249.342 378.244 248.938C378.266 248.534 378.201 248.13 378.052 247.755C377.904 247.379 377.676 247.041 377.384 246.765L377.312 220.811L371.451 221.807L373.368 247.018C372.941 247.544 372.72 248.211 372.747 248.891C372.773 249.572 373.045 250.219 373.512 250.71C373.978 251.2 374.606 251.501 375.276 251.555C375.947 251.608 376.614 251.411 377.15 251Z" fill="#FFB8B8"/>
<path d="M372.377 227.25C372.087 227.25 371.807 227.138 371.595 226.937C371.383 226.736 371.255 226.461 371.236 226.168L370.554 215.696C370.489 214.688 370.822 213.696 371.48 212.936C372.137 212.177 373.065 211.713 374.06 211.645C374.571 211.611 375.084 211.683 375.566 211.856C376.049 212.03 376.492 212.301 376.867 212.654C377.242 213.006 377.543 213.433 377.749 213.907C377.956 214.381 378.065 214.893 378.07 215.411L378.162 226.026C378.165 226.333 378.047 226.628 377.835 226.847C377.623 227.066 377.334 227.191 377.031 227.195L372.391 227.25L372.377 227.25Z" fill="#3F3D56"/>
<path d="M368.184 208.993C371.634 208.993 374.432 206.161 374.432 202.668C374.432 199.175 371.634 196.343 368.184 196.343C364.733 196.343 361.936 199.175 361.936 202.668C361.936 206.161 364.733 208.993 368.184 208.993Z" fill="#FFB8B8"/>
<path d="M373.379 207.093C373.845 205.592 374.273 203.822 373.35 202.555C372.686 201.643 371.493 201.289 370.374 201.239C369.255 201.188 368.133 201.38 367.016 201.29C365.9 201.2 364.719 200.754 364.152 199.777C363.417 198.509 364.04 196.763 365.222 195.909C366.405 195.055 367.967 194.936 369.406 195.135C371.227 195.354 372.939 196.129 374.313 197.357C375.651 198.607 376.523 200.408 376.484 202.25C376.445 204.092 375.425 205.927 373.798 206.754" fill="#2F2E41"/>
<path d="M371.821 193.273C370.325 192.807 369.635 190.805 370.304 189.373C370.973 187.94 372.683 187.19 374.236 187.39C375.788 187.589 377.156 188.598 378.1 189.862C379.044 191.126 379.613 192.632 380.087 194.142C380.562 195.652 380.956 197.194 381.604 198.636C382.633 200.852 384.219 202.755 386.204 204.154C388.189 205.552 390.502 206.398 392.912 206.604C393.963 206.681 395.053 206.626 396.01 206.182C396.967 205.737 397.77 204.841 397.877 203.781C398.422 207.548 396.257 211.552 392.829 213.117C389.4 214.683 385.002 213.675 382.573 210.769C380.199 207.928 379.832 203.917 379.889 200.197C379.905 199.177 379.942 198.137 379.663 197.157C379.385 196.176 378.726 195.244 377.766 194.932C376.992 194.681 376.153 194.862 375.359 195.04C374.565 195.219 373.722 195.39 372.953 195.122C372.185 194.853 371.566 193.968 371.875 193.207" fill="#2F2E41"/>
<path d="M396.541 297.171L329.381 297.171C329.313 297.171 329.249 297.144 329.201 297.096C329.153 297.048 329.126 296.982 329.126 296.914C329.126 296.845 329.153 296.78 329.201 296.732C329.249 296.683 329.313 296.656 329.381 296.656L396.541 296.656C396.608 296.656 396.673 296.683 396.721 296.732C396.768 296.78 396.795 296.845 396.795 296.914C396.795 296.982 396.768 297.048 396.721 297.096C396.673 297.144 396.608 297.171 396.541 297.171Z" fill="#CCCCCC"/>
</g>
<defs>
<clipPath id="clip0_83_4381">
<rect width="188.556" height="152.317" fill="white" transform="translate(210.304 144.208) scale(0.995231 1.00424)"/>
</clipPath>
</defs>
</svg>
