<svg width="480" height="388" viewBox="0 0 480 388" fill="none" xmlns="http://www.w3.org/2000/svg">
<path d="M384.022 344.379H11.0503V345.182H384.022V344.379Z" fill="#3F3D56"/>
<path d="M377.557 179.084C374.192 191.527 362.665 199.233 362.665 199.233C362.665 199.233 356.595 186.766 359.96 174.323C363.325 161.881 374.852 154.175 374.852 154.175C374.852 154.175 380.923 166.642 377.557 179.084Z" fill="#0B7A75"/>
<path d="M346.943 179.084C350.308 191.527 361.835 199.233 361.835 199.233C361.835 199.233 367.905 186.766 364.54 174.323C361.175 161.881 349.648 154.175 349.648 154.175C349.648 154.175 343.577 166.642 346.943 179.084Z" fill="#ECA400"/>
<path d="M372.612 176.41C363.378 185.401 362.25 199.223 362.25 199.223C362.25 199.223 376.094 198.467 385.328 189.476C394.562 180.485 395.69 166.663 395.69 166.663C395.69 166.663 381.846 167.419 372.612 176.41Z" fill="#3F3D56"/>
<path d="M34.6217 193.003C38.8346 193.003 42.2498 189.587 42.2498 185.373C42.2498 181.16 38.8346 177.744 34.6217 177.744C30.4089 177.744 26.9937 181.16 26.9937 185.373C26.9937 189.587 30.4089 193.003 34.6217 193.003Z" fill="#DB5461"/>
<path d="M326.303 93.2565C330.516 93.2565 333.931 89.8406 333.931 85.6269C333.931 81.4132 330.516 77.9973 326.303 77.9973C322.09 77.9973 318.675 81.4132 318.675 85.6269C318.675 89.8406 322.09 93.2565 326.303 93.2565Z" fill="#DB5461"/>
<path d="M431.278 281.5C435.491 281.5 438.907 278.084 438.907 273.87C438.907 269.657 435.491 266.241 431.278 266.241C427.066 266.241 423.65 269.657 423.65 273.87C423.65 278.084 427.066 281.5 431.278 281.5Z" fill="#3F3D56"/>
<mask id="path-8-inside-1_118_20480" fill="white">
<path d="M384.703 342.465H11.2476V343.234H384.703V342.465Z"/>
</mask>
<path d="M384.703 342.465H11.2476V343.234H384.703V342.465Z" fill="#3F3D56"/>
<path d="M11.339 342.957L438.738 263.478L438.556 262.495L11.1561 341.974L11.339 342.957ZM11.2476 342.465V341.465H10.2476V342.465H11.2476ZM384.703 342.465H385.703V341.465H384.703V342.465ZM384.703 343.234V344.234H385.703V343.234H384.703ZM11.2476 343.234H10.2476V344.234H11.2476V343.234ZM11.2476 343.465H384.703V341.465H11.2476V343.465ZM383.703 342.465V343.234H385.703V342.465H383.703ZM384.703 342.234H11.2476V344.234H384.703V342.234ZM12.2476 343.234V342.465H10.2476V343.234H12.2476Z" fill="#F5F9E9" mask="url(#path-8-inside-1_118_20480)"/>
<path d="M46.9396 149.933L46.7426 150.393L47.2021 150.59L232.63 230.122L323.579 269.132L324.039 269.329L324.236 268.869L324.491 268.274L324.688 267.815L324.229 267.618L234.189 228.999L53.6665 151.57L47.8513 149.076L47.3917 148.879L47.1947 149.338L46.9396 149.933Z" stroke="#3F3D56"/>
<path d="M431.244 276.174L42.0898 186.743L41.9898 187.179L431.144 276.61L431.244 276.174Z" fill="#3F3D56"/>
<path d="M333.436 214.328C333.488 231.32 330.191 248.155 323.734 263.872C317.277 279.59 307.787 293.88 295.806 305.927C294.485 307.256 293.135 308.554 291.755 309.822C290.093 311.356 288.388 312.843 286.64 314.283C286.307 314.56 285.974 314.833 285.637 315.102C278.732 320.699 271.255 325.548 263.33 329.571C262.861 329.808 262.391 330.044 261.917 330.277C261.167 330.647 260.408 331.008 259.649 331.362C231.56 344.435 199.616 346.603 170.019 337.445C118.201 321.359 80.5059 272.325 80.5059 214.328C80.5059 143.248 137.126 85.6284 206.971 85.6284C276.816 85.6284 333.436 143.248 333.436 214.328Z" fill="#F5F9E9"/>
<path d="M235.129 187.33L235.229 187.326L234.833 186.456C234.388 185.224 233.845 184.03 233.207 182.886L221.591 157.374C221.22 156.56 220.62 155.872 219.863 155.394C219.107 154.916 218.228 154.67 217.333 154.685L202.622 154.93C201.671 154.946 200.748 155.257 199.981 155.82C199.214 156.382 198.64 157.17 198.34 158.073L189.091 185.855C188.787 186.633 188.523 187.427 188.3 188.232L187.986 189.175L188.06 189.172C187.203 192.836 187.203 196.649 188.062 200.312C188.92 203.976 190.612 207.392 193.007 210.294C195.402 213.196 198.434 215.505 201.868 217.042C205.302 218.579 209.045 219.303 212.804 219.155C216.563 219.008 220.237 217.995 223.541 216.194C226.844 214.393 229.687 211.853 231.847 208.773C234.008 205.693 235.428 202.155 235.998 198.435C236.567 194.716 236.269 190.915 235.129 187.33H235.129Z" fill="#3F3D56"/>
<path d="M207.711 161.169L203.082 186.48L203.604 186.576L208.234 161.264L207.711 161.169Z" fill="#DB5461"/>
<path d="M213.274 161.076L212.755 161.188L218.22 186.333L218.739 186.22L213.274 161.076Z" fill="#DB5461"/>
<path d="M201.018 142.471L219.87 142.157C220.01 142.155 220.146 142.209 220.248 142.307C220.349 142.405 220.407 142.539 220.409 142.68C220.412 142.82 220.358 142.956 220.26 143.058C220.162 143.159 220.028 143.217 219.887 143.22L201.036 143.534C200.966 143.535 200.897 143.522 200.832 143.497C200.767 143.471 200.708 143.433 200.658 143.384C200.608 143.336 200.568 143.278 200.54 143.214C200.512 143.15 200.497 143.081 200.496 143.011C200.495 142.942 200.508 142.872 200.533 142.807C200.559 142.743 200.597 142.683 200.645 142.633C200.694 142.583 200.752 142.543 200.816 142.515C200.88 142.487 200.949 142.473 201.018 142.471Z" fill="#3F3D56"/>
<path d="M201.218 146.453L220.069 146.139C220.21 146.136 220.346 146.19 220.447 146.288C220.548 146.386 220.606 146.52 220.609 146.661C220.611 146.802 220.557 146.938 220.459 147.039C220.361 147.14 220.227 147.199 220.087 147.201L201.235 147.515C201.094 147.517 200.958 147.464 200.857 147.366C200.756 147.268 200.698 147.134 200.695 146.993C200.693 146.852 200.747 146.716 200.845 146.615C200.943 146.513 201.077 146.455 201.218 146.453Z" fill="#3F3D56"/>
<path d="M201.417 150.434L220.268 150.12C220.409 150.118 220.545 150.171 220.646 150.269C220.747 150.367 220.806 150.501 220.808 150.642C220.81 150.783 220.757 150.919 220.659 151.02C220.561 151.122 220.427 151.18 220.286 151.182L201.434 151.496C201.294 151.499 201.158 151.445 201.056 151.347C200.955 151.249 200.897 151.115 200.895 150.974C200.892 150.833 200.946 150.697 201.044 150.596C201.142 150.495 201.276 150.436 201.417 150.434Z" fill="#3F3D56"/>
<path d="M210.381 138.526C206.642 138.588 203.645 140.723 203.688 143.295L217.229 143.069C217.186 140.498 214.12 138.464 210.381 138.526Z" fill="#3F3D56"/>
<path d="M212.464 190.219C213.203 190.268 213.903 190.568 214.45 191.067C214.59 191.183 214.728 191.305 214.866 191.427C215.302 191.883 215.837 192.233 216.43 192.451C217.728 192.805 219.009 191.779 220.09 190.728L220.46 191.109C219.271 192.264 217.847 193.388 216.29 192.963C215.618 192.727 215.01 192.337 214.514 191.825C214.38 191.707 214.246 191.589 214.111 191.476C213.667 191.108 212.81 190.535 212.048 190.832C211.732 190.986 211.451 191.203 211.221 191.47C211.044 191.657 210.852 191.83 210.647 191.987C210.229 192.284 209.732 192.45 209.219 192.466C208.706 192.481 208.201 192.344 207.765 192.073C207.609 191.968 207.458 191.855 207.314 191.734C207.078 191.5 206.784 191.332 206.461 191.249C206.01 191.185 205.6 191.508 205.165 191.848C204.755 192.248 204.229 192.509 203.663 192.595C203.643 192.596 203.624 192.597 203.605 192.597C202.546 192.615 201.875 191.556 201.46 190.751L201.932 190.508C202.496 191.602 203.04 192.101 203.635 192.065C204.09 191.977 204.508 191.757 204.837 191.431C205.34 191.036 205.86 190.628 206.535 190.723C206.955 190.814 207.34 191.022 207.648 191.321C207.777 191.43 207.912 191.531 208.052 191.626C208.398 191.837 208.798 191.944 209.203 191.931C209.609 191.919 210.002 191.79 210.334 191.558C210.516 191.417 210.687 191.262 210.846 191.095C211.125 190.774 211.469 190.516 211.855 190.337C212.049 190.262 212.256 190.221 212.464 190.219Z" fill="#DB5461"/>
<path d="M210.98 85.5061H210.428V138.504H210.98V85.5061Z" fill="#3F3D56"/>
<path d="M351.888 174.656C361.122 183.647 362.25 197.469 362.25 197.469C362.25 197.469 348.406 196.713 339.172 187.722C329.937 178.73 328.81 164.909 328.81 164.909C328.81 164.909 342.653 165.665 351.888 174.656Z" fill="#3F3D56"/>
<path d="M48.7474 322.694C45.3821 335.136 33.8554 342.842 33.8554 342.842C33.8554 342.842 27.7848 330.375 31.15 317.933C34.5153 305.49 46.042 297.784 46.042 297.784C46.042 297.784 52.1126 310.251 48.7474 322.694Z" fill="#ECA400"/>
<path d="M18.1334 322.694C21.4987 335.136 33.0254 342.842 33.0254 342.842C33.0254 342.842 39.096 330.375 35.7308 317.933C32.3655 305.49 20.8388 297.784 20.8388 297.784C20.8388 297.784 14.7682 310.251 18.1334 322.694Z" fill="#0B7A75"/>
<path d="M23.0782 320.02C32.3125 329.011 33.4404 342.832 33.4404 342.832C33.4404 342.832 19.5965 342.076 10.3622 333.085C1.1279 324.094 0 310.273 0 310.273C0 310.273 13.8439 311.029 23.0782 320.02Z" fill="#3F3D56"/>
<path d="M43.8026 320.02C34.5683 329.011 33.4404 342.832 33.4404 342.832C33.4404 342.832 47.2843 342.076 56.5186 333.085C65.7529 324.094 66.8808 310.273 66.8808 310.273C66.8808 310.273 53.0369 311.029 43.8026 320.02Z" fill="#3F3D56"/>
<path d="M269.127 207.749C273.392 207.749 276.849 204.291 276.849 200.026C276.849 195.76 273.392 192.302 269.127 192.302C264.862 192.302 261.405 195.76 261.405 200.026C261.405 204.291 264.862 207.749 269.127 207.749Z" fill="#2F2E41"/>
<path d="M260.853 196.715C260.854 194.81 261.558 192.973 262.83 191.556C264.103 190.138 265.855 189.241 267.748 189.037C266.67 188.92 265.579 189.03 264.546 189.362C263.513 189.695 262.562 190.241 261.754 190.965C260.947 191.689 260.301 192.576 259.858 193.567C259.416 194.557 259.188 195.63 259.188 196.715C259.188 197.8 259.416 198.873 259.858 199.864C260.301 200.855 260.947 201.741 261.754 202.466C262.562 203.19 263.513 203.736 264.546 204.068C265.579 204.401 266.67 204.511 267.748 204.393C265.855 204.189 264.103 203.293 262.83 201.875C261.558 200.458 260.854 198.62 260.853 196.715Z" fill="#2F2E41"/>
<path d="M261.405 200.026C261.405 200.026 260.206 205.543 267.7 207.749L261.405 200.026Z" fill="#DB5461"/>
<path d="M272.32 252.489C286.638 252.489 298.245 240.88 298.245 226.559C298.245 212.239 286.638 200.63 272.32 200.63C258.003 200.63 246.396 212.239 246.396 226.559C246.396 240.88 258.003 252.489 272.32 252.489Z" fill="#2F2E41"/>
<path d="M286.64 314.283C286.307 314.56 285.974 314.833 285.637 315.102C278.733 320.699 271.256 325.548 263.331 329.571C262.861 329.807 262.391 330.044 261.918 330.277C261.167 330.647 260.408 331.008 259.649 331.361L246.36 326.932L246.513 323.748V323.736L247.091 311.593L247.288 307.441L286.64 314.283Z" fill="#A0616A"/>
<path d="M261.918 330.277C261.167 330.647 260.408 331.008 259.649 331.361C254.458 333.789 249.104 335.851 243.626 337.533C243.598 337.453 243.582 337.369 243.578 337.284L246.36 323.684L246.513 323.748L261.918 330.277Z" fill="#2F2E41"/>
<path d="M265.85 254.069C275.331 254.069 283.017 246.381 283.017 236.898C283.017 227.414 275.331 219.727 265.85 219.727C256.368 219.727 248.682 227.414 248.682 236.898C248.682 246.381 256.368 254.069 265.85 254.069Z" fill="#A0616A"/>
<path d="M279.769 237.826C279.769 237.826 282.553 251.749 287.657 254.997L259.354 288.412L248.682 278.202L256.57 264.279C256.57 264.279 265.386 259.174 262.602 252.213L279.769 237.826Z" fill="#A0616A"/>
<path d="M313.358 283.937C308.328 291.886 302.442 299.26 295.806 305.927C295.521 299.703 294.902 294.571 293.69 293.053C293.687 293.053 293.684 293.051 293.682 293.049L278.839 288.411C278.839 288.411 282.087 257.78 289.976 256.391C289.976 256.391 291.121 256.624 292.899 257.162C298.632 258.888 310.941 263.755 312.712 274.023C313.216 277.303 313.432 280.62 313.358 283.937Z" fill="#A0616A"/>
<path d="M256.569 264.279C256.569 264.279 242.65 263.815 233.834 274.953C225.018 286.091 203.674 294.445 203.674 294.445L150.314 315.329C150.314 315.329 140.57 298.158 134.538 304.191C128.506 310.224 145.674 325.539 153.562 323.683C161.45 321.826 209.242 307.439 209.242 307.439L247.29 290.268L256.569 264.279Z" fill="#A0616A"/>
<path d="M293.69 293.053L291.755 309.822C290.093 311.356 288.388 312.843 286.64 314.283C286.307 314.56 285.974 314.833 285.637 315.102C272.239 310.994 251.246 311.452 247.091 311.593C246.617 311.605 246.36 311.617 246.36 311.617L245.899 301.871C241.446 300.389 239.985 297.149 239.945 293.583C239.876 287.118 244.505 279.593 244.505 279.593C245.336 278.761 251.547 266.984 252.832 264.542C252.981 264.257 253.065 264.1 253.065 264.1L258.633 262.711C258.633 262.711 258.617 262.755 258.585 262.836C258.087 264.229 253.759 276.834 261.211 277.272C268.542 277.705 284.489 257.113 286.685 254.226C286.849 254.009 286.938 253.893 286.938 253.893L292.972 257.141C292.948 257.149 292.924 257.153 292.899 257.162C289.214 258.185 285.801 267.064 285.801 267.064C276.178 284.026 293.261 292.836 293.682 293.049C293.684 293.051 293.687 293.052 293.69 293.053Z" fill="#DB5461"/>
<path d="M266.782 216.742C257.643 216.742 250.234 221.065 250.234 226.397C250.234 228.783 251.724 230.963 254.182 232.648L257.367 230.339L256.501 233.956C256.86 234.122 257.227 234.284 257.61 234.433L262.369 228.879V235.702C263.828 235.935 265.304 236.052 266.782 236.051C275.921 236.051 283.329 231.729 283.329 226.397C283.329 221.065 275.921 216.742 266.782 216.742Z" fill="#2F2E41"/>
<path d="M300.679 219.816C304.944 219.816 308.401 216.358 308.401 212.092C308.401 207.826 304.944 204.368 300.679 204.368C296.414 204.368 292.957 207.826 292.957 212.092C292.957 216.358 296.414 219.816 300.679 219.816Z" fill="#2F2E41"/>
<path d="M292.405 208.782C292.405 206.877 293.109 205.039 294.382 203.622C295.654 202.205 297.406 201.308 299.299 201.104C299.025 201.074 298.748 201.059 298.472 201.058C297.422 201.057 296.383 201.269 295.418 201.683C294.453 202.097 293.583 202.703 292.86 203.465C292.137 204.227 291.577 205.128 291.214 206.113C290.852 207.099 290.694 208.148 290.75 209.196C290.806 210.245 291.076 211.271 291.542 212.212C292.008 213.153 292.661 213.989 293.462 214.668C294.262 215.348 295.192 215.858 296.196 216.166C297.2 216.474 298.256 216.574 299.299 216.46C297.406 216.256 295.654 215.359 294.382 213.942C293.109 212.524 292.405 210.687 292.405 208.782Z" fill="#2F2E41"/>
<path d="M292.956 212.092C292.956 212.092 291.757 217.609 299.251 219.816L292.956 212.092Z" fill="#DB5461"/>
<path d="M283.713 238.522C284.454 238.522 285.054 237.172 285.054 235.506C285.054 233.84 284.454 232.489 283.713 232.489C282.973 232.489 282.373 233.84 282.373 235.506C282.373 237.172 282.973 238.522 283.713 238.522Z" fill="#A0616A"/>
<path d="M135.772 247.176L115.426 252.106L115.36 252.122L113.148 254.124L112.512 254.7L111.147 254.453L108.731 254.016L110.415 248.333L110.731 237.494L109.573 230.864L115.991 226.444C115.991 226.444 128.512 225.707 135.772 247.176Z" fill="#DB5461"/>
<path opacity="0.1" d="M115.426 252.106C115.151 252.694 115.728 252.306 115.413 252.911L112.467 253.858L111.147 254.453L108.731 254.016L110.415 248.333L110.731 237.494L109.573 230.864L115.991 226.444C115.991 226.444 122.88 236.202 115.426 252.106Z" fill="black"/>
<path d="M159.762 231.6C159.762 231.6 133.037 244.018 122.199 245.913C111.362 247.807 112.309 258.646 112.309 258.646L173.019 249.175C173.019 249.175 170.915 239.388 159.762 231.6Z" fill="#DB5461"/>
<path d="M108.205 229.496C108.205 229.496 112.835 240.756 107.679 254.753L113.677 257.489L115.991 254.753L116.044 254.49L109.678 253.911C109.678 253.911 114.939 239.809 110.625 230.022C110.625 230.022 109.678 227.917 108.205 229.496Z" fill="#DB5461"/>
<path d="M196.482 312.949C172.809 307.687 150.766 318.579 150.766 318.579L150.706 318.526L141.928 310.686L107.627 254.7L115.992 254.753C139.245 240.861 171.967 242.755 171.967 242.755C186.066 258.752 196.482 312.949 196.482 312.949Z" fill="#3F3D56"/>
<path opacity="0.1" d="M150.706 318.525L141.928 310.686L107.627 254.7L115.992 254.753C115.992 254.753 149.331 298.793 150.706 318.525Z" fill="black"/>
<path d="M154.558 274.842C161.724 272.643 166.401 267.167 165.004 262.611C163.607 258.054 156.664 256.143 149.498 258.342C142.331 260.54 137.654 266.016 139.051 270.573C140.449 275.129 147.391 277.04 154.558 274.842Z" fill="#DB5461"/>
<path d="M336.8 245.247C341.013 245.247 344.428 241.831 344.428 237.617C344.428 233.404 341.013 229.988 336.8 229.988C332.588 229.988 329.172 233.404 329.172 237.617C329.172 241.831 332.588 245.247 336.8 245.247Z" fill="#3F3D56"/>
<path d="M55.5104 159.042C58.8364 159.042 61.5326 156.345 61.5326 153.018C61.5326 149.692 58.8364 146.995 55.5104 146.995C52.1845 146.995 49.4883 149.692 49.4883 153.018C49.4883 156.345 52.1845 159.042 55.5104 159.042Z" fill="#ECA400"/>
<path d="M345.798 318.249C350.011 318.249 353.427 314.833 353.427 310.619C353.427 306.405 350.011 302.99 345.798 302.99C341.586 302.99 338.17 306.405 338.17 310.619C338.17 314.833 341.586 318.249 345.798 318.249Z" fill="#ECA400"/>
<path d="M383.729 205.379C387.055 205.379 389.751 202.682 389.751 199.356C389.751 196.029 387.055 193.333 383.729 193.333C380.403 193.333 377.707 196.029 377.707 199.356C377.707 202.682 380.403 205.379 383.729 205.379Z" fill="#ECA400"/>
<path d="M11.1584 350.341C14.4843 350.341 17.1805 347.645 17.1805 344.318C17.1805 340.991 14.4843 338.295 11.1584 338.295C7.83244 338.295 5.13623 340.991 5.13623 344.318C5.13623 347.645 7.83244 350.341 11.1584 350.341Z" fill="#DB5461"/>
<path d="M383.729 352.751C387.942 352.751 391.357 349.335 391.357 345.121C391.357 340.908 387.942 337.492 383.729 337.492C379.516 337.492 376.101 340.908 376.101 345.121C376.101 349.335 379.516 352.751 383.729 352.751Z" fill="#3F3D56"/>
<path d="M383.597 344.78L429.081 276.383M187.081 276.384L337.795 307.864M132.719 238.867L313.801 89.2468" stroke="#3F3D56"/>
</svg>
