<svg width="232" height="276" viewBox="0 0 232 276" fill="none" xmlns="http://www.w3.org/2000/svg">
<path d="M57.6551 10.9565H56.1713C56.6701 11.2424 57.1605 11.5357 57.6551 11.8306V10.9565Z" fill="#F5F9E9"/>
<path d="M55.5383 176.933H61.8873V172.36C59.8264 173.761 57.7096 175.075 55.5383 176.294V176.933Z" fill="#F5F9E9"/>
<path d="M1.20985 4.97009V1.20764C-0.936296 1.5788 -3.0503 2.04124 -5.13916 2.57553V4.9671H1.20985V4.97009Z" fill="#F5F9E9"/>
<path d="M16.3798 4.97018V0.0329298C15.9816 0.0269434 15.5847 0 15.1865 0C13.454 0 11.7382 0.0688432 10.0308 0.176598V4.97168H16.3798V4.97018Z" fill="#F5F9E9"/>
<path d="M31.5493 4.97V1.66403C29.4577 1.239 27.3409 0.893283 25.2003 0.629883V4.97H31.5493Z" fill="#F5F9E9"/>
<path d="M43.2484 4.97031C42.2955 4.62459 41.3398 4.28337 40.3729 3.97058V4.97031H43.2484Z" fill="#F5F9E9"/>
<path d="M5.797 10.9565H12.146V21.7844H5.797V10.9565Z" fill="#F5F9E9"/>
<path d="M20.9681 10.9565H27.3171V21.7844H20.9681V10.9565Z" fill="#F5F9E9"/>
<path d="M36.1364 10.9565H42.4854V21.7844H36.1364V10.9565Z" fill="#F5F9E9"/>
<path d="M51.3063 21.7844H57.6553V11.8306C57.1635 11.5357 56.6703 11.2409 56.1715 10.9565H51.3049C51.3063 10.9565 51.3063 21.7844 51.3063 21.7844Z" fill="#F5F9E9"/>
<path d="M71.1468 21.7844C69.6322 20.427 68.0729 19.128 66.4745 17.8828V21.7844H71.1468Z" fill="#F5F9E9"/>
<path d="M-5.13916 28.5371H1.20985V39.365H-5.13916V28.5371Z" fill="#F5F9E9"/>
<path d="M10.0308 28.5371H16.3798V39.365H10.0308V28.5371Z" fill="#F5F9E9"/>
<path d="M25.199 28.5371H31.548V39.365H25.199V28.5371Z" fill="#F5F9E9"/>
<path d="M40.3687 28.5371H46.7177V39.365H40.3687V28.5371Z" fill="#F5F9E9"/>
<path d="M55.5383 28.5371H61.8873V39.365H55.5383V28.5371Z" fill="#F5F9E9"/>
<path d="M70.708 28.5371H77.057V39.365H70.708V28.5371Z" fill="#F5F9E9"/>
<path d="M86.2955 39.3636C86.1572 39.1541 86.0189 38.943 85.8792 38.7335V39.3636H86.2955Z" fill="#F5F9E9"/>
<path d="M5.797 45.35H12.146V56.1778H5.797V45.35Z" fill="#F5F9E9"/>
<path d="M20.9681 45.35H27.3171V56.1778H20.9681V45.35Z" fill="#F5F9E9"/>
<path d="M36.1364 45.35H42.4854V56.1778H36.1364V45.35Z" fill="#F5F9E9"/>
<path d="M51.3062 45.35H57.6552V56.1778H51.3062V45.35Z" fill="#F5F9E9"/>
<path d="M66.476 45.35H72.825V56.1778H66.476V45.35Z" fill="#F5F9E9"/>
<path d="M81.6443 45.35H87.9933V56.1778H81.6443V45.35Z" fill="#F5F9E9"/>
<path d="M-5.13916 62.9304H1.20985V73.7583H-5.13916V62.9304Z" fill="#F5F9E9"/>
<path d="M10.0308 62.9304H16.3798V73.7583H10.0308V62.9304Z" fill="#F5F9E9"/>
<path d="M25.199 62.9304H31.548V73.7583H25.199V62.9304Z" fill="#F5F9E9"/>
<path d="M40.3687 62.9304H46.7177V73.7583H40.3687V62.9304Z" fill="#F5F9E9"/>
<path d="M55.5383 62.9304H61.8873V73.7583H55.5383V62.9304Z" fill="#F5F9E9"/>
<path d="M70.708 62.9304H77.057V73.7583H70.708V62.9304Z" fill="#F5F9E9"/>
<path d="M85.8765 62.9304H92.2255V73.7583H85.8765V62.9304Z" fill="#F5F9E9"/>
<path d="M5.797 79.743H12.146V90.5709H5.797V79.743Z" fill="#F5F9E9"/>
<path d="M20.9681 79.743H27.3171V90.5709H20.9681V79.743Z" fill="#F5F9E9"/>
<path d="M36.1364 79.743H42.4854V90.5709H36.1364V79.743Z" fill="#F5F9E9"/>
<path d="M51.3062 79.743H57.6552V90.5709H51.3062V79.743Z" fill="#F5F9E9"/>
<path d="M66.476 79.743H72.825V90.5709H66.476V79.743Z" fill="#F5F9E9"/>
<path d="M81.6443 79.743H87.9933V90.5709H81.6443V79.743Z" fill="#F5F9E9"/>
<path d="M96.814 90.5709H102.344C102.239 86.9057 101.957 83.2915 101.47 79.743H96.814V90.5709Z" fill="#F5F9E9"/>
<path d="M-5.13916 97.3206H1.20985V108.148H-5.13916V97.3206Z" fill="#F5F9E9"/>
<path d="M10.0308 97.3206H16.3798V108.148H10.0308V97.3206Z" fill="#F5F9E9"/>
<path d="M25.199 97.3206H31.548V108.148H25.199V97.3206Z" fill="#F5F9E9"/>
<path d="M40.3687 97.3206H46.7177V108.148H40.3687V97.3206Z" fill="#F5F9E9"/>
<path d="M55.5383 97.3206H61.8873V108.148H55.5383V97.3206Z" fill="#F5F9E9"/>
<path d="M70.708 97.3206H77.057V108.148H70.708V97.3206Z" fill="#F5F9E9"/>
<path d="M85.8765 97.3206H92.2255V108.148H85.8765V97.3206Z" fill="#F5F9E9"/>
<path d="M101.046 97.3206V108.148H101.328C101.851 104.603 102.179 100.987 102.321 97.3206H101.046Z" fill="#F5F9E9"/>
<path d="M5.797 114.133H12.146V124.961H5.797V114.133Z" fill="#F5F9E9"/>
<path d="M20.9681 114.133H27.3171V124.961H20.9681V114.133Z" fill="#F5F9E9"/>
<path d="M36.1364 114.133H42.4854V124.961H36.1364V114.133Z" fill="#F5F9E9"/>
<path d="M51.3062 114.133H57.6552V124.961H51.3062V114.133Z" fill="#F5F9E9"/>
<path d="M66.476 114.133H72.825V124.961H66.476V114.133Z" fill="#F5F9E9"/>
<path d="M81.6443 114.133H87.9933V124.961H81.6443V114.133Z" fill="#F5F9E9"/>
<path d="M96.8138 124.963H97.314C98.4891 121.449 99.4616 117.831 100.24 114.135H96.811V124.963H96.8138Z" fill="#F5F9E9"/>
<path d="M-5.13916 131.714H1.20985V142.542H-5.13916V131.714Z" fill="#F5F9E9"/>
<path d="M10.0308 131.714H16.3798V142.542H10.0308V131.714Z" fill="#F5F9E9"/>
<path d="M25.199 131.714H31.548V142.542H25.199V131.714Z" fill="#F5F9E9"/>
<path d="M40.3687 131.714H46.7177V142.542H40.3687V131.714Z" fill="#F5F9E9"/>
<path d="M55.5383 131.714H61.8873V142.542H55.5383V131.714Z" fill="#F5F9E9"/>
<path d="M70.708 131.714H77.057V142.542H70.708V131.714Z" fill="#F5F9E9"/>
<path d="M85.8765 131.714V142.542H89.4031C90.3965 140.822 91.3354 139.067 92.2255 137.277V131.714H85.8765Z" fill="#F5F9E9"/>
<path d="M5.797 148.525H12.146V159.353H5.797V148.525Z" fill="#F5F9E9"/>
<path d="M20.9681 148.525H27.3171V159.353H20.9681V148.525Z" fill="#F5F9E9"/>
<path d="M36.1364 148.525H42.4854V159.353H36.1364V148.525Z" fill="#F5F9E9"/>
<path d="M51.3062 148.525H57.6552V159.353H51.3062V148.525Z" fill="#F5F9E9"/>
<path d="M66.476 148.525H72.825V159.353H66.476V148.525Z" fill="#F5F9E9"/>
<path d="M81.6443 153.943C83.0359 152.19 84.3703 150.384 85.639 148.524H81.6443V153.943Z" fill="#F5F9E9"/>
<path d="M-5.13916 166.106H1.20985V176.934H-5.13916V166.106Z" fill="#F5F9E9"/>
<path d="M10.0308 166.106H16.3798V176.934H10.0308V166.106Z" fill="#F5F9E9"/>
<path d="M25.199 166.106H31.548V176.934H25.199V166.106Z" fill="#F5F9E9"/>
<path d="M40.3687 166.106H46.7177V176.934H40.3687V166.106Z" fill="#F5F9E9"/>
<path d="M55.5383 166.105V176.293C57.7096 175.076 59.8278 173.761 61.8873 172.358V166.104L55.5383 166.105Z" fill="#F5F9E9"/>
<path d="M5.797 182.918V186.354C7.89144 186.595 10.0096 186.741 12.146 186.818V182.918H5.797Z" fill="#F5F9E9"/>
<path d="M20.9681 182.918V186.673C23.1059 186.522 25.2255 186.293 27.3171 185.98V182.917H20.9681V182.918Z" fill="#F5F9E9"/>
<path d="M36.1364 184.169C37.5741 183.791 38.9979 183.373 40.4077 182.918H36.1364V184.169Z" fill="#F5F9E9"/>
<g opacity="0.1" filter="url(#filter0_d_114_14756)">
<path d="M67.8978 69.1008C47.0293 73.2668 26.1901 71.4809 6.1433 68.8832C-13.9035 66.2855 -33.9006 62.8934 -54.7779 63.9159C-68.2077 64.5722 -83.1639 67.7156 -92.5411 76.8524C-101.567 85.6402 -102.974 97.499 -102.991 108.204C-103.015 116.256 -102.424 124.588 -97.5937 131.003C-94.237 135.452 -89.0703 138.64 -85.1785 142.747C-71.6376 157.014 -75.7545 179.477 -84.6405 198.576C-88.8101 207.537 -93.9095 216.349 -96.7487 225.52C-99.5879 234.692 -99.9651 244.519 -94.8832 251.998C-89.8598 259.373 -80.12 263.566 -69.9504 265.732C-49.3247 270.133 -26.3451 267.401 -4.11111 263.698C45.0937 255.501 93.7926 242.678 142.386 229.887C160.366 225.151 178.424 220.394 195.746 213.568C205.366 209.769 215.161 205.04 221.375 197.678C229.269 188.352 229.468 175.595 221.86 167.971C209.094 155.19 180.199 158.026 170.325 143.414C164.892 135.369 167.258 124.443 171.582 114.791C180.854 94.093 198.775 73.6433 196.454 53.007C194.851 38.8442 182.626 27.1237 166.24 24.07C149.065 20.8713 127.006 26.9371 117.117 41.1897C106.951 55.8741 86.3247 65.4254 67.8978 69.1008Z" fill="#F5F9E9"/>
</g>
<defs>
<filter id="filter0_d_114_14756" x="-106.992" y="23.2361" width="338.426" height="252.764" filterUnits="userSpaceOnUse" color-interpolation-filters="sRGB">
<feFlood flood-opacity="0" result="BackgroundImageFix"/>
<feColorMatrix in="SourceAlpha" type="matrix" values="0 0 0 0 0 0 0 0 0 0 0 0 0 0 0 0 0 0 127 0" result="hardAlpha"/>
<feOffset dy="4"/>
<feGaussianBlur stdDeviation="2"/>
<feComposite in2="hardAlpha" operator="out"/>
<feColorMatrix type="matrix" values="0 0 0 0 0 0 0 0 0 0 0 0 0 0 0 0 0 0 0.25 0"/>
<feBlend mode="normal" in2="BackgroundImageFix" result="effect1_dropShadow_114_14756"/>
<feBlend mode="normal" in="SourceGraphic" in2="effect1_dropShadow_114_14756" result="shape"/>
</filter>
</defs>
</svg>
