<svg width="152" height="107" viewBox="0 0 152 107" fill="none" xmlns="http://www.w3.org/2000/svg">
<path d="M70.0487 66.6221H67.7927L63.4727 59.5421H60.7847V66.6221H58.8887L58.9127 49.8221H65.3207C66.1047 49.8221 66.8087 50.0541 67.4327 50.5181C68.0727 50.9661 68.5847 51.5581 68.9687 52.2941C69.3527 53.0301 69.5447 53.8301 69.5447 54.6941C69.5447 55.4301 69.3687 56.1421 69.0167 56.8301C68.6807 57.5181 68.2247 58.1021 67.6487 58.5821C67.0727 59.0621 66.4167 59.3501 65.6807 59.4461L70.0487 66.6221ZM67.6247 54.6941C67.6247 54.2141 67.5207 53.7501 67.3127 53.3021C67.1047 52.8381 66.8247 52.4621 66.4727 52.1741C66.1207 51.8701 65.7127 51.7181 65.2487 51.7181H60.7847V57.5981H65.2007C65.6487 57.5981 66.0487 57.4461 66.4007 57.1421C66.7687 56.8381 67.0647 56.4621 67.2887 56.0141C67.5127 55.5661 67.6247 55.1261 67.6247 54.6941ZM82.0939 61.1981H72.7579C72.7899 62.2381 73.0699 63.0621 73.5979 63.6701C74.1259 64.2781 74.7979 64.6781 75.6139 64.8701C76.4299 65.0621 77.3019 65.0461 78.2299 64.8221C79.1579 64.5981 80.0379 64.1741 80.8699 63.5501L81.8779 65.0381C81.0939 65.6461 80.2779 66.0941 79.4299 66.3821C78.5819 66.6701 77.7339 66.8221 76.8859 66.8381C74.8859 66.8861 73.3579 66.3341 72.3019 65.1821C71.2459 64.0141 70.7179 62.3901 70.7179 60.3101C70.7179 58.5341 71.2139 57.1181 72.2059 56.0621C73.2139 55.0061 74.6699 54.4861 76.5739 54.5021C77.8219 54.5021 78.8859 54.7581 79.7659 55.2701C80.6459 55.7821 81.2939 56.5421 81.7099 57.5501C81.9179 58.0461 82.0459 58.5981 82.0939 59.2061C82.1579 59.8141 82.1579 60.4781 82.0939 61.1981ZM76.6699 56.2781C75.5819 56.2781 74.6539 56.5661 73.8859 57.1421C73.1339 57.7021 72.7579 58.5421 72.7579 59.6621H80.3899C80.3899 58.6061 80.0539 57.7821 79.3819 57.1901C78.7259 56.5821 77.8219 56.2781 76.6699 56.2781ZM88.1785 66.7421C87.0585 66.7101 86.1225 66.3981 85.3705 65.8061C84.6185 65.1981 84.2425 64.3181 84.2425 63.1661C84.2425 61.9661 84.5945 61.0301 85.2985 60.3581C86.0025 59.6701 86.9625 59.2301 88.1785 59.0381C89.3945 58.8461 90.7545 58.8861 92.2585 59.1581V58.2941C92.2585 57.7341 92.0825 57.2941 91.7305 56.9741C91.3785 56.6381 90.9225 56.4141 90.3625 56.3021C89.8185 56.1901 89.2425 56.1821 88.6345 56.2781C88.0425 56.3581 87.4825 56.5421 86.9545 56.8301C86.4265 57.1021 86.0185 57.4621 85.7305 57.9101L84.5545 56.6621C85.0505 56.0541 85.6505 55.5821 86.3545 55.2461C87.0745 54.9101 87.8185 54.6941 88.5865 54.5981C89.3545 54.5021 90.0985 54.5261 90.8185 54.6701C91.5385 54.8141 92.1705 55.0781 92.7145 55.4621C93.2425 55.7821 93.6025 56.1981 93.7945 56.7101C94.0025 57.2061 94.1225 57.7821 94.1545 58.4381C94.1865 59.0941 94.2025 59.7981 94.2025 60.5501V66.6221H92.2825V65.4941C91.6905 65.9261 91.0345 66.2461 90.3145 66.4541C89.5945 66.6621 88.8825 66.7581 88.1785 66.7421ZM92.2345 63.7901V60.6461C90.3305 60.4061 88.8185 60.4701 87.6985 60.8381C86.5785 61.2061 86.0185 61.9741 86.0185 63.1421C86.0185 63.6541 86.1625 64.0541 86.4505 64.3421C86.7545 64.6301 87.1385 64.8221 87.6025 64.9181C88.0825 65.0141 88.6025 65.0301 89.1625 64.9661C89.7225 64.9021 90.2745 64.7661 90.8185 64.5581C91.3625 64.3501 91.8345 64.0941 92.2345 63.7901ZM100.8 66.5981C99.8397 66.4861 99.0237 66.1501 98.3517 65.5901C97.6957 65.0301 97.1997 64.3181 96.8637 63.4541C96.5277 62.5741 96.3597 61.5901 96.3597 60.5021C96.3597 59.3341 96.5677 58.3021 96.9837 57.4061C97.4157 56.4941 98.0317 55.7821 98.8317 55.2701C99.6477 54.7421 100.632 54.4781 101.784 54.4781C102.248 54.4781 102.728 54.5101 103.224 54.5741C103.736 54.6381 104.288 54.8221 104.88 55.1261V49.8221H106.776V66.6221H104.88V65.4941C104.432 65.8781 103.84 66.1901 103.104 66.4301C102.368 66.6701 101.6 66.7261 100.8 66.5981ZM104.88 63.8861V56.9261C103.728 56.4461 102.648 56.2621 101.64 56.3741C100.648 56.4861 99.8397 56.8941 99.2157 57.5981C98.5917 58.2861 98.2797 59.2541 98.2797 60.5021C98.2797 61.5101 98.4637 62.3581 98.8317 63.0461C99.2157 63.7181 99.7277 64.2141 100.368 64.5341C101.008 64.8541 101.712 64.9661 102.48 64.8701C103.264 64.7741 104.064 64.4461 104.88 63.8861ZM120.274 61.1981H110.938C110.97 62.2381 111.25 63.0621 111.778 63.6701C112.306 64.2781 112.978 64.6781 113.794 64.8701C114.61 65.0621 115.482 65.0461 116.41 64.8221C117.338 64.5981 118.218 64.1741 119.05 63.5501L120.058 65.0381C119.274 65.6461 118.458 66.0941 117.61 66.3821C116.762 66.6701 115.914 66.8221 115.066 66.8381C113.066 66.8861 111.538 66.3341 110.482 65.1821C109.426 64.0141 108.898 62.3901 108.898 60.3101C108.898 58.5341 109.394 57.1181 110.386 56.0621C111.394 55.0061 112.85 54.4861 114.754 54.5021C116.002 54.5021 117.066 54.7581 117.946 55.2701C118.826 55.7821 119.474 56.5421 119.89 57.5501C120.098 58.0461 120.226 58.5981 120.274 59.2061C120.338 59.8141 120.338 60.4781 120.274 61.1981ZM114.85 56.2781C113.762 56.2781 112.834 56.5661 112.066 57.1421C111.314 57.7021 110.938 58.5421 110.938 59.6621H118.57C118.57 58.6061 118.234 57.7821 117.562 57.1901C116.906 56.5821 116.002 56.2781 114.85 56.2781ZM122.662 66.6221V54.7661H124.558V55.8701C125.086 55.2781 125.734 54.9181 126.502 54.7901C127.286 54.6621 128.27 54.7661 129.454 55.1021L128.566 56.7821C127.846 56.5261 127.174 56.4861 126.55 56.6621C125.942 56.8221 125.454 57.1101 125.086 57.5261C124.718 57.9421 124.542 58.3901 124.558 58.8701V66.6221H122.662ZM130.661 51.1181C130.661 50.7661 130.789 50.4701 131.045 50.2301C131.301 49.9741 131.613 49.8381 131.981 49.8221C132.333 49.8221 132.637 49.9661 132.893 50.2541C133.149 50.5261 133.261 50.8381 133.229 51.1901C133.229 51.3821 133.173 51.6621 133.061 52.0301C132.949 52.3821 132.813 52.7661 132.653 53.1821C132.509 53.5981 132.357 53.9901 132.197 54.3581C132.053 54.7101 131.941 54.9821 131.861 55.1741L131.141 54.8621C131.253 54.6541 131.389 54.3021 131.549 53.8061C131.709 53.2941 131.829 52.8221 131.909 52.3901C131.541 52.3901 131.237 52.2701 130.997 52.0301C130.773 51.7741 130.661 51.4701 130.661 51.1181ZM134.914 65.2301L136.042 64.0061C136.538 64.3741 137.034 64.6621 137.53 64.8701C138.026 65.0621 138.53 65.1501 139.042 65.1341C139.346 65.1341 139.634 65.0941 139.906 65.0141C140.178 64.9341 140.434 64.7981 140.674 64.6061C140.978 64.3821 141.178 64.0941 141.274 63.7421C141.386 63.3901 141.386 63.0541 141.274 62.7341C141.146 62.3821 140.914 62.1021 140.578 61.8941C140.242 61.6861 139.842 61.5101 139.378 61.3661C138.93 61.2061 138.458 61.0461 137.962 60.8861C137.482 60.7101 137.034 60.4941 136.618 60.2381C135.898 59.7581 135.434 59.2141 135.226 58.6061C135.018 57.9821 135.018 57.3741 135.226 56.7821C135.45 56.1741 135.842 55.6621 136.402 55.2461C136.978 54.8301 137.69 54.5901 138.538 54.5261C139.354 54.4781 140.146 54.5741 140.914 54.8141C141.682 55.0541 142.282 55.3901 142.714 55.8221L141.514 56.9741C141.114 56.7021 140.682 56.5021 140.218 56.3741C139.754 56.2461 139.306 56.1821 138.874 56.1821C138.362 56.1981 137.922 56.3181 137.554 56.5421C137.202 56.7661 137.002 57.1261 136.954 57.6221C136.922 58.0861 137.074 58.4541 137.41 58.7261C137.746 58.9821 138.21 59.2141 138.802 59.4221C139.394 59.6141 140.034 59.8381 140.722 60.0941C141.522 60.4141 142.138 60.8781 142.57 61.4861C143.018 62.0781 143.154 62.8381 142.978 63.7661C142.866 64.6301 142.514 65.3101 141.922 65.8061C141.346 66.3021 140.642 66.6141 139.81 66.7421C138.978 66.8701 138.122 66.8141 137.242 66.5741C136.378 66.3181 135.602 65.8701 134.914 65.2301Z" fill="#F5F9E9" fill-opacity="0.6"/>
<path d="M58.6487 93.6221L64.2647 76.8221H66.6887L72.3287 93.6221H70.2887L68.8727 89.3501H62.0807L60.6647 93.6221H58.6487ZM65.4887 79.1261L62.6087 87.7421H68.3447L65.4887 79.1261Z" fill="#F5F9E9"/>
<path d="M86.6421 78.5741H81.4101V93.6221H79.4901V78.5741H74.2581V76.8221H86.6421V78.5741Z" fill="#DB5461"/>
<path d="M100.939 78.5741H95.707V93.6221H93.787V78.5741H88.555V76.8221H100.939V78.5741Z" fill="#0B7A75"/>
<path d="M104.988 93.6221H103.092V76.8221H104.988V93.6221Z" fill="#ECA400"/>
<path d="M115.445 93.8621C114.277 93.8621 113.189 93.6381 112.181 93.1901C111.189 92.7421 110.317 92.1341 109.565 91.3661C108.797 90.5981 108.197 89.7021 107.765 88.6781C107.349 87.6381 107.141 86.4861 107.141 85.2221C107.141 84.0061 107.357 82.8701 107.789 81.8141C108.221 80.7581 108.813 79.8461 109.565 79.0781C110.317 78.3101 111.189 77.7021 112.181 77.2541C113.189 76.8061 114.277 76.5821 115.445 76.5821C116.613 76.5821 117.717 76.8221 118.757 77.3021C119.813 77.7821 120.773 78.5101 121.637 79.4861L120.125 80.7341C118.749 79.2301 117.189 78.4781 115.445 78.4781C114.549 78.4781 113.725 78.6541 112.973 79.0061C112.221 79.3581 111.549 79.8381 110.957 80.4461C110.381 81.0541 109.925 81.7661 109.589 82.5821C109.269 83.3821 109.109 84.2621 109.109 85.2221C109.109 86.1981 109.269 87.0941 109.589 87.9101C109.925 88.7101 110.381 89.4061 110.957 89.9981C111.549 90.6061 112.221 91.0861 112.973 91.4381C113.725 91.7901 114.549 91.9661 115.445 91.9661C117.189 91.9661 118.749 91.2141 120.125 89.7101L121.637 90.9581C120.773 91.9341 119.813 92.6621 118.757 93.1421C117.717 93.6221 116.613 93.8621 115.445 93.8621Z" fill="#EAE1CD"/>
<path opacity="0.9" d="M16.8287 42.6912L53.8361 0.755655L90.8434 42.6912H16.8287Z" stroke="#818C85"/>
<mask id="path-3-inside-1_114_15432" fill="white">
<path d="M43.4716 9.04822H42.9652C43.1354 9.13656 43.3028 9.22722 43.4716 9.31834V9.04822Z"/>
</mask>
<path d="M43.4716 9.04822H42.9652C43.1354 9.13656 43.3028 9.22722 43.4716 9.31834V9.04822Z" fill="#0D1F22"/>
<path d="M43.4716 9.04822H44.4716V8.04822H43.4716V9.04822ZM42.9652 9.04822V8.04822L42.5045 9.93579L42.9652 9.04822ZM43.4716 9.31834L42.9965 10.1983L44.4716 10.9946V9.31834H43.4716ZM43.4716 8.04822H42.9652V10.0482H43.4716V8.04822ZM42.5045 9.93579C42.6659 10.0196 42.8253 10.1059 42.9965 10.1983L43.9466 8.43838C43.7803 8.34859 43.6049 8.25356 43.4259 8.16065L42.5045 9.93579ZM44.4716 9.31834V9.04822H42.4716V9.31834H44.4716Z" fill="#818C85" mask="url(#path-3-inside-1_114_15432)"/>
<path d="M44.4111 59.6819V59.7117H44.3594C44.3767 59.7018 44.3939 59.6918 44.4111 59.6819Z" fill="#0D1F22" stroke="#818C85"/>
<path d="M23.7563 6.63352V6.70188H23.3866C23.5096 6.67832 23.6328 6.65552 23.7563 6.63352Z" fill="#0D1F22" stroke="#818C85"/>
<path d="M27.759 6.20022C28.1453 6.18301 28.532 6.17233 28.9202 6.17084V6.70342H27.759V6.20022Z" fill="#0D1F22" stroke="#818C85"/>
<path d="M32.9228 6.42888C33.3123 6.47957 33.6994 6.53766 34.084 6.60298V6.70292H32.9228V6.42888Z" fill="#0D1F22" stroke="#818C85"/>
<mask id="path-9-inside-2_114_15432" fill="white">
<path d="M38.5663 7.20274C38.2419 7.09616 37.9166 6.99096 37.5875 6.89453V7.20274H38.5663Z"/>
</mask>
<path d="M38.5663 7.20274C38.2419 7.09616 37.9166 6.99096 37.5875 6.89453V7.20274H38.5663Z" fill="#0D1F22"/>
<path d="M38.5663 7.20274V8.20274L38.8785 6.25272L38.5663 7.20274ZM37.5875 6.89453L37.8687 5.93487L36.5875 5.5595V6.89453H37.5875ZM37.5875 7.20274H36.5875V8.20274H37.5875V7.20274ZM38.8785 6.25272C38.5524 6.14557 38.2142 6.03612 37.8687 5.93487L37.3063 7.85419C37.619 7.94581 37.9315 8.04676 38.2541 8.15277L38.8785 6.25272ZM36.5875 6.89453V7.20274H38.5875V6.89453H36.5875ZM37.5875 8.20274H38.5663V6.20274H37.5875V8.20274Z" fill="#818C85" mask="url(#path-9-inside-2_114_15432)"/>
<path d="M11.431 11.8859C11.6153 11.7504 11.8012 11.617 11.9888 11.4857V11.8859H11.431Z" fill="#0D1F22" stroke="#818C85"/>
<path d="M15.9913 9.54822H17.1525V11.8864H15.9913V9.54822Z" fill="#0D1F22" stroke="#818C85"/>
<path d="M21.1548 9.54822H22.316V11.8864H21.1548V9.54822Z" fill="#0D1F22" stroke="#818C85"/>
<path d="M26.318 9.54822H27.4792V11.8864H26.318V9.54822Z" fill="#0D1F22" stroke="#818C85"/>
<path d="M31.4821 9.54822H32.6433V11.8864H31.4821V9.54822Z" fill="#0D1F22" stroke="#818C85"/>
<path d="M36.6454 9.54822H37.8066V11.8864H36.6454V9.54822Z" fill="#0D1F22" stroke="#818C85"/>
<path d="M42.9704 9.61593V11.8864H41.8092L41.8092 11.8648L41.8092 10.7173L41.809 9.56971L41.809 9.54822H42.8428C42.8853 9.57057 42.9278 9.59315 42.9704 9.61593Z" fill="#0D1F22" stroke="#818C85"/>
<mask id="path-18-inside-3_114_15432" fill="white">
<path d="M48.063 12.3858C47.5475 11.9674 47.0167 11.5669 46.4726 11.183V12.3858H48.063Z"/>
</mask>
<path d="M48.063 12.3858C47.5475 11.9674 47.0167 11.5669 46.4726 11.183V12.3858H48.063Z" fill="#0D1F22"/>
<path d="M48.063 12.3858V13.3858H50.8818L48.6933 11.6094L48.063 12.3858ZM46.4726 11.183L47.0491 10.3659L45.4726 9.25362V11.183H46.4726ZM46.4726 12.3858H45.4726V13.3858H46.4726V12.3858ZM48.6933 11.6094C48.1593 11.176 47.6105 10.762 47.0491 10.3659L45.8961 12.0001C46.4228 12.3717 46.9356 12.7587 47.4328 13.1623L48.6933 11.6094ZM45.4726 11.183V12.3858H47.4726V11.183H45.4726ZM46.4726 13.3858H48.063V11.3858H46.4726V13.3858Z" fill="#818C85" mask="url(#path-18-inside-3_114_15432)"/>
<path d="M6.60542 17.3053L6.60543 17.8053H6.60542V17.3053ZM7.87692 14.967H8.26663V17.3053H8.26518H8.25973H8.25426H8.24877H8.24326H8.23774H8.23219H8.22663H8.22106H8.21546H8.20985H8.20423H8.19858H8.19292H8.18725H8.18155H8.17585H8.17012H8.16439H8.15863H8.15286H8.14708H8.14128H8.13547H8.12965H8.12381H8.11795H8.11209H8.10621H8.10031H8.09441H8.08849H8.08256H8.07661H8.07066H8.06469H8.05871H8.05272H8.04672H8.0407H8.03468H8.02864H8.02259H8.01654H8.01047H8.00439H7.99831H7.99221H7.9861H7.97999H7.97386H7.96773H7.96159H7.95544H7.94928H7.94311H7.93694H7.93075H7.92456H7.91837H7.91216H7.90595H7.89973H7.89351H7.88728H7.88104H7.87479H7.86854H7.86229H7.85603H7.84976H7.84349H7.83722H7.83094H7.82465H7.81837H7.81207H7.80578H7.79948H7.79317H7.78687H7.78056H7.77424H7.76793H7.76161H7.75529H7.74897H7.74264H7.73632H7.72999H7.72366H7.71733H7.711H7.70467H7.69833H7.692H7.68567H7.67934H7.673H7.66667H7.66034H7.65401H7.64768H7.64135H7.63502H7.62869H7.62237H7.61605H7.60973H7.60341H7.5971H7.59078H7.58447H7.57817H7.57186H7.56556H7.55927H7.55298H7.54669H7.5404H7.53412H7.52785H7.52158H7.51531H7.50905H7.5028H7.49655H7.49031H7.48407H7.47784H7.47162H7.4654H7.45919H7.45299H7.44679H7.4406H7.43442H7.42824H7.42208H7.41592H7.40977H7.40363H7.3975H7.39137H7.38526H7.37915H7.37306H7.36697H7.3609H7.35483H7.34877H7.34273H7.33669H7.33067H7.32466H7.31866H7.31267H7.30669H7.30072H7.29477H7.28882H7.28289H7.27698H7.27107H7.26518H7.2593H7.25344H7.24758H7.24175H7.23592H7.23011H7.22432H7.21853H7.21277H7.20702H7.20128H7.19556H7.18985H7.18416H7.17849H7.17283H7.16719H7.16156H7.15596H7.15036H7.14479H7.13923H7.13369H7.12817H7.12266H7.11718H7.11171H7.10626H7.10542V15.7847C7.35761 15.5071 7.61446 15.2348 7.87692 14.967Z" fill="#0D1F22" stroke="#818C85"/>
<path d="M12.2681 14.9673H13.4293V17.3055H12.2681V14.9673Z" fill="#0D1F22" stroke="#818C85"/>
<path d="M17.4315 14.9673H18.5927V17.3055H17.4315V14.9673Z" fill="#0D1F22" stroke="#818C85"/>
<path d="M22.5952 14.9673H23.7563V17.3055H22.5952V14.9673Z" fill="#0D1F22" stroke="#818C85"/>
<path d="M27.759 14.9673H28.9202V17.3055H27.759V14.9673Z" fill="#0D1F22" stroke="#818C85"/>
<path d="M32.9223 14.9673H34.0835V17.3055H32.9223V14.9673Z" fill="#0D1F22" stroke="#818C85"/>
<path d="M38.0862 14.9673H39.2474V17.3055H38.0862V14.9673Z" fill="#0D1F22" stroke="#818C85"/>
<path d="M43.2499 14.9673H44.4111V17.3055H43.2499V14.9673Z" fill="#0D1F22" stroke="#818C85"/>
<path d="M48.4136 14.9673H49.5748V17.3055H48.4136V14.9673Z" fill="#0D1F22" stroke="#818C85"/>
<mask id="path-29-inside-4_114_15432" fill="white">
<path d="M53.2201 17.8052C53.1729 17.7404 53.1257 17.6752 53.078 17.6105V17.8052H53.2201Z"/>
</mask>
<path d="M53.2201 17.8052C53.1729 17.7404 53.1257 17.6752 53.078 17.6105V17.8052H53.2201Z" fill="#0D1F22"/>
<path d="M53.2201 17.8052V18.8052H55.1864L54.0282 17.2162L53.2201 17.8052ZM53.078 17.6105L53.8833 17.0176L52.078 14.5656V17.6105H53.078ZM53.078 17.8052H52.078V18.8052H53.078V17.8052ZM54.0282 17.2162C53.9837 17.1551 53.9328 17.0849 53.8833 17.0176L52.2727 18.2034C52.3185 18.2656 52.3621 18.3258 52.412 18.3942L54.0282 17.2162ZM52.078 17.6105V17.8052H54.078V17.6105H52.078ZM53.078 18.8052H53.2201V16.8052H53.078V18.8052Z" fill="#818C85" mask="url(#path-29-inside-4_114_15432)"/>
<mask id="path-31-inside-5_114_15432" fill="white">
<path d="M2.1613 22.1808C2.03146 22.4475 1.90732 22.7165 1.78604 22.9868H2.1613V22.1808Z"/>
</mask>
<path d="M2.1613 22.1808C2.03146 22.4475 1.90732 22.7165 1.78604 22.9868H2.1613V22.1808Z" fill="#0D1F22"/>
<path d="M2.1613 22.1808H3.1613L1.2622 21.743L2.1613 22.1808ZM1.78604 22.9868L0.873631 22.5776L0.241478 23.9868H1.78604V22.9868ZM2.1613 22.9868V23.9868H3.1613V22.9868H2.1613ZM1.2622 21.743C1.12643 22.0219 0.997726 22.3009 0.873631 22.5776L2.69845 23.3961C2.81692 23.132 2.93649 22.873 3.0604 22.6185L1.2622 21.743ZM1.78604 23.9868H2.1613V21.9868H1.78604V23.9868ZM3.1613 22.9868V22.1808H1.1613V22.9868H3.1613Z" fill="#818C85" mask="url(#path-31-inside-5_114_15432)"/>
<path d="M5.6637 20.1498H6.8249V22.488H5.6637V20.1498Z" fill="#0D1F22" stroke="#818C85"/>
<path d="M10.8272 20.1498H11.9884V22.488H10.8272V20.1498Z" fill="#0D1F22" stroke="#818C85"/>
<path d="M15.9913 20.1498H17.1525V22.488H15.9913V20.1498Z" fill="#0D1F22" stroke="#818C85"/>
<path d="M21.1548 20.1498H22.316V22.488H21.1548V20.1498Z" fill="#0D1F22" stroke="#818C85"/>
<path d="M26.318 20.1498H27.4792V22.488H26.318V20.1498Z" fill="#0D1F22" stroke="#818C85"/>
<path d="M31.4821 20.1498H32.6433V22.488H31.4821V20.1498Z" fill="#0D1F22" stroke="#818C85"/>
<path d="M36.6454 20.1498H37.8066V22.488H36.6454V20.1498Z" fill="#0D1F22" stroke="#818C85"/>
<path d="M41.8092 20.1498H42.9704V22.488H41.8092V20.1498Z" fill="#0D1F22" stroke="#818C85"/>
<path d="M46.973 20.1498H48.1342V22.488H46.973V20.1498Z" fill="#0D1F22" stroke="#818C85"/>
<path d="M52.1363 20.1498H53.2975V22.488H52.1363V20.1498Z" fill="#0D1F22" stroke="#818C85"/>
<path d="M1.94058 25.5692H3.10178V27.9074H1.94058V25.5692Z" fill="#0D1F22" stroke="#818C85"/>
<path d="M7.10435 25.5692H8.26556V27.9074H7.10435V25.5692Z" fill="#0D1F22" stroke="#818C85"/>
<path d="M12.2681 25.5692H13.4293V27.9074H12.2681V25.5692Z" fill="#0D1F22" stroke="#818C85"/>
<path d="M17.4315 25.5692H18.5927V27.9074H17.4315V25.5692Z" fill="#0D1F22" stroke="#818C85"/>
<path d="M22.5952 25.5692H23.7563V27.9074H22.5952V25.5692Z" fill="#0D1F22" stroke="#818C85"/>
<path d="M27.759 25.5692H28.9202V27.9074H27.759V25.5692Z" fill="#0D1F22" stroke="#818C85"/>
<path d="M32.9223 25.5692H34.0835V27.9074H32.9223V25.5692Z" fill="#0D1F22" stroke="#818C85"/>
<path d="M38.0862 25.5692H39.2474V27.9074H38.0862V25.5692Z" fill="#0D1F22" stroke="#818C85"/>
<path d="M43.2499 25.5692H44.4111V27.9074H43.2499V25.5692Z" fill="#0D1F22" stroke="#818C85"/>
<path d="M48.4136 25.5692H49.5748V27.9074H48.4136V25.5692Z" fill="#0D1F22" stroke="#818C85"/>
<path d="M53.5769 25.5692H54.7381V27.9074H53.5769V25.5692Z" fill="#0D1F22" stroke="#818C85"/>
<path d="M0.5 30.752H1.6612V33.0902H0.5V30.752Z" fill="#0D1F22" stroke="#818C85"/>
<path d="M5.6637 30.752H6.8249V33.0902H5.6637V30.752Z" fill="#0D1F22" stroke="#818C85"/>
<path d="M10.8272 30.752H11.9884V33.0902H10.8272V30.752Z" fill="#0D1F22" stroke="#818C85"/>
<path d="M15.9913 30.752H17.1525V33.0902H15.9913V30.752Z" fill="#0D1F22" stroke="#818C85"/>
<path d="M21.1548 30.752H22.316V33.0902H21.1548V30.752Z" fill="#0D1F22" stroke="#818C85"/>
<path d="M26.318 30.752H27.4792V33.0902H26.318V30.752Z" fill="#0D1F22" stroke="#818C85"/>
<path d="M31.4821 30.752H32.6433V33.0902H31.4821V30.752Z" fill="#0D1F22" stroke="#818C85"/>
<path d="M36.6454 30.752H37.8066V33.0902H36.6454V30.752Z" fill="#0D1F22" stroke="#818C85"/>
<path d="M41.8092 30.752H42.9704V33.0902H41.8092V30.752Z" fill="#0D1F22" stroke="#818C85"/>
<path d="M46.973 30.752H48.1342V33.0902H46.973V30.752Z" fill="#0D1F22" stroke="#818C85"/>
<path d="M52.1363 30.752H53.2975V33.0902H52.1363V30.752Z" fill="#0D1F22" stroke="#818C85"/>
<path d="M57.9514 30.752C58.0547 31.521 58.124 32.3009 58.1623 33.0902H57.3002V30.752H57.9514Z" fill="#0D1F22" stroke="#818C85"/>
<path d="M1.94058 36.1704H3.10178V38.5086H1.94058V36.1704Z" fill="#0D1F22" stroke="#818C85"/>
<path d="M7.10435 36.1704H8.26556V38.5086H7.10435V36.1704Z" fill="#0D1F22" stroke="#818C85"/>
<path d="M12.2681 36.1704H13.4293V38.5086H12.2681V36.1704Z" fill="#0D1F22" stroke="#818C85"/>
<path d="M17.4315 36.1704H18.5927V38.5086H17.4315V36.1704Z" fill="#0D1F22" stroke="#818C85"/>
<path d="M22.5952 36.1704H23.7563V38.5086H22.5952V36.1704Z" fill="#0D1F22" stroke="#818C85"/>
<path d="M27.759 36.1704H28.9202V38.5086H27.759V36.1704Z" fill="#0D1F22" stroke="#818C85"/>
<path d="M32.9223 36.1704H34.0835V38.5086H32.9223V36.1704Z" fill="#0D1F22" stroke="#818C85"/>
<path d="M38.0862 36.1704H39.2474V38.5086H38.0862V36.1704Z" fill="#0D1F22" stroke="#818C85"/>
<path d="M43.2499 36.1704H44.4111V38.5086H43.2499V36.1704Z" fill="#0D1F22" stroke="#818C85"/>
<path d="M48.4136 36.1704H49.5748V38.5086H48.4136V36.1704Z" fill="#0D1F22" stroke="#818C85"/>
<path d="M53.5769 36.1704H54.7381V38.5086H53.5769V36.1704Z" fill="#0D1F22" stroke="#818C85"/>
<mask id="path-77-inside-6_114_15432" fill="white">
<path d="M58.2405 35.6704V39.0086H58.3366C58.5145 37.9156 58.6263 36.8008 58.6743 35.6704H58.2405Z"/>
</mask>
<path d="M58.2405 35.6704V39.0086H58.3366C58.5145 37.9156 58.6263 36.8008 58.6743 35.6704H58.2405Z" fill="#0D1F22"/>
<path d="M58.2405 35.6704V34.6704H57.2405V35.6704H58.2405ZM58.2405 39.0086H57.2405V40.0086H58.2405V39.0086ZM58.3366 39.0086V40.0086H59.187L59.3236 39.1693L58.3366 39.0086ZM58.6743 35.6704L59.6734 35.7129L59.7177 34.6704H58.6743V35.6704ZM57.2405 35.6704V39.0086H59.2405V35.6704H57.2405ZM58.2405 40.0086H58.3366V38.0086H58.2405V40.0086ZM59.3236 39.1693C59.5082 38.0354 59.6238 36.8811 59.6734 35.7129L57.6752 35.628C57.6288 36.7205 57.5208 37.7958 57.3496 38.848L59.3236 39.1693ZM58.6743 34.6704H58.2405V36.6704H58.6743V34.6704Z" fill="#818C85" mask="url(#path-77-inside-6_114_15432)"/>
<path d="M1.40879 43.6912C1.13824 42.9269 0.902061 42.1468 0.698812 41.353H1.66131V43.6912H1.40879Z" fill="#0D1F22" stroke="#818C85"/>
<path d="M5.6637 41.353H6.8249V43.6912H5.6637V41.353Z" fill="#0D1F22" stroke="#818C85"/>
<path d="M10.8272 41.353H11.9884V43.6912H10.8272V41.353Z" fill="#0D1F22" stroke="#818C85"/>
<path d="M15.9913 41.353H17.1525V43.6912H15.9913V41.353Z" fill="#0D1F22" stroke="#818C85"/>
<path d="M21.1548 41.353H22.316V43.6912H21.1548V41.353Z" fill="#0D1F22" stroke="#818C85"/>
<path d="M26.318 41.353H27.4792V43.6912H26.318V41.353Z" fill="#0D1F22" stroke="#818C85"/>
<path d="M31.4821 41.353H32.6433V43.6912H31.4821V41.353Z" fill="#0D1F22" stroke="#818C85"/>
<path d="M36.6454 41.353H37.8066V43.6912H36.6454V41.353Z" fill="#0D1F22" stroke="#818C85"/>
<path d="M41.8092 41.353H42.9704V43.6912H41.8092V41.353Z" fill="#0D1F22" stroke="#818C85"/>
<path d="M46.973 41.353H48.1342V43.6912H46.973V41.353Z" fill="#0D1F22" stroke="#818C85"/>
<path d="M52.1363 41.353H53.2975V43.6912H52.1363V41.353Z" fill="#0D1F22" stroke="#818C85"/>
<path d="M57.3296 41.3534C57.3195 41.3928 57.3094 41.4321 57.2991 41.4714V41.3534H57.3296Z" fill="#0D1F22" stroke="#818C85"/>
<path d="M3.10195 46.7723V47.5134C2.97175 47.2685 2.84502 47.0214 2.72166 46.7723H3.10195Z" fill="#0D1F22" stroke="#818C85"/>
<path d="M7.10435 46.7723H8.26556V49.1106H7.10435V46.7723Z" fill="#0D1F22" stroke="#818C85"/>
<path d="M12.2681 46.7723H13.4293V49.1106H12.2681V46.7723Z" fill="#0D1F22" stroke="#818C85"/>
<path d="M17.4315 46.7723H18.5927V49.1106H17.4315V46.7723Z" fill="#0D1F22" stroke="#818C85"/>
<path d="M22.5952 46.7723H23.7563V49.1106H22.5952V46.7723Z" fill="#0D1F22" stroke="#818C85"/>
<path d="M27.759 46.7723H28.9202V49.1106H27.759V46.7723Z" fill="#0D1F22" stroke="#818C85"/>
<path d="M32.9223 46.7723H34.0835V49.1106H32.9223V46.7723Z" fill="#0D1F22" stroke="#818C85"/>
<path d="M38.0862 46.7723H39.2474V49.1106H38.0862V46.7723Z" fill="#0D1F22" stroke="#818C85"/>
<path d="M43.2499 46.7723H44.4111V49.1106H43.2499V46.7723Z" fill="#0D1F22" stroke="#818C85"/>
<path d="M48.4136 46.7723H49.5748V49.1106H48.4136V46.7723Z" fill="#0D1F22" stroke="#818C85"/>
<path d="M54.0016 49.1106H53.5769V46.7723H54.7381V47.8586C54.5029 48.2827 54.2577 48.7001 54.0016 49.1106Z" fill="#0D1F22" stroke="#818C85"/>
<path d="M6.05385 51.954H6.8249V52.8623C6.56145 52.5647 6.3043 52.262 6.05385 51.954Z" fill="#0D1F22" stroke="#818C85"/>
<path d="M10.8272 51.9545H11.9884V54.2927H10.8272V51.9545Z" fill="#0D1F22" stroke="#818C85"/>
<path d="M15.9913 51.9545H17.1525V54.2927H15.9913V51.9545Z" fill="#0D1F22" stroke="#818C85"/>
<path d="M21.1548 51.9545H22.316V54.2927H21.1548V51.9545Z" fill="#0D1F22" stroke="#818C85"/>
<path d="M26.318 51.9545H27.4792V54.2927H26.318V51.9545Z" fill="#0D1F22" stroke="#818C85"/>
<path d="M31.4821 51.9545H32.6433V54.2927H31.4821V51.9545Z" fill="#0D1F22" stroke="#818C85"/>
<path d="M36.6454 51.9545H37.8066V54.2927H36.6454V51.9545Z" fill="#0D1F22" stroke="#818C85"/>
<path d="M41.8092 51.9545H42.9704V54.2927H41.8092V51.9545Z" fill="#0D1F22" stroke="#818C85"/>
<path d="M46.973 51.9545H48.1342V54.2927H46.973V51.9545Z" fill="#0D1F22" stroke="#818C85"/>
<mask id="path-111-inside-7_114_15432" fill="white">
<path d="M51.6363 53.1247C52.11 52.5844 52.5642 52.0275 52.9961 51.454H51.6363V53.1247Z"/>
</mask>
<path d="M51.6363 53.1247C52.11 52.5844 52.5642 52.0275 52.9961 51.454H51.6363V53.1247Z" fill="#0D1F22"/>
<path d="M51.6363 53.1247H50.6363V55.7821L52.3882 53.784L51.6363 53.1247ZM52.9961 51.454L53.7949 52.0555L55.0009 50.454H52.9961V51.454ZM51.6363 51.454V50.454H50.6363V51.454H51.6363ZM52.3882 53.784C52.8775 53.2258 53.3475 52.6497 53.7949 52.0555L52.1972 50.8524C51.7809 51.4053 51.3424 51.943 50.8843 52.4654L52.3882 53.784ZM52.9961 50.454H51.6363V52.454H52.9961V50.454ZM50.6363 51.454V53.1247H52.6363V51.454H50.6363Z" fill="#818C85" mask="url(#path-111-inside-7_114_15432)"/>
<path d="M13.4293 58.4082C13.036 58.1662 12.649 57.9152 12.2681 57.6557V57.3737H13.4293V58.4082Z" fill="#0D1F22" stroke="#818C85"/>
<path d="M17.4315 57.3737H18.5927V59.7119H17.4315V57.3737Z" fill="#0D1F22" stroke="#818C85"/>
<path d="M22.5952 57.3737H23.7563V59.7119H22.5952V57.3737Z" fill="#0D1F22" stroke="#818C85"/>
<path d="M27.759 57.3737H28.9202V59.7119H27.759V57.3737Z" fill="#0D1F22" stroke="#818C85"/>
<path d="M32.9223 57.3737H34.0835V59.7119H32.9223V57.3737Z" fill="#0D1F22" stroke="#818C85"/>
<path d="M38.0862 57.3737H39.2474V59.7119H38.0862V57.3737Z" fill="#0D1F22" stroke="#818C85"/>
<path d="M44.4111 57.3734V58.5209C44.0297 58.7512 43.6426 58.9734 43.2499 59.1869V57.3736L44.4111 57.3734Z" fill="#0D1F22" stroke="#818C85"/>
<mask id="path-120-inside-8_114_15432" fill="white">
<path d="M20.6548 62.0565V62.1183C21.3653 62.32 22.085 62.5009 22.816 62.6504V62.0565H20.6548Z"/>
</mask>
<path d="M20.6548 62.0565V62.1183C21.3653 62.32 22.085 62.5009 22.816 62.6504V62.0565H20.6548Z" fill="#0D1F22"/>
<path d="M20.6548 62.0565V61.0565H19.6548V62.0565H20.6548ZM20.6548 62.1183H19.6548V62.8741L20.3818 63.0804L20.6548 62.1183ZM22.816 62.6504L22.6156 63.6301L23.816 63.8756V62.6504H22.816ZM22.816 62.0565H23.816V61.0565H22.816V62.0565ZM19.6548 62.0565V62.1183H21.6548V62.0565H19.6548ZM20.3818 63.0804C21.1117 63.2875 21.8558 63.4747 22.6156 63.6301L23.0163 61.6706C22.3141 61.527 21.619 61.3525 20.9278 61.1563L20.3818 63.0804ZM23.816 62.6504V62.0565H21.816V62.6504H23.816ZM22.816 61.0565H20.6548V63.0565H22.816V61.0565Z" fill="#818C85" mask="url(#path-120-inside-8_114_15432)"/>
<path d="M27.4792 62.7384C27.0894 62.7199 26.7022 62.6946 26.318 62.6613V62.5565H27.4792V62.7384Z" fill="#0D1F22" stroke="#818C85"/>
<path d="M32.6433 62.5603C32.2588 62.6064 31.8716 62.6451 31.4821 62.6766V62.556H32.6433V62.5603Z" fill="#0D1F22" stroke="#818C85"/>
<mask id="path-124-inside-9_114_15432" fill="white">
<path d="M36.1454 62.4422C36.6348 62.3255 37.1195 62.1968 37.5994 62.0565H36.1454V62.4422Z"/>
</mask>
<path d="M36.1454 62.4422C36.6348 62.3255 37.1195 62.1968 37.5994 62.0565H36.1454V62.4422Z" fill="#0D1F22"/>
<path d="M36.1454 62.4422H35.1454V63.7088L36.3774 63.415L36.1454 62.4422ZM37.5994 62.0565L37.8799 63.0164L37.5994 61.0565V62.0565ZM36.1454 62.0565V61.0565H35.1454V62.0565H36.1454ZM36.3774 63.415C36.8833 63.2943 37.3841 63.1613 37.8799 63.0164L37.3188 61.0967C36.8548 61.2323 36.3863 61.3567 35.9134 61.4695L36.3774 63.415ZM37.5994 61.0565H36.1454V63.0565H37.5994V61.0565ZM35.1454 62.0565V62.4422H37.1454V62.0565H35.1454Z" fill="#818C85" mask="url(#path-124-inside-9_114_15432)"/>
</svg>
