<svg width="406" height="338" viewBox="0 0 406 338" fill="none" xmlns="http://www.w3.org/2000/svg">
<path d="M107.395 40.7185L87.8616 34.7629C87.4446 35.2939 87.0683 35.8696 86.7454 36.4911C86.4715 37.0186 86.2456 37.5592 86.0636 38.1056L107.028 44.4963C107.375 43.2487 107.492 41.9711 107.395 40.7185Z" fill="#DB5461"/>
<path d="M101.658 31.8953L97.5246 30.635C95.0352 30.3944 92.5423 31.0189 90.4684 32.3747L106.562 37.281C105.623 35.0543 103.945 33.1256 101.658 31.8953Z" fill="#DB5461"/>
<path d="M98.8482 52.2619L88.5277 49.1152C89.3411 49.9716 90.3057 50.7109 91.4107 51.2869C93.7912 52.5268 96.418 52.8036 98.8482 52.2619V52.2619Z" fill="#DB5461"/>
<path d="M105.797 47.3063L85.5161 41.1235C85.4623 42.5178 85.677 43.9021 86.1348 45.2028L103.021 50.3509C104.106 49.5423 105.053 48.5185 105.797 47.3063Z" fill="#DB5461"/>
<line y1="117.5" x2="242" y2="117.5" stroke="#F5F9E9"/>
<g clip-path="url(#clip0_80_1502)">
<path d="M86.4826 107.642C86.4826 107.642 72.2027 101.065 77.2192 96.5046C82.2358 91.9439 86.4826 107.642 86.4826 107.642Z" fill="#F5F9E9"/>
<path d="M86.2341 109.177C86.2341 109.177 79.6705 87.6009 89.3356 88.6328C99.0008 89.6646 86.2341 109.177 86.2341 109.177Z" fill="#F5F9E9"/>
<path d="M81.4485 107.263L81.724 110.872L81.7284 110.935C81.7281 111.498 81.7566 112.062 81.8136 112.622C82.1875 116.304 83.7945 117.981 85.6726 117.981C87.5507 117.981 89.0877 116.304 89.4616 112.622C89.5186 112.062 89.5471 111.498 89.5468 110.935L89.549 110.884L89.5501 110.872L89.8267 107.263H81.4485Z" fill="#8D8572"/>
<path d="M89.5501 110.872L89.549 110.884L89.5468 110.935C89.5471 111.498 89.5186 112.062 89.4616 112.622H81.8137C81.7566 112.062 81.7281 111.498 81.7284 110.935L81.724 110.872H89.5501Z" fill="white"/>
<path d="M179.62 109.849C179.62 109.849 168.564 104.757 172.448 101.226C176.332 97.6954 179.62 109.849 179.62 109.849Z" fill="#0B7A75"/>
<path d="M179.428 111.037C179.428 111.037 174.346 94.3332 181.829 95.132C189.312 95.9309 179.428 111.037 179.428 111.037Z" fill="#0B7A75"/>
<path d="M175.723 109.556L175.936 112.35L175.939 112.398C175.939 112.835 175.961 113.271 176.005 113.705C176.295 116.555 177.539 117.854 178.993 117.854C180.447 117.854 181.637 116.555 181.926 113.705C181.971 113.271 181.993 112.835 181.992 112.398L181.994 112.359L181.995 112.35L182.209 109.556H175.723Z" fill="#E6E6E6"/>
<path d="M181.995 112.35L181.994 112.36L181.992 112.399C181.993 112.835 181.971 113.271 181.926 113.705H176.005C175.961 113.271 175.939 112.835 175.939 112.399L175.936 112.35H181.995Z" fill="white"/>
<path d="M110.619 63.4072V58.4985H109.856V63.4072C109.637 63.4958 109.456 63.6577 109.343 63.8653C109.231 64.0729 109.194 64.3132 109.239 64.545C109.284 64.7768 109.408 64.9857 109.59 65.136C109.772 65.2862 110.001 65.3683 110.237 65.3683C110.473 65.3683 110.702 65.2862 110.884 65.136C111.066 64.9857 111.191 64.7768 111.236 64.545C111.281 64.3132 111.244 64.0729 111.131 63.8653C111.019 63.6577 110.837 63.4958 110.619 63.4072Z" fill="#E6E6E6"/>
<path d="M112.399 112.945H107.186V49.5938H105.151V112.945H99.9379C99.3201 112.945 98.7083 113.066 98.1375 113.303C97.5667 113.539 97.0481 113.886 96.6112 114.323C96.1743 114.76 95.8278 115.279 95.5914 115.85C95.3549 116.421 95.2333 117.033 95.2333 117.651V117.651H117.103V117.651C117.103 117.033 116.982 116.421 116.745 115.85C116.509 115.279 116.162 114.76 115.725 114.323C115.289 113.886 114.77 113.539 114.199 113.303C113.628 113.066 113.017 112.945 112.399 112.945V112.945Z" fill="#E6E6E6"/>
<path d="M95.2438 59.0073H117.093L115.757 42.2995C115.708 41.7233 115.445 41.1864 115.021 40.7942C114.596 40.402 114.04 40.1829 113.462 40.1802H98.8745C98.2966 40.1829 97.7406 40.402 97.316 40.7942C96.8913 41.1864 96.6288 41.7233 96.5799 42.2995L95.2438 59.0073Z" fill="#ECA400"/>
<path d="M125.666 88.3319C125.46 88.2977 125.25 88.3047 125.047 88.3525C124.844 88.4002 124.653 88.4879 124.484 88.6102C124.316 88.7326 124.173 88.8872 124.065 89.0652C123.956 89.2432 123.884 89.441 123.853 89.6471L123.238 93.6858L125.331 94.2412L126.864 90.4782C126.953 90.2596 126.992 90.0237 126.978 89.788C126.963 89.5523 126.896 89.3229 126.781 89.1167C126.666 88.9106 126.506 88.733 126.313 88.5971C126.12 88.4613 125.899 88.3706 125.666 88.3319Z" fill="#A0616A"/>
<path d="M125.627 93.6783C126.788 98.2963 126.288 102.52 121.963 105.837C116.775 104.406 113.325 100.954 111.22 95.9373C111.089 95.6254 111.023 95.2902 111.025 94.9519C111.027 94.6136 111.098 94.2793 111.233 93.9691C111.367 93.6589 111.564 93.3792 111.81 93.147C112.056 92.9148 112.346 92.7349 112.663 92.6181V92.6181C113.14 92.4427 113.659 92.4167 114.151 92.5436C114.643 92.6704 115.085 92.9441 115.417 93.3282L120.507 99.2058L122.895 93.2792L125.627 93.6783Z" fill="#ECA400"/>
<path d="M152.207 117.906C147.47 117.655 144.527 116.028 143.815 112.691L144.577 111.292L153.312 115.272C153.533 115.373 153.718 115.537 153.845 115.743C153.973 115.949 154.036 116.189 154.026 116.431C154.017 116.673 153.936 116.908 153.794 117.104C153.651 117.3 153.454 117.449 153.226 117.532L152.207 117.906Z" fill="#E6E6E6"/>
<path d="M148.546 117.94C146.085 117.865 143.718 117.889 141.476 118.04C141.082 118.067 140.694 117.938 140.395 117.68C140.097 117.423 139.912 117.058 139.88 116.665L139.746 114.981L137.838 111.928L139.491 110.274C142.269 113.042 145.316 115.367 148.934 116.749C149.05 116.829 149.138 116.944 149.183 117.077C149.228 117.211 149.229 117.355 149.186 117.49C149.142 117.624 149.056 117.74 148.941 117.821C148.826 117.902 148.687 117.944 148.546 117.94V117.94Z" fill="#E6E6E6"/>
<path d="M135.168 105.949C132.025 111.575 128.935 115.367 124.869 117.398C119.867 119.049 116.211 116.861 113.362 112.373L121.626 106.903L122.834 108.111L133.782 99.7768C134.049 99.5235 134.406 99.386 134.774 99.3941C135.142 99.4023 135.492 99.5556 135.748 99.8205L145.086 111.292L143.942 113.2L135.168 105.949Z" fill="#2F2E41"/>
<path d="M137.966 112.564L133.642 105.949L134.66 104.041L140.381 110.019L137.966 112.564Z" fill="#2F2E41"/>
<path d="M113.044 91.4467C115.431 91.4467 117.367 89.5103 117.367 87.1215C117.367 84.7328 115.431 82.7964 113.044 82.7964C110.656 82.7964 108.721 84.7328 108.721 87.1215C108.721 89.5103 110.656 91.4467 113.044 91.4467Z" fill="#A0616A"/>
<path d="M114.188 95.1358L109.356 93.4821C110.071 92.3454 110.385 91.0017 110.246 89.6658H114.188C113.964 91.6067 113.93 93.4477 114.188 95.1358Z" fill="#A0616A"/>
<path d="M124.487 106.712C123.763 107.01 123.71 107.974 123.025 108.302C119.714 109.887 116.211 111.173 113.807 113.454C108.187 109.637 102.979 97.7798 109.738 92.5918C112.045 93.9424 114.106 94.9089 114.061 92.5918L124.487 106.712Z" fill="#ECA400"/>
<path opacity="0.2" d="M121.563 101.624L119.211 100.797L114.57 104.422L112.489 96.9291C112.345 96.4094 112.111 96.6729 111.775 97.0339C111.425 96.7098 110.99 96.4926 110.521 96.4079C110.052 96.3232 109.568 96.3745 109.127 96.5558C108.686 96.737 108.306 97.0407 108.031 97.431C107.757 97.8212 107.6 98.2818 107.579 98.7584C107.331 104.194 108.97 108.792 113.044 112.309C118.372 111.168 120.634 107.566 121.563 102.896L121.311 102.728C121.404 102.367 121.488 101.999 121.563 101.624Z" fill="black"/>
<path d="M113.625 81.432C115.051 81.7579 116.675 82.2198 116.766 82.649C118.232 83.0188 119.34 83.9047 119.566 85.2551C119.585 85.3719 119.578 85.4913 119.545 85.6051C119.513 85.7188 119.456 85.8241 119.379 85.9135C119.302 86.003 119.206 86.0743 119.098 86.1226C118.99 86.1709 118.873 86.195 118.755 86.1931C117.957 86.1828 116.759 86.1064 115.969 85.7759C113.671 87.2568 113.286 91.1084 114.289 93.7301L112.71 93.5853L111.077 88.8019L110.66 93.3973L107.057 92.9207L107.521 87.0608C107.664 85.6797 108.134 84.3525 108.892 83.1894C108.97 83.0726 109.057 82.961 109.15 82.8552C109.698 82.2358 110.403 81.7763 111.191 81.5258C111.979 81.2752 112.82 81.2428 113.625 81.432V81.432Z" fill="#2F2E41"/>
<path d="M121.753 95.9528L125.71 100.607L131.645 93.599L127.635 88.7312L121.753 95.9528Z" fill="#3F3D56"/>
<path d="M130.629 93.7594L125.924 89.908C126.191 89.2661 127.474 89.48 127.474 89.48L131.157 93.2157C131.286 93.3458 131.396 93.4927 131.484 93.6524V93.6524L130.629 93.7594Z" fill="#ECA400"/>
<path d="M130.843 93.492L125.496 89.3196L119.561 98.3063L125.148 102.078C125.683 102.291 126.218 101.917 126.218 101.917L131.671 93.5722L130.843 93.492Z" fill="#3F3D56"/>
<path d="M126.163 90.622L126.112 90.6924L129.534 93.1527L129.585 93.0823L126.163 90.622Z" fill="#ECA400"/>
<path d="M129.63 94.0031L125.139 100.797L125.211 100.844L129.703 94.0509L129.63 94.0031Z" fill="#ECA400"/>
<path d="M121.031 98.3244L120.979 98.3943L124.614 101.07L124.666 101L121.031 98.3244Z" fill="#ECA400"/>
<path d="M125.514 90.7392L120.862 97.4258L120.933 97.4753L125.585 90.7887L125.514 90.7392Z" fill="#ECA400"/>
<path d="M126.951 89.4272L126.915 89.4666L131.145 93.3513L131.182 93.3119L126.951 89.4272Z" fill="#ECA400"/>
<path d="M126.598 89.4604L126.563 89.5005L130.985 93.4059L131.02 93.3658L126.598 89.4604Z" fill="#ECA400"/>
<path d="M126.322 89.5382L126.287 89.5793L130.878 93.4073L130.912 93.3662L126.322 89.5382Z" fill="#ECA400"/>
<path d="M123.889 97.3189C123.718 97.1999 123.525 97.116 123.321 97.0722C123.118 97.0284 122.907 97.0256 122.702 97.0638C122.498 97.102 122.302 97.1805 122.128 97.2949C121.954 97.4092 121.804 97.557 121.687 97.7297L119.401 101.115L121.054 102.514L124.052 99.772C124.226 99.6127 124.362 99.4162 124.45 99.1971C124.538 98.978 124.576 98.7418 124.56 98.5062C124.544 98.2706 124.476 98.0416 124.36 97.836C124.244 97.6305 124.083 97.4538 123.889 97.3189V97.3189Z" fill="#A0616A"/>
<path d="M121.563 102.133C120.634 106.803 118.372 110.405 113.044 111.546C108.97 108.029 107.331 103.43 107.579 97.9952C107.594 97.6573 107.678 97.326 107.825 97.0213C107.972 96.7166 108.179 96.4448 108.434 96.2224C108.689 96 108.986 95.8316 109.307 95.7273C109.629 95.6229 109.968 95.5849 110.305 95.6155V95.6155C110.811 95.6615 111.291 95.8605 111.681 96.1861C112.071 96.5117 112.353 96.9484 112.489 97.4381L114.57 104.931L119.266 100.601L121.563 102.133Z" fill="#ECA400"/>
<path d="M185.618 118.052H73.3992V117.774H185.668L185.618 118.052Z" fill="#3F3D56"/>
<path d="M132.053 51.8208C131.986 51.8209 131.921 51.8477 131.873 51.8954C131.826 51.9431 131.799 52.0078 131.799 52.0752V71.92C131.799 71.9875 131.826 72.0522 131.873 72.0999C131.921 72.1476 131.986 72.1744 132.053 72.1745H148.583C148.65 72.1744 148.715 72.1476 148.762 72.0999C148.81 72.0522 148.837 71.9875 148.837 71.92V52.0752C148.837 52.0078 148.81 51.9431 148.762 51.8954C148.715 51.8477 148.65 51.8209 148.583 51.8208H132.053Z" fill="#E6E6E6"/>
<path d="M133.769 70.2026H146.866V53.7925H133.769V70.2026Z" fill="white"/>
<path d="M159.573 57.0364C159.533 57.0364 159.494 57.0524 159.466 57.0809C159.437 57.1094 159.421 57.148 159.421 57.1883V67.0613C159.421 67.1016 159.437 67.1402 159.466 67.1687C159.494 67.1971 159.533 67.2132 159.573 67.2132H171.415C171.455 67.2132 171.494 67.1971 171.522 67.1687C171.551 67.1402 171.567 67.1016 171.567 67.0613V57.1883C171.567 57.148 171.551 57.1094 171.522 57.0809C171.494 57.0525 171.455 57.0364 171.415 57.0364L159.573 57.0364Z" fill="#E6E6E6"/>
<path d="M160.598 58.2136V66.0361H170.39V58.2136H160.598Z" fill="#737374"/>
<path d="M142.63 53.2202H138.005C137.894 53.2206 137.784 53.1915 137.687 53.1358C137.59 53.08 137.509 52.9997 137.454 52.9029C137.398 52.806 137.368 52.6961 137.369 52.5843C137.369 52.4725 137.399 52.3627 137.455 52.2661L139.767 48.259C139.769 48.2557 139.771 48.2524 139.773 48.2491C139.824 48.1638 139.894 48.0918 139.977 48.0388C140.061 47.9857 140.156 47.9533 140.255 47.944L140.258 47.9437C140.278 47.9419 140.298 47.9409 140.318 47.9409C140.43 47.9403 140.539 47.9694 140.636 48.0253C140.733 48.0812 140.813 48.1618 140.868 48.259L143.181 52.2661C143.237 52.3628 143.266 52.4725 143.266 52.5841C143.266 52.6957 143.237 52.8054 143.181 52.9021C143.125 52.9988 143.045 53.0791 142.948 53.1349C142.852 53.1907 142.742 53.2201 142.63 53.2202V53.2202ZM137.878 52.5835C137.878 52.606 137.884 52.6282 137.895 52.6477C137.906 52.6672 137.922 52.6834 137.942 52.6946C137.961 52.7058 137.983 52.7115 138.005 52.7113H142.63C142.653 52.7116 142.675 52.7058 142.694 52.6946C142.713 52.6834 142.729 52.6672 142.74 52.6477C142.752 52.6282 142.758 52.6061 142.758 52.5835C142.758 52.5614 142.752 52.5396 142.74 52.5206L140.428 48.5134C140.417 48.494 140.401 48.478 140.381 48.4668C140.362 48.4556 140.34 48.4498 140.318 48.4498C140.296 48.4498 140.274 48.4556 140.254 48.4668C140.235 48.478 140.219 48.494 140.208 48.5134L137.895 52.5205C137.884 52.5396 137.878 52.5613 137.878 52.5835V52.5835Z" fill="#E6E6E6"/>
<path d="M140.318 49.1495C140.528 49.1495 140.699 48.9786 140.699 48.7679C140.699 48.5571 140.528 48.3862 140.318 48.3862C140.107 48.3862 139.936 48.5571 139.936 48.7679C139.936 48.9786 140.107 49.1495 140.318 49.1495Z" fill="#E6E6E6"/>
<path d="M166.748 57.3544H164.24C164.18 57.3547 164.12 57.3389 164.067 57.3087C164.015 57.2785 163.971 57.2349 163.941 57.1824C163.911 57.1299 163.895 57.0703 163.895 57.0097C163.895 56.9491 163.911 56.8895 163.942 56.8372L165.195 54.6646L165.199 54.6593C165.226 54.6131 165.264 54.574 165.309 54.5452C165.355 54.5165 165.406 54.4989 165.46 54.4938L165.461 54.4937C165.472 54.4927 165.483 54.4922 165.494 54.4922C165.555 54.4918 165.614 54.5076 165.667 54.5379C165.719 54.5682 165.762 54.612 165.792 54.6646L167.046 56.8372C167.076 56.8896 167.092 56.949 167.092 57.0096C167.092 57.0701 167.076 57.1296 167.046 57.182C167.016 57.2344 166.972 57.2779 166.92 57.3082C166.868 57.3385 166.808 57.3544 166.748 57.3544V57.3544ZM164.171 57.0092C164.171 57.0215 164.174 57.0335 164.18 57.0441C164.186 57.0546 164.195 57.0634 164.206 57.0695C164.216 57.0755 164.228 57.0787 164.24 57.0786H166.748C166.76 57.0787 166.772 57.0755 166.782 57.0695C166.793 57.0634 166.801 57.0546 166.807 57.0441C166.814 57.0335 166.817 57.0215 166.817 57.0093C166.817 56.9973 166.814 56.9855 166.807 56.9751L165.554 54.8026C165.548 54.7921 165.539 54.7834 165.528 54.7773C165.518 54.7713 165.506 54.7681 165.494 54.7681C165.482 54.7681 165.47 54.7713 165.459 54.7773C165.449 54.7834 165.44 54.7921 165.434 54.8026L164.18 56.9751C164.174 56.9854 164.171 56.9972 164.171 57.0092V57.0092Z" fill="#E6E6E6"/>
<path d="M165.494 55.1475C165.608 55.1475 165.701 55.0548 165.701 54.9406C165.701 54.8263 165.608 54.7336 165.494 54.7336C165.38 54.7336 165.287 54.8263 165.287 54.9406C165.287 55.0548 165.38 55.1475 165.494 55.1475Z" fill="#E6E6E6"/>
<path d="M133.919 63.9542C134.102 63.5344 134.368 63.1563 134.702 62.843C135.036 62.5296 135.43 62.2876 135.86 62.1316C136.307 61.9588 136.787 61.8848 137.265 61.9146C137.744 61.9444 138.211 62.0773 138.633 62.3042C139.626 62.8311 140.419 63.6594 141.427 64.1636C142.406 64.6493 143.485 64.9034 144.578 64.9064C145.816 64.9161 147.035 64.5996 148.112 63.9887C148.154 63.9623 148.184 63.9206 148.196 63.8725C148.207 63.8244 148.2 63.7736 148.175 63.7308C148.15 63.6881 148.109 63.6567 148.062 63.6433C148.014 63.63 147.963 63.6356 147.92 63.6592C146.943 64.2064 145.847 64.5036 144.728 64.5241C143.609 64.5447 142.503 64.288 141.507 63.7769C140.496 63.2465 139.695 62.3902 138.665 61.8933C138.228 61.681 137.753 61.5577 137.268 61.5304C136.783 61.5032 136.297 61.5726 135.839 61.7346C135.329 61.9055 134.862 62.1827 134.468 62.5479C134.073 62.913 133.761 63.3578 133.551 63.8527C133.459 64.08 133.828 64.179 133.919 63.9542V63.9542Z" fill="#E6E6E6"/>
<path d="M133.618 67.5216C135.735 67.0488 137.931 67.0564 140.044 67.5439C141.922 67.9796 143.86 68.7632 145.796 68.1788C146.661 67.9176 147.453 67.3953 147.898 66.5916C148.016 66.3765 147.687 66.1837 147.568 66.399C146.732 67.9124 144.772 68.1677 143.224 67.9194C142.19 67.7535 141.193 67.4208 140.175 67.1827C137.986 66.6693 135.71 66.6594 133.517 67.1536C133.277 67.2071 133.378 67.5752 133.618 67.5216V67.5216Z" fill="#E6E6E6"/>
<path d="M133.48 58.991C135.51 58.6456 137.589 58.7196 139.589 59.2084C141.458 59.6665 143.284 60.7128 145.26 60.5321C146.174 60.4484 147.08 60.1119 147.701 59.4118C147.864 59.2287 147.595 58.9579 147.432 59.142C146.896 59.7459 146.124 60.0589 145.331 60.1435C144.418 60.2409 143.521 60.0516 142.652 59.7827C141.69 59.485 140.755 59.1079 139.777 58.8619C137.684 58.3362 135.505 58.2548 133.379 58.623C133.138 58.6643 133.24 59.0321 133.48 58.991V58.991Z" fill="#E6E6E6"/>
<path d="M162.303 58.0847C163.18 58.9832 163.785 60.1117 164.048 61.3396C164.25 62.3165 164.227 63.3266 163.981 64.2933C163.735 65.2601 163.272 66.1581 162.628 66.9192C162.47 67.1054 162.738 67.3766 162.897 67.1891C163.775 66.1542 164.336 64.8876 164.512 63.5416C164.64 62.5025 164.533 61.448 164.197 60.4564C163.861 59.4649 163.306 58.5619 162.573 57.8149C162.401 57.6392 162.131 57.9091 162.303 58.0847Z" fill="#E6E6E6"/>
<path d="M168.026 57.2703C166.857 58.1281 166.203 59.5127 166.111 60.9448C166.015 62.4349 166.583 63.8739 167.497 65.0308C168.031 65.697 168.669 66.2727 169.385 66.7359C169.591 66.8708 169.783 66.5405 169.578 66.4064C168.41 65.6419 167.411 64.556 166.88 63.2527C166.621 62.6337 166.487 61.9697 166.485 61.2988C166.484 60.6278 166.614 59.9631 166.869 59.3426C167.155 58.6512 167.621 58.0494 168.219 57.5998C168.415 57.4561 168.224 57.1247 168.026 57.2703V57.2703Z" fill="#E6E6E6"/>
<path d="M141.208 61.1071C142.191 61.1071 142.988 60.3097 142.988 59.3261C142.988 58.3425 142.191 57.5452 141.208 57.5452C140.225 57.5452 139.428 58.3425 139.428 59.3261C139.428 60.3097 140.225 61.1071 141.208 61.1071Z" fill="#ECA400"/>
</g>
<path d="M6.15315 123.5L121.108 0.731531L236.063 123.5H121.108H6.15315Z" stroke="#F5F9E9"/>
<path d="M380.092 311.132C380.092 311.582 379.793 312.122 378.972 312.736C378.163 313.341 376.938 313.946 375.313 314.534C372.068 315.708 367.345 316.774 361.474 317.672C349.741 319.468 333.514 320.58 315.579 320.58C297.643 320.58 281.416 319.468 269.683 317.672C263.812 316.774 259.089 315.708 255.844 314.534C254.219 313.946 252.994 313.341 252.186 312.736C251.364 312.122 251.065 311.582 251.065 311.132C251.065 310.682 251.364 310.141 252.186 309.527C252.994 308.922 254.219 308.317 255.844 307.729C259.089 306.556 263.812 305.49 269.683 304.591C281.416 302.796 297.643 301.683 315.579 301.683C333.514 301.683 349.741 302.796 361.474 304.591C367.345 305.49 372.068 306.556 375.313 307.729C376.938 308.317 378.163 308.922 378.972 309.527C379.793 310.141 380.092 310.682 380.092 311.132Z" stroke="#F5F9E9"/>
<path d="M231.872 321.889L256.875 305.572L279.275 325.312L231.872 321.889Z" stroke="#F5F9E9"/>
<g clip-path="url(#clip1_80_1502)">
<path d="M364.362 268.554C358.693 275.636 347.995 277.258 339.143 274.791C336.247 273.965 333.453 272.828 330.812 271.403C329.277 270.59 327.78 269.697 326.313 268.745C325.952 268.512 325.591 268.276 325.234 268.034C324.99 267.872 324.748 267.707 324.506 267.541C321.477 265.459 318.566 263.175 315.704 260.904C308.561 255.236 301.221 249.393 292.444 246.689C290.636 246.132 288.297 245.871 287.178 247.368C286.208 248.667 286.8 250.506 287.621 251.899C290.667 257.061 296.194 260.32 301.726 262.826C307.259 265.332 313.119 267.363 317.929 271.027C322.738 274.691 326.41 280.515 325.426 286.394C324.578 291.46 320.344 295.575 315.42 297.369C310.497 299.162 305.007 298.912 299.889 297.748C294.771 296.583 289.913 294.55 284.974 292.798C281.996 291.74 278.103 291.009 276.127 293.429C274.458 295.474 275.417 298.699 277.45 300.401C279.482 302.103 282.232 302.673 284.856 303.185C293.005 304.774 301.153 306.363 309.301 307.952C311.8 308.438 314.359 308.947 316.536 310.243C318.714 311.537 320.471 313.798 320.409 316.288C320.346 318.741 318.507 320.909 316.254 321.995C314.001 323.081 311.4 323.248 308.891 323.131C299.488 322.691 272.529 308.098 266.063 306.232C261.908 305.035 257.366 303.275 255.614 299.406C253.432 294.588 257.022 288.76 261.922 286.56C266.82 284.358 272.5 284.846 277.839 285.587C283.178 286.328 288.693 287.271 293.89 285.863C299.087 284.455 303.849 279.866 303.337 274.622C302.89 270.059 298.683 266.621 294.255 265.105C290.789 263.919 287.101 263.596 283.46 263.062C282.45 262.915 281.443 262.75 280.446 262.547C277.892 262.024 275.401 261.243 273.013 260.216C270.508 259.141 268.127 257.806 265.913 256.235C264.146 254.984 262.496 253.584 260.98 252.051C260.748 251.817 260.52 251.578 260.293 251.333C260.078 251.099 259.865 250.86 259.657 250.616C256.951 247.457 254.952 243.567 255.551 239.559C256.149 235.561 259.339 232.233 263.137 230.634C265.331 229.71 267.699 229.297 270.096 229.237C271.848 229.203 273.6 229.326 275.329 229.605C283.332 230.855 290.665 234.653 297.591 238.765C304.516 242.878 311.264 247.392 318.792 250.323C326.32 253.256 334.889 254.498 342.526 251.846C350.163 249.195 356.437 241.962 356.063 234.054C361.128 238.315 365.433 243.67 367.339 249.928C369.245 256.185 368.479 263.411 364.362 268.554Z" fill="#3F3D56"/>
<path d="M327.868 260.382C328.359 260.382 328.758 259.992 328.758 259.512C328.758 259.031 328.359 258.642 327.868 258.642C327.376 258.642 326.977 259.031 326.977 259.512C326.977 259.992 327.376 260.382 327.868 260.382Z" fill="#ECA400"/>
<path d="M359.31 249.384C360.071 249.384 360.687 248.781 360.687 248.039C360.687 247.296 360.071 246.694 359.31 246.694C358.55 246.694 357.934 247.296 357.934 248.039C357.934 248.781 358.55 249.384 359.31 249.384Z" fill="#FF6584"/>
<path d="M269.02 290.842C269.301 290.842 269.528 290.62 269.528 290.345C269.528 290.071 269.301 289.848 269.02 289.848C268.739 289.848 268.511 290.071 268.511 290.345C268.511 290.62 268.739 290.842 269.02 290.842Z" fill="#FF6584"/>
<path d="M283.619 261.783C283.62 262.214 283.566 262.643 283.46 263.061C282.45 262.914 281.443 262.75 280.446 262.546C277.892 262.024 275.401 261.243 273.013 260.216C273.397 259.005 274.213 257.968 275.313 257.295C276.412 256.621 277.723 256.355 279.006 256.544C280.29 256.734 281.461 257.367 282.307 258.328C283.154 259.289 283.619 260.515 283.619 261.783V261.783Z" fill="#FF6584"/>
<path d="M350.501 257.271C350.789 257.271 351.022 257.044 351.022 256.763C351.022 256.482 350.789 256.255 350.501 256.255C350.214 256.255 349.981 256.482 349.981 256.763C349.981 257.044 350.214 257.271 350.501 257.271Z" fill="#F0F0F0"/>
<path d="M302.909 313.202C303.197 313.202 303.43 312.974 303.43 312.694C303.43 312.413 303.197 312.186 302.909 312.186C302.622 312.186 302.389 312.413 302.389 312.694C302.389 312.974 302.622 313.202 302.909 313.202Z" fill="#F0F0F0"/>
<path d="M310.372 320.253C310.66 320.253 310.893 320.025 310.893 319.745C310.893 319.464 310.66 319.237 310.372 319.237C310.085 319.237 309.852 319.464 309.852 319.745C309.852 320.025 310.085 320.253 310.372 320.253Z" fill="#F0F0F0"/>
<path d="M264.248 300.175C264.536 300.175 264.769 299.948 264.769 299.667C264.769 299.386 264.536 299.159 264.248 299.159C263.961 299.159 263.728 299.386 263.728 299.667C263.728 299.948 263.961 300.175 264.248 300.175Z" fill="#F0F0F0"/>
<path d="M289.818 290.734C290.106 290.734 290.339 290.507 290.339 290.226C290.339 289.945 290.106 289.718 289.818 289.718C289.531 289.718 289.298 289.945 289.298 290.226C289.298 290.507 289.531 290.734 289.818 290.734Z" fill="#F0F0F0"/>
<path d="M287.249 240.301C287.537 240.301 287.769 240.073 287.769 239.793C287.769 239.512 287.537 239.284 287.249 239.284C286.962 239.284 286.729 239.512 286.729 239.793C286.729 240.073 286.962 240.301 287.249 240.301Z" fill="#F0F0F0"/>
<path d="M318.692 280.098C318.979 280.098 319.212 279.87 319.212 279.589C319.212 279.309 318.979 279.081 318.692 279.081C318.404 279.081 318.172 279.309 318.172 279.589C318.172 279.87 318.404 280.098 318.692 280.098Z" fill="#F0F0F0"/>
<path d="M322.607 288.941C322.894 288.941 323.127 288.714 323.127 288.433C323.127 288.153 322.894 287.925 322.607 287.925C322.32 287.925 322.087 288.153 322.087 288.433C322.087 288.714 322.32 288.941 322.607 288.941Z" fill="#F0F0F0"/>
<path d="M275.716 241.415C275.72 243.98 275.099 246.51 273.905 248.796C273.748 249.097 273.58 249.393 273.404 249.683C271.655 252.568 269.04 254.855 265.913 256.235C264.146 254.984 262.496 253.584 260.98 252.051C260.748 251.817 260.52 251.577 260.293 251.333C260.078 251.098 259.865 250.859 259.657 250.616C256.951 247.457 254.952 243.567 255.551 239.559C256.149 235.561 259.339 232.233 263.137 230.634C265.331 229.71 267.699 229.296 270.096 229.237C271.97 230.853 273.447 232.861 274.418 235.112C274.54 235.395 274.653 235.682 274.759 235.972C275.394 237.72 275.718 239.56 275.716 241.415V241.415Z" fill="#ECA400"/>
<path d="M283.301 242.251C283.301 244.741 280.813 247.05 276.294 248.755C275.389 249.097 274.422 249.406 273.404 249.684C269.594 250.721 265.06 251.296 260.293 251.333C260.078 251.099 259.865 250.86 259.657 250.616C259.708 250.617 259.76 250.617 259.811 250.617C264.988 250.617 269.899 249.976 273.905 248.796C274.646 248.577 275.355 248.34 276.029 248.086C280.184 246.519 282.567 244.392 282.567 242.251C282.567 240.111 280.184 237.985 276.029 236.417C275.618 236.262 275.195 236.113 274.759 235.972C274.653 235.682 274.54 235.395 274.418 235.112C275.069 235.31 275.694 235.522 276.294 235.748C280.813 237.453 283.301 239.763 283.301 242.251Z" fill="#E4E4E4"/>
<path d="M260.578 233.369C260.865 233.369 261.098 233.142 261.098 232.861C261.098 232.581 260.865 232.353 260.578 232.353C260.291 232.353 260.058 232.581 260.058 232.861C260.058 233.142 260.291 233.369 260.578 233.369Z" fill="#F0F0F0"/>
<path d="M271.467 236.596C271.754 236.596 271.987 236.369 271.987 236.088C271.987 235.807 271.754 235.58 271.467 235.58C271.179 235.58 270.947 235.807 270.947 236.088C270.947 236.369 271.179 236.596 271.467 236.596Z" fill="#F0F0F0"/>
<path d="M265.839 246.168C268.633 246.168 270.898 243.956 270.898 241.227C270.898 238.498 268.633 236.285 265.839 236.285C263.045 236.285 260.78 238.498 260.78 241.227C260.78 243.956 263.045 246.168 265.839 246.168Z" fill="#F0F0F0"/>
<path opacity="0.3" d="M359.262 267.381C358.126 267.708 355.623 267.949 352.87 268.098C350.119 268.245 347.1 268.309 344.12 268.371C338.903 268.481 333.687 268.592 328.471 268.702C327.754 268.718 327.035 268.732 326.313 268.745C325.952 268.512 325.591 268.276 325.234 268.034C325.874 268.038 326.514 268.034 327.149 268.022C329.861 267.97 332.157 267.763 334.773 267.665C338.798 267.513 343.144 267.633 347.339 267.694C351.534 267.756 356.314 267.733 359.262 267.381Z" fill="#F0F0F0"/>
<path opacity="0.3" d="M279.196 305.054L262.566 291.521L278.721 305.596C278.753 305.647 278.796 305.691 278.848 305.722C278.9 305.754 278.959 305.774 279.02 305.779C279.081 305.784 279.142 305.775 279.199 305.752C279.256 305.729 279.306 305.694 279.346 305.648C279.386 305.603 279.414 305.548 279.428 305.49C279.442 305.432 279.442 305.371 279.427 305.313C279.412 305.255 279.384 305.201 279.344 305.156C279.303 305.111 279.253 305.076 279.196 305.054H279.196Z" fill="#F0F0F0"/>
<path d="M266.573 253.805C266.86 253.805 267.093 253.578 267.093 253.297C267.093 253.017 266.86 252.789 266.573 252.789C266.286 252.789 266.053 253.017 266.053 253.297C266.053 253.578 266.286 253.805 266.573 253.805Z" fill="#0B7A75"/>
<path d="M310.263 312.177L312.415 312.177L313.438 304.07L310.263 304.07L310.263 312.177Z" fill="#DB5461"/>
<path d="M309.714 311.491L310.32 311.491L312.684 310.552L313.952 311.491H313.952C314.668 311.491 315.355 311.769 315.861 312.264C316.368 312.758 316.652 313.429 316.652 314.129V314.214L309.714 314.215L309.714 311.491Z" fill="#2F2E41"/>
<path d="M294.149 312.177L291.997 312.177L290.974 304.07L294.149 304.07L294.149 312.177Z" fill="#DB5461"/>
<path d="M294.698 314.215L287.76 314.214V314.129C287.76 313.429 288.044 312.758 288.551 312.264C289.057 311.769 289.744 311.491 290.46 311.491H290.461L291.728 310.552L294.092 311.491L294.698 311.491L294.698 314.215Z" fill="#2F2E41"/>
<path d="M301.859 250.046L299.68 251.666L293.893 253.164C293.893 253.164 295.967 267.381 294.988 268.337C294.009 269.293 294.892 269.318 294.695 270.56C294.498 271.802 293.715 275.082 293.715 275.082H310.988C310.988 275.082 311.127 273.044 310.276 272.602C309.424 272.161 311.061 270.101 310.365 269.757C309.669 269.412 310.648 266.425 310.648 266.425L312.769 256.643L307.127 252.331L306.269 250.311L301.859 250.046Z" fill="#ECA400"/>
<path d="M304.577 262.75C304.994 262.75 305.331 262.42 305.331 262.014C305.331 261.607 304.994 261.277 304.577 261.277C304.161 261.277 303.824 261.607 303.824 262.014C303.824 262.42 304.161 262.75 304.577 262.75Z" fill="#0B7A75"/>
<path d="M293.715 275.082L293.002 292.999C293.002 292.999 289.927 306.232 290.461 306.58C290.995 306.928 291.222 309.002 291.222 309.002L294.249 309.35C294.249 309.35 294.249 307.958 294.961 307.437C295.674 306.915 302.262 282.388 302.262 282.388L308.69 306.102C308.69 306.102 308.851 307.437 309.386 307.437C309.92 307.437 310.098 309.35 310.098 309.35H313.125V307.437C313.125 307.437 314.485 307.015 313.951 305.624C313.417 304.232 310.988 275.082 310.988 275.082H293.715Z" fill="#2F2E41"/>
<path d="M304.121 248.978C306.138 248.978 307.772 247.382 307.772 245.412C307.772 243.443 306.138 241.846 304.121 241.846C302.105 241.846 300.471 243.443 300.471 245.412C300.471 247.382 302.105 248.978 304.121 248.978Z" fill="#DB5461"/>
<path opacity="0.1" d="M310.365 261.426L311.077 261.948L311.433 259.513L310.365 261.426Z" fill="black"/>
<path d="M294.234 253.15C294.234 253.15 293.344 252.976 292.809 254.541C292.275 256.107 290.316 262.021 290.316 263.065C290.316 264.109 302.515 268.714 302.515 268.714L301.246 264.364L295.659 261.499L294.234 253.15Z" fill="#ECA400"/>
<path d="M303.081 268.069C304.23 268.069 305.161 267.159 305.161 266.037C305.161 264.915 304.23 264.006 303.081 264.006C301.933 264.006 301.001 264.915 301.001 266.037C301.001 267.159 301.933 268.069 303.081 268.069Z" fill="#DB5461"/>
<path opacity="0.1" d="M295.496 259.345L295.659 261.5L300.825 264.149L296.23 261.138L295.496 259.345Z" fill="black"/>
<path d="M307.917 259.652H307.85V257.858C307.85 257.722 307.822 257.587 307.769 257.461C307.715 257.335 307.637 257.221 307.538 257.124C307.44 257.028 307.323 256.952 307.194 256.899C307.065 256.847 306.927 256.82 306.787 256.82H302.897C302.757 256.82 302.619 256.847 302.49 256.899C302.361 256.952 302.244 257.028 302.145 257.124C302.047 257.221 301.968 257.335 301.915 257.461C301.862 257.587 301.834 257.722 301.834 257.858V267.698C301.834 267.835 301.862 267.97 301.915 268.096C301.968 268.222 302.047 268.336 302.145 268.432C302.244 268.529 302.361 268.605 302.49 268.658C302.619 268.71 302.757 268.737 302.897 268.737H306.787C306.927 268.737 307.065 268.71 307.194 268.658C307.323 268.605 307.44 268.529 307.538 268.432C307.637 268.336 307.715 268.222 307.769 268.096C307.822 267.97 307.85 267.835 307.85 267.698V260.929H307.917V259.652Z" fill="#F0F0F0"/>
<path d="M312.769 256.643C312.769 256.643 313.303 256.991 313.659 258.556C314.016 260.122 316.331 266.036 315.44 267.428C314.55 268.819 314.287 270.305 311.26 268.217L307.07 264.471L310.098 261.687L311.344 262.557L312.769 256.643Z" fill="#ECA400"/>
<path d="M304.889 261.206C305.381 261.206 305.78 260.817 305.78 260.336C305.78 259.856 305.381 259.467 304.889 259.467C304.398 259.467 303.999 259.856 303.999 260.336C303.999 260.817 304.398 261.206 304.889 261.206Z" fill="#ECA400"/>
<path d="M307.467 264.273C308.616 264.273 309.547 263.364 309.547 262.242C309.547 261.12 308.616 260.21 307.467 260.21C306.318 260.21 305.387 261.12 305.387 262.242C305.387 263.364 306.318 264.273 307.467 264.273Z" fill="#DB5461"/>
<path opacity="0.1" d="M295.398 265.848L301.368 268.428L295.232 267.256L295.398 265.848Z" fill="black"/>
<path d="M300.438 246.123L299.937 244.26C299.806 243.773 299.674 243.277 299.704 242.775C299.733 242.274 299.951 241.756 300.384 241.484C300.817 241.212 301.478 241.276 301.756 241.699C301.809 241.024 302.438 240.505 303.105 240.321C303.772 240.137 304.48 240.21 305.172 240.241C305.864 240.272 306.595 240.25 307.192 239.907C307.238 240.04 307.235 240.185 307.184 240.317C307.133 240.448 307.037 240.559 306.912 240.629C307.061 240.669 307.219 240.652 307.355 240.581C307.491 240.511 307.595 240.393 307.646 240.251C307.65 240.642 307.502 241.02 307.232 241.308C307.49 241.183 307.786 241.156 308.063 241.233C308.34 241.31 308.578 241.484 308.73 241.723C309.035 242.239 308.864 242.887 308.686 243.458L307.77 246.383C307.632 245.939 307.605 245.469 307.531 245.01C307.457 244.55 307.325 244.081 307.014 243.729C306.704 243.376 306.177 243.172 305.736 243.347C305.488 243.445 305.299 243.645 305.076 243.788C304.618 244.081 304.035 244.123 303.49 244.063C302.946 244.004 302.415 243.852 301.87 243.792C301.529 243.754 301.149 243.764 300.892 243.986C300.715 244.165 300.598 244.393 300.557 244.639C300.435 245.129 300.388 245.634 300.415 246.138" fill="#2F2E41"/>
</g>
<path d="M339.222 334.317C349.319 339.961 348.505 325.088 347.396 304.809C346.414 286.856 345.2 264.666 351.12 248.725M354.532 241.608C355.278 240.392 356.088 239.24 356.97 238.157M357.615 237.392C364.264 229.776 374.711 225.939 390.932 228.699M362.638 251.877C359.828 251.489 356.069 250.469 351.591 248.892C352.491 246.469 353.557 244.194 354.815 242.105C354.874 242.008 354.933 241.911 354.992 241.815C358.775 243.513 362.309 244.952 365.544 246.131C365.607 246.205 365.668 246.278 365.728 246.351C366.687 247.517 367.334 248.524 367.666 249.353C368.002 250.19 367.984 250.754 367.777 251.123C367.571 251.493 367.1 251.804 366.211 251.956C365.331 252.107 364.134 252.084 362.638 251.877ZM354.073 241.4C354.035 241.463 353.997 241.526 353.958 241.589C352.665 243.738 351.571 246.074 350.649 248.557C340.951 245.053 328.182 239.102 314.63 231.526C301.04 223.928 289.255 216.144 281.189 209.707C277.153 206.486 274.066 203.616 272.15 201.288C271.19 200.121 270.544 199.114 270.212 198.285C269.876 197.448 269.894 196.885 270.1 196.515C270.307 196.145 270.778 195.834 271.667 195.682C272.547 195.531 273.743 195.555 275.24 195.761C278.227 196.174 282.288 197.301 287.146 199.052C288.73 199.623 290.396 200.259 292.134 200.958C294.384 203.292 297.386 205.973 300.959 208.855C310.002 216.15 322.761 224.779 336.389 232.399C342.691 235.922 348.632 238.923 354.073 241.4ZM364.089 244.521C361.418 243.503 358.558 242.316 355.535 240.962C356.106 240.095 356.714 239.263 357.359 238.47C360.093 240.684 362.361 242.722 364.089 244.521ZM356.58 237.844C355.88 238.703 355.225 239.605 354.612 240.546C349.166 238.072 343.208 235.065 336.877 231.526C323.291 223.93 310.58 215.331 301.587 208.077C298.869 205.884 296.496 203.82 294.544 201.946C302.971 205.472 312.88 210.316 323.247 216.112C336.777 223.676 348.517 231.424 356.58 237.844ZM366.135 245.281C364.263 243.102 361.494 240.532 358.004 237.706C360.682 234.643 363.981 232.209 368.035 230.586C371.641 229.143 375.861 228.334 380.795 228.306C383.113 232.817 384.716 237 385.646 240.38C386.174 242.301 386.481 243.951 386.58 245.248C386.682 246.575 386.559 247.437 386.322 247.86C386.094 248.269 385.635 248.616 384.857 248.846C384.078 249.077 383.03 249.175 381.714 249.119C379.083 249.008 375.494 248.289 371.104 246.947C369.543 246.47 367.884 245.914 366.135 245.281ZM380.275 227.312C375.453 227.392 371.276 228.212 367.664 229.658C363.435 231.351 360.001 233.894 357.224 237.079C349.106 230.613 337.309 222.828 323.735 215.24C312.421 208.914 301.636 203.711 292.707 200.11C292.181 199.56 291.7 199.031 291.267 198.526C290.131 197.203 289.337 196.063 288.904 195.137C288.459 194.185 288.454 193.593 288.645 193.251C288.756 193.054 288.975 192.81 289.338 192.533C289.695 192.26 290.168 191.973 290.755 191.68C291.927 191.094 293.516 190.503 295.457 189.962C299.335 188.88 304.571 188.007 310.584 187.747C322.613 187.226 337.693 189.158 351.196 196.707C364.699 204.256 374.098 216.009 379.809 226.446C379.967 226.736 380.123 227.024 380.275 227.312Z" stroke="#F5F9E9"/>
<line x1="231.5" y1="124" x2="231.5" y2="323" stroke="#F5F9E9"/>
<defs>
<clipPath id="clip0_80_1502">
<rect width="112.269" height="77.8715" fill="white" transform="translate(73.3992 40.1802)"/>
</clipPath>
<clipPath id="clip1_80_1502">
<rect width="113.369" height="93.9339" fill="white" transform="translate(254.961 229.229)"/>
</clipPath>
</defs>
</svg>
