<svg width="414" height="317" viewBox="0 0 414 317" fill="none" xmlns="http://www.w3.org/2000/svg">
<path d="M107.819 41.746L88.3431 35.6057C87.921 36.1327 87.5393 36.7047 87.2106 37.3231C86.9316 37.848 86.7007 38.3865 86.5135 38.9311L107.416 45.5201C107.776 44.2759 107.905 42.9995 107.819 41.746Z" fill="#DB5461"/>
<path d="M102.166 32.8692L98.0446 31.5698C95.5576 31.3056 93.0589 31.9065 90.9723 33.2425L107.019 38.3011C106.101 36.0656 104.441 34.121 102.166 32.8692Z" fill="#DB5461"/>
<path d="M99.1633 53.2081L88.873 49.9639C89.6783 50.8279 90.6358 51.5763 91.7354 52.1628C94.1041 53.4251 96.7281 53.7269 99.1633 53.2081Z" fill="#DB5461"/>
<path d="M106.159 48.3186L85.9373 41.9439C85.8703 43.3376 86.0718 44.7239 86.5174 46.0288L103.354 51.3367C104.447 50.5384 105.404 49.5236 106.159 48.3186Z" fill="#DB5461"/>
<line x1="-0.298242" y1="117.507" x2="241.691" y2="119.799" stroke="#F5F9E9"/>
<g clip-path="url(#clip0_80_1502)">
<path d="M86.274 108.468C86.274 108.468 72.057 101.757 77.1165 97.2437C82.176 92.7307 86.274 108.468 86.274 108.468Z" fill="#F5F9E9"/>
<path d="M86.0108 110.001C86.0108 110.001 79.6519 88.3639 89.3068 89.4872C98.9617 90.6106 86.0108 110.001 86.0108 110.001Z" fill="#F5F9E9"/>
<path d="M81.2437 108.042L81.4849 111.654L81.4887 111.716C81.4831 112.28 81.5062 112.843 81.558 113.404C81.897 117.089 83.488 118.782 85.366 118.8C87.244 118.817 88.7968 117.154 89.2056 113.477C89.2679 112.917 89.3017 112.354 89.3068 111.79L89.3095 111.74L89.3107 111.728L89.6214 108.121L81.2437 108.042Z" fill="#8D8572"/>
<path d="M89.3106 111.728L89.3094 111.74L89.3067 111.79C89.3017 112.354 89.2679 112.917 89.2055 113.477L81.5579 113.404C81.5062 112.843 81.483 112.28 81.4886 111.716L81.4849 111.654L89.3106 111.728Z" fill="white"/>
<path d="M179.386 111.558C179.386 111.558 168.379 106.362 172.296 102.868C176.213 99.3735 179.386 111.558 179.386 111.558Z" fill="#0B7A75"/>
<path d="M179.183 112.744C179.183 112.744 174.259 95.9927 181.734 96.8624C189.209 97.7321 179.183 112.744 179.183 112.744Z" fill="#0B7A75"/>
<path d="M175.492 111.228L175.679 114.024L175.681 114.072C175.677 114.509 175.695 114.945 175.735 115.379C175.998 118.232 177.229 119.543 178.683 119.557C180.137 119.57 181.34 118.283 181.656 115.435C181.704 115.002 181.73 114.566 181.734 114.13L181.736 114.091L181.737 114.081L181.978 111.289L175.492 111.228Z" fill="#E6E6E6"/>
<path d="M181.737 114.081L181.736 114.091L181.734 114.13C181.73 114.566 181.704 115.002 181.656 115.435L175.735 115.379C175.695 114.945 175.677 114.509 175.681 114.072L175.678 114.024L181.737 114.081Z" fill="white"/>
<path d="M110.828 64.4642L110.874 59.5557L110.112 59.5485L110.065 64.4569C109.845 64.5434 109.663 64.7037 109.548 64.9102C109.434 65.1167 109.394 65.3566 109.437 65.5889C109.48 65.8211 109.602 66.0312 109.783 66.1831C109.964 66.335 110.192 66.4193 110.428 66.4216C110.664 66.4238 110.893 66.3438 111.077 66.1954C111.261 66.0469 111.387 65.8392 111.434 65.6078C111.481 65.3764 111.447 65.1358 111.336 64.9271C111.226 64.7185 111.046 64.5548 110.828 64.4642Z" fill="#E6E6E6"/>
<path d="M112.139 114.016L106.926 113.967L107.526 50.6188L105.491 50.5996L104.891 113.947L99.6783 113.898C99.0605 113.892 98.4476 114.008 97.8746 114.239C97.3016 114.47 96.7797 114.812 96.3387 115.245C95.8977 115.678 95.5463 116.194 95.3044 116.762C95.0626 117.331 94.9351 117.942 94.9293 118.56L94.9293 118.56L116.798 118.767L116.798 118.767C116.804 118.149 116.688 117.536 116.457 116.963C116.226 116.389 115.885 115.867 115.452 115.426C115.019 114.985 114.504 114.633 113.936 114.391C113.367 114.15 112.756 114.022 112.139 114.016Z" fill="#E6E6E6"/>
<path d="M95.4955 59.9191L117.344 60.126L116.166 43.4063C116.122 42.8297 115.865 42.2903 115.444 41.8941C115.023 41.4979 114.469 41.2736 113.891 41.2654L99.3043 41.1272C98.7264 41.1245 98.1684 41.3382 97.7401 41.7264C97.3117 42.1145 97.0441 42.649 96.9898 43.2246L95.4955 59.9191Z" fill="#ECA400"/>
<path d="M125.638 89.5304C125.433 89.4943 125.223 89.4993 125.019 89.5451C124.816 89.591 124.624 89.6768 124.454 89.7976C124.284 89.9183 124.14 90.0716 124.03 90.2486C123.92 90.4255 123.846 90.6226 123.813 90.8284L123.16 94.8611L125.247 95.4363L126.816 91.688C126.907 91.4702 126.948 91.2347 126.936 90.9989C126.924 90.7631 126.859 90.533 126.746 90.3258C126.633 90.1186 126.474 89.9395 126.283 89.8018C126.091 89.6641 125.871 89.5713 125.638 89.5304Z" fill="#A0616A"/>
<path d="M125.548 94.8761C126.666 99.5049 126.126 103.724 121.77 106.999C116.596 105.519 113.178 102.035 111.121 96.9986C110.993 96.6854 110.93 96.3496 110.935 96.0113C110.941 95.6731 111.014 95.3394 111.152 95.0305C111.29 94.7216 111.489 94.4439 111.737 94.214C111.985 93.9842 112.277 93.807 112.596 93.6932C113.074 93.5223 113.593 93.5012 114.084 93.6327C114.575 93.7643 115.014 94.0421 115.343 94.4294L120.377 100.355L122.821 94.4512L125.548 94.8761Z" fill="#ECA400"/>
<path d="M151.898 119.355C147.163 119.059 144.236 117.404 143.555 114.06L144.331 112.668L153.028 116.732C153.248 116.834 153.432 117 153.557 117.208C153.682 117.415 153.743 117.655 153.731 117.897C153.72 118.14 153.637 118.373 153.492 118.568C153.348 118.762 153.149 118.91 152.921 118.991L151.898 119.355Z" fill="#E6E6E6"/>
<path d="M148.237 119.354C145.777 119.256 143.41 119.257 141.166 119.387C140.772 119.41 140.385 119.277 140.089 119.017C139.793 118.757 139.611 118.39 139.584 117.996L139.465 116.311L137.587 113.24L139.255 111.602C142.007 114.396 145.031 116.75 148.636 118.166C148.752 118.247 148.838 118.363 148.882 118.497C148.926 118.631 148.926 118.776 148.881 118.909C148.836 119.043 148.749 119.159 148.633 119.239C148.517 119.319 148.378 119.359 148.237 119.354Z" fill="#E6E6E6"/>
<path d="M134.973 107.237C131.777 112.833 128.651 116.596 124.566 118.587C119.548 120.192 115.914 117.969 113.107 113.454L121.423 108.062L122.62 109.282L133.646 101.052C133.915 100.801 134.273 100.667 134.641 100.679C135.009 100.69 135.358 100.847 135.611 101.114L144.84 112.673L143.678 114.57L134.973 107.237Z" fill="#2F2E41"/>
<path d="M137.708 113.878L133.448 107.222L134.483 105.324L140.148 111.356L137.708 113.878Z" fill="#2F2E41"/>
<path d="M112.987 92.5256C115.375 92.5482 117.328 90.6302 117.351 88.2416C117.374 85.853 115.457 83.8983 113.069 83.8757C110.682 83.8531 108.728 85.7711 108.705 88.1597C108.682 90.5483 110.6 92.503 112.987 92.5256Z" fill="#A0616A"/>
<path d="M114.097 96.2253L109.281 94.5259C110.006 93.396 110.333 92.0553 110.207 90.7181L114.148 90.7555C113.906 92.6942 113.855 94.5348 114.097 96.2253Z" fill="#A0616A"/>
<path d="M124.286 107.899C123.559 108.189 123.497 109.153 122.809 109.475C119.483 111.028 115.968 112.281 113.542 114.539C107.959 110.669 102.863 98.7629 109.671 93.6392C111.965 95.0116 114.016 95.9976 113.994 93.6801L124.286 107.899Z" fill="#ECA400"/>
<path opacity="0.2" d="M121.41 102.783L119.065 101.934L114.39 105.515L112.381 98.0025C112.241 97.4814 112.005 97.7426 111.666 98.1004C111.319 97.7731 110.886 97.5518 110.417 97.4626C109.949 97.3735 109.465 97.4202 109.022 97.5973C108.579 97.7744 108.196 98.0744 107.918 98.462C107.641 98.8497 107.479 99.3088 107.453 99.7851C107.155 105.218 108.749 109.831 112.79 113.387C118.129 112.296 120.424 108.716 121.398 104.055L121.147 103.884C121.244 103.524 121.331 103.157 121.41 102.783Z" fill="black"/>
<path d="M113.664 82.5169C115.086 82.8563 116.705 83.3335 116.792 83.7636C118.255 84.1473 119.354 85.0436 119.567 86.3962C119.585 86.5131 119.577 86.6324 119.544 86.7459C119.511 86.8593 119.453 86.9641 119.375 87.0528C119.296 87.1415 119.2 87.2119 119.091 87.2592C118.983 87.3065 118.866 87.3294 118.748 87.3264C117.95 87.3085 116.753 87.2208 115.966 86.8828C113.654 88.3419 113.232 92.1896 114.211 94.8207L112.633 94.661L111.046 89.8624L110.585 94.4535L106.987 93.9429L107.506 88.0877C107.662 86.7079 108.145 85.3853 108.914 84.2294C108.993 84.1134 109.081 84.0026 109.175 83.8977C109.728 83.2834 110.438 82.8307 111.229 82.5876C112.019 82.3445 112.86 82.3201 113.664 82.5169Z" fill="#2F2E41"/>
<path d="M121.654 97.1139L125.566 101.805L131.567 94.8539L127.603 89.9483L121.654 97.1139Z" fill="#3F3D56"/>
<path d="M130.55 95.0047L125.881 91.1089C126.155 90.4695 127.436 90.6956 127.436 90.6956L131.083 94.466C131.21 94.5973 131.319 94.7453 131.406 94.9059L130.55 95.0047Z" fill="#ECA400"/>
<path d="M130.766 94.7393L125.459 90.5164L119.439 99.4465L124.991 103.271C125.523 103.49 126.062 103.12 126.062 103.12L131.594 94.8274L130.766 94.7393Z" fill="#3F3D56"/>
<path d="M126.113 91.8251L126.062 91.895L129.461 94.3876L129.512 94.3177L126.113 91.8251Z" fill="#ECA400"/>
<path d="M129.549 95.2388L124.993 101.99L125.065 102.038L129.621 95.2873L129.549 95.2388Z" fill="#ECA400"/>
<path d="M120.909 99.4785L120.857 99.5479L124.466 102.258L124.518 102.189L120.909 99.4785Z" fill="#ECA400"/>
<path d="M125.463 91.9362L120.749 98.5784L120.819 98.6285L125.534 91.9864L125.463 91.9362Z" fill="#ECA400"/>
<path d="M126.913 90.6377L126.876 90.6768L131.07 94.6014L131.107 94.5624L126.913 90.6377Z" fill="#ECA400"/>
<path d="M126.56 90.6677L126.524 90.7075L130.909 94.6547L130.945 94.6149L126.56 90.6677Z" fill="#ECA400"/>
<path d="M126.283 90.7429L126.248 90.7837L130.802 94.655L130.837 94.6142L126.283 90.7429Z" fill="#ECA400"/>
<path d="M123.776 98.5001C123.606 98.3795 123.414 98.2938 123.211 98.248C123.008 98.2023 122.797 98.1975 122.592 98.2337C122.387 98.27 122.191 98.3467 122.016 98.4594C121.84 98.572 121.689 98.7184 121.571 98.89L119.253 102.253L120.893 103.668L123.916 100.955C124.092 100.797 124.23 100.602 124.32 100.383C124.41 100.165 124.45 99.9295 124.436 99.6937C124.423 99.458 124.356 99.2283 124.242 99.0217C124.128 98.815 123.969 98.6368 123.776 98.5001Z" fill="#A0616A"/>
<path d="M121.405 103.292C120.431 107.953 118.136 111.533 112.797 112.624C108.756 109.068 107.162 104.455 107.461 99.022C107.479 98.6842 107.566 98.3537 107.716 98.0504C107.866 97.7471 108.075 97.4773 108.332 97.2573C108.589 97.0374 108.888 96.8717 109.21 96.7705C109.533 96.6692 109.873 96.6344 110.209 96.6681C110.715 96.7189 111.193 96.9225 111.58 97.2518C111.967 97.581 112.244 98.0204 112.376 98.5113L114.385 106.024L119.123 101.738L121.405 103.292Z" fill="#ECA400"/>
<path d="M185.306 119.817L73.0923 118.754L73.095 118.476L185.359 119.54L185.306 119.817Z" fill="#3F3D56"/>
<path d="M132.371 53.0815C132.304 53.0809 132.239 53.1072 132.191 53.1544C132.142 53.2016 132.115 53.2661 132.114 53.3335L131.926 73.1774C131.926 73.2449 131.952 73.3098 131.999 73.358C132.046 73.4061 132.111 73.4335 132.178 73.4343L148.707 73.5908C148.775 73.5914 148.84 73.5652 148.888 73.5179C148.936 73.4707 148.963 73.4063 148.964 73.3388L149.152 53.4949C149.152 53.4275 149.126 53.3625 149.079 53.3144C149.032 53.2662 148.967 53.2388 148.9 53.2381L132.371 53.0815Z" fill="#E6E6E6"/>
<path d="M133.913 71.4787L147.009 71.6028L147.165 55.1934L134.069 55.0693L133.913 71.4787Z" fill="white"/>
<path d="M159.84 58.5576C159.8 58.5573 159.761 58.5729 159.733 58.6011C159.704 58.6293 159.687 58.6678 159.687 58.708L159.594 68.5806C159.593 68.6209 159.609 68.6597 159.637 68.6884C159.665 68.7172 159.704 68.7335 159.744 68.734L171.586 68.8461C171.626 68.8465 171.665 68.8308 171.693 68.8026C171.722 68.7744 171.738 68.736 171.739 68.6957L171.832 58.8231C171.833 58.7828 171.817 58.7441 171.789 58.7153C171.761 58.6866 171.722 58.6702 171.682 58.6698L159.84 58.5576Z" fill="#E6E6E6"/>
<path d="M160.854 59.7444L160.78 67.5665L170.572 67.6593L170.646 59.8371L160.854 59.7444Z" fill="#737374"/>
<path d="M142.935 54.5808L138.31 54.537C138.198 54.5364 138.089 54.5062 137.992 54.4496C137.896 54.3929 137.816 54.3118 137.761 54.2145C137.706 54.1171 137.678 54.0069 137.679 53.8951C137.68 53.7833 137.711 53.6738 137.768 53.5777L140.119 49.5927C140.121 49.5894 140.123 49.5861 140.125 49.5829C140.176 49.4981 140.247 49.4267 140.331 49.3745C140.415 49.3223 140.51 49.2907 140.609 49.2823L140.612 49.2821C140.632 49.2805 140.652 49.2797 140.672 49.2799C140.784 49.2803 140.894 49.3104 140.99 49.3673C141.086 49.4241 141.165 49.5055 141.22 49.6031L143.494 53.632C143.549 53.7292 143.577 53.8392 143.576 53.9508C143.575 54.0624 143.545 54.1718 143.488 54.268C143.431 54.3641 143.35 54.4437 143.253 54.4986C143.156 54.5535 143.046 54.5818 142.935 54.5808ZM138.188 53.8991C138.188 53.9217 138.194 53.9439 138.205 53.9635C138.216 53.9831 138.232 53.9995 138.251 54.0108C138.27 54.0222 138.292 54.0282 138.315 54.0282L142.939 54.072C142.962 54.0724 142.984 54.0669 143.003 54.0559C143.023 54.0449 143.039 54.0288 143.05 54.0094C143.062 53.99 143.068 53.968 143.068 53.9454C143.068 53.9233 143.062 53.9015 143.051 53.8823L140.777 49.8534C140.766 49.8339 140.75 49.8177 140.731 49.8064C140.712 49.795 140.69 49.7889 140.667 49.7887C140.645 49.7885 140.623 49.7942 140.604 49.8052C140.584 49.8161 140.568 49.832 140.557 49.8513L138.206 53.8363C138.195 53.8553 138.189 53.877 138.188 53.8991Z" fill="#E6E6E6"/>
<path d="M140.661 50.4885C140.871 50.4905 141.044 50.3213 141.046 50.1105C141.048 49.8998 140.879 49.7273 140.668 49.7253C140.457 49.7233 140.285 49.8925 140.283 50.1033C140.281 50.3141 140.45 50.4865 140.661 50.4885Z" fill="#E6E6E6"/>
<path d="M167.012 58.9436L164.504 58.9198C164.444 58.9195 164.384 58.9031 164.332 58.8724C164.28 58.8417 164.237 58.7978 164.207 58.745C164.177 58.6922 164.162 58.6325 164.162 58.5718C164.163 58.5112 164.18 58.4518 164.211 58.3998L165.485 56.2392L165.488 56.2339C165.516 56.1879 165.554 56.1492 165.6 56.1209C165.646 56.0926 165.697 56.0754 165.751 56.0709L165.753 56.0708C165.763 56.0699 165.774 56.0695 165.785 56.0696C165.846 56.0698 165.905 56.0862 165.957 56.117C166.01 56.1478 166.053 56.1919 166.082 56.2448L167.315 58.4292C167.345 58.4819 167.36 58.5415 167.36 58.602C167.359 58.6625 167.343 58.7218 167.312 58.774C167.281 58.8261 167.237 58.8692 167.185 58.899C167.132 58.9288 167.072 58.9441 167.012 58.9436ZM164.438 58.574C164.438 58.5862 164.442 58.5983 164.448 58.6089C164.454 58.6195 164.462 58.6284 164.473 58.6346C164.483 58.6407 164.495 58.644 164.507 58.644L167.014 58.6677C167.027 58.668 167.039 58.6649 167.049 58.659C167.06 58.653 167.068 58.6443 167.074 58.6338C167.081 58.6233 167.084 58.6113 167.084 58.5991C167.084 58.5871 167.081 58.5753 167.075 58.5649L165.842 56.3805C165.836 56.37 165.827 56.3612 165.817 56.355C165.807 56.3489 165.795 56.3456 165.783 56.3455C165.771 56.3453 165.759 56.3484 165.748 56.3544C165.738 56.3603 165.729 56.369 165.723 56.3794L164.448 58.5399C164.442 58.5502 164.439 58.562 164.438 58.574Z" fill="#E6E6E6"/>
<path d="M165.779 56.7246C165.893 56.7257 165.987 56.6339 165.988 56.5197C165.989 56.4054 165.897 56.3119 165.783 56.3108C165.669 56.3097 165.575 56.4015 165.574 56.5157C165.573 56.63 165.665 56.7235 165.779 56.7246Z" fill="#E6E6E6"/>
<path d="M134.122 65.2321C134.309 64.8141 134.579 64.4385 134.915 64.1284C135.252 63.8182 135.648 63.5799 136.08 63.428C136.529 63.2594 137.009 63.1899 137.488 63.2243C137.966 63.2586 138.431 63.3959 138.852 63.6269C139.839 64.1631 140.624 64.9989 141.627 65.5127C142.602 66.0076 143.678 66.2719 144.772 66.2853C146.01 66.3067 147.231 66.0017 148.314 65.4011C148.356 65.375 148.387 65.3336 148.399 65.2857C148.411 65.2377 148.404 65.1868 148.379 65.1438C148.355 65.1008 148.315 65.0691 148.267 65.0553C148.22 65.0414 148.169 65.0466 148.125 65.0697C147.143 65.6077 146.044 65.8945 144.925 65.9044C143.806 65.9144 142.702 65.6472 141.712 65.1267C140.706 64.5868 139.913 63.7229 138.888 63.2163C138.452 62.9999 137.979 62.872 137.494 62.8402C137.009 62.8083 136.522 62.8731 136.063 63.0308C135.552 63.1969 135.082 63.4697 134.684 63.8311C134.286 64.1925 133.97 64.6342 133.755 65.1272C133.661 65.3536 134.029 65.456 134.122 65.2321L134.122 65.2321Z" fill="#E6E6E6"/>
<path d="M133.787 68.7963C135.908 68.3436 138.104 68.372 140.213 68.8795C142.086 69.3329 144.017 70.1349 145.958 69.5688C146.826 69.3158 147.623 68.8011 148.075 68.0015C148.196 67.7876 147.868 67.5917 147.747 67.8058C146.897 69.3112 144.934 69.548 143.389 69.285C142.356 69.1093 141.363 68.7672 140.347 68.5195C138.163 67.9854 135.887 67.9539 133.689 68.4274C133.449 68.4786 133.547 68.8475 133.787 68.7963Z" fill="#E6E6E6"/>
<path d="M133.73 60.265C135.763 59.9389 137.841 60.0325 139.837 60.5403C141.701 61.016 143.517 62.0796 145.495 61.9176C146.41 61.8426 147.319 61.5146 147.947 60.8205C148.111 60.6389 147.845 60.3655 147.68 60.5481C147.138 61.1469 146.363 61.4526 145.57 61.5296C144.656 61.6184 143.76 61.4207 142.894 61.1435C141.935 60.8367 141.004 60.4508 140.028 60.1955C137.94 59.65 135.762 59.548 133.633 59.8961C133.391 59.935 133.49 60.3038 133.73 60.265Z" fill="#E6E6E6"/>
<path d="M162.56 59.6316C163.429 60.5384 164.023 61.6725 164.274 62.9029C164.467 63.8816 164.435 64.8915 164.179 65.8558C163.924 66.8202 163.453 67.7138 162.801 68.4688C162.641 68.6535 162.907 68.9272 163.068 68.7412C163.956 67.7146 164.529 66.4534 164.718 65.1091C164.856 64.0714 164.758 63.0158 164.431 62.0211C164.105 61.0265 163.558 60.1183 162.832 59.3643C162.662 59.1871 162.39 59.4544 162.56 59.6316Z" fill="#E6E6E6"/>
<path d="M168.291 58.8715C167.114 59.7182 166.446 61.0965 166.341 62.5277C166.231 64.0168 166.785 65.4612 167.689 66.6267C168.216 67.2979 168.848 67.8797 169.56 68.3496C169.765 68.4864 169.96 68.158 169.756 68.0219C168.596 67.2464 167.607 66.1511 167.088 64.8429C166.835 64.2214 166.708 63.5562 166.712 62.8852C166.717 62.2143 166.853 61.5508 167.114 60.9328C167.407 60.2442 167.878 59.6468 168.48 59.2029C168.678 59.061 168.491 58.7279 168.291 58.8715Z" fill="#E6E6E6"/>
<path d="M141.437 62.4541C142.421 62.4634 143.225 61.6736 143.234 60.6901C143.244 59.7065 142.454 58.9017 141.471 58.8924C140.488 58.883 139.684 59.6728 139.674 60.6564C139.665 61.6399 140.454 62.4448 141.437 62.4541Z" fill="#ECA400"/>
</g>
<path d="M5.79766 123.565L121.91 1.89094L235.697 125.743L120.747 124.654L5.79766 123.565Z" stroke="#F5F9E9"/>
<path d="M371.465 305.486C371.46 305.935 371.156 306.473 370.329 307.08C369.514 307.677 368.284 308.27 366.653 308.843C363.398 309.986 358.665 311.007 352.786 311.85C341.036 313.534 324.799 314.493 306.865 314.323C288.93 314.153 272.714 312.887 260.998 310.98C255.137 310.026 250.424 308.916 247.19 307.711C245.571 307.108 244.352 306.491 243.549 305.879C242.733 305.257 242.439 304.713 242.444 304.264C242.448 303.814 242.752 303.276 243.579 302.67C244.394 302.072 245.624 301.479 247.255 300.907C250.51 299.764 255.244 298.742 261.122 297.9C272.872 296.215 289.109 295.256 307.044 295.426C324.979 295.596 341.194 296.863 352.91 298.769C358.771 299.723 363.484 300.834 366.718 302.038C368.337 302.642 369.556 303.258 370.36 303.871C371.175 304.492 371.469 305.036 371.465 305.486Z" stroke="#F5F9E9"/>
<path d="M269.583 310.162L231.283 291.009L273.856 286.398L269.583 310.162Z" stroke="#F5F9E9"/>
<g clip-path="url(#clip1_80_1502)">
<path d="M367.056 229.817C361.319 236.845 350.607 238.366 341.779 235.815C338.89 234.961 336.107 233.799 333.479 232.349C331.953 231.52 330.464 230.613 329.006 229.648C328.648 229.412 328.289 229.172 327.934 228.927C327.692 228.762 327.451 228.595 327.211 228.426C324.201 226.316 321.312 224.005 318.472 221.707C311.383 215.971 304.099 210.059 295.348 207.272C293.545 206.698 291.208 206.415 290.076 207.9C289.094 209.19 289.668 211.035 290.476 212.436C293.472 217.627 298.969 220.938 304.477 223.496C309.985 226.055 315.826 228.141 320.601 231.85C325.375 235.56 328.991 241.418 327.952 247.287C327.056 252.345 322.783 256.42 317.843 258.167C312.903 259.913 307.415 259.612 302.309 258.399C297.202 257.186 292.363 255.107 287.441 253.308C284.473 252.222 280.588 251.454 278.589 253.855C276.901 255.884 277.829 259.119 279.845 260.84C281.861 262.561 284.606 263.157 287.225 263.693C295.358 265.36 303.491 267.026 311.624 268.692C314.118 269.202 316.672 269.735 318.837 271.051C321.002 272.366 322.738 274.644 322.652 277.132C322.566 279.585 320.707 281.735 318.443 282.8C316.181 283.864 313.578 284.007 311.07 283.866C301.671 283.337 274.852 268.489 268.404 266.562C264.261 265.326 259.735 263.523 258.02 259.637C255.884 254.799 259.529 249.005 264.449 246.852C269.368 244.697 275.043 245.238 280.375 246.03C285.707 246.821 291.213 247.816 296.423 246.458C301.633 245.099 306.438 240.555 305.975 235.307C305.572 230.74 301.397 227.262 296.984 225.704C293.53 224.485 289.845 224.127 286.21 223.559C285.2 223.402 284.195 223.228 283.2 223.015C280.651 222.468 278.168 221.664 275.79 220.614C273.294 219.515 270.927 218.158 268.727 216.566C266.973 215.298 265.335 213.883 263.834 212.336C263.605 212.099 263.379 211.858 263.154 211.611C262.941 211.375 262.731 211.134 262.525 210.888C259.849 207.704 257.887 203.795 258.524 199.792C259.16 195.801 262.381 192.503 266.194 190.94C268.397 190.037 270.768 189.646 273.166 189.609C274.918 189.591 276.669 189.731 278.396 190.026C286.386 191.352 293.683 195.219 300.57 199.397C307.455 203.575 314.161 208.153 321.661 211.155C329.16 214.159 337.717 215.482 345.379 212.903C353.04 210.324 359.382 203.151 359.084 195.24C364.109 199.549 368.362 204.944 370.209 211.22C372.055 217.495 371.221 224.713 367.056 229.817Z" fill="#3F3D56"/>
<path d="M330.64 221.299C331.132 221.304 331.534 220.918 331.539 220.438C331.543 219.958 331.148 219.565 330.657 219.56C330.165 219.555 329.763 219.941 329.758 220.421C329.754 220.902 330.149 221.295 330.64 221.299Z" fill="#ECA400"/>
<path d="M362.186 210.6C362.946 210.607 363.568 210.011 363.575 209.268C363.582 208.525 362.971 207.917 362.211 207.91C361.451 207.903 360.829 208.499 360.822 209.242C360.815 209.985 361.425 210.592 362.186 210.6Z" fill="#FF6584"/>
<path d="M271.507 251.201C271.787 251.204 272.017 250.984 272.02 250.709C272.022 250.435 271.797 250.21 271.516 250.207C271.235 250.205 271.005 250.425 271.003 250.699C271 250.974 271.226 251.198 271.507 251.201Z" fill="#FF6584"/>
<path d="M286.381 222.281C286.377 222.712 286.319 223.141 286.209 223.559C285.2 223.402 284.195 223.228 283.2 223.015C280.651 222.468 278.168 221.664 275.79 220.614C276.185 219.407 277.011 218.378 278.117 217.715C279.223 217.052 280.536 216.798 281.817 217C283.099 217.201 284.264 217.845 285.101 218.814C285.938 219.783 286.392 221.014 286.381 222.281Z" fill="#FF6584"/>
<path d="M353.302 218.404C353.59 218.406 353.825 218.181 353.827 217.9C353.83 217.62 353.599 217.39 353.312 217.387C353.025 217.385 352.79 217.61 352.787 217.89C352.784 218.171 353.015 218.401 353.302 218.404Z" fill="#F0F0F0"/>
<path d="M305.183 273.881C305.47 273.884 305.705 273.658 305.708 273.378C305.71 273.097 305.48 272.867 305.192 272.865C304.905 272.862 304.67 273.087 304.667 273.368C304.665 273.648 304.895 273.878 305.183 273.881Z" fill="#F0F0F0"/>
<path d="M312.578 281.002C312.866 281.005 313.101 280.78 313.103 280.499C313.106 280.218 312.875 279.989 312.588 279.986C312.301 279.983 312.066 280.208 312.063 280.489C312.06 280.77 312.291 280.999 312.578 281.002Z" fill="#F0F0F0"/>
<path d="M266.647 260.488C266.934 260.491 267.169 260.266 267.172 259.985C267.174 259.705 266.944 259.475 266.656 259.472C266.369 259.469 266.134 259.695 266.131 259.975C266.129 260.256 266.359 260.486 266.647 260.488Z" fill="#F0F0F0"/>
<path d="M292.305 251.29C292.592 251.293 292.827 251.067 292.83 250.787C292.833 250.506 292.602 250.276 292.315 250.274C292.027 250.271 291.792 250.496 291.79 250.777C291.787 251.058 292.018 251.287 292.305 251.29Z" fill="#F0F0F0"/>
<path d="M290.214 200.835C290.501 200.837 290.736 200.612 290.739 200.331C290.741 200.051 290.511 199.821 290.223 199.818C289.936 199.816 289.701 200.041 289.698 200.322C289.696 200.602 289.926 200.832 290.214 200.835Z" fill="#F0F0F0"/>
<path d="M321.278 240.927C321.565 240.93 321.8 240.705 321.803 240.424C321.806 240.144 321.575 239.914 321.288 239.911C321 239.908 320.765 240.134 320.763 240.414C320.76 240.695 320.991 240.925 321.278 240.927Z" fill="#F0F0F0"/>
<path d="M325.109 249.808C325.396 249.811 325.631 249.585 325.634 249.305C325.637 249.024 325.406 248.795 325.119 248.792C324.831 248.789 324.596 249.014 324.594 249.295C324.591 249.576 324.822 249.805 325.109 249.808Z" fill="#F0F0F0"/>
<path d="M278.671 201.839C278.65 204.405 278.006 206.929 276.79 209.203C276.629 209.502 276.459 209.797 276.28 210.086C274.504 212.953 271.867 215.216 268.727 216.566C266.973 215.298 265.336 213.883 263.834 212.336C263.605 212.099 263.379 211.858 263.154 211.611C262.941 211.375 262.731 211.134 262.525 210.888C259.849 207.704 257.887 203.795 258.524 199.792C259.16 195.801 262.381 192.503 266.194 190.94C268.397 190.037 270.768 189.646 273.166 189.609C275.024 191.243 276.482 193.265 277.432 195.524C277.552 195.809 277.662 196.097 277.765 196.388C278.384 198.141 278.69 199.985 278.671 201.839Z" fill="#ECA400"/>
<path d="M286.247 202.748C286.224 205.237 283.714 207.522 279.178 209.185C278.271 209.518 277.3 209.818 276.28 210.086C272.46 211.087 267.921 211.619 263.154 211.611C262.941 211.375 262.731 211.134 262.525 210.888C262.576 210.89 262.628 210.89 262.679 210.89C267.855 210.94 272.772 210.345 276.79 209.203C277.532 208.991 278.244 208.761 278.92 208.513C283.09 206.986 285.493 204.881 285.513 202.741C285.534 200.6 283.171 198.452 279.031 196.845C278.621 196.685 278.199 196.533 277.765 196.388C277.662 196.097 277.552 195.809 277.432 195.524C278.081 195.729 278.704 195.947 279.302 196.178C283.805 197.926 286.271 200.26 286.247 202.748Z" fill="#E4E4E4"/>
<path d="M263.609 193.651C263.897 193.654 264.132 193.428 264.134 193.148C264.137 192.867 263.906 192.637 263.619 192.635C263.332 192.632 263.097 192.857 263.094 193.138C263.091 193.418 263.322 193.648 263.609 193.651Z" fill="#F0F0F0"/>
<path d="M274.467 196.981C274.754 196.983 274.989 196.758 274.992 196.477C274.995 196.197 274.764 195.967 274.477 195.964C274.189 195.962 273.954 196.187 273.952 196.468C273.949 196.748 274.18 196.978 274.467 196.981Z" fill="#F0F0F0"/>
<path d="M268.749 206.499C271.543 206.526 273.828 204.335 273.854 201.606C273.88 198.877 271.636 196.643 268.842 196.617C266.049 196.59 263.763 198.781 263.737 201.51C263.711 204.239 265.955 206.473 268.749 206.499Z" fill="#F0F0F0"/>
<path opacity="0.3" d="M361.966 228.596C360.828 228.912 358.323 229.13 355.569 229.252C352.816 229.373 349.797 229.409 346.816 229.443C341.599 229.503 336.382 229.564 331.165 229.626C330.448 229.634 329.728 229.642 329.006 229.648C328.648 229.412 328.289 229.172 327.934 228.927C328.574 228.937 329.214 228.939 329.849 228.933C332.561 228.906 334.86 228.721 337.476 228.648C341.503 228.534 345.847 228.695 350.041 228.796C354.236 228.898 359.016 228.92 361.966 228.596Z" fill="#F0F0F0"/>
<path opacity="0.3" d="M281.547 265.508L265.047 251.819L281.068 266.046C281.099 266.098 281.142 266.142 281.193 266.174C281.245 266.206 281.304 266.226 281.365 266.232C281.426 266.237 281.487 266.229 281.544 266.207C281.601 266.185 281.652 266.149 281.692 266.104C281.732 266.059 281.761 266.005 281.775 265.947C281.79 265.889 281.79 265.828 281.776 265.77C281.762 265.712 281.734 265.658 281.694 265.612C281.654 265.567 281.604 265.531 281.547 265.508L281.547 265.508Z" fill="#F0F0F0"/>
<path d="M269.41 214.143C269.698 214.145 269.933 213.92 269.935 213.64C269.938 213.359 269.707 213.129 269.42 213.127C269.133 213.124 268.898 213.349 268.895 213.63C268.892 213.91 269.123 214.14 269.41 214.143Z" fill="#0B7A75"/>
<path d="M312.546 272.926L314.697 272.946L315.798 264.849L312.622 264.819L312.546 272.926Z" fill="#DB5461"/>
<path d="M312.003 272.235L312.609 272.24L314.982 271.324L316.241 272.275L316.241 272.275C316.957 272.282 317.641 272.566 318.143 273.065C318.645 273.565 318.923 274.238 318.916 274.938L318.915 275.024L311.978 274.958L312.003 272.235Z" fill="#2F2E41"/>
<path d="M296.432 272.773L294.281 272.753L293.334 264.636L296.51 264.667L296.432 272.773Z" fill="#DB5461"/>
<path d="M296.962 274.816L290.024 274.75L290.025 274.664C290.032 273.965 290.323 273.296 290.834 272.807C291.345 272.317 292.034 272.045 292.75 272.052L292.75 272.052L294.027 271.125L296.382 272.087L296.988 272.092L296.962 274.816Z" fill="#2F2E41"/>
<path d="M304.731 210.718L302.537 212.318L296.735 213.76C296.735 213.76 298.674 227.996 297.686 228.943C296.699 229.889 297.581 229.923 297.373 231.164C297.164 232.404 296.35 235.675 296.35 235.675L313.622 235.839C313.622 235.839 313.781 233.802 312.934 233.353C312.086 232.904 313.742 230.859 313.05 230.508C312.357 230.157 313.364 227.179 313.364 227.179L315.578 217.418L309.977 213.052L309.138 211.025L304.731 210.718Z" fill="#ECA400"/>
<path d="M307.328 223.447C307.745 223.451 308.085 223.125 308.089 222.718C308.093 222.311 307.759 221.978 307.342 221.974C306.926 221.97 306.586 222.297 306.582 222.704C306.578 223.11 306.912 223.443 307.328 223.447Z" fill="#0B7A75"/>
<path d="M296.349 235.675L295.467 253.585C295.467 253.585 292.266 266.788 292.797 267.141C293.328 267.494 293.535 269.571 293.535 269.571L296.559 269.947C296.559 269.947 296.572 268.556 297.289 268.041C298.007 267.525 304.827 243.062 304.827 243.062L311.03 266.836C311.03 266.836 311.179 268.172 311.713 268.177C312.247 268.182 312.407 270.097 312.407 270.097L315.434 270.126L315.452 268.213C315.452 268.213 316.817 267.804 316.296 266.408C315.775 265.011 313.622 235.839 313.622 235.839L296.349 235.675Z" fill="#2F2E41"/>
<path d="M307.003 209.672C309.019 209.691 310.668 208.11 310.687 206.14C310.706 204.171 309.086 202.559 307.07 202.54C305.054 202.521 303.405 204.102 303.386 206.071C303.367 208.041 304.987 209.653 307.003 209.672Z" fill="#DB5461"/>
<path opacity="0.1" d="M313.128 222.178L313.836 222.707L314.215 220.275L313.128 222.178Z" fill="black"/>
<path d="M297.077 213.749C297.077 213.749 296.188 213.567 295.639 215.127C295.09 216.688 293.075 222.583 293.065 223.627C293.055 224.671 305.21 229.391 305.21 229.391L303.982 225.03L298.422 222.112L297.077 213.749Z" fill="#ECA400"/>
<path d="M305.782 228.752C306.931 228.762 307.87 227.862 307.881 226.74C307.892 225.618 306.969 224.699 305.82 224.688C304.672 224.678 303.732 225.578 303.721 226.7C303.711 227.822 304.633 228.741 305.782 228.752Z" fill="#DB5461"/>
<path opacity="0.1" d="M298.28 219.956L298.422 222.112L303.563 224.81L298.997 221.756L298.28 219.956Z" fill="black"/>
<path d="M310.697 220.381L310.63 220.38L310.647 218.587C310.648 218.45 310.622 218.315 310.57 218.189C310.518 218.062 310.44 217.947 310.343 217.85C310.245 217.752 310.128 217.675 310 217.621C309.872 217.568 309.734 217.54 309.594 217.539L305.704 217.502C305.564 217.5 305.426 217.526 305.297 217.577C305.167 217.628 305.049 217.703 304.95 217.799C304.85 217.894 304.771 218.008 304.716 218.133C304.662 218.259 304.633 218.393 304.632 218.53L304.538 228.369C304.537 228.506 304.563 228.641 304.615 228.767C304.668 228.894 304.745 229.009 304.843 229.106C304.94 229.204 305.057 229.281 305.185 229.335C305.314 229.388 305.452 229.416 305.591 229.417L309.481 229.454C309.621 229.456 309.759 229.43 309.889 229.379C310.018 229.328 310.136 229.253 310.235 229.157C310.335 229.062 310.414 228.948 310.469 228.823C310.524 228.697 310.552 228.563 310.554 228.426L310.618 221.657L310.685 221.658L310.697 220.381Z" fill="#F0F0F0"/>
<path d="M315.578 217.418C315.578 217.418 316.109 217.77 316.45 219.339C316.791 220.908 319.05 226.844 318.147 228.227C317.243 229.61 316.966 231.093 313.959 228.977L309.805 225.191L312.859 222.437L314.097 223.318L315.578 217.418Z" fill="#ECA400"/>
<path d="M307.655 221.906C308.147 221.911 308.549 221.525 308.554 221.045C308.558 220.564 308.163 220.171 307.672 220.167C307.18 220.162 306.778 220.548 306.773 221.028C306.768 221.508 307.163 221.901 307.655 221.906Z" fill="#ECA400"/>
<path d="M310.203 224.998C311.352 225.009 312.292 224.108 312.302 222.986C312.313 221.864 311.391 220.945 310.242 220.934C309.093 220.924 308.153 221.824 308.143 222.946C308.132 224.068 309.055 224.987 310.203 224.998Z" fill="#DB5461"/>
<path opacity="0.1" d="M298.12 226.458L304.066 229.094L297.941 227.864L298.12 226.458Z" fill="black"/>
<path d="M303.347 206.781L302.863 204.913C302.737 204.426 302.61 203.929 302.644 203.427C302.678 202.926 302.901 202.41 303.337 202.142C303.772 201.874 304.432 201.945 304.707 202.37C304.766 201.696 305.399 201.182 306.068 201.005C306.737 200.827 307.444 200.907 308.136 200.944C308.828 200.982 309.559 200.967 310.16 200.63C310.204 200.764 310.199 200.908 310.147 201.039C310.095 201.17 309.998 201.28 309.873 201.349C310.021 201.39 310.179 201.375 310.316 201.306C310.453 201.237 310.558 201.12 310.61 200.978C310.611 201.369 310.459 201.746 310.186 202.031C310.445 201.909 310.741 201.885 311.018 201.964C311.294 202.043 311.53 202.22 311.68 202.46C311.98 202.979 311.803 203.626 311.62 204.194L310.676 207.111C310.542 206.665 310.52 206.196 310.45 205.736C310.38 205.276 310.252 204.805 309.945 204.45C309.638 204.094 309.113 203.885 308.67 204.056C308.422 204.152 308.231 204.349 308.007 204.49C307.546 204.779 306.962 204.816 306.418 204.751C305.874 204.686 305.345 204.53 304.801 204.464C304.46 204.423 304.08 204.429 303.821 204.649C303.642 204.827 303.523 205.053 303.479 205.299C303.353 205.788 303.301 206.292 303.324 206.796" fill="#2F2E41"/>
</g>
<path d="M381.359 192.31C381.149 192.678 380.675 192.984 379.785 193.128C378.903 193.27 377.707 193.236 376.213 193.015C373.229 192.574 369.179 191.409 364.338 189.612C354.664 186.02 341.918 179.936 328.4 172.21C314.882 164.483 303.171 156.588 295.167 150.075C291.161 146.816 288.102 143.917 286.208 141.571C285.259 140.395 284.623 139.382 284.298 138.55C283.97 137.71 283.993 137.147 284.204 136.779C284.414 136.411 284.888 136.105 285.778 135.961C286.66 135.819 287.856 135.853 289.35 136.074C292.333 136.515 296.383 137.68 301.224 139.477C302.803 140.063 304.463 140.715 306.195 141.43C308.422 143.786 311.399 146.495 314.944 149.411C323.918 156.791 336.594 165.541 350.149 173.289C361.177 179.592 371.1 184.268 379.173 187.296C379.235 187.371 379.295 187.445 379.354 187.518C380.303 188.694 380.94 189.707 381.265 190.539C381.593 191.379 381.569 191.942 381.359 192.31ZM384.725 188.165C383.169 187.673 381.515 187.102 379.772 186.453C377.801 184.112 374.814 181.32 371.027 178.238C362.968 171.681 351.209 163.756 337.659 156.011C326.405 149.578 315.67 144.273 306.775 140.588C306.255 140.033 305.779 139.5 305.35 138.99C304.227 137.657 303.444 136.509 303.02 135.579C302.584 134.623 302.584 134.031 302.778 133.691C302.891 133.494 303.113 133.253 303.478 132.979C303.838 132.71 304.314 132.427 304.903 132.139C306.081 131.565 307.676 130.989 309.621 130.466C313.51 129.421 318.753 128.598 324.768 128.394C336.802 127.987 351.863 130.062 365.294 137.739C378.725 145.416 388.012 157.257 393.624 167.748C396.429 172.992 398.309 177.887 399.328 181.736C399.838 183.662 400.129 185.315 400.217 186.613C400.306 187.941 400.174 188.802 399.934 189.223C399.701 189.629 399.24 189.972 398.459 190.195C397.679 190.418 396.629 190.506 395.314 190.438C392.685 190.302 389.102 189.549 384.725 188.165ZM315.579 148.638C312.882 146.42 310.529 144.333 308.595 142.441C316.988 146.047 326.85 150.985 337.163 156.879C350.681 164.605 362.391 172.501 370.396 179.014C373.408 181.465 375.884 183.711 377.733 185.673C370.061 182.665 360.835 178.245 350.645 172.421C337.132 164.697 324.504 155.978 315.579 148.638Z" stroke="#F5F9E9"/>
<line x1="231.13" y1="126.2" x2="229.567" y2="291.192" stroke="#F5F9E9"/>
<defs>
<clipPath id="clip0_80_1502">
<rect width="112.269" height="77.8715" fill="white" transform="translate(73.8301 40.8857) rotate(0.542762)"/>
</clipPath>
<clipPath id="clip1_80_1502">
<rect width="113.369" height="93.9339" fill="white" transform="translate(258.032 189.457) rotate(0.542762)"/>
</clipPath>
</defs>
</svg>
