<svg width="264" height="258" viewBox="0 0 264 258" fill="none" xmlns="http://www.w3.org/2000/svg">
<g opacity="0.4" clip-path="url(#clip0_109_11995)">
<path d="M167.598 58.0234H96.4615C94.8404 58.0254 93.2863 58.671 92.1401 59.8186C90.9938 60.9662 90.3489 62.5221 90.347 64.1451V222.433L89.5317 222.682L72.0808 228.032C71.2537 228.285 70.3604 228.198 69.5969 227.792C68.8335 227.386 68.2622 226.693 68.0086 225.865L16.1001 56.1093C15.8474 55.2813 15.9335 54.3867 16.3394 53.6222C16.7453 52.8577 17.4378 52.2858 18.2646 52.0322L45.1565 43.7883L123.117 19.8972L150.009 11.6533C150.418 11.5272 150.848 11.4831 151.274 11.5236C151.7 11.5641 152.115 11.6884 152.493 11.8893C152.871 12.0902 153.206 12.3638 153.479 12.6945C153.751 13.0251 153.956 13.4063 154.081 13.8163L167.349 57.2071L167.598 58.0234Z" fill="#737374"/>
<path d="M183.121 57.2072L167.129 4.91129C166.863 4.03994 166.428 3.22962 165.849 2.52663C165.27 1.82364 164.559 1.24177 163.755 0.814248C162.951 0.386729 162.071 0.121946 161.165 0.035038C160.26 -0.0518697 159.345 0.0408013 158.475 0.307746L120.667 11.8941L42.7108 35.7893L4.90249 47.3798C3.14612 47.9198 1.67548 49.1354 0.813386 50.7598C-0.0487074 52.3842 -0.231828 54.2847 0.304227 56.0441L54.9601 234.77C55.3956 236.19 56.2743 237.434 57.4672 238.317C58.6601 239.201 60.1045 239.678 61.5884 239.68C62.2752 239.68 62.9581 239.577 63.6142 239.374L89.5318 231.432L90.3471 231.179V230.326L89.5318 230.575L63.3738 238.594C61.8235 239.067 60.149 238.906 58.7177 238.144C57.2864 237.383 56.2151 236.085 55.7388 234.533L1.08706 55.8033C0.851071 55.0348 0.768824 54.2272 0.845022 53.4268C0.921219 52.6265 1.15436 51.849 1.5311 51.1389C1.90785 50.4289 2.4208 49.8002 3.04057 49.2889C3.66034 48.7777 4.37476 48.3938 5.14292 48.1593L42.9512 36.5688L120.908 12.6777L158.716 1.08725C159.299 0.909234 159.904 0.818465 160.513 0.817897C161.821 0.820836 163.093 1.24281 164.143 2.02201C165.194 2.80121 165.967 3.8967 166.351 5.148L182.269 57.2072L182.522 58.0235H183.37L183.121 57.2072Z" fill="#A4A3A4"/>
<path d="M50.0093 52.1658C49.2236 52.1652 48.4588 51.9126 47.827 51.445C47.1953 50.9773 46.7298 50.3193 46.499 49.5674L41.2485 32.3973C41.1074 31.9361 41.0584 31.4515 41.1044 30.9714C41.1504 30.4912 41.2904 30.0248 41.5164 29.5988C41.7424 29.1728 42.0501 28.7956 42.4217 28.4887C42.7934 28.1817 43.2218 27.9511 43.6825 27.81L115.402 5.82732C116.332 5.54308 117.337 5.64002 118.196 6.09687C119.055 6.55371 119.698 7.33313 119.984 8.26406L125.234 25.4344C125.518 26.3659 125.421 27.372 124.965 28.232C124.509 29.0921 123.73 29.7358 122.8 30.0219L51.0811 52.0046C50.7338 52.1113 50.3726 52.1656 50.0093 52.1658Z" fill="#818C85"/>
<path d="M77.5136 18.3466C82.0162 18.3466 85.6663 14.6922 85.6663 10.1843C85.6663 5.67636 82.0162 2.02197 77.5136 2.02197C73.0109 2.02197 69.3608 5.67636 69.3608 10.1843C69.3608 14.6922 73.0109 18.3466 77.5136 18.3466Z" fill="#818C85"/>
<path d="M77.5134 15.3531C80.3646 15.3531 82.6759 13.0391 82.6759 10.1845C82.6759 7.32994 80.3646 5.01587 77.5134 5.01587C74.6622 5.01587 72.3508 7.32994 72.3508 10.1845C72.3508 13.0391 74.6622 15.3531 77.5134 15.3531Z" fill="#A4A3A4"/>
<path d="M245.656 237.594H107.875C106.957 237.593 106.076 237.227 105.426 236.577C104.777 235.927 104.411 235.045 104.41 234.125V68.8384C104.411 67.9187 104.777 67.0369 105.426 66.3866C106.076 65.7362 106.957 65.3704 107.875 65.3694H245.656C246.575 65.3704 247.456 65.7363 248.105 66.3866C248.755 67.0369 249.12 67.9187 249.121 68.8384V234.125C249.12 235.045 248.755 235.927 248.105 236.577C247.456 237.227 246.575 237.593 245.656 237.594Z" fill="#A4A3A4"/>
<path d="M182.269 57.207H96.4616C94.6245 57.2096 92.8633 57.9414 91.5643 59.242C90.2653 60.5425 89.5343 62.3057 89.5317 64.145V230.575L90.347 230.326V64.145C90.349 62.522 90.9938 60.9661 92.1401 59.8185C93.2864 58.6708 94.8405 58.0252 96.4616 58.0233H182.522L182.269 57.207ZM257.07 57.207H96.4616C94.6245 57.2096 92.8633 57.9414 91.5643 59.242C90.2653 60.5425 89.5343 62.3057 89.5317 64.145V251.062C89.5343 252.901 90.2653 254.664 91.5643 255.965C92.8633 257.266 94.6245 257.997 96.4616 258H257.07C258.907 257.997 260.668 257.266 261.967 255.965C263.267 254.664 263.997 252.901 264 251.062V64.145C263.997 62.3057 263.267 60.5425 261.967 59.242C260.668 57.9414 258.907 57.2096 257.07 57.207ZM263.185 251.062C263.183 252.685 262.538 254.241 261.392 255.388C260.245 256.536 258.691 257.182 257.07 257.184H96.4616C94.8405 257.182 93.2864 256.536 92.1401 255.388C90.9938 254.241 90.349 252.685 90.347 251.062V64.145C90.349 62.522 90.9938 60.9661 92.1401 59.8185C93.2864 58.6708 94.8405 58.0252 96.4616 58.0233H257.07C258.691 58.0252 260.245 58.6708 261.392 59.8185C262.538 60.9661 263.183 62.522 263.185 64.145V251.062Z" fill="#A4A3A4"/>
<path d="M214.269 75.1642H139.263C138.291 75.1631 137.358 74.7758 136.67 74.0872C135.983 73.3986 135.596 72.465 135.595 71.4912V53.5341C135.596 52.5603 135.983 51.6267 136.67 50.9381C137.358 50.2495 138.291 49.8622 139.263 49.8611H214.269C215.241 49.8622 216.174 50.2495 216.861 50.9381C217.549 51.6267 217.936 52.5603 217.937 53.5341V71.4912C217.936 72.465 217.549 73.3986 216.862 74.0872C216.174 74.7758 215.241 75.1631 214.269 75.1642Z" fill="#818C85"/>
<path d="M176.766 51.0854C181.268 51.0854 184.918 47.431 184.918 42.9231C184.918 38.4151 181.268 34.7607 176.766 34.7607C172.263 34.7607 168.613 38.4151 168.613 42.9231C168.613 47.431 172.263 51.0854 176.766 51.0854Z" fill="#818C85"/>
<path d="M176.766 47.8946C179.508 47.8946 181.732 45.6688 181.732 42.923C181.732 40.1773 179.508 37.9514 176.766 37.9514C174.023 37.9514 171.8 40.1773 171.8 42.923C171.8 45.6688 174.023 47.8946 176.766 47.8946Z" fill="#A4A3A4"/>
</g>
<defs>
<clipPath id="clip0_109_11995">
<rect width="264" height="258" fill="white"/>
</clipPath>
</defs>
</svg>
