<svg width="189" height="50" viewBox="0 0 189 50" fill="none" xmlns="http://www.w3.org/2000/svg">
<path d="M1.5 41.3712L1.53 20.3712H9.42C10.5 20.3712 11.44 20.6712 12.24 21.2712C13.06 21.8712 13.69 22.6512 14.13 23.6112C14.59 24.5712 14.82 25.5912 14.82 26.6712C14.82 27.4312 14.68 28.1912 14.4 28.9512C14.12 29.6912 13.72 30.3612 13.2 30.9612C12.7 31.5612 12.12 32.0512 11.46 32.4312C10.8 32.7912 10.09 32.9712 9.33 32.9712H4.68V41.3712H1.5ZM4.68 29.8212H9.21C9.65 29.8212 10.06 29.6712 10.44 29.3712C10.82 29.0712 11.12 28.6812 11.34 28.2012C11.58 27.7012 11.7 27.1912 11.7 26.6712C11.7 25.7712 11.45 25.0212 10.95 24.4212C10.45 23.8212 9.9 23.5212 9.3 23.5212H4.68V29.8212Z" fill="#3F3D56"/>
<path d="M17.5254 41.3712V26.4312H20.7054V27.6312C21.4454 26.8512 22.3354 26.4412 23.3754 26.4012C24.4354 26.3612 25.6454 26.5512 27.0054 26.9712L25.4754 29.7312C24.6754 29.4512 23.9054 29.3812 23.1654 29.5212C22.4254 29.6612 21.8254 29.9312 21.3654 30.3312C20.9054 30.7312 20.6854 31.1912 20.7054 31.7112V41.3712H17.5254ZM65.0327 24.5412C64.4927 24.5412 64.0227 24.3512 63.6227 23.9712C63.2427 23.5712 63.0527 23.0912 63.0527 22.5312C63.0527 21.9912 63.2427 21.5312 63.6227 21.1512C64.0227 20.7712 64.4927 20.5812 65.0327 20.5812C65.5927 20.5812 66.0627 20.7712 66.4427 21.1512C66.8227 21.5312 67.0127 21.9912 67.0127 22.5312C67.0127 23.0912 66.8227 23.5712 66.4427 23.9712C66.0627 24.3512 65.5927 24.5412 65.0327 24.5412ZM66.5327 41.3712H63.5627V26.3712H66.5327V41.3712Z" fill="#DB5461"/>
<path d="M43.4299 35.0412H32.5399C32.5999 36.0812 32.9399 36.8912 33.5599 37.4712C34.1799 38.0312 34.9499 38.3712 35.8699 38.4912C36.8099 38.6112 37.7799 38.5312 38.7799 38.2512C39.7999 37.9512 40.7199 37.4512 41.5399 36.7512L43.2799 39.1812C42.2399 40.0612 41.1599 40.6912 40.0399 41.0712C38.9399 41.4512 37.8399 41.6412 36.7399 41.6412C34.2199 41.6612 32.3099 40.9612 31.0099 39.5412C29.7299 38.1012 29.0899 36.0812 29.0899 33.4812C29.0899 31.2612 29.7299 29.4912 31.0099 28.1712C32.3099 26.8512 34.0999 26.1912 36.3799 26.1912C39.6199 26.2112 41.7699 27.4812 42.8299 30.0012C43.1299 30.7012 43.3199 31.4612 43.3999 32.2812C43.4799 33.1012 43.4899 34.0212 43.4299 35.0412ZM36.6499 29.1912C35.3699 29.1912 34.3599 29.5312 33.6199 30.2112C32.8999 30.8712 32.5399 31.7012 32.5399 32.7012H40.6399C40.6399 31.7212 40.2899 30.8912 39.5899 30.2112C38.9099 29.5312 37.9299 29.1912 36.6499 29.1912ZM84.0354 35.0412H73.1454C73.2054 36.0812 73.5454 36.8912 74.1654 37.4712C74.7854 38.0312 75.5554 38.3712 76.4754 38.4912C77.4154 38.6112 78.3854 38.5312 79.3854 38.2512C80.4054 37.9512 81.3254 37.4512 82.1454 36.7512L83.8854 39.1812C82.8454 40.0612 81.7654 40.6912 80.6454 41.0712C79.5454 41.4512 78.4454 41.6412 77.3454 41.6412C74.8254 41.6612 72.9154 40.9612 71.6154 39.5412C70.3354 38.1012 69.6954 36.0812 69.6954 33.4812C69.6954 31.2612 70.3354 29.4912 71.6154 28.1712C72.9154 26.8512 74.7054 26.1912 76.9854 26.1912C80.2254 26.2112 82.3754 27.4812 83.4354 30.0012C83.7354 30.7012 83.9254 31.4612 84.0054 32.2812C84.0854 33.1012 84.0954 34.0212 84.0354 35.0412ZM77.2554 29.1912C75.9754 29.1912 74.9654 29.5312 74.2254 30.2112C73.5054 30.8712 73.1454 31.7012 73.1454 32.7012H81.2454C81.2454 31.7212 80.8954 30.8912 80.1954 30.2112C79.5154 29.5312 78.5354 29.1912 77.2554 29.1912Z" fill="#ECA400"/>
<path d="M60.3656 26.3712L54.9356 41.3712H51.4256L45.9656 26.3712H49.2956L53.1656 37.8912L57.0356 26.3712H60.3656Z" fill="#0B7A75"/>
<path d="M111.501 26.3712L106.431 41.3712H102.441L99.0511 30.5712L95.6611 41.3712H91.7011L86.5711 26.3712H90.1111L93.6511 37.9212L97.3411 26.3712H100.761L104.451 37.8912L107.961 26.3712H111.501Z" fill="#818C85"/>
<path d="M153.083 8.85901C148.385 9.60335 143.693 9.28426 139.18 8.82013C134.667 8.35599 130.165 7.7499 125.465 7.93259C122.441 8.04986 119.074 8.61151 116.963 10.244C114.931 11.8142 114.614 13.933 114.61 15.8457C114.605 17.2844 114.738 18.7731 115.826 19.9192C116.581 20.7142 117.745 21.2839 118.621 22.0177C121.669 24.5668 120.742 28.5804 118.742 31.9929C117.803 33.5939 116.655 35.1684 116.016 36.8071C115.377 38.4457 115.292 40.2017 116.436 41.5379C117.567 42.8556 119.76 43.6049 122.049 43.9919C126.693 44.7782 131.866 44.29 136.872 43.6284C147.949 42.1638 158.913 39.8727 169.853 37.5872C173.901 36.741 177.966 35.8912 181.866 34.6716C184.032 33.9926 186.237 33.1477 187.636 31.8324C189.413 30.166 189.458 27.8867 187.745 26.5245C184.871 24.2409 178.366 24.7476 176.143 22.1368C174.92 20.6994 175.452 18.7472 176.426 17.0227C178.513 13.3245 182.548 9.67063 182.025 5.98347C181.665 3.45295 178.912 1.35879 175.223 0.813187C171.357 0.241659 166.39 1.32546 164.164 3.87203C161.875 6.49575 157.232 8.20231 153.083 8.85901Z" fill="#3F3D56"/>
<path d="M154.027 45.4511C154.028 45.4491 154.029 45.4478 154.031 45.4458C154.028 45.4538 154.025 45.4618 154.023 45.4705L154.027 45.4511Z" fill="#F0F0F0"/>
<path d="M154.995 44.2074C154.939 44.2776 154.882 44.3457 154.824 44.4139C154.768 44.4795 154.713 44.545 154.657 44.6112C154.512 44.7796 154.382 44.9594 154.269 45.1486C154.212 45.2469 154.165 45.3497 154.128 45.4558L154.038 45.4366C154.036 45.4398 154.034 45.4429 154.031 45.4458C154.032 45.4424 154.033 45.4391 154.035 45.4359C154.199 44.954 154.572 44.5807 154.897 44.1796C154.908 44.1664 154.918 44.1531 154.929 44.1399L154.995 44.2074Z" fill="white"/>
<path d="M154.18 41.7129L154.048 42.2543L154.08 42.2867C154.073 42.3033 154.066 42.3198 154.057 42.3364C153.987 42.4849 153.907 42.629 153.817 42.768C153.699 42.9526 153.567 43.1307 153.429 43.3054C153.354 43.4021 153.276 43.498 153.199 43.5934C153.197 43.5966 153.194 43.5997 153.192 43.6026C153.193 43.5992 153.194 43.5959 153.195 43.5927L153.17 43.5874L153.024 42.993L152.98 43.087V43.0877L152.908 43.2432C152.913 43.2717 152.919 43.2995 152.926 43.3273C152.925 43.3266 152.925 43.3253 152.925 43.3246C152.924 43.324 152.924 43.324 152.924 43.3233C152.915 43.3048 152.905 43.2869 152.896 43.2684L152.786 43.5053L152.563 43.4577C152.446 43.4007 152.329 43.3432 152.213 43.2836C150.624 42.4741 149.154 41.4408 148.164 40.0343C147.77 39.4739 147.473 38.859 147.282 38.212C146.907 36.9266 146.971 35.5432 147.655 34.3948L147.655 34.3945L147.655 34.3943L147.655 34.3942L147.656 34.3941C147.673 34.365 147.69 34.3359 147.708 34.3068C147.722 34.3399 147.735 34.373 147.749 34.406V34.4067C147.932 34.8562 148.154 35.2911 148.412 35.7074C148.431 35.7398 148.451 35.7722 148.472 35.804C149.102 36.7964 149.922 37.6703 150.891 38.3815C150.894 38.3839 150.896 38.3861 150.899 38.3881C150.903 38.3907 150.906 38.3932 150.91 38.3954C151.126 38.5542 151.348 38.7036 151.579 38.8435V38.8442C151.758 38.954 151.943 39.058 152.13 39.1566C152.53 39.3657 152.965 39.567 153.338 39.8178C153.701 40.0607 154.007 40.35 154.17 40.7372C154.182 40.7683 154.194 40.7994 154.205 40.8305L153.915 41.6718L154.18 41.7129Z" fill="#0B7A75"/>
<path d="M153.27 45.0176V45.0183L153.198 45.1739C153.09 44.6073 153.218 44.0082 153.129 43.4344C153.119 43.3702 153.106 43.3059 153.09 43.2424C152.999 42.8797 152.789 42.5401 152.417 42.378C152.309 42.3315 152.195 42.2971 152.078 42.2754C151.846 42.229 151.605 42.2191 151.372 42.1933C151.314 42.1867 151.256 42.1794 151.2 42.1694C150.898 42.1256 150.61 42.021 150.355 41.863C150.044 41.6549 149.772 41.3984 149.552 41.1044C149.407 40.9199 149.271 40.7286 149.147 40.5312C149.13 40.5061 149.114 40.4803 149.098 40.4544C148.807 39.98 148.567 39.4787 148.384 38.9585C148.29 38.6926 148.211 38.4222 148.148 38.1484C148.006 37.55 147.938 36.9383 147.945 36.3255C147.945 36.3254 147.945 36.3253 147.945 36.3252C147.945 36.3251 147.945 36.325 147.945 36.325C147.946 36.3249 147.946 36.3249 147.946 36.3248C147.946 36.3248 147.946 36.3248 147.946 36.3248C147.945 36.297 147.946 36.2692 147.947 36.2414C147.948 36.1845 148.042 36.197 148.04 36.254C148.04 36.2818 148.039 36.3089 148.039 36.3367V36.3374C148.033 36.9246 148.096 37.5106 148.227 38.0848C148.234 38.1139 148.241 38.1431 148.248 38.1722C148.438 38.9679 148.758 39.7313 149.197 40.4352C149.202 40.4432 149.207 40.4511 149.212 40.4591C149.315 40.6226 149.424 40.7814 149.54 40.937C149.752 41.2364 150.013 41.5027 150.314 41.726C150.566 41.9035 150.86 42.023 151.171 42.0748C151.202 42.0801 151.233 42.0854 151.264 42.09C151.289 42.094 151.314 42.0973 151.34 42.0999C151.577 42.1277 151.821 42.1383 152.057 42.1807C152.164 42.1997 152.27 42.2274 152.372 42.2634C152.54 42.3265 152.691 42.422 152.816 42.5438C152.942 42.6657 153.038 42.811 153.099 42.9704C153.162 43.125 153.205 43.2861 153.228 43.4502C153.235 43.5039 153.241 43.5575 153.246 43.6117V43.6124C153.253 43.6998 153.257 43.7878 153.258 43.8758C153.259 43.9857 153.257 44.0956 153.254 44.2048C153.239 44.4758 153.244 44.7474 153.27 45.0176Z" fill="#F5F9E9"/>
<path d="M149.187 40.5128C148.918 40.6409 148.61 40.6752 148.317 40.6095C148.024 40.5439 147.766 40.3825 147.588 40.1543C147.552 40.1081 147.627 40.0536 147.663 40.0999C147.828 40.3127 148.069 40.463 148.342 40.5236C148.615 40.5842 148.902 40.5512 149.151 40.4305C149.205 40.4043 149.241 40.4868 149.187 40.5128H149.187Z" fill="#F5F9E9"/>
<path d="M151.161 42.1013C151.358 41.5532 151.327 40.9557 151.075 40.4281C151.05 40.3758 151.137 40.3421 151.162 40.3943C151.423 40.9438 151.454 41.5657 151.249 42.1356C151.229 42.19 151.142 42.1553 151.161 42.1013H151.161Z" fill="#F5F9E9"/>
<path d="M148.2 38.0931C148.315 38.0639 148.42 38.0083 148.506 37.9314C148.593 37.8544 148.657 37.7586 148.695 37.6523C148.713 37.5978 148.801 37.6325 148.782 37.6867C148.74 37.8038 148.669 37.9096 148.574 37.9948C148.478 38.08 148.362 38.142 148.236 38.1754C148.224 38.1795 148.211 38.1793 148.2 38.1748C148.188 38.1703 148.179 38.1618 148.174 38.1512C148.169 38.1402 148.169 38.128 148.174 38.1171C148.179 38.1063 148.188 38.0976 148.2 38.0931H148.2Z" fill="#F5F9E9"/>
<path d="M155.573 41.4639L155.474 41.7882L154.868 41.6816L154.667 42.2634L154.633 42.3634L154.495 42.7612L154.205 43.6025L154.47 43.6435L154.338 44.185L154.37 44.2174L154.38 44.2273L154.445 44.2948L154.844 44.7039L153.753 45.5809L153.579 45.5432L153.489 45.524C153.487 45.5272 153.485 45.5303 153.482 45.5333C153.483 45.5299 153.484 45.5265 153.486 45.5233L153.46 45.518L153.314 44.9237L153.27 45.0176V45.0183L153.198 45.1739C153.204 45.2023 153.209 45.2301 153.216 45.2579C153.216 45.2573 153.216 45.2559 153.215 45.2553C153.214 45.2546 153.214 45.2546 153.214 45.2539C153.205 45.2354 153.195 45.2175 153.186 45.199C153.047 44.9256 152.913 44.6483 152.79 44.3676C152.486 43.6917 152.248 42.9915 152.078 42.2754C152.071 42.2442 152.063 42.2131 152.057 42.1814V42.1807C151.954 41.7177 151.891 41.2475 151.869 40.7748V40.7741C151.858 40.5154 151.861 40.2562 151.878 39.9977C151.922 39.3296 152.078 38.6722 152.34 38.0497C152.342 38.0464 152.343 38.0438 152.345 38.0405C152.847 36.853 153.732 35.8231 154.934 35.2743C154.984 35.2505 155.035 35.228 155.087 35.2068H155.088L155.089 35.2062C155.121 35.1929 155.153 35.1804 155.185 35.1671C155.175 35.2015 155.163 35.236 155.154 35.271C155.011 35.7335 154.91 36.2062 154.849 36.6842V36.6849C154.844 36.7213 154.839 36.759 154.834 36.7961V36.7967C154.701 37.9497 154.797 39.1159 155.118 40.236C155.118 40.2393 155.12 40.242 155.12 40.2453C155.24 40.6611 155.391 41.0684 155.573 41.4639Z" fill="#0B7A75"/>
<path d="M155.209 35.2044C155.19 35.2262 155.171 35.2487 155.154 35.2712C155.016 35.4387 154.886 35.6114 154.764 35.7895C154.546 36.1037 154.352 36.4321 154.185 36.7724C154.171 36.7989 154.158 36.826 154.145 36.8532C153.786 37.5967 153.552 38.3881 153.452 39.199C153.45 39.2069 153.45 39.2142 153.449 39.2222C153.426 39.4115 153.411 39.6014 153.404 39.7921C153.381 40.151 153.419 40.5111 153.516 40.8591C153.53 40.9047 153.546 40.9497 153.563 40.9934C153.605 41.1005 153.658 41.2035 153.721 41.3012C153.766 41.3725 153.817 41.4408 153.872 41.5057C153.905 41.5455 153.94 41.5845 153.976 41.6222C153.997 41.6441 154.019 41.6659 154.041 41.6878C154.059 41.7043 154.077 41.7215 154.095 41.7381C154.286 41.9115 154.496 42.0723 154.667 42.2636L154.633 42.3636C154.467 42.1663 154.254 42.0028 154.061 41.8307C153.941 41.7241 153.831 41.6071 153.733 41.4812C153.72 41.464 153.707 41.4468 153.695 41.429C153.63 41.3394 153.573 41.2443 153.527 41.145C153.503 41.0954 153.481 41.0444 153.461 40.9914C153.346 40.6492 153.293 40.2911 153.306 39.9324C153.308 39.7026 153.323 39.4731 153.35 39.2447C153.353 39.2149 153.356 39.1857 153.36 39.156C153.432 38.6123 153.562 38.0769 153.749 37.5581C153.986 36.8999 154.312 36.2731 154.719 35.6929C154.835 35.5267 154.958 35.3645 155.089 35.2064C155.106 35.1845 155.123 35.1633 155.142 35.1415C155.179 35.0965 155.246 35.1594 155.209 35.2044Z" fill="#F5F9E9"/>
<path d="M153.394 39.2529C153.097 39.2034 152.829 39.0564 152.637 38.8383C152.446 38.6202 152.343 38.3452 152.347 38.0623C152.347 38.0508 152.352 38.0398 152.361 38.0317C152.37 38.0236 152.381 38.0189 152.394 38.0188C152.406 38.0187 152.418 38.023 152.427 38.0309C152.436 38.0388 152.441 38.0497 152.442 38.0612C152.437 38.3246 152.533 38.5808 152.712 38.7836C152.891 38.9863 153.142 39.1223 153.418 39.1669C153.478 39.1766 153.454 39.2626 153.394 39.2529Z" fill="#F5F9E9"/>
<path d="M153.952 41.638C154.46 41.3113 154.818 40.8167 154.955 40.253C154.969 40.1971 155.06 40.2198 155.047 40.2756C154.903 40.862 154.529 41.3759 154 41.7148C153.949 41.7471 153.902 41.67 153.952 41.638H153.952Z" fill="#F5F9E9"/>
<path d="M154.157 36.7628C154.267 36.8044 154.387 36.8197 154.505 36.8071C154.623 36.7945 154.737 36.7545 154.834 36.6907C154.884 36.6579 154.932 36.7349 154.882 36.7676C154.774 36.8376 154.649 36.8816 154.518 36.8957C154.388 36.9099 154.255 36.8938 154.133 36.8489C154.121 36.8455 154.111 36.8381 154.104 36.828C154.098 36.8179 154.096 36.8059 154.099 36.7945C154.102 36.7832 154.11 36.7734 154.121 36.7675C154.132 36.7616 154.145 36.7599 154.157 36.7628Z" fill="#F5F9E9"/>
<path d="M164.202 7.40857C163.669 4.72651 164.509 1.67521 166.843 0.0517578C166.711 3.01629 167.699 5.92923 169.634 8.2752C170.383 9.1774 171.316 10.1076 171.287 11.2516C171.269 11.9634 170.86 12.6265 170.32 13.1261C169.779 13.6257 169.114 13.9859 168.457 14.3404L168.354 14.4899C166.427 12.4483 164.736 10.0906 164.202 7.40857Z" fill="#0B7A75"/>
<path d="M166.886 0.0927759C165.905 2.15471 165.641 4.45452 166.131 6.66554C166.239 7.13863 166.393 7.6097 166.653 8.03001C166.91 8.43786 167.278 8.77364 167.72 9.00246C168.127 9.22359 168.571 9.40546 168.915 9.71576C169.276 10.0428 169.437 10.4892 169.424 10.9556C169.407 11.5263 169.174 12.0573 168.926 12.5692C168.651 13.1376 168.355 13.7238 168.373 14.3628C168.375 14.4402 168.247 14.4388 168.245 14.3615C168.214 13.2498 169.07 12.357 169.261 11.2902C169.349 10.7925 169.279 10.2665 168.907 9.8807C168.581 9.5433 168.123 9.35539 167.709 9.13484C167.273 8.90327 166.903 8.61716 166.627 8.22052C166.346 7.81477 166.172 7.34834 166.052 6.87992C165.787 5.81582 165.702 4.71925 165.8 3.63038C165.905 2.38708 166.235 1.16973 166.776 0.0309976C166.81 -0.0394693 166.92 0.022769 166.886 0.0927759H166.886Z" fill="#F5F9E9"/>
<path d="M165.929 5.96234C165.523 5.98919 165.12 5.87957 164.792 5.65307C164.464 5.42657 164.232 5.09792 164.138 4.72583C164.119 4.65049 164.243 4.61963 164.262 4.69508C164.349 5.04172 164.564 5.34783 164.87 5.55817C165.176 5.7685 165.552 5.8692 165.93 5.8421C166.012 5.8363 166.01 5.95658 165.929 5.96234Z" fill="#F5F9E9"/>
<path d="M167.497 8.91585C168.049 8.33029 168.345 7.57107 168.327 6.78959C168.325 6.71216 168.453 6.71351 168.455 6.79084C168.472 7.60411 168.162 8.39361 167.587 9.00177C167.532 9.0597 167.443 8.97347 167.497 8.91585V8.91585Z" fill="#F5F9E9"/>
<path d="M166.054 2.46169C166.214 2.48206 166.376 2.46491 166.527 2.41179C166.677 2.35867 166.812 2.27123 166.917 2.15734C166.971 2.09879 167.061 2.18509 167.007 2.24326C166.89 2.36858 166.741 2.46497 166.575 2.524C166.409 2.58304 166.229 2.60293 166.053 2.58193C166.036 2.58126 166.02 2.57461 166.009 2.56332C165.997 2.55204 165.99 2.53697 165.99 2.52118C165.99 2.50526 165.997 2.49008 166.009 2.47894C166.021 2.4678 166.037 2.4616 166.054 2.46169V2.46169Z" fill="#F5F9E9"/>
<path d="M176.391 2.27025C176.358 2.30771 176.325 2.34517 176.293 2.38362C175.857 2.88944 175.465 3.42771 175.122 3.9931C175.095 4.03642 175.068 4.0807 175.042 4.12466C174.23 5.4951 173.697 6.99515 173.468 8.54856C173.378 9.16678 173.338 9.79056 173.348 10.4145C173.363 11.2762 173.451 12.2094 173.17 13.0019C173.142 13.0849 173.108 13.1661 173.069 13.2452L168.556 14.5956C168.545 14.5939 168.533 14.5931 168.521 14.5913L168.343 14.653C168.34 14.6208 168.338 14.5874 168.335 14.5553C168.333 14.5367 168.333 14.5177 168.331 14.4991C168.33 14.4866 168.329 14.474 168.328 14.4628C168.327 14.4586 168.327 14.4544 168.327 14.4512C168.326 14.44 168.325 14.4293 168.324 14.4191C168.311 14.2324 168.298 14.0455 168.288 13.8579C168.288 13.8569 168.288 13.8569 168.288 13.8556C168.211 12.427 168.26 10.9797 168.541 9.58533C168.549 9.54339 168.558 9.50049 168.568 9.45792C168.699 8.83009 168.883 8.21331 169.121 7.61377C169.252 7.28587 169.401 6.96441 169.566 6.65064C169.996 5.84066 170.559 5.09924 171.234 4.45356C172.581 3.16659 174.35 2.29834 176.246 2.271C176.294 2.27033 176.342 2.26994 176.391 2.27025Z" fill="#0B7A75"/>
<path d="M176.399 2.3271C174.294 3.41875 172.609 5.10558 171.583 7.14802C171.366 7.58684 171.187 8.04973 171.125 8.53246C171.069 9.00343 171.148 9.47996 171.354 9.91253C171.538 10.3195 171.775 10.7158 171.851 11.1576C171.93 11.6232 171.772 12.0707 171.462 12.4355C171.084 12.8819 170.556 13.1737 170.031 13.4423C169.447 13.7405 168.835 14.0416 168.44 14.5618C168.392 14.6249 168.29 14.5514 168.338 14.4884C169.026 13.5832 170.281 13.3543 171.117 12.6104C171.508 12.2632 171.789 11.8036 171.739 11.2848C171.695 10.8312 171.45 10.4223 171.26 10.0118C171.061 9.5807 170.948 9.14268 170.983 8.6702C171.018 8.18689 171.178 7.71643 171.382 7.27433C171.853 6.27503 172.488 5.35147 173.264 4.53749C174.145 3.60388 175.189 2.81861 176.351 2.21565C176.423 2.17835 176.471 2.29005 176.399 2.3271V2.3271Z" fill="#F5F9E9"/>
<path d="M171.872 6.47202C171.531 6.2638 171.279 5.94836 171.162 5.58202C171.046 5.21568 171.071 4.82231 171.235 4.47215C171.268 4.4014 171.387 4.44677 171.354 4.51761C171.201 4.84341 171.177 5.20984 171.286 5.55077C171.395 5.89169 171.631 6.18465 171.95 6.37677C172.02 6.4186 171.941 6.51361 171.872 6.47202H171.872Z" fill="#F5F9E9"/>
<path d="M171.232 9.71765C172.048 9.56188 172.771 9.12311 173.257 8.48885C173.305 8.42597 173.407 8.49945 173.358 8.56225C172.851 9.22139 172.098 9.67656 171.249 9.83691C171.168 9.85214 171.152 9.7328 171.232 9.71765H171.232Z" fill="#F5F9E9"/>
<path d="M174.217 3.74834C174.331 3.85476 174.471 3.93286 174.626 3.97563C174.78 4.01841 174.943 4.0245 175.101 3.99338C175.181 3.9772 175.197 4.09656 175.117 4.11264C174.943 4.14626 174.763 4.13932 174.592 4.09242C174.422 4.04552 174.266 3.96009 174.138 3.84359C174.125 3.83355 174.117 3.81925 174.115 3.80359C174.113 3.78792 174.117 3.77208 174.127 3.75926C174.137 3.7467 174.152 3.73851 174.169 3.73646C174.186 3.73442 174.203 3.73869 174.217 3.74834V3.74834Z" fill="#F5F9E9"/>
<path d="M147.394 4.20456C147.145 4.03924 146.872 3.86685 146.567 3.87373C145.828 3.89042 145.43 4.90725 144.692 4.8715C144.222 4.84869 143.91 4.39978 143.472 4.23701C142.901 4.02511 142.175 4.43954 142.113 5.01262L142.187 4.94966C144.403 5.45728 146.704 5.5571 148.961 5.24363C148.439 4.89727 147.916 4.55092 147.394 4.20456Z" fill="#F5F9E9"/>
<path d="M148.776 5.42764C150.191 5.42764 151.338 4.35005 151.338 3.02077C151.338 1.69149 150.191 0.613892 148.776 0.613892C147.361 0.613892 146.213 1.69149 146.213 3.02077C146.213 4.35005 147.361 5.42764 148.776 5.42764Z" fill="#DB5461"/>
<path d="M154.774 2.56101C154.456 2.35033 154.108 2.13063 153.719 2.13942C152.778 2.16067 152.271 3.45654 151.331 3.41097C150.731 3.3819 150.333 2.80982 149.775 2.60238C149.048 2.33233 148.123 2.86048 148.044 3.59082L148.137 3.51058C150.962 4.1575 153.894 4.28471 156.771 3.88522C156.105 3.44381 155.439 3.00241 154.774 2.56101Z" fill="#F5F9E9"/>
<path d="M177.823 26.7225L175.104 13.0462C175.057 12.8207 174.93 12.6168 174.744 12.4679C174.558 12.3189 174.324 12.2338 174.079 12.2264C174.057 12.226 174.035 12.226 174.013 12.2264L172.161 12.2888L171.962 12.2957L171.037 12.3269L170.838 12.3334L170.243 12.3536L158.252 12.7579C158.233 12.7588 158.215 12.7588 158.197 12.7584L155.51 12.7056L154.515 12.6863L154.484 12.6859L153.75 12.6712L147.354 12.5463L145.659 12.5128L144.823 12.4968L144.622 12.4926L143.669 12.4743L143.469 12.4701L142.494 12.4513L142.294 12.4472L141.222 12.4261L141.054 12.4229L140.098 12.404L139.947 12.4013H139.925C139.672 12.4023 139.426 12.4875 139.233 12.6418C139.04 12.7962 138.911 13.0098 138.869 13.2449L136.409 27.4366C136.384 27.5804 136.393 27.7275 136.435 27.8679C136.476 28.0082 136.55 28.1384 136.65 28.2493C136.751 28.3603 136.876 28.4495 137.016 28.5106C137.157 28.5717 137.31 28.6034 137.465 28.6034H151.589C151.797 28.6039 152 28.6666 152.167 28.7824L152.435 28.9687C152.619 29.0963 152.842 29.1654 153.071 29.1661H161.395C161.536 29.1664 161.675 29.1406 161.805 29.09C161.935 29.0394 162.053 28.9651 162.152 28.8714C162.321 28.7122 162.548 28.6175 162.787 28.6057L176.827 27.9108C176.979 27.9033 177.128 27.8653 177.263 27.7995C177.399 27.7336 177.518 27.6413 177.612 27.5288C177.706 27.4163 177.774 27.2861 177.81 27.147C177.847 27.008 177.851 26.8632 177.823 26.7225V26.7225Z" fill="#CCCCCC"/>
<path d="M175.598 26.3509L174.082 12.245C174.081 12.239 174.08 12.2326 174.079 12.2266C174.051 12.0012 173.933 11.7944 173.748 11.6478L170.487 9.09636C170.346 8.98456 170.169 8.91844 169.984 8.90771C168.493 8.81775 160.908 8.48453 158.109 10.7671C158.024 10.8365 157.924 10.8876 157.816 10.9168C157.707 10.946 157.594 10.9525 157.482 10.936C157.371 10.919 157.265 10.8796 157.171 10.8205C157.077 10.7614 156.998 10.684 156.939 10.5936C156.701 10.2451 156.389 9.94634 156.023 9.71598C155.858 9.60872 155.687 9.51108 155.51 9.42361C155.353 9.34604 155.182 9.27077 154.997 9.19825C154.837 9.13583 154.666 9.0757 154.484 9.01833C153.536 8.72091 152.27 8.49876 150.577 8.42441C149.875 8.39319 149.111 8.38906 148.309 8.41155C147.576 8.43175 146.797 8.47352 145.994 8.53594L145.982 8.5364L140.55 11.6515C140.428 11.7228 140.325 11.8192 140.249 11.9334C140.173 12.0476 140.125 12.1766 140.11 12.3106L140.098 12.4042L138.373 26.881C138.358 27.004 138.371 27.1286 138.409 27.2471C138.447 27.3655 138.511 27.4754 138.596 27.5699C138.679 27.6621 138.782 27.7363 138.898 27.7873C139.014 27.8383 139.141 27.865 139.27 27.8655H152.655C152.833 27.8664 153.005 27.9238 153.144 28.0285L153.728 28.4682C153.88 28.583 154.069 28.6473 154.264 28.6508L160.149 28.7413H160.164C160.312 28.741 160.458 28.7053 160.588 28.6375L161.723 28.0454C161.827 27.9913 161.942 27.9599 162.061 27.9536L174.746 27.3244C174.87 27.3182 174.99 27.2876 175.101 27.2346C175.211 27.1816 175.308 27.1074 175.386 27.0169C175.466 26.9247 175.527 26.8183 175.563 26.7039C175.599 26.5896 175.611 26.4696 175.598 26.3509Z" fill="#F5F9E9"/>
<path d="M171.17 23.8069L170.992 21.6114L170.243 12.3539L170.132 10.9844C170.104 10.6247 169.934 10.2877 169.656 10.0392C169.377 9.79067 169.01 9.64838 168.627 9.64008C165.882 9.57389 160.912 9.69039 158.473 11.2254C158.201 11.3986 157.872 11.4732 157.547 11.4355C157.221 11.3977 156.921 11.2501 156.703 11.0202C156.366 10.6722 155.961 10.388 155.509 10.1828C155.179 10.0273 154.836 9.89761 154.483 9.79497C153.451 9.48519 152.148 9.29699 150.575 9.23036L146.842 9.20984H146.835C146.577 9.21006 146.328 9.30277 146.139 9.46911C145.951 9.63545 145.837 9.86296 145.821 10.1054L145.659 12.5128L144.95 23.0702C144.937 23.2669 144.967 23.464 145.037 23.6497C145.107 23.8354 145.217 24.0057 145.36 24.1503C145.502 24.2949 145.674 24.4108 145.866 24.4909C146.058 24.571 146.265 24.6137 146.475 24.6164C152.741 24.7038 155.479 25.9462 156.673 26.9722C156.927 27.1909 157.251 27.3239 157.594 27.35C157.938 27.3761 158.28 27.294 158.568 27.1165C160.735 25.7834 164.338 25.4127 167.205 25.3551C168.083 25.3379 168.892 25.3492 169.57 25.3717C169.788 25.379 170.005 25.3431 170.207 25.2662C170.409 25.1894 170.592 25.0733 170.743 24.9255C170.894 24.7778 171.01 24.6018 171.083 24.4091C171.157 24.2163 171.186 24.0111 171.17 23.8069Z" fill="#F5F9E9"/>
<path d="M140.059 26.869C140.057 26.869 140.054 26.8689 140.052 26.8687C140.039 26.8679 140.026 26.8646 140.014 26.8591C140.002 26.8536 139.992 26.846 139.983 26.8367C139.975 26.8274 139.968 26.8166 139.964 26.8049C139.96 26.7933 139.958 26.7809 139.959 26.7687L141.038 12.4679C141.038 12.4556 141.042 12.4436 141.047 12.4325C141.053 12.4214 141.061 12.4115 141.071 12.4034C141.081 12.3953 141.093 12.3892 141.105 12.3853C141.118 12.3815 141.131 12.38 141.144 12.3811C141.157 12.3819 141.17 12.3852 141.182 12.3907C141.193 12.3962 141.204 12.4038 141.212 12.4131C141.221 12.4224 141.228 12.4332 141.232 12.4448C141.236 12.4565 141.237 12.4688 141.237 12.4811L140.158 26.7818C140.157 26.8055 140.145 26.8276 140.127 26.8438C140.108 26.86 140.084 26.869 140.059 26.869Z" fill="#F5F9E9"/>
<path d="M141.356 26.3065C141.354 26.3065 141.351 26.3064 141.349 26.3062C141.336 26.3054 141.323 26.3021 141.312 26.2966C141.3 26.2911 141.289 26.2835 141.281 26.2742C141.272 26.2649 141.266 26.2541 141.261 26.2424C141.257 26.2308 141.256 26.2184 141.257 26.2062L142.335 11.9054C142.336 11.8931 142.339 11.8811 142.345 11.87C142.351 11.8589 142.359 11.849 142.369 11.8409C142.379 11.8328 142.39 11.8267 142.403 11.8228C142.415 11.819 142.428 11.8175 142.441 11.8186C142.454 11.8194 142.467 11.8227 142.479 11.8282C142.491 11.8337 142.501 11.8413 142.51 11.8506C142.518 11.8599 142.525 11.8707 142.529 11.8823C142.533 11.894 142.535 11.9063 142.534 11.9186L141.456 26.2193C141.454 26.243 141.443 26.2651 141.424 26.2813C141.406 26.2975 141.381 26.3065 141.356 26.3065Z" fill="#F5F9E9"/>
<path d="M142.554 26.0254C142.552 26.0254 142.549 26.0253 142.547 26.0251C142.534 26.0242 142.521 26.021 142.509 26.0155C142.498 26.01 142.487 26.0024 142.479 25.9931C142.47 25.9838 142.463 25.973 142.459 25.9613C142.455 25.9496 142.453 25.9373 142.454 25.925L143.533 11.6243C143.533 11.612 143.537 11.5999 143.543 11.5888C143.548 11.5778 143.556 11.5679 143.566 11.5598C143.576 11.5517 143.588 11.5455 143.6 11.5417C143.613 11.5379 143.626 11.5364 143.639 11.5374C143.652 11.5383 143.665 11.5416 143.677 11.5471C143.688 11.5526 143.699 11.5602 143.707 11.5695C143.716 11.5788 143.723 11.5895 143.727 11.6012C143.731 11.6129 143.733 11.6252 143.732 11.6375L142.653 25.9382C142.652 25.9619 142.64 25.984 142.622 26.0002C142.604 26.0164 142.579 26.0254 142.554 26.0254Z" fill="#F5F9E9"/>
<path d="M143.752 25.4628C143.749 25.4628 143.747 25.4627 143.745 25.4625C143.732 25.4616 143.719 25.4583 143.707 25.4528C143.695 25.4473 143.685 25.4397 143.676 25.4304C143.668 25.4212 143.661 25.4104 143.657 25.3987C143.653 25.387 143.651 25.3747 143.652 25.3624L144.73 11.0617C144.731 11.0494 144.735 11.0373 144.74 11.0262C144.746 11.0151 144.754 11.0053 144.764 10.9972C144.774 10.9891 144.786 10.9829 144.798 10.9791C144.811 10.9752 144.824 10.9738 144.837 10.9748C144.85 10.9757 144.863 10.9789 144.874 10.9844C144.886 10.9899 144.897 10.9975 144.905 11.0068C144.914 11.0161 144.92 11.0269 144.925 11.0386C144.929 11.0503 144.93 11.0626 144.929 11.0749L143.851 25.3756C143.849 25.3992 143.838 25.4214 143.82 25.4376C143.801 25.4537 143.777 25.4627 143.752 25.4628Z" fill="#F5F9E9"/>
<path d="M174.394 26.9629C174.397 26.9629 174.399 26.9628 174.401 26.9626C174.414 26.9617 174.427 26.9585 174.439 26.953C174.451 26.9475 174.461 26.9399 174.47 26.9306C174.478 26.9213 174.485 26.9105 174.489 26.8988C174.493 26.8871 174.495 26.8748 174.494 26.8625L173.416 12.5618C173.415 12.5495 173.411 12.5374 173.406 12.5263C173.4 12.5153 173.392 12.5054 173.382 12.4973C173.372 12.4892 173.36 12.483 173.348 12.4792C173.335 12.4754 173.322 12.4739 173.309 12.4749C173.296 12.4758 173.283 12.4791 173.272 12.4846C173.26 12.4901 173.249 12.4977 173.241 12.507C173.232 12.5163 173.226 12.527 173.221 12.5387C173.217 12.5504 173.216 12.5627 173.217 12.575L174.295 26.8757C174.297 26.8994 174.308 26.9215 174.326 26.9377C174.345 26.9539 174.369 26.9629 174.394 26.9629Z" fill="#F5F9E9"/>
<path d="M173.097 26.119C173.099 26.119 173.102 26.1189 173.104 26.1187C173.117 26.1179 173.13 26.1146 173.142 26.1091C173.153 26.1036 173.164 26.096 173.172 26.0867C173.181 26.0774 173.187 26.0666 173.192 26.0549C173.196 26.0433 173.197 26.0309 173.196 26.0187L172.118 11.7179C172.117 11.7056 172.114 11.6936 172.108 11.6825C172.102 11.6714 172.094 11.6615 172.084 11.6534C172.075 11.6453 172.063 11.6392 172.05 11.6353C172.038 11.6315 172.025 11.63 172.012 11.6311C171.999 11.6319 171.986 11.6352 171.974 11.6407C171.962 11.6462 171.952 11.6538 171.943 11.6631C171.935 11.6724 171.928 11.6832 171.924 11.6948C171.92 11.7065 171.918 11.7188 171.919 11.7311L172.997 26.0318C172.999 26.0555 173.01 26.0776 173.029 26.0938C173.047 26.11 173.072 26.119 173.097 26.119Z" fill="#F5F9E9"/>
<path d="M171.899 25.1815C171.901 25.1815 171.904 25.1814 171.906 25.1812C171.919 25.1804 171.932 25.1771 171.944 25.1716C171.956 25.1661 171.966 25.1585 171.975 25.1492C171.983 25.1399 171.99 25.1291 171.994 25.1174C171.998 25.1058 172 25.0934 171.999 25.0812L170.92 10.7804C170.92 10.7681 170.916 10.7561 170.911 10.745C170.905 10.7339 170.897 10.724 170.887 10.7159C170.877 10.7078 170.865 10.7017 170.853 10.6978C170.84 10.694 170.827 10.6925 170.814 10.6936C170.801 10.6944 170.788 10.6977 170.776 10.7032C170.765 10.7087 170.754 10.7163 170.746 10.7256C170.737 10.7349 170.73 10.7457 170.726 10.7573C170.722 10.769 170.721 10.7813 170.721 10.7936L171.8 25.0943C171.801 25.118 171.813 25.1401 171.831 25.1563C171.85 25.1725 171.874 25.1815 171.899 25.1815Z" fill="#F5F9E9"/>
<path d="M147.404 12.4403C149.654 11.7661 152.164 11.9446 154.295 12.8945C154.903 13.1641 155.478 13.4964 156.008 13.8852C156.158 13.9957 156.371 13.798 156.219 13.6863C154.262 12.26 151.802 11.5825 149.334 11.7898C148.652 11.8472 147.978 11.9744 147.324 12.1691C147.141 12.2239 147.22 12.4956 147.404 12.4403H147.404Z" fill="#3F3D56"/>
<path d="M159.784 13.9943C161.876 12.9616 164.381 12.7364 166.655 13.3226C167.304 13.4893 167.93 13.7233 168.523 14.0203C168.693 14.1055 168.845 13.8628 168.675 13.7775C166.507 12.691 163.905 12.441 161.538 13.0466C160.878 13.2158 160.239 13.4522 159.633 13.7514C159.462 13.8357 159.614 14.0785 159.784 13.9943Z" fill="#3F3D56"/>
<path d="M159.784 15.8693C161.876 14.8366 164.381 14.6114 166.655 15.1976C167.304 15.3643 167.93 15.5983 168.523 15.8953C168.693 15.9805 168.845 15.7378 168.675 15.6525C166.507 14.566 163.905 14.316 161.538 14.9216C160.878 15.0908 160.239 15.3272 159.633 15.6264C159.462 15.7107 159.614 15.9535 159.784 15.8693V15.8693Z" fill="#3F3D56"/>
<path d="M168.748 17.6438C168.749 17.6196 168.743 17.5956 168.73 17.5748C168.717 17.554 168.697 17.5374 168.674 17.5272C166.937 16.6731 164.969 16.3267 163.021 16.5326C163.008 16.5335 162.997 16.5353 162.984 16.5362H162.984C162.972 16.5373 162.96 16.5389 162.948 16.5413C161.789 16.6665 160.665 16.9919 159.633 17.501C159.61 17.5136 159.592 17.5315 159.579 17.5529C159.566 17.5743 159.559 17.5985 159.559 17.6231V21.121C159.559 21.1425 159.565 21.1637 159.575 21.1829C159.586 21.2021 159.601 21.2188 159.619 21.2318C159.637 21.2448 159.658 21.2538 159.681 21.258C159.703 21.2621 159.727 21.2615 159.749 21.256C159.795 21.2436 159.841 21.2316 159.887 21.2202C160.931 20.9548 162.003 20.7973 163.083 20.7506C163.106 20.7497 163.129 20.7488 163.153 20.7479C164.033 20.7124 164.914 20.7421 165.789 20.8369C165.808 20.8379 165.826 20.8397 165.844 20.8424C165.889 20.847 165.935 20.8521 165.98 20.8576C165.998 20.8594 166.015 20.8612 166.032 20.864C166.207 20.8846 166.38 20.9081 166.554 20.9333C166.805 20.9709 167.056 21.0129 167.308 21.0591C167.323 21.0618 167.339 21.0655 167.355 21.0682C167.759 21.1435 168.16 21.2307 168.559 21.3271C168.581 21.3325 168.604 21.3331 168.627 21.3288C168.649 21.3245 168.671 21.3155 168.689 21.3024C168.707 21.2893 168.722 21.2725 168.732 21.2533C168.743 21.234 168.748 21.2128 168.749 21.1912V17.6493C168.749 17.6474 168.748 17.6455 168.748 17.6438Z" fill="#3F3D56"/>
<path d="M163.256 16.7233C163.146 16.6728 163.02 16.6625 162.903 16.6942C162.851 16.7125 162.803 16.7402 162.763 16.7758C162.723 16.8115 162.69 16.8543 162.668 16.9018C162.627 16.9929 162.601 17.0891 162.59 17.1873C162.584 17.226 162.584 17.2748 162.625 17.2928C162.64 17.2979 162.656 17.2991 162.672 17.2962C162.688 17.2933 162.702 17.2864 162.714 17.2763C162.735 17.2565 162.753 17.2334 162.766 17.2081C162.838 17.1031 162.937 17.0169 163.053 16.9573C163.17 16.8977 163.301 16.8667 163.434 16.8671L163.544 16.9085C163.457 16.8349 163.36 16.7726 163.256 16.7233Z" fill="#DB5461"/>
<path d="M164.452 17.5295C164.366 17.4109 164.265 17.2843 164.105 17.2455C163.921 17.2007 163.732 17.2898 163.571 17.3777C163.093 17.639 162.631 17.924 162.185 18.2314L162.186 18.236L163.22 18.1764C163.469 18.162 163.726 18.1457 163.946 18.0472C164.026 18.0006 164.114 17.9698 164.206 17.9564C164.263 17.9593 164.319 17.9728 164.371 17.9962C164.422 18.0195 164.469 18.0523 164.507 18.0925C164.983 18.5168 165.121 19.1657 165.656 19.5385C165.316 18.8381 164.913 18.1661 164.452 17.5295Z" fill="#F5F9E9"/>
<path d="M163.154 20.7478C163.13 20.7488 163.107 20.7497 163.084 20.7506C162.917 20.6944 162.746 20.6447 162.574 20.6016C162.462 20.5735 162.348 20.5481 162.234 20.5266C162.106 20.5003 161.976 20.4797 161.846 20.4619C161.599 20.4281 161.35 20.4084 161.1 20.4028C161.099 20.403 161.097 20.4028 161.095 20.4023C161.093 20.4017 161.091 20.4008 161.09 20.3996C161.089 20.3985 161.087 20.397 161.087 20.3954C161.086 20.3937 161.085 20.392 161.085 20.3902C161.085 20.3884 161.086 20.3866 161.087 20.385C161.087 20.3834 161.089 20.3819 161.09 20.3807C161.091 20.3795 161.093 20.3786 161.095 20.3781C161.097 20.3775 161.099 20.3773 161.1 20.3775C161.132 20.3775 161.164 20.3785 161.195 20.3803C161.445 20.389 161.695 20.4119 161.942 20.4488C162.071 20.4685 162.199 20.4919 162.327 20.5181C162.443 20.5425 162.559 20.5697 162.672 20.5997C162.835 20.6428 162.996 20.6922 163.154 20.7478Z" fill="#F5F9E9"/>
<path d="M166.032 20.8642C166.015 20.8614 165.998 20.8595 165.98 20.8577C165.911 20.8042 165.841 20.7536 165.769 20.7039C165.678 20.642 165.584 20.5839 165.488 20.5295C165.276 20.4085 165.054 20.3026 164.825 20.2127C164.463 20.071 164.088 19.96 163.705 19.8808C163.269 19.7908 162.826 19.7257 162.381 19.6858C161.936 19.6426 161.489 19.6164 161.041 19.5901C161.022 19.5892 161.021 19.5629 161.041 19.5639C161.097 19.5676 161.153 19.5704 161.21 19.5742C161.662 19.6004 162.114 19.6304 162.564 19.6783C163.009 19.7231 163.451 19.7951 163.886 19.8939C164.258 19.9799 164.621 20.097 164.97 20.2436C165.171 20.3284 165.366 20.4258 165.553 20.5352C165.672 20.6055 165.787 20.6805 165.896 20.7602C165.942 20.7939 165.988 20.8277 166.032 20.8642Z" fill="#F5F9E9"/>
<path d="M165.845 20.8426C165.826 20.8399 165.808 20.838 165.79 20.837C165.769 20.8211 165.747 20.8061 165.725 20.7911C165.571 20.6878 165.411 20.5935 165.245 20.5089C165.094 20.4319 164.939 20.3621 164.781 20.2998C164.419 20.1578 164.044 20.0467 163.661 19.9679C163.224 19.878 162.781 19.8129 162.336 19.7729C161.891 19.7298 161.444 19.7035 160.997 19.6773C160.978 19.6754 160.978 19.6501 160.997 19.651C161.054 19.6548 161.109 19.6576 161.165 19.6613C161.617 19.6876 162.07 19.7176 162.519 19.7654C162.964 19.8102 163.406 19.8823 163.841 19.981C164.213 20.0669 164.576 20.184 164.925 20.3307C165.057 20.387 165.186 20.4479 165.312 20.5145C165.498 20.6107 165.676 20.7204 165.845 20.8426Z" fill="#F5F9E9"/>
<path d="M167.355 21.0685C167.339 21.0657 167.323 21.0619 167.307 21.0591C167.289 21.0413 167.273 21.0225 167.256 21.0038C167.17 20.911 167.085 20.8172 167.001 20.7225C166.671 20.3531 166.357 19.9725 166.062 19.5844C165.808 19.2525 165.568 18.914 165.34 18.569C165.231 18.4059 165.127 18.2409 165.024 18.074C164.944 17.9446 164.866 17.8149 164.79 17.6849C164.768 17.6474 164.747 17.6099 164.726 17.5724C164.677 17.4843 164.628 17.3952 164.577 17.308C164.52 17.2012 164.437 17.1086 164.335 17.038C164.284 17.0059 164.225 16.9868 164.163 16.9827C164.077 16.983 163.992 17.0036 163.916 17.0427C163.357 17.287 162.831 17.5905 162.346 17.9474C161.872 18.2934 161.444 18.6909 161.07 19.1315C161.058 19.1447 161.032 19.1325 161.043 19.1184C161.088 19.0659 161.134 19.0134 161.18 18.9618C161.539 18.5626 161.944 18.2014 162.387 17.8846C162.388 17.8837 162.39 17.8827 162.391 17.8818C162.43 17.8527 162.469 17.8246 162.508 17.7974C162.756 17.6264 163.013 17.4687 163.279 17.3249C163.415 17.2508 163.553 17.1805 163.695 17.114C163.73 17.0971 163.766 17.0802 163.802 17.0643C163.838 17.0474 163.874 17.0315 163.91 17.0155C163.981 16.9814 164.059 16.9614 164.138 16.9565C164.416 16.9527 164.559 17.2152 164.657 17.3924C164.688 17.4477 164.72 17.503 164.751 17.5583C164.871 17.7674 164.996 17.9756 165.126 18.1809C165.204 18.3084 165.286 18.435 165.369 18.5606C165.488 18.7397 165.61 18.9168 165.736 19.0931C165.736 19.0932 165.736 19.0934 165.736 19.0935C165.737 19.0936 165.737 19.0937 165.737 19.0938C165.737 19.0939 165.737 19.0939 165.737 19.094C165.737 19.094 165.737 19.094 165.737 19.094C165.884 19.3022 166.037 19.5066 166.195 19.71C166.465 20.0578 166.749 20.3978 167.045 20.73C167.147 20.8444 167.25 20.9572 167.355 21.0685Z" fill="#F5F9E9"/>
<path d="M168.749 20.6551V20.6982C168.65 20.5894 168.549 20.4816 168.449 20.3738C168.407 20.3288 168.365 20.2838 168.324 20.2388C168.146 20.0494 167.967 19.8606 167.788 19.6725C167.607 19.485 167.426 19.2975 167.244 19.1109C167.2 19.0659 167.156 19.0209 167.111 18.9759C167.075 18.9381 167.036 18.903 166.994 18.8709C166.952 18.838 166.903 18.8128 166.851 18.7969C166.791 18.7812 166.728 18.7806 166.668 18.795C166.599 18.81 166.533 18.8334 166.466 18.8531C166.397 18.8747 166.329 18.8953 166.26 18.9159C166.123 18.9581 165.986 19.0003 165.848 19.0425C165.846 19.0431 165.845 19.0435 165.843 19.0434C165.841 19.0434 165.839 19.043 165.837 19.0423C165.836 19.0416 165.834 19.0406 165.833 19.0394C165.832 19.0381 165.831 19.0366 165.83 19.035C165.829 19.0332 165.829 19.0313 165.829 19.0294C165.829 19.0275 165.83 19.0256 165.831 19.0239C165.832 19.0222 165.833 19.0207 165.835 19.0195C165.836 19.0184 165.838 19.0176 165.84 19.0172C165.874 19.0069 165.909 18.9966 165.944 18.9862C166.083 18.9431 166.22 18.9009 166.359 18.8587C166.428 18.8372 166.497 18.8165 166.566 18.7959C166.63 18.7731 166.697 18.7605 166.765 18.7584C166.877 18.766 166.981 18.8121 167.059 18.8878C167.102 18.9253 167.141 18.9647 167.18 19.005C167.226 19.0519 167.271 19.0987 167.317 19.1456C167.502 19.335 167.685 19.525 167.867 19.7156C168.05 19.9069 168.231 20.0985 168.41 20.2904C168.423 20.3044 168.436 20.3185 168.449 20.3325C168.55 20.4394 168.649 20.5472 168.749 20.6551Z" fill="#F5F9E9"/>
<path d="M163.795 16.9279L163.767 16.9392C163.704 16.8389 163.615 16.7548 163.509 16.6945C163.403 16.6341 163.282 16.5993 163.159 16.5931C162.75 16.5659 162.391 16.8217 162.358 17.1633C162.345 17.304 162.388 17.4442 162.48 17.5563L162.454 17.5706C162.359 17.4538 162.314 17.3078 162.328 17.1613C162.362 16.8055 162.735 16.5391 163.161 16.5675C163.29 16.5739 163.415 16.6101 163.526 16.673C163.637 16.7359 163.729 16.8234 163.795 16.9279Z" fill="#DB5461"/>
<path d="M161.775 17.6191C161.668 17.5753 161.551 17.5561 161.434 17.563C161.318 17.57 161.204 17.603 161.104 17.6592C161.471 17.7121 161.834 17.783 162.193 17.8718C162.045 17.799 161.928 17.6849 161.775 17.6191Z" fill="#F5F9E9"/>
<path d="M161.102 17.6589L161.062 17.6856C161.076 17.6762 161.09 17.6675 161.104 17.6592L161.102 17.6589Z" fill="#F5F9E9"/>
<path d="M166.979 19.0436C166.941 18.998 166.891 18.9629 166.834 18.9421L166.777 18.944C167.222 19.5951 167.806 20.153 168.491 20.5827C167.987 20.0697 167.483 19.5566 166.979 19.0436Z" fill="#F5F9E9"/>
<path d="M162.318 17.8181C162.302 17.8031 162.286 17.7881 162.27 17.7731C162.146 17.6461 161.996 17.5432 161.83 17.4704C161.745 17.4369 161.654 17.4193 161.562 17.4185C161.467 17.4206 161.373 17.4378 161.284 17.4692C161.242 17.4832 161.201 17.4991 161.161 17.5159C161.115 17.5353 161.07 17.556 161.025 17.5768C160.94 17.6159 160.857 17.6567 160.774 17.6992C160.611 17.7839 160.452 17.8749 160.299 17.9725C160.219 18.0231 160.141 18.0753 160.065 18.1292C159.994 18.1793 159.924 18.2307 159.856 18.2834C159.842 18.2947 159.82 18.2765 159.834 18.2653C159.852 18.2513 159.871 18.2374 159.889 18.2237C159.94 18.1849 159.992 18.1469 160.045 18.1097C160.141 18.0416 160.24 17.9761 160.342 17.9133C160.5 17.8156 160.663 17.7245 160.832 17.64C160.916 17.5978 161.001 17.5574 161.088 17.5188C161.114 17.5071 161.141 17.4957 161.167 17.4849C161.229 17.4592 161.292 17.4377 161.356 17.4207C161.449 17.3958 161.545 17.3878 161.641 17.3973C161.733 17.4083 161.822 17.434 161.904 17.4733C162.067 17.5592 162.214 17.6695 162.34 17.7998C162.353 17.8122 162.331 17.8304 162.318 17.8181Z" fill="#F5F9E9"/>
<path d="M147.404 14.3153C149.654 13.6411 152.164 13.8196 154.295 14.7695C154.903 15.0391 155.478 15.3714 156.008 15.7602C156.158 15.8707 156.371 15.673 156.219 15.5613C154.262 14.1351 151.802 13.4575 149.334 13.6648C148.652 13.7222 147.978 13.8494 147.324 14.0441C147.141 14.0989 147.22 14.3706 147.404 14.3153H147.404Z" fill="#3F3D56"/>
<path d="M147.404 16.1905C149.654 15.5162 152.164 15.6947 154.295 16.6446C154.903 16.9142 155.478 17.2465 156.008 17.6353C156.158 17.7458 156.371 17.5481 156.219 17.4364C154.262 16.0102 151.802 15.3326 149.334 15.5399C148.652 15.5973 147.978 15.7245 147.324 15.9193C147.141 15.9741 147.22 16.2457 147.404 16.1905H147.404Z" fill="#3F3D56"/>
<path d="M147.404 18.0655C149.654 17.3912 152.164 17.5697 154.295 18.5196C154.903 18.7892 155.478 19.1215 156.008 19.5103C156.158 19.6208 156.371 19.4231 156.219 19.3114C154.262 17.8852 151.802 17.2076 149.334 17.4149C148.652 17.4723 147.978 17.5995 147.324 17.7943C147.141 17.8491 147.22 18.1207 147.404 18.0655H147.404Z" fill="#3F3D56"/>
<path d="M147.404 19.9406C149.654 19.2663 152.164 19.4448 154.295 20.3947C154.903 20.6643 155.478 20.9966 156.008 21.3854C156.158 21.496 156.371 21.2983 156.219 21.1866C154.262 19.7603 151.802 19.0828 149.334 19.2901C148.652 19.3475 147.978 19.4746 147.324 19.6694C147.141 19.7242 147.22 19.9958 147.404 19.9406H147.404Z" fill="#3F3D56"/>
<path d="M147.404 21.8157C149.654 21.1415 152.164 21.32 154.295 22.2698C154.903 22.5395 155.478 22.8717 156.008 23.2606C156.158 23.3711 156.371 23.1734 156.219 23.0617C154.262 21.6354 151.802 20.9579 149.334 21.1652C148.652 21.2226 147.978 21.3498 147.324 21.5445C147.141 21.5993 147.22 21.871 147.404 21.8157L147.404 21.8157Z" fill="#3F3D56"/>
<path d="M155.51 9.42347V14.6788C155.51 14.7683 155.344 14.8431 155.12 14.8633C155.081 14.867 155.04 14.8688 154.997 14.8688C154.874 14.8711 154.751 14.8522 154.634 14.8133C154.613 14.8054 154.592 14.7961 154.572 14.7853C154.516 14.7546 154.484 14.7183 154.484 14.6788V9.01819C154.667 9.07556 154.837 9.13569 154.997 9.19811C155.183 9.27063 155.353 9.34591 155.51 9.42347Z" fill="#ECA400"/>
<path d="M157.66 11.2255H157.514V28.2253H157.66V11.2255Z" fill="#F5F9E9"/>
<path d="M170.743 24.9249C170.592 25.0726 170.41 25.1888 170.207 25.2658C170.005 25.3428 169.788 25.3788 169.57 25.3717C168.892 25.3491 168.083 25.3379 167.205 25.3551L167.2 25.3511L171.006 20.7178L171.17 23.8069C171.186 24.0109 171.157 24.2159 171.083 24.4085C171.01 24.6011 170.894 24.7771 170.743 24.9249Z" fill="#F2F2F2"/>
<path d="M161.27 41.1184L161.067 42.666L160.912 43.8422L160.85 44.3168H159.968V43.8951L159.967 42.4998V41.1184H161.27Z" fill="#FFB6B6"/>
<path d="M155.119 40.9563L154.869 41.6817L154.668 42.2635L154.633 42.3635L154.496 42.7613L154.206 43.6026L154.061 44.0216L153.258 43.8759L153.194 43.8647L153.246 43.6118L153.278 43.4576L153.629 41.7486L153.686 41.4732L153.695 41.4289L153.721 41.3011L153.84 40.7246L154.695 40.8795L154.794 40.8974L155.119 40.9563Z" fill="#FFB6B6"/>
<path d="M162.596 31.9026C162.091 34.5072 161.965 35.6318 161.965 35.6318C161.965 35.6318 162.344 36.0461 162.091 36.2831C161.839 36.5201 162.091 36.9933 162.091 36.9933L161.524 42.7354L161.067 42.6659L159.967 42.4997L159.571 42.4395L159.823 37.0529C159.823 37.0529 159.571 36.579 159.697 36.4605C159.823 36.342 159.571 35.6318 159.571 35.6318L159.256 30.0082L157.302 36.1646C157.302 36.1646 157.491 36.4016 157.302 36.579C157.113 36.7564 156.735 37.6446 156.735 37.6446L155.573 41.4639L155.474 41.7882L154.868 41.6816L154.209 41.5651L154.088 41.544L153.872 41.5056L153.733 41.4811L153.686 41.4731L153.458 41.4327L153.527 41.1448L153.563 40.9932L154.546 36.8921L154.568 36.7974L154.592 36.6975C154.592 36.6975 154.466 36.4016 154.655 36.2235C154.71 36.1693 154.75 36.1032 154.772 36.031C154.794 35.9588 154.797 35.8827 154.781 35.8092C154.775 35.803 154.769 35.7963 154.764 35.7893C154.742 35.7605 154.726 35.7276 154.719 35.6927C154.702 35.6185 154.717 35.5146 154.844 35.3948C154.88 35.359 154.91 35.3184 154.934 35.2743C155.126 34.9335 155.222 34.2113 155.222 34.2113C155.222 34.2113 155.393 28.4918 155.951 27.618C155.973 27.5799 156.004 27.5471 156.042 27.5221C156.672 27.1673 162.721 27.5221 162.721 27.5221C162.721 27.5221 162.73 27.5631 162.743 27.6412C162.816 28.0801 163.024 29.6931 162.596 31.9026Z" fill="#2F2E41"/>
<path d="M162.397 21.395L162.574 20.3954L165.827 20.9096L170.443 21.2198C170.543 21.1157 170.676 21.0448 170.823 21.0176C170.969 20.9904 171.121 21.0084 171.256 21.0689C171.391 21.1294 171.501 21.2291 171.57 21.3533C171.64 21.4775 171.665 21.6194 171.642 21.758C171.618 21.8965 171.548 22.0243 171.441 22.1223C171.334 22.2203 171.197 22.2833 171.049 22.3019C170.901 22.3204 170.75 22.2936 170.62 22.2253C170.489 22.157 170.386 22.051 170.324 21.923L167.494 22.1019L162.397 21.395Z" fill="#FFB6B6"/>
<path d="M159.966 20.7031L160.196 19.8108C160.196 19.8108 161.443 19.5952 162.429 19.8015L166.139 20.4702L165.839 22.5767L159.966 20.7031Z" fill="#ECA400"/>
<path d="M151.355 28.0507L153.43 23.8155L154.945 20.8191L156.259 21.5453L152.169 28.5167C152.205 28.641 152.201 28.7725 152.158 28.8946C152.114 29.0166 152.033 29.1238 151.924 29.2026C151.816 29.2813 151.685 29.328 151.548 29.3369C151.411 29.3457 151.275 29.3162 151.156 29.2522C151.037 29.1882 150.941 29.0924 150.88 28.9771C150.819 28.8618 150.795 28.7321 150.813 28.6043C150.83 28.4766 150.888 28.3566 150.978 28.2595C151.068 28.1624 151.186 28.0926 151.319 28.0588C151.331 28.0558 151.343 28.053 151.355 28.0506L151.355 28.0507Z" fill="#FFB6B6"/>
<path d="M157.341 19.5352L156.334 19.1011C156.334 19.1011 156.155 19.0428 155.77 19.5439C155.385 20.0449 152.071 24.7723 152.071 24.7723L154.175 25.6658L157.341 19.5352Z" fill="#ECA400"/>
<path d="M161.071 16.8046C160.929 17.0502 160.731 17.2637 160.491 17.4302C160.252 17.5966 159.977 17.712 159.685 17.7683C159.653 17.7749 159.62 17.7802 159.587 17.7849C159.129 17.8521 158.661 17.7718 158.258 17.5571C157.855 17.3424 157.541 17.0059 157.367 16.6024C157.194 16.1988 157.171 15.752 157.302 15.3345C157.433 14.9171 157.711 14.5536 158.09 14.3033C158.469 14.0529 158.927 13.9304 159.389 13.9556C159.852 13.9809 160.292 14.1524 160.637 14.4424C160.983 14.7323 161.214 15.1235 161.293 15.5524C161.371 15.9813 161.293 16.4226 161.071 16.8046Z" fill="#FFB6B6"/>
<path d="M160.256 14.1879C159.584 13.7541 158.993 13.688 158.507 13.8111C158.444 13.7196 158.356 13.6459 158.252 13.598C157.873 12.7013 156.72 12.1628 155.73 12.4246C154.735 12.6881 154.047 13.7242 154.235 14.68C154.351 15.2724 154.748 15.7854 154.907 16.3688C155.217 17.4983 154.463 18.792 153.283 19.156C154.4 19.3667 155.629 18.726 156.03 17.7245C156.224 17.238 156.236 16.7069 156.261 16.1878C156.267 15.8295 156.314 15.4728 156.4 15.1237C156.443 14.9671 156.503 14.8152 156.581 14.6706C156.748 14.3528 157.027 14.0987 157.371 13.9507C157.34 14.04 157.332 14.1349 157.348 14.2275C157.364 14.3201 157.403 14.4079 157.463 14.4835C157.201 14.7916 157.058 15.1249 157.058 15.3244C156.514 16.2584 157.292 17.0606 158.286 17.5716C158.683 17.7765 159.141 17.8515 159.588 17.7848L159.63 17.618L159.686 17.7682L159.874 18.2719C160.091 18.3706 160.306 18.4787 160.52 18.5963C160.438 18.2388 160.373 17.8821 160.328 17.5332C160.265 17.0585 160.483 16.3516 160.64 15.9218C160.737 15.6569 160.787 15.3787 160.788 15.0984V15.0862L160.941 15.5475L161.498 15.3244C161.394 14.7664 161.498 14.133 160.256 14.1879Z" fill="#2F2E41"/>
<path d="M155.978 26.9895C156.052 26.7175 156.052 26.4327 155.978 26.1608C155.852 25.7464 156.104 25.5688 156.104 25.5688L156.167 19.1758C156.434 18.9257 157.147 18.9216 157.546 18.9411V18.6596C157.546 18.5559 157.59 18.4565 157.668 18.3832C157.746 18.3099 157.852 18.2687 157.962 18.2687H159.808C159.918 18.2687 160.024 18.3099 160.102 18.3832C160.18 18.4565 160.224 18.5559 160.224 18.6596V18.997L160.765 19.005C161.708 19.071 162.532 19.9453 162.532 19.9453L161.713 22.9051C161.713 22.9051 161.965 25.3321 162.28 25.628C162.596 25.924 162.469 26.1016 162.469 26.1016C162.469 26.1016 162.28 26.7527 162.659 26.9895C163.037 27.2263 162.785 27.6407 162.785 27.6407C162.785 27.6407 155.978 27.759 155.789 27.5815C155.6 27.4039 155.978 26.9895 155.978 26.9895Z" fill="#ECA400"/>
<path opacity="0.1" d="M135.006 45.3375C138.549 45.3375 141.42 44.905 141.42 44.3716C141.42 43.8381 138.549 43.4056 135.006 43.4056C131.464 43.4056 128.592 43.8381 128.592 44.3716C128.592 44.905 131.464 45.3375 135.006 45.3375Z" fill="#0B7A75"/>
<path d="M135.212 25.8673H134.799V34.5803H135.212V25.8673Z" fill="#F5F9E9"/>
<path d="M137.806 34.5538L137.781 34.9463L137.744 35.5018L137.729 35.7327L137.692 36.2881L137.677 36.519L137.64 37.0745L137.224 43.3742C137.206 43.6453 137.078 43.8997 136.867 44.0857C136.656 44.2716 136.377 44.3752 136.088 44.3753H133.924C133.634 44.3752 133.356 44.2716 133.145 44.0856C132.934 43.8996 132.807 43.6452 132.789 43.3742L132.372 37.0701L132.335 36.5146L132.32 36.2838L132.283 35.7283L132.268 35.4975L132.231 34.942L132.205 34.5495C132.2 34.4742 132.212 34.3989 132.24 34.3281C132.267 34.2573 132.31 34.1924 132.365 34.1375C132.42 34.0826 132.486 34.0388 132.56 34.0087C132.634 33.9786 132.713 33.9629 132.794 33.9625H137.219C137.299 33.963 137.379 33.9789 137.453 34.0092C137.527 34.0396 137.593 34.0839 137.649 34.1392C137.704 34.1946 137.746 34.2599 137.773 34.3312C137.8 34.4025 137.812 34.4783 137.806 34.5538Z" fill="#ECA400"/>
<path d="M137.781 34.9464L137.744 35.5001H132.268L132.231 34.9464H137.781Z" fill="#9D9CB5"/>
<path d="M137.729 35.7314L137.692 36.2857H132.32L132.283 35.7314H137.729Z" fill="#9D9CB5"/>
<path d="M137.677 36.5166L137.64 37.0702H132.372L132.335 36.5166H137.677Z" fill="#9D9CB5"/>
<path d="M131.601 29.133C134.005 30.7637 135.006 33.3139 135.006 33.3139C135.006 33.3139 132.11 33.2207 129.705 31.5901C127.3 29.9594 126.3 27.4098 126.3 27.4098C126.3 27.4098 129.197 27.503 131.601 29.133Z" fill="#0B7A75"/>
<path d="M126.3 27.4098C126.3 27.4098 129.307 28.9725 130.271 30.2687C131.235 31.5648 135.005 33.3127 135.005 33.3127" stroke="#F5F9E9" stroke-width="2" stroke-miterlimit="10"/>
<path d="M133.152 25.8482C134.461 26.7351 135.006 28.1238 135.006 28.1238C135.006 28.1238 133.426 28.0726 132.121 27.1856C130.815 26.2987 130.271 24.91 130.271 24.91C130.271 24.91 131.844 24.9606 133.152 25.8482Z" fill="#0B7A75"/>
<path d="M130.271 24.91C130.271 24.91 131.907 25.7618 132.432 26.4666C132.957 27.1715 135.009 28.1238 135.009 28.1238" stroke="#F5F9E9" stroke-width="2" stroke-miterlimit="10"/>
<path d="M136.907 28.0529C135.405 29.6014 135.086 31.6265 135.086 31.6265C135.086 31.6265 137.205 31.1389 138.707 29.5897C140.208 28.0405 140.527 26.0173 140.527 26.0173C140.527 26.0173 138.41 26.5037 136.907 28.0529Z" fill="#0B7A75"/>
<path d="M140.529 26.0167C140.529 26.0167 138.571 27.6042 138.073 28.6978C137.576 29.7915 135.086 31.6265 135.086 31.6265" stroke="#F5F9E9" stroke-width="2" stroke-miterlimit="10"/>
<path d="M162.251 45.0823L160.94 44.2311V43.6758L160.753 43.6864L159.809 43.7393L159.56 43.7532L159.388 45.6873L159.386 45.7145H160.005L160.011 45.6873L160.116 45.1651L160.384 45.6873L160.398 45.7145H162.042C162.091 45.7143 162.14 45.7051 162.185 45.6873C162.246 45.6631 162.299 45.624 162.339 45.574C162.378 45.524 162.402 45.4649 162.409 45.4031C162.416 45.3412 162.405 45.2788 162.377 45.2224C162.349 45.1659 162.306 45.1176 162.251 45.0823H162.251Z" fill="#2F2E41"/>
<path d="M168.359 45.766C168.359 45.7764 168.357 45.7866 168.353 45.7962C168.349 45.8058 168.343 45.8145 168.335 45.8218C168.327 45.8291 168.318 45.8349 168.308 45.8389C168.297 45.8428 168.287 45.8448 168.276 45.8448H148.524C148.502 45.8448 148.48 45.8365 148.465 45.8217C148.449 45.807 148.44 45.7869 148.44 45.766C148.44 45.7451 148.449 45.7251 148.465 45.7103C148.48 45.6956 148.502 45.6873 148.524 45.6873H168.276C168.287 45.6872 168.297 45.6892 168.308 45.6932C168.318 45.6971 168.327 45.7029 168.335 45.7103C168.343 45.7176 168.349 45.7263 168.353 45.7358C168.357 45.7454 168.359 45.7557 168.359 45.766Z" fill="#CCCCCC"/>
<path d="M155.457 45.0355L154.886 44.4503L154.487 44.0413L154.421 43.9738L154.411 43.9638L154.38 43.9314L154.511 43.39L154.247 43.3489L153.319 43.204L153.269 43.1967L153.17 43.1808L153.148 43.1775L152.831 44.1141L152.545 44.9607L152.514 45.0533L152.895 45.1348L153.118 45.1824L153.228 44.9455L153.24 44.9203L153.311 44.7648V44.7641L153.356 44.6701L153.502 45.2645L153.527 45.2698L153.531 45.2705L153.62 45.2896L153.795 45.3274L155.017 45.5895L155.103 45.608C155.199 45.628 155.299 45.6117 155.382 45.5628C155.464 45.5138 155.523 45.4361 155.545 45.3466C155.559 45.2919 155.557 45.235 155.542 45.1808C155.527 45.1266 155.498 45.0767 155.457 45.0355Z" fill="#2F2E41"/>
</svg>
