<svg width="48" height="48" viewBox="0 0 48 48" fill="none" xmlns="http://www.w3.org/2000/svg">
<g clip-path="url(#clip0_80_1145)">
<g filter="url(#filter0_d_80_1145)">
<path d="M23.91 3.81C23.8688 3.8175 23.8275 3.82875 23.79 3.84C23.3438 3.94125 23.0288 4.3425 23.04 4.8V10.56C23.0363 10.905 23.2163 11.2275 23.5163 11.4038C23.8163 11.5763 24.1838 11.5763 24.4838 11.4038C24.7838 11.2275 24.9638 10.905 24.96 10.56V4.8C24.9713 4.5225 24.8588 4.25625 24.66 4.06875C24.4575 3.8775 24.1838 3.78375 23.91 3.81ZM10.23 9.45C9.87001 9.51375 9.58126 9.77625 9.48001 10.125C9.37876 10.4775 9.48376 10.8525 9.75001 11.1L13.83 15.18C14.0625 15.465 14.4338 15.5963 14.7938 15.5138C15.15 15.4313 15.4313 15.15 15.5138 14.7938C15.5963 14.4338 15.465 14.0625 15.18 13.83L11.1 9.75C10.9013 9.53625 10.6125 9.4275 10.32 9.45C10.29 9.45 10.26 9.45 10.23 9.45ZM37.47 9.45C37.2525 9.48 37.05 9.58875 36.9 9.75L32.82 13.83C32.535 14.0625 32.4038 14.4338 32.4863 14.7938C32.5688 15.15 32.85 15.4313 33.2063 15.5138C33.5663 15.5963 33.9375 15.465 34.17 15.18L38.25 11.1C38.55 10.815 38.6363 10.3688 38.46 9.99375C38.28 9.615 37.8825 9.3975 37.47 9.45ZM23.91 14.4C23.88 14.4075 23.85 14.4188 23.82 14.43C23.76 14.4338 23.7 14.445 23.64 14.46C23.6288 14.4713 23.6213 14.4788 23.61 14.49C18.5175 14.7075 14.4 18.855 14.4 24C14.4 29.2838 18.7163 33.6 24 33.6C29.2838 33.6 33.6 29.2838 33.6 24C33.6 18.8738 29.5163 14.7413 24.45 14.49C24.4163 14.49 24.3938 14.46 24.36 14.46C24.2625 14.4225 24.1613 14.4038 24.06 14.4C24.0413 14.4 24.0188 14.4 24 14.4C23.97 14.4 23.94 14.4 23.91 14.4ZM23.94 16.32C23.9588 16.32 23.9813 16.32 24 16.32C24.03 16.32 24.06 16.32 24.09 16.32C28.29 16.3688 31.68 19.7888 31.68 24C31.68 28.245 28.245 31.68 24 31.68C19.7588 31.68 16.32 28.245 16.32 24C16.32 19.7775 19.725 16.3538 23.94 16.32ZM4.53001 23.04C4.00126 23.115 3.63001 23.6063 3.70501 24.135C3.78001 24.6638 4.27126 25.035 4.80001 24.96H10.56C10.905 24.9638 11.2275 24.7838 11.4038 24.4838C11.5763 24.1838 11.5763 23.8163 11.4038 23.5163C11.2275 23.2163 10.905 23.0363 10.56 23.04H4.80001C4.77001 23.04 4.74001 23.04 4.71001 23.04C4.68001 23.04 4.65001 23.04 4.62001 23.04C4.59001 23.04 4.56001 23.04 4.53001 23.04ZM37.17 23.04C36.6413 23.115 36.27 23.6063 36.345 24.135C36.42 24.6638 36.9113 25.035 37.44 24.96H43.2C43.545 24.9638 43.8675 24.7838 44.0438 24.4838C44.2163 24.1838 44.2163 23.8163 44.0438 23.5163C43.8675 23.2163 43.545 23.0363 43.2 23.04H37.44C37.41 23.04 37.38 23.04 37.35 23.04C37.32 23.04 37.29 23.04 37.26 23.04C37.23 23.04 37.2 23.04 37.17 23.04ZM14.4 32.52C14.1825 32.55 13.98 32.6588 13.83 32.82L9.75001 36.9C9.46501 37.1325 9.33376 37.5038 9.41626 37.8638C9.49876 38.22 9.78001 38.5013 10.1363 38.5838C10.4963 38.6663 10.8675 38.535 11.1 38.25L15.18 34.17C15.465 33.8963 15.5513 33.4725 15.3975 33.1088C15.2475 32.745 14.8838 32.5125 14.49 32.52C14.46 32.52 14.43 32.52 14.4 32.52ZM33.3 32.52C32.94 32.5838 32.6513 32.8463 32.55 33.195C32.4488 33.5475 32.5538 33.9225 32.82 34.17L36.9 38.25C37.1325 38.535 37.5038 38.6663 37.8638 38.5838C38.22 38.5013 38.5013 38.22 38.5838 37.8638C38.6663 37.5038 38.535 37.1325 38.25 36.9L34.17 32.82C33.99 32.6288 33.7425 32.5238 33.48 32.52C33.45 32.52 33.42 32.52 33.39 32.52C33.36 32.52 33.33 32.52 33.3 32.52ZM23.91 36.45C23.8688 36.4575 23.8275 36.4688 23.79 36.48C23.3438 36.5813 23.0288 36.9825 23.04 37.44V43.2C23.0363 43.545 23.2163 43.8675 23.5163 44.0438C23.8163 44.2163 24.1838 44.2163 24.4838 44.0438C24.7838 43.8675 24.9638 43.545 24.96 43.2V37.44C24.9713 37.1625 24.8588 36.8963 24.66 36.7088C24.4575 36.5175 24.1838 36.4238 23.91 36.45Z" fill="#F5F9E9"/>
</g>
</g>
<defs>
<filter id="filter0_d_80_1145" x="-0.304626" y="3.80566" width="48.4778" height="48.3674" filterUnits="userSpaceOnUse" color-interpolation-filters="sRGB">
<feFlood flood-opacity="0" result="BackgroundImageFix"/>
<feColorMatrix in="SourceAlpha" type="matrix" values="0 0 0 0 0 0 0 0 0 0 0 0 0 0 0 0 0 0 127 0" result="hardAlpha"/>
<feOffset dy="4"/>
<feGaussianBlur stdDeviation="2"/>
<feComposite in2="hardAlpha" operator="out"/>
<feColorMatrix type="matrix" values="0 0 0 0 0 0 0 0 0 0 0 0 0 0 0 0 0 0 0.25 0"/>
<feBlend mode="normal" in2="BackgroundImageFix" result="effect1_dropShadow_80_1145"/>
<feBlend mode="normal" in="SourceGraphic" in2="effect1_dropShadow_80_1145" result="shape"/>
</filter>
<clipPath id="clip0_80_1145">
<rect width="48" height="48" fill="white"/>
</clipPath>
</defs>
</svg>
